<svg xmlns="http://www.w3.org/2000/svg" width="59.012" height="59.003" viewBox="0 0 59.012 59.003">
  <path id="house" d="M45.181,59.04H13.831A13.847,13.847,0,0,1,0,45.209V25.815a13.911,13.911,0,0,1,5.443-11L21.118,2.862a13.864,13.864,0,0,1,16.775,0l4.982,3.8V3.717a2.305,2.305,0,0,1,4.61,0v7.6a2.305,2.305,0,0,1-3.7,1.834L35.1,6.529a9.243,9.243,0,0,0-11.184,0L8.239,18.484A9.273,9.273,0,0,0,4.61,25.815V45.209a9.231,9.231,0,0,0,9.221,9.221h31.35A9.231,9.231,0,0,0,54.4,45.209V25.815a9.28,9.28,0,0,0-3.588-7.357,2.305,2.305,0,1,1,2.8-3.666,13.916,13.916,0,0,1,5.4,11.022V45.209A13.847,13.847,0,0,1,45.181,59.04ZM24.9,26.653a2.881,2.881,0,1,0,2.881,2.881A2.881,2.881,0,0,0,24.9,26.653ZM37,29.534a2.881,2.881,0,0,1-5.763,0A2.881,2.881,0,0,1,37,29.534Zm-9.221,9.221a2.881,2.881,0,0,1-5.763,0A2.881,2.881,0,0,1,27.777,38.755Zm9.221,0a2.881,2.881,0,0,1-5.763,0A2.881,2.881,0,0,1,37,38.755Z" transform="translate(0 -0.037)" fill="#444"/>
</svg>
