<svg xmlns="http://www.w3.org/2000/svg" width="65.264" height="49.713" viewBox="0 0 65.264 49.713">
  <path id="land" d="M65.264,24.793a2.4,2.4,0,0,0-1.414-2.184l-4.963-2.228,4.964-2.228a2.394,2.394,0,0,0,0-4.368L43.308,4.563l-.051-.023L33.613.211a2.392,2.392,0,0,0-1.961,0h0L1.413,13.784a2.395,2.395,0,0,0,0,4.369l4.963,2.228L1.413,22.609a2.394,2.394,0,0,0,0,4.368l5.106,2.292L1.413,31.562a2.394,2.394,0,0,0,0,4.368L31.652,49.5a2.394,2.394,0,0,0,1.96,0L63.851,35.93a2.394,2.394,0,0,0,0-4.368l-5.106-2.292,5.106-2.292a2.4,2.4,0,0,0,1.413-2.184ZM22.825,8.364l5.2,2.334-5.586,2.508-5.123-2.368Zm9.867,4.43,5.653,2.538-5.654,2.613-5.653-2.613ZM48.01,10.866l-5.064,2.34L37.36,10.7,42.5,8.391ZM28.133,20.052l-6.48,3-5.9-2.648,6.661-2.99Zm4.558,2.106L39.046,25.1l-6.414,2.879-6.355-2.852Zm10.979.862-6.422-2.968,5.72-2.643,6.6,2.964Zm10.568-4.744L47.57,15.282l5.064-2.341,6.745,3.028ZM32.632,3.962,37.83,6.3,32.692,8.6l-5.2-2.334ZM12.689,12.915l5.123,2.368L11.085,18.3l-5.2-2.334ZM59.378,33.746,32.632,45.752,5.885,33.746l5.3-2.38,20.465,9.186a2.4,2.4,0,0,0,1.959,0l20.464-9.186ZM32.632,36.8,5.885,24.793l5.16-2.316,20.606,9.25a2.391,2.391,0,0,0,1.96,0l20.607-9.25,5.16,2.316Zm0,0" transform="translate(0 -0.001)" fill="#444"/>
</svg>
