<svg xmlns="http://www.w3.org/2000/svg" width="59.712" height="65.609" viewBox="0 0 59.712 65.609">
  <g id="skyline" transform="translate(-23.011)">
    <g id="Group_450" data-name="Group 450" transform="translate(23.011)">
      <g id="Group_449" data-name="Group 449" transform="translate(0)">
        <path id="Path_1089" data-name="Path 1089" d="M81.617,63.4H79.774V5.529a1.106,1.106,0,0,0-1.106-1.106H58.027a1.106,1.106,0,0,0-1.106,1.106v4.792H54.71V5.529A1.106,1.106,0,0,0,53.6,4.423H48.813V1.106a1.106,1.106,0,1,0-2.211,0V4.423H41.809A1.106,1.106,0,0,0,40.7,5.529v4.792H37.386a1.106,1.106,0,0,0-1.106,1.106v9.215H27.066a1.106,1.106,0,0,0-1.106,1.106V63.4H24.117a1.106,1.106,0,0,0,0,2.212h57.5a1.106,1.106,0,1,0,0-2.211ZM42.915,6.635H52.5v3.686H42.915ZM39.229,63.4h-.737V61.555a1.106,1.106,0,0,0-2.211,0V63.4h-.737V59.712h3.686ZM46.6,35.016V63.4h-5.16V58.606A1.106,1.106,0,0,0,40.335,57.5h-5.9a1.106,1.106,0,0,0-1.106,1.106V63.4h-5.16V22.853H46.6V35.016Zm1.106-14.375H38.492V12.532h18.43V33.91H48.813V30.225H52.13a1.106,1.106,0,0,0,0-2.211H48.813V24.327H52.13a1.106,1.106,0,0,0,0-2.211H48.813v-.369A1.106,1.106,0,0,0,47.707,20.641ZM67.242,63.4H48.813V36.122h18.43Zm10.321,0H69.454V33.542a1.106,1.106,0,1,0-2.211,0v.369H65.031v-.369a1.106,1.106,0,1,0-2.211,0v.369H59.133V6.635h18.43V63.4Z" transform="translate(-23.011)" fill="#444"/>
        <path id="Path_1090" data-name="Path 1090" d="M254.23,322a1.106,1.106,0,0,0,1.106-1.106V300.255a1.106,1.106,0,1,0-2.211,0V320.9A1.106,1.106,0,0,0,254.23,322Z" transform="translate(-223.637 -260.815)" fill="#444"/>
        <path id="Path_1091" data-name="Path 1091" d="M288.747,322a1.106,1.106,0,0,0,1.106-1.106V300.255a1.106,1.106,0,1,0-2.211,0V320.9A1.106,1.106,0,0,0,288.747,322Z" transform="translate(-253.73 -260.815)" fill="#444"/>
        <path id="Path_1092" data-name="Path 1092" d="M323.263,322a1.106,1.106,0,0,0,1.106-1.106V300.255a1.106,1.106,0,0,0-2.211,0V320.9A1.106,1.106,0,0,0,323.263,322Z" transform="translate(-283.823 -260.815)" fill="#444"/>
        <path id="Path_1093" data-name="Path 1093" d="M334.769,84.226a1.106,1.106,0,0,0,1.106-1.106V81.646a1.106,1.106,0,1,0-2.211,0V83.12A1.106,1.106,0,0,0,334.769,84.226Z" transform="translate(-293.855 -70.219)" fill="#444"/>
        <path id="Path_1094" data-name="Path 1094" d="M369.286,84.226a1.106,1.106,0,0,0,1.106-1.106V81.646a1.106,1.106,0,0,0-2.211,0V83.12A1.106,1.106,0,0,0,369.286,84.226Z" transform="translate(-323.949 -70.219)" fill="#444"/>
        <path id="Path_1095" data-name="Path 1095" d="M403.8,84.226a1.106,1.106,0,0,0,1.106-1.106V81.646a1.106,1.106,0,0,0-2.212,0V83.12A1.106,1.106,0,0,0,403.8,84.226Z" transform="translate(-354.043 -70.219)" fill="#444"/>
        <path id="Path_1096" data-name="Path 1096" d="M334.769,141.753a1.106,1.106,0,0,0,1.106-1.106v-1.474a1.106,1.106,0,1,0-2.211,0v1.474A1.106,1.106,0,0,0,334.769,141.753Z" transform="translate(-293.855 -120.375)" fill="#444"/>
        <path id="Path_1097" data-name="Path 1097" d="M369.286,141.753a1.106,1.106,0,0,0,1.106-1.106v-1.474a1.106,1.106,0,0,0-2.211,0v1.474A1.106,1.106,0,0,0,369.286,141.753Z" transform="translate(-323.949 -120.375)" fill="#444"/>
        <path id="Path_1098" data-name="Path 1098" d="M403.8,141.753a1.106,1.106,0,0,0,1.106-1.106v-1.474a1.106,1.106,0,0,0-2.212,0v1.474A1.106,1.106,0,0,0,403.8,141.753Z" transform="translate(-354.043 -120.375)" fill="#444"/>
        <path id="Path_1099" data-name="Path 1099" d="M334.769,199.282a1.106,1.106,0,0,0,1.106-1.106V196.7a1.106,1.106,0,1,0-2.211,0v1.474A1.106,1.106,0,0,0,334.769,199.282Z" transform="translate(-293.855 -170.532)" fill="#444"/>
        <path id="Path_1100" data-name="Path 1100" d="M369.286,199.282a1.106,1.106,0,0,0,1.106-1.106V196.7a1.106,1.106,0,0,0-2.211,0v1.474A1.106,1.106,0,0,0,369.286,199.282Z" transform="translate(-323.949 -170.532)" fill="#444"/>
        <path id="Path_1101" data-name="Path 1101" d="M403.8,199.282a1.106,1.106,0,0,0,1.106-1.106V196.7a1.106,1.106,0,0,0-2.212,0v1.474A1.106,1.106,0,0,0,403.8,199.282Z" transform="translate(-354.043 -170.532)" fill="#444"/>
        <path id="Path_1102" data-name="Path 1102" d="M93.151,222.293a1.106,1.106,0,0,0,1.106-1.106v-1.474a1.106,1.106,0,0,0-2.211,0v1.474A1.106,1.106,0,0,0,93.151,222.293Z" transform="translate(-83.199 -190.594)" fill="#444"/>
        <path id="Path_1103" data-name="Path 1103" d="M127.668,222.293a1.106,1.106,0,0,0,1.106-1.106v-1.474a1.106,1.106,0,1,0-2.211,0v1.474A1.106,1.106,0,0,0,127.668,222.293Z" transform="translate(-113.293 -190.594)" fill="#444"/>
        <path id="Path_1104" data-name="Path 1104" d="M162.185,222.293a1.106,1.106,0,0,0,1.106-1.106v-1.474a1.106,1.106,0,1,0-2.211,0v1.474A1.106,1.106,0,0,0,162.185,222.293Z" transform="translate(-143.387 -190.594)" fill="#444"/>
        <path id="Path_1105" data-name="Path 1105" d="M93.151,279.821a1.106,1.106,0,0,0,1.106-1.106v-1.474a1.106,1.106,0,1,0-2.211,0v1.474A1.106,1.106,0,0,0,93.151,279.821Z" transform="translate(-83.199 -240.75)" fill="#444"/>
        <path id="Path_1106" data-name="Path 1106" d="M127.668,279.821a1.106,1.106,0,0,0,1.106-1.106v-1.474a1.106,1.106,0,1,0-2.211,0v1.474A1.106,1.106,0,0,0,127.668,279.821Z" transform="translate(-113.293 -240.75)" fill="#444"/>
        <path id="Path_1107" data-name="Path 1107" d="M162.185,279.821a1.106,1.106,0,0,0,1.106-1.106v-1.474a1.106,1.106,0,1,0-2.211,0v1.474A1.106,1.106,0,0,0,162.185,279.821Z" transform="translate(-143.387 -240.75)" fill="#444"/>
        <path id="Path_1108" data-name="Path 1108" d="M93.151,337.349a1.106,1.106,0,0,0,1.106-1.106v-1.474a1.106,1.106,0,0,0-2.211,0v1.474A1.106,1.106,0,0,0,93.151,337.349Z" transform="translate(-83.199 -290.906)" fill="#444"/>
        <path id="Path_1109" data-name="Path 1109" d="M127.668,337.349a1.106,1.106,0,0,0,1.106-1.106v-1.474a1.106,1.106,0,0,0-2.211,0v1.474A1.106,1.106,0,0,0,127.668,337.349Z" transform="translate(-113.293 -290.906)" fill="#444"/>
        <path id="Path_1110" data-name="Path 1110" d="M162.185,337.349a1.106,1.106,0,0,0,1.106-1.106v-1.474a1.106,1.106,0,1,0-2.211,0v1.474A1.106,1.106,0,0,0,162.185,337.349Z" transform="translate(-143.387 -290.906)" fill="#444"/>
        <path id="Path_1111" data-name="Path 1111" d="M93.151,394.877a1.106,1.106,0,0,0,1.106-1.106V392.3a1.106,1.106,0,0,0-2.211,0v1.474A1.106,1.106,0,0,0,93.151,394.877Z" transform="translate(-83.199 -341.062)" fill="#444"/>
        <path id="Path_1112" data-name="Path 1112" d="M127.668,394.877a1.106,1.106,0,0,0,1.106-1.106V392.3a1.106,1.106,0,1,0-2.211,0v1.474A1.106,1.106,0,0,0,127.668,394.877Z" transform="translate(-113.293 -341.062)" fill="#444"/>
        <path id="Path_1113" data-name="Path 1113" d="M162.185,394.877a1.106,1.106,0,0,0,1.106-1.106V392.3a1.106,1.106,0,1,0-2.211,0v1.474A1.106,1.106,0,0,0,162.185,394.877Z" transform="translate(-143.387 -341.062)" fill="#444"/>
        <path id="Path_1114" data-name="Path 1114" d="M403.8,256.81a1.106,1.106,0,0,0,1.106-1.106V254.23a1.106,1.106,0,0,0-2.212,0V255.7A1.106,1.106,0,0,0,403.8,256.81Z" transform="translate(-354.043 -220.688)" fill="#444"/>
        <path id="Path_1115" data-name="Path 1115" d="M403.8,314.338a1.106,1.106,0,0,0,1.106-1.106v-1.474a1.106,1.106,0,0,0-2.212,0v1.474A1.106,1.106,0,0,0,403.8,314.338Z" transform="translate(-354.043 -270.844)" fill="#444"/>
        <path id="Path_1116" data-name="Path 1116" d="M403.8,371.866a1.106,1.106,0,0,0,1.106-1.106v-1.474a1.106,1.106,0,0,0-2.212,0v1.474A1.106,1.106,0,0,0,403.8,371.866Z" transform="translate(-354.043 -321)" fill="#444"/>
        <path id="Path_1117" data-name="Path 1117" d="M403.8,429.394a1.106,1.106,0,0,0,1.106-1.106v-1.474a1.106,1.106,0,0,0-2.212,0v1.474A1.106,1.106,0,0,0,403.8,429.394Z" transform="translate(-354.043 -371.156)" fill="#444"/>
        <path id="Path_1118" data-name="Path 1118" d="M183.642,127.668a1.106,1.106,0,0,0-1.106-1.106H173.69a1.106,1.106,0,0,0,0,2.211h8.846A1.106,1.106,0,0,0,183.642,127.668Z" transform="translate(-153.417 -110.344)" fill="#444"/>
      </g>
    </g>
  </g>
</svg>
