<svg xmlns="http://www.w3.org/2000/svg" width="57.637" height="57.145" viewBox="0 0 57.637 57.145">
  <g id="deal" transform="translate(-2 -2)">
    <path id="Path_1411" data-name="Path 1411" d="M31.857,21.572a.953.953,0,0,1-.952-.952H29A2.853,2.853,0,0,0,30.9,23.3v1.128h1.9V23.3a2.85,2.85,0,0,0-.952-5.539.952.952,0,1,1,.952-.952h1.9a2.853,2.853,0,0,0-1.9-2.682V13H30.9v1.128a2.85,2.85,0,0,0,.952,5.539.952.952,0,0,1,0,1.9Z" transform="translate(-1.284 -0.523)" fill="#444"/>
    <path id="Path_1412" data-name="Path 1412" d="M31.524,28.049A9.524,9.524,0,1,0,22,18.524,9.535,9.535,0,0,0,31.524,28.049Zm0-17.144a7.62,7.62,0,1,1-7.62,7.62A7.628,7.628,0,0,1,31.524,10.9Z" transform="translate(-0.951 -0.333)" fill="#444"/>
    <path id="Path_1413" data-name="Path 1413" d="M53.572,48.248a.954.954,0,0,0,.842.507.957.957,0,0,0,.491-.136l4.762-2.857-.98-1.633-3.9,2.34L47.141,32.026l6.747-3.374-.852-1.7-7.62,3.81a.953.953,0,0,0-.416,1.3l.6,1.124-.891.644c-1.074.781-3.229,2.347-3.951,2.717l-4.38-1.094a5.016,5.016,0,0,0-4.209.856l-5.215-.869a.961.961,0,0,0-.313,0l-5.369.894L17.18,33.876a.943.943,0,0,0,.04-.659.953.953,0,0,0-.517-.571l-8.572-3.81-.773,1.741,7.616,3.385-7.65,13.6-3.988-1.6-.708,1.769,4.762,1.9a.964.964,0,0,0,.354.069.954.954,0,0,0,.831-.486l.066-.117,7,2.333a1.889,1.889,0,0,0,.349.443l1.129,1.026a1.888,1.888,0,0,0,.888.45,1.9,1.9,0,0,0,.524.833l1.13,1.026a1.9,1.9,0,0,0,.888.451,1.906,1.906,0,0,0,.524.834L22.2,57.528a1.881,1.881,0,0,0,.888.449,1.9,1.9,0,0,0,.524.833l1.131,1.028a1.909,1.909,0,0,0,2.617-.052l1.417-1.4,3.382,1.392A2.713,2.713,0,0,0,36.3,57.317c.047,0,.092.01.139.01a2.734,2.734,0,0,0,2.278-1.215,2.706,2.706,0,0,0,.441-1.652c.047,0,.092.01.139.01a2.734,2.734,0,0,0,2.278-1.215,2.667,2.667,0,0,0,.308-.658,2.722,2.722,0,0,0,3.5-.919c.013-.02.02-.042.033-.062l7.986-3.687ZM18.4,51.5l-1.13-1.027,1.52-1.5a.761.761,0,0,1,1.047-.021.761.761,0,0,1,.023,1.106Zm2.541,2.309-1.129-1.026,1.52-1.5a.761.761,0,0,1,1.047-.021.751.751,0,0,1,.25.549.762.762,0,0,1-.227.558Zm2.617,2.237h0l-.075.074-1.131-1.026,1.52-1.5a.762.762,0,0,1,1.071,1.086Zm3.926.946-1.46,1.438L24.893,57.4l1.52-1.5a.762.762,0,1,1,1.07,1.085ZM43.8,50.62a.831.831,0,0,1-1.151.228L36.82,46.994l-1.028,1.6,4.257,2.815a.82.82,0,0,1-1.209,1.014c-.033-.022-4.957-2.472-4.957-2.472l-.9,1.675,4.01,2.344a.828.828,0,0,1-1.007,1.31c-.033-.022-4.957-2.472-4.957-2.472l-.9,1.675,4.01,2.344a.828.828,0,0,1-1.007,1.31c-.052-.034-3.535-1.476-3.535-1.476a2.587,2.587,0,0,0,.023-.271,2.68,2.68,0,0,0-.873-1.92,2.643,2.643,0,0,0-1.7-.682,2.619,2.619,0,0,0-2.541-2.31,2.616,2.616,0,0,0-2.542-2.311,2.65,2.65,0,0,0-4.5-1.554l-1.521,1.5a1.908,1.908,0,0,0-.261.327L9.587,47.415,16.261,35.55l4.323,2.593a.95.95,0,0,0,.491.136.972.972,0,0,0,.157-.013l5.561-.927,3.651.609L27.7,40.695a3.088,3.088,0,0,0,0,4.367,2.863,2.863,0,0,0,4,.041l2.506-2,9.414,6.41a.833.833,0,0,1,.18,1.112Zm1.909-1.238a2.813,2.813,0,0,0-.968-1.413l-8.98-6.116.664-.531-1.19-1.488s-4.816,3.855-4.841,3.88a.951.951,0,0,1-1.347,0,1.182,1.182,0,0,1,0-1.673l3.934-3.934a3.121,3.121,0,0,1,2.934-.813l4.634,1.158c.631.161,1.157-.09,5.28-3.087.225-.164.454-.33.67-.485l6.014,11.361Z" transform="translate(-0.03 -1.187)" fill="#444"/>
    <path id="Path_1414" data-name="Path 1414" d="M59.762,9.667A.953.953,0,0,0,60.7,8.9l.952-4.762a.951.951,0,0,0-1.12-1.12l-4.762.952a.952.952,0,0,0-.487,1.607l3.81,3.81a.95.95,0,0,0,.672.279Zm-.262-4.5-.323,1.616L57.885,5.49Z" transform="translate(-2.521 -0.048)" fill="#444"/>
    <path id="Path_1415" data-name="Path 1415" d="M31,2h1.9V5.81H31Z" transform="translate(-1.379)" fill="#444"/>
    <path id="Path_1416" data-name="Path 1416" d="M0,0H3.81V1.9H0Z" transform="translate(35.608 7.042) rotate(-45)" fill="#444"/>
    <path id="Path_1417" data-name="Path 1417" d="M0,0H1.9V3.81H0Z" transform="translate(21.325 5.697) rotate(-45)" fill="#444"/>
    <path id="Path_1418" data-name="Path 1418" d="M54,9h1.9v1.9H54Z" transform="translate(-2.473 -0.333)" fill="#444"/>
    <path id="Path_1419" data-name="Path 1419" d="M51,12h1.9v1.9H51Z" transform="translate(-2.33 -0.476)" fill="#444"/>
    <path id="Path_1420" data-name="Path 1420" d="M48,15h1.9v1.9H48Z" transform="translate(-2.188 -0.618)" fill="#444"/>
    <path id="Path_1421" data-name="Path 1421" d="M44,15h1.9v1.9H44Z" transform="translate(-1.997 -0.618)" fill="#444"/>
    <path id="Path_1422" data-name="Path 1422" d="M18,18h1.9v1.9H18Z" transform="translate(-0.761 -0.761)" fill="#444"/>
    <path id="Path_1423" data-name="Path 1423" d="M14,18h1.9v1.9H14Z" transform="translate(-0.571 -0.761)" fill="#444"/>
    <path id="Path_1424" data-name="Path 1424" d="M10,20h1.9v1.9H10Z" transform="translate(-0.38 -0.856)" fill="#444"/>
    <path id="Path_1425" data-name="Path 1425" d="M6,22H7.9v1.9H6Z" transform="translate(-0.19 -0.951)" fill="#444"/>
    <path id="Path_1426" data-name="Path 1426" d="M2,24H3.9v1.9H2Z" transform="translate(0 -1.046)" fill="#444"/>
  </g>
</svg>
