<svg xmlns="http://www.w3.org/2000/svg" width="61.86" height="73.767" viewBox="0 0 61.86 73.767">
  <g id="Group_684" data-name="Group 684" transform="translate(-428.069 -822.316)">
    <path id="positive-vote" d="M45.047,19.843a3.318,3.318,0,0,0-2.055-1.414,3.337,3.337,0,0,0-2.225-4.81,3.345,3.345,0,0,0-.173-3.4A3.315,3.315,0,0,0,38.54,8.806a3.34,3.34,0,0,0-4.8-4.338l-3.325,2.2A20.781,20.781,0,0,0,24.8,4.77a15.439,15.439,0,0,0-2.143-2.592L21.28.844a3.01,3.01,0,0,0-4.605,3.823q.054.082.106.165a20.957,20.957,0,0,0-3.842,39.9,9.532,9.532,0,0,0,1.852-.846l5.86-3.881h0l4.87-3.225h0a1.965,1.965,0,0,0,.553-2.722l-.064-.1.946-.627a3.208,3.208,0,0,1,2.286-.494,4.644,4.644,0,0,0,3.31-.716l7.847-5.2a15.86,15.86,0,0,1,1.495-.99l2.211-1.464a3.341,3.341,0,0,0,.941-4.63ZM29.014,7.6l-2.2,1.457L26.38,7.886a15.414,15.414,0,0,0-.618-1.432A19.333,19.333,0,0,1,29.014,7.6ZM6.207,12.589A19.513,19.513,0,0,1,17.47,6.167a8.9,8.9,0,0,1,.449,5.389l-1.756,7.586a1.961,1.961,0,0,0-2.514-.293L8.675,22.143h0L1.5,26.895c-.039-.506-.06-1.016-.06-1.526a19.506,19.506,0,0,1,4.767-12.78ZM24.951,35.246a.522.522,0,0,1-.225.333h0L20.45,38.411l-7.939-11.84a.72.72,0,0,0-1.2.8l7.934,11.833-6.106,4.044A19.572,19.572,0,0,1,1.688,28.47l7.182-4.741L9.7,24.962a.72.72,0,0,0,1.2-.8l-.821-1.225,4.371-2.885a.524.524,0,0,1,.726.148l9.7,14.654a.519.519,0,0,1,.076.393Zm19.172-13.18a1.887,1.887,0,0,1-.813,1.206l-2.528,1.674h0l-9.022,5.975a3.206,3.206,0,0,1-2.286.494,4.646,4.646,0,0,0-3.31.716l-.946.627-7.948-12,2.055-8.875a10.348,10.348,0,0,0-.758-6.793.706.706,0,0,0-.03-.064,10.188,10.188,0,0,0-.659-1.152,1.57,1.57,0,0,1,2.4-1.994l1.376,1.334A14.072,14.072,0,0,1,25.03,8.387l.749,2.018,0,.011.006.014c.005.012.01.024.016.033a.711.711,0,0,0,.049.089.72.72,0,0,0,1,.2l7.682-5.087a1.9,1.9,0,1,1,2.1,3.169l-.667.442h0l-1.487.985-.006,0-.023.017a.72.72,0,0,0,.824,1.18l1.488-.986a1.9,1.9,0,0,1,2.1,3.17L36.7,15.076a.72.72,0,1,0,.8,1.2l.334-.221,1.154-.764a1.9,1.9,0,0,1,2.1,3.169l-1.076.713-.017.011-1.062.7a.72.72,0,1,0,.8,1.2l.334-.221h0l1.154-.764a1.9,1.9,0,0,1,2.911,1.962Zm0,0" transform="translate(450.436 834.542) rotate(30)" fill="#444"/>
    <g id="user" transform="translate(444.755 822.316)">
      <g id="Group_655" data-name="Group 655" transform="translate(12.107 0)">
        <g id="Group_654" data-name="Group 654">
          <path id="Path_1396" data-name="Path 1396" d="M175.963,85.333a5.3,5.3,0,1,0,5.3,5.3A5.3,5.3,0,0,0,175.963,85.333Zm0,9.08a3.783,3.783,0,1,1,3.783-3.783A3.789,3.789,0,0,1,175.963,94.413Z" transform="translate(-170.666 -85.333)" fill="#444"/>
        </g>
      </g>
      <g id="Group_657" data-name="Group 657" transform="translate(24.214 6.053)">
        <g id="Group_656" data-name="Group 656">
          <path id="Path_1397" data-name="Path 1397" d="M345.117,170.667a3.783,3.783,0,1,0,3.783,3.783A3.789,3.789,0,0,0,345.117,170.667Zm0,6.053a2.27,2.27,0,1,1,2.27-2.27A2.273,2.273,0,0,1,345.117,176.721Z" transform="translate(-341.334 -170.667)" fill="#444"/>
        </g>
      </g>
      <g id="Group_659" data-name="Group 659" transform="translate(3.134 6.053)">
        <g id="Group_658" data-name="Group 658">
          <path id="Path_1398" data-name="Path 1398" d="M47.965,170.667a3.783,3.783,0,1,0,3.783,3.783A3.788,3.788,0,0,0,47.965,170.667Zm0,6.053a2.27,2.27,0,1,1,2.27-2.27A2.273,2.273,0,0,1,47.965,176.721Z" transform="translate(-44.182 -170.667)" fill="#444"/>
        </g>
      </g>
      <g id="Group_661" data-name="Group 661" transform="translate(7.567 12.107)">
        <g id="Group_660" data-name="Group 660">
          <path id="Path_1399" data-name="Path 1399" d="M116.5,256a9.848,9.848,0,0,0-9.837,9.837.757.757,0,1,0,1.513,0,8.324,8.324,0,0,1,16.647,0,.757.757,0,1,0,1.513,0A9.848,9.848,0,0,0,116.5,256Z" transform="translate(-106.666 -256)" fill="#444"/>
        </g>
      </g>
      <g id="Group_663" data-name="Group 663" transform="translate(24.106 15.134)">
        <g id="Group_662" data-name="Group 662">
          <path id="Path_1400" data-name="Path 1400" d="M343.7,298.667a6.811,6.811,0,0,0-3.528.984.757.757,0,1,0,.785,1.294A5.3,5.3,0,0,1,349,305.477a.757.757,0,1,0,1.513,0A6.819,6.819,0,0,0,343.7,298.667Z" transform="translate(-339.813 -298.667)" fill="#444"/>
        </g>
      </g>
      <g id="Group_665" data-name="Group 665" transform="translate(0 15.134)">
        <g id="Group_664" data-name="Group 664">
          <path id="Path_1401" data-name="Path 1401" d="M10.336,299.649A6.813,6.813,0,0,0,0,305.477a.757.757,0,0,0,1.513,0,5.3,5.3,0,0,1,8.038-4.534.757.757,0,0,0,.785-1.294Z" transform="translate(0 -298.667)" fill="#444"/>
        </g>
      </g>
    </g>
  </g>
</svg>
