<svg xmlns="http://www.w3.org/2000/svg" width="68.85" height="63.078" viewBox="0 0 68.85 63.078">
  <g id="sell_or_rent" data-name="sell or rent" transform="translate(0 -21.461)">
    <g id="Group_653" data-name="Group 653" transform="translate(0 21.461)">
      <path id="Path_1395" data-name="Path 1395" d="M68.117,61.328a4.256,4.256,0,0,0-5.877-1.137l-8.786,5.88-.026-18.3,3.053,2.86a3.475,3.475,0,0,0,2.384.943h.005a3.5,3.5,0,0,0,2.541-1.1,3.488,3.488,0,0,0-.161-4.931l-5.787-5.421a.983.983,0,1,0-1.344,1.434l5.787,5.421a1.523,1.523,0,0,1-1.039,2.634h0a1.516,1.516,0,0,1-1.04-.411h0L34.845,27.668a.983.983,0,0,0-1.346,0L10.58,49.26a1.523,1.523,0,0,1-2.088-2.217l24.632-23.2a1.525,1.525,0,0,1,2.085,0l14.411,13.5A.983.983,0,0,0,50.964,35.9L36.553,22.4a3.494,3.494,0,0,0-4.777.007l-7.885,7.428,0-1.325a1.564,1.564,0,0,0-1.563-1.561h0l-5.641.008a1.563,1.563,0,0,0-1.561,1.566l.016,9.559-7.993,7.53a3.488,3.488,0,0,0,2.288,6.026l.107,0a3.463,3.463,0,0,0,2.389-.949l3.046-2.869.012,8.645A20.709,20.709,0,0,0,12,56.248H10.32v-.589a3.592,3.592,0,0,0-3.588-3.588H3.588A3.592,3.592,0,0,0,0,55.659v15.4a.983.983,0,0,0,1.965,0v-15.4a1.624,1.624,0,0,1,1.622-1.622H6.732a1.624,1.624,0,0,1,1.622,1.622V78.931a1.624,1.624,0,0,1-1.622,1.622H3.588a1.624,1.624,0,0,1-1.622-1.622v-1.72a.983.983,0,1,0-1.965,0v1.72a3.592,3.592,0,0,0,3.588,3.588H6.732a3.592,3.592,0,0,0,3.588-3.588V78.8l14.392,5.45q.04.015.081.027a6.864,6.864,0,0,0,1.869.265,6.362,6.362,0,0,0,.994-.078l21.15-3.049.015,0a10.354,10.354,0,0,0,4.906-2.2l.036-.031L67.426,66.892A4.256,4.256,0,0,0,68.117,61.328ZM21.924,28.916l0,2.769L17.1,36.234l-.012-7.311Zm12.251.817L51.46,45.925l.03,21.461-2.782,1.862-2.946-.165-.078-.783a6.223,6.223,0,0,0-5-5.5L40.666,50.03a1.781,1.781,0,0,0-1.779-1.776h0l-9.367.013a1.779,1.779,0,0,0-1.776,1.781l.016,11.132a18.676,18.676,0,0,1-5.283-2.093q-.31-.181-.626-.351c-.082-.044-.165-.086-.248-.129-.128-.067-.256-.134-.385-.2-.1-.051-.207-.1-.311-.149s-.22-.105-.331-.156-.227-.1-.341-.149-.208-.09-.313-.133-.235-.095-.352-.141-.209-.081-.314-.121-.234-.086-.351-.127-.22-.077-.331-.114-.225-.074-.338-.11-.242-.074-.363-.11c-.1-.031-.208-.061-.313-.09-.137-.038-.274-.074-.412-.109-.064-.017-.128-.035-.193-.051l-.015-10.876Zm4.543,32.818-8.22-.946-.774-.089-.016-11.284L38.7,50.22Zm27.4,2.875L52.466,77.7a8.386,8.386,0,0,1-3.948,1.765L27.377,82.516l-.013,0-.015,0a4.686,4.686,0,0,1-1.983-.127L10.32,76.7V58.214H12a18.766,18.766,0,0,1,4.238.486l.154.037c.17.041.34.083.509.129l.044.012q.254.069.506.146l.09.027q.268.083.534.173l.055.019q.553.191,1.095.417l.059.025q.27.113.536.235l.014.007q.257.118.511.245l.06.029q.248.124.493.256l.092.05c.165.09.328.181.49.276a20.644,20.644,0,0,0,7.567,2.634l.025,0,11.011,1.268q.091.013.182.03a4.262,4.262,0,0,1,3.328,3.062,4.319,4.319,0,0,1,.133.715l.044.44L23.135,67.126a.983.983,0,1,0-.172,1.958L44.78,71H44.8l.015,0,4.114.231h.055c.019,0,.039,0,.058,0s.044,0,.066,0,.058-.01.087-.016.041-.008.061-.014a.959.959,0,0,0,.092-.033c.016-.007.033-.012.049-.019a.971.971,0,0,0,.133-.074l3.493-2.337h0l10.314-6.9a2.281,2.281,0,0,1,2.782,3.6Z" transform="translate(0 -21.461)" fill="#20b69e"/>
    </g>
  </g>
</svg>
