<svg xmlns="http://www.w3.org/2000/svg" width="49.367" height="49.368" viewBox="0 0 49.367 49.368">
  <g id="startup" transform="translate(-0.001 0)">
    <g id="Group_667" data-name="Group 667" transform="translate(24.259 23.181)">
      <g id="Group_666" data-name="Group 666">
        <path id="Path_1402" data-name="Path 1402" d="M253.233,240.7a.964.964,0,1,0,0,1.363A.964.964,0,0,0,253.233,240.7Z" transform="translate(-251.587 -240.418)" fill="#444"/>
      </g>
    </g>
    <g id="Group_669" data-name="Group 669" transform="translate(29.95 9.778)">
      <g id="Group_668" data-name="Group 668">
        <path id="Path_1403" data-name="Path 1403" d="M318.831,102.828a4.821,4.821,0,1,0,0,6.818A4.819,4.819,0,0,0,318.831,102.828Zm-1.364,5.454a2.893,2.893,0,1,1,0-4.091A2.9,2.9,0,0,1,317.467,108.283Z" transform="translate(-310.603 -101.415)" fill="#444"/>
      </g>
    </g>
    <g id="Group_671" data-name="Group 671" transform="translate(9.259 0)">
      <g id="Group_670" data-name="Group 670" transform="translate(0 0)">
        <path id="Path_1404" data-name="Path 1404" d="M135.845.282A.961.961,0,0,0,135.128,0a42.834,42.834,0,0,0-11.579,2.4A32.282,32.282,0,0,0,111.3,9.827c-.713.713-1.408,1.47-2.072,2.256a7.067,7.067,0,0,0-7.265-.419c-3.672,1.965-5.945,7.3-5.945,11.117a.964.964,0,0,0,1.646.682,6.138,6.138,0,0,1,5.105-1.713l.338.338a33.915,33.915,0,0,0-1.592,4.683,2.729,2.729,0,0,0,.117,1.675,9.131,9.131,0,0,0-2.6,1.836c-2.482,2.482-2.986,8.531-3.006,8.787a.964.964,0,0,0,.961,1.04q.038,0,.076,0c.256-.02,6.305-.524,8.787-3.006a9.131,9.131,0,0,0,1.835-2.6,2.723,2.723,0,0,0,1.676.116,33.917,33.917,0,0,0,4.682-1.592l.338.338a6.138,6.138,0,0,1-1.713,5.105.964.964,0,0,0,.682,1.646c3.816,0,9.152-2.273,11.117-5.945a7.067,7.067,0,0,0-.419-7.265c.786-.664,1.542-1.358,2.256-2.072a32.285,32.285,0,0,0,7.429-12.249A42.833,42.833,0,0,0,136.127,1,.964.964,0,0,0,135.845.282ZM98.174,20.707c.6-2.9,2.339-6.08,4.7-7.343a5.137,5.137,0,0,1,5.135.242,38.986,38.986,0,0,0-4.051,6.6,1.017,1.017,0,0,0-.51-.3A8.241,8.241,0,0,0,98.174,20.707Zm6.308,15.029c-1.326,1.326-4.436,2.025-6.4,2.311.286-1.966.985-5.076,2.311-6.4a6.949,6.949,0,0,1,2.469-1.622l3.245,3.245A6.947,6.947,0,0,1,104.482,35.736Zm4.4-2.992a.9.9,0,0,1-.843-.273l-1.888-1.888-2.49-2.49a.905.905,0,0,1-.274-.843,31.31,31.31,0,0,1,1.2-3.683l7.974,7.974A31.289,31.289,0,0,1,108.878,32.745Zm13.885.51c-1.263,2.36-4.444,4.1-7.343,4.7a8.207,8.207,0,0,0,.79-5.3,1.007,1.007,0,0,0-.293-.487,39,39,0,0,0,6.6-4.051A5.138,5.138,0,0,1,122.763,33.255Zm2.174-9.791a35,35,0,0,1-2.781,2.495,37.045,37.045,0,0,1-7.686,4.765L105.4,21.658a37.039,37.039,0,0,1,4.765-7.686,34.994,34.994,0,0,1,2.495-2.781,30.066,30.066,0,0,1,10.96-6.766L131.7,12.5A30.063,30.063,0,0,1,124.937,23.464ZM132.4,10.47l-6.739-6.739a43.35,43.35,0,0,1,8.461-1.721A43.355,43.355,0,0,1,132.4,10.47Z" transform="translate(-96.018 0)" fill="#444"/>
      </g>
    </g>
    <g id="Group_673" data-name="Group 673" transform="translate(18.805 39.544)">
      <g id="Group_672" data-name="Group 672">
        <path id="Path_1405" data-name="Path 1405" d="M199.393,410.4a.964.964,0,0,0-1.364,0l-2.727,2.728a.964.964,0,0,0,1.364,1.363l2.727-2.728A.964.964,0,0,0,199.393,410.4Z" transform="translate(-195.021 -410.121)" fill="#444"/>
      </g>
    </g>
    <g id="Group_675" data-name="Group 675" transform="translate(5.169 25.908)">
      <g id="Group_674" data-name="Group 674">
        <path id="Path_1406" data-name="Path 1406" d="M57.966,268.984a.964.964,0,0,0-1.364,0l-2.728,2.727a.964.964,0,1,0,1.363,1.364l2.728-2.727A.964.964,0,0,0,57.966,268.984Z" transform="translate(-53.592 -268.701)" fill="#444"/>
      </g>
    </g>
    <g id="Group_677" data-name="Group 677" transform="translate(8.183 40.909)">
      <g id="Group_676" data-name="Group 676">
        <path id="Path_1407" data-name="Path 1407" d="M93.029,424.554a.964.964,0,0,0-1.364,0l-6.532,6.531a.964.964,0,1,0,1.363,1.364l6.532-6.531A.964.964,0,0,0,93.029,424.554Z" transform="translate(-84.851 -424.271)" fill="#444"/>
      </g>
    </g>
    <g id="Group_679" data-name="Group 679" transform="translate(0.469 40.909)">
      <g id="Group_678" data-name="Group 678">
        <path id="Path_1408" data-name="Path 1408" d="M13.029,424.554a.964.964,0,0,0-1.364,0l-6.532,6.531A.964.964,0,1,0,6.5,432.448l6.532-6.531A.964.964,0,0,0,13.029,424.554Z" transform="translate(-4.851 -424.271)" fill="#444"/>
      </g>
    </g>
    <g id="Group_681" data-name="Group 681" transform="translate(0.001 32.726)">
      <g id="Group_680" data-name="Group 680">
        <path id="Path_1409" data-name="Path 1409" d="M8.178,339.692a.964.964,0,0,0-1.364,0L.284,346.224a.964.964,0,0,0,1.364,1.364l6.531-6.532A.964.964,0,0,0,8.178,339.692Z" transform="translate(-0.001 -339.41)" fill="#444"/>
      </g>
    </g>
    <g id="Group_683" data-name="Group 683" transform="translate(26.987 19.09)">
      <g id="Group_682" data-name="Group 682">
        <path id="Path_1410" data-name="Path 1410" d="M282.881,198.273a.964.964,0,0,0-1.364,0l-1.363,1.363A.964.964,0,0,0,281.517,201l1.363-1.363A.964.964,0,0,0,282.881,198.273Z" transform="translate(-279.871 -197.99)" fill="#444"/>
      </g>
    </g>
  </g>
</svg>
