<svg xmlns="http://www.w3.org/2000/svg" xmlns:xlink="http://www.w3.org/1999/xlink" width="135.517" height="61.862" viewBox="0 0 135.517 61.862">
  <defs>
    <linearGradient id="linear-gradient" x1="-1.661" y1="0.5" x2="6.953" y2="0.5" gradientUnits="objectBoundingBox">
      <stop offset="0" stop-color="#20b69e"/>
      <stop offset="1" stop-color="#297ce0"/>
    </linearGradient>
    <linearGradient id="linear-gradient-2" x1="-1.734" y1="0.5" x2="4.173" y2="0.5" xlink:href="#linear-gradient"/>
    <linearGradient id="linear-gradient-3" x1="-2.345" y1="0.5" x2="2.894" y2="0.5" xlink:href="#linear-gradient"/>
    <linearGradient id="linear-gradient-4" x1="-4.381" y1="0.5" x2="2.053" y2="0.5" xlink:href="#linear-gradient"/>
    <linearGradient id="linear-gradient-5" x1="-7.38" y1="0.5" x2="1.611" y2="0.5" xlink:href="#linear-gradient"/>
    <linearGradient id="linear-gradient-6" x1="-11.174" y1="0.5" x2="1.006" y2="0.5" xlink:href="#linear-gradient"/>
  </defs>
  <g id="logo" transform="translate(0 -36.14)">
    <g id="Group_103" data-name="Group 103" transform="translate(2.733 36.14)">
      <path id="Path_222" data-name="Path 222" d="M43.033,289.432a13.123,13.123,0,0,1-3.453-.4,9.975,9.975,0,0,1-2.462-1.007,7.7,7.7,0,0,1-1.7-1.338A10.25,10.25,0,0,1,34.31,285.3q-.3-.529-.678-1.107t-.644-.578a2.74,2.74,0,0,0-1.371.825,24.4,24.4,0,0,0-2.064,2.082q-1.125,1.255-2.247,2.742a32.024,32.024,0,0,0-1.916,2.809l-1.189-.429a37.581,37.581,0,0,1,1.354-3.535q.761-1.718,1.57-3.189t1.586-2.627q.776-1.155,1.371-1.884.4-.462.925-1.024a12.447,12.447,0,0,1,1.107-1.041,8.277,8.277,0,0,1,1.124-.793,2.008,2.008,0,0,1,.975-.314,1.71,1.71,0,0,1,1.091.644q.627.644,1.388,1.5a13.238,13.238,0,0,0,1.09,1.222,10.02,10.02,0,0,0,1.421,1.173,7.7,7.7,0,0,0,1.752.892,6.066,6.066,0,0,0,2.081.347v6.411Z" transform="translate(-24.2 -250.012)" fill="url(#linear-gradient)"/>
      <path id="Path_223" data-name="Path 223" d="M196.47,75.56a18.062,18.062,0,0,1-3.139-.231,7.73,7.73,0,0,1-2.33-.793,8.777,8.777,0,0,1-1.983-1.486q-.942-.925-2.1-2.28-.264-.33-.71-.826a5.45,5.45,0,0,0-.81-.76q-.264.761-.578,1.52a11.627,11.627,0,0,1-.744,1.486,8.777,8.777,0,0,1-.529.876c-.176.254-.364.512-.561.777a18.814,18.814,0,0,1-2.512.859,23.64,23.64,0,0,1-2.627.529,29.151,29.151,0,0,1-2.924.264q-1.553.066-3.436.067a2.337,2.337,0,0,1-1.8-.958,3.507,3.507,0,0,1-.678-2.181,3.947,3.947,0,0,1,.2-1.256,3.468,3.468,0,0,1,.545-1.041,2.832,2.832,0,0,1,.793-.71,1.818,1.818,0,0,1,.942-.264q3.173,0,5.336-.115t3.5-.314a8.035,8.035,0,0,0,1.933-.463c.4-.176.6-.374.6-.6a1.375,1.375,0,0,0-.463-.826,10.659,10.659,0,0,0-1.223-1.091q-.761-.595-1.752-1.289t-2.081-1.388a11.778,11.778,0,0,0-1.6-.909q-.876-.413-1.767-.81t-1.767-.777q-.876-.379-1.6-.743.1-.893.331-2.032t.528-2.378q.3-1.24.678-2.479t.777-2.33q4.858-1.884,10.309-3.867t10.97-3.9l-2.676,6.344q-2.05.695-4.246,1.455t-4.361,1.536q-2.165.778-4.18,1.5t-3.7,1.354c.331.176.737.386,1.223.628s.975.484,1.47.727.975.484,1.438.727.859.463,1.189.661a51.72,51.72,0,0,1,4.312,2.924,37.569,37.569,0,0,1,3.783,3.321l2.512,2.51q.727.761,1.256,1.256a4.869,4.869,0,0,0,1.107.793,4.6,4.6,0,0,0,1.305.429,10.653,10.653,0,0,0,1.851.132V75.56Zm-.364-39.42-1.057,2.479-3.222,1.173q-1.769.644-3.684,1.371l-3.915,1.486q-2,.761-3.9,1.5t-3.618,1.438q-1.718.695-3.073,1.289l1.189-2.709q2.578-1.025,5.287-2.082t5.435-2.081q2.726-1.023,5.4-2T196.107,36.14Z" transform="translate(-152.657 -36.14)" fill="url(#linear-gradient-2)"/>
      <path id="Path_224" data-name="Path 224" d="M418.216,242.255q-.761.066-1.635.067t-1.47.033q-.925.066-1.983.165a15.679,15.679,0,0,0-1.817.264,22.778,22.778,0,0,0-2.726.727,14.548,14.548,0,0,0-2.2.925q-.925.463-2.016.991a18.072,18.072,0,0,1-2.181.892,23.978,23.978,0,0,1-2.577.578,22.748,22.748,0,0,1-2.445.281q-1.091.066-2.049.132t-2.412.067a2.013,2.013,0,0,1-.942-.232,2.472,2.472,0,0,1-.793-.661,3.307,3.307,0,0,1-.545-.991,3.751,3.751,0,0,1-.2-1.256,3.946,3.946,0,0,1,.2-1.256,3.471,3.471,0,0,1,.545-1.041,2.833,2.833,0,0,1,.793-.71,1.818,1.818,0,0,1,.942-.264c.506,0,1.145,0,1.916-.017s1.53-.038,2.28-.082q.661-.032,1.388-.115t1.421-.182c.463-.067.9-.137,1.321-.215s.793-.149,1.124-.215q2.05-.462,3.949-.909t3.123-.645a7.521,7.521,0,0,1-.976-.247q-.579-.181-1.222-.429t-1.272-.5q-.628-.247-1.156-.413-1.619-.561-2.891-1.007a8.089,8.089,0,0,0-2.692-.446,2.81,2.81,0,0,0-1.685.611,10.087,10.087,0,0,0-1.685,1.635l-.76-.331a28.126,28.126,0,0,1,1.635-3.684,11.986,11.986,0,0,1,1.619-2.347,5.076,5.076,0,0,1,1.635-1.239,4.23,4.23,0,0,1,1.718-.364,8.605,8.605,0,0,1,3.2.693q1.718.694,3.4,1.553,2.148,1.091,4.3,1.95a16.236,16.236,0,0,0,4.428,1.09q2.478.2,4.361.2Zm-4.225,5.71-2.479,3.634-3.7-3.337,2.478-3.635Z" transform="translate(-348.894 -207.957)" fill="url(#linear-gradient-3)"/>
      <g id="Group_102" data-name="Group 102" transform="translate(79.177 5.449)">
        <path id="Path_225" data-name="Path 225" d="M750.489,256.691c-.706,0-1.333-.027-1.884-.082s-1.057-.115-1.52-.182l-1.271-.182a7.964,7.964,0,0,0-1.108-.082,1.3,1.3,0,0,0-.71.2,2.438,2.438,0,0,0-.546.463,2.751,2.751,0,0,0-.364.512,1.009,1.009,0,0,0-.132.314c0,.132.143.242.429.331a7.748,7.748,0,0,0,1.074.232q.645.1,1.372.182t1.322.182q.627.1,1.239.247a4.578,4.578,0,0,1,1.074.4,2.474,2.474,0,0,1,.76.612,1.358,1.358,0,0,1,.3.892,6.468,6.468,0,0,1-.247,1.767,12.376,12.376,0,0,1-.628,1.718q-.381.842-.826,1.62t-.875,1.47a12.186,12.186,0,0,1-1.982,1.305,21.447,21.447,0,0,1-3.024,1.338,26.5,26.5,0,0,1-3.783,1.041,21.338,21.338,0,0,1-4.229.413,12.1,12.1,0,0,1-4.61-.761,8.11,8.11,0,0,1-2.958-2,7.11,7.11,0,0,1-1.585-2.841,11.926,11.926,0,0,1-.463-3.321,11.116,11.116,0,0,1,.3-2.594,16.753,16.753,0,0,1,.727-2.314q.429-1.074.875-1.966t.743-1.52l.794.232q-.364,1.157-.662,2.51a12.13,12.13,0,0,0-.3,2.61,4.978,4.978,0,0,0,.48,2.165,4.771,4.771,0,0,0,1.453,1.752,7.422,7.422,0,0,0,2.462,1.173,12.681,12.681,0,0,0,3.5.429,28.551,28.551,0,0,0,3.4-.2q1.653-.2,3.123-.512a22.541,22.541,0,0,0,2.66-.727,15.378,15.378,0,0,0,2.016-.842,8.99,8.99,0,0,0-1.041-.182q-.646-.083-1.338-.149t-1.354-.132q-.66-.066-1.057-.132a5.185,5.185,0,0,1-.909-.232,2.827,2.827,0,0,1-.892-.512,2.543,2.543,0,0,1-.677-.958,3.987,3.987,0,0,1-.264-1.57,6.144,6.144,0,0,1,.264-1.817,9.212,9.212,0,0,1,.628-1.553,6.582,6.582,0,0,1,.777-1.239,12.871,12.871,0,0,1,2.114-2.132,8.436,8.436,0,0,1,1.007-.693,7.947,7.947,0,0,1,2.544-.81,22.582,22.582,0,0,1,3.8-.281v6.411Z" transform="translate(-725.31 -231.546)" fill="url(#linear-gradient-4)"/>
        <path id="Path_226" data-name="Path 226" d="M944.381,109.535a7.878,7.878,0,0,1-2.246-.331,8.028,8.028,0,0,1-3.9-2.56,6.772,6.772,0,0,1-1.222-2.2h-.429q-.232.528-.662,1.354c-.286.551-.518.98-.693,1.29a10.14,10.14,0,0,1-2.841,1.752,9.118,9.118,0,0,1-3.568.693,2.014,2.014,0,0,1-.942-.231,2.486,2.486,0,0,1-.793-.661,3.31,3.31,0,0,1-.545-.992,3.751,3.751,0,0,1-.2-1.256,3.947,3.947,0,0,1,.2-1.256,3.476,3.476,0,0,1,.545-1.041,2.85,2.85,0,0,1,.793-.71,1.818,1.818,0,0,1,.942-.264,9.058,9.058,0,0,0,2.908-.446,4.389,4.389,0,0,0,1.884-1.074,6.814,6.814,0,0,0,.859-1.091,15.194,15.194,0,0,0,.793-1.371q.363-.71.628-1.371t.43-1.057h.826a10.947,10.947,0,0,0,1.024,2.412,9.1,9.1,0,0,0,1.586,2.049,7.427,7.427,0,0,0,2.081,1.421,6.051,6.051,0,0,0,2.544.529v6.411Zm-3.947-22.373-.413,2.553q-.559.364-1.337.949t-1.568,1.24q-.791.656-1.484,1.312a10.09,10.09,0,0,0-1.082,1.167l-.219-.025a12.253,12.253,0,0,1,.23-1.289c.073-.276.149-.543.23-.8a4.033,4.033,0,0,1,.377-.754,5.477,5.477,0,0,1,.62-.7,3.958,3.958,0,0,1-.924-.3,3.041,3.041,0,0,1-.778-.523,2.563,2.563,0,0,1-.547-.717,1.856,1.856,0,0,1-.207-.863,3.4,3.4,0,0,1,.316-1.374,5.081,5.081,0,0,1,.827-1.3,4.945,4.945,0,0,1,1.118-.96,2.263,2.263,0,0,1,1.191-.377,1.921,1.921,0,0,1,1.276.365,3.044,3.044,0,0,1,.62.681l-.048.219c-.357.017-.753.058-1.191.122a8.227,8.227,0,0,0-1.24.28,3.406,3.406,0,0,0-.973.462.81.81,0,0,0-.389.669.712.712,0,0,0,.219.462,2.739,2.739,0,0,0,.559.462,3.089,3.089,0,0,0,.778.352,2.977,2.977,0,0,0,.875.133,7.366,7.366,0,0,0,.8-.036,4.21,4.21,0,0,0,.51-.085q.1-.073.365-.268t.559-.4c.194-.138.377-.268.547-.39S940.353,87.211,940.434,87.162Z" transform="translate(-903.637 -84.39)" fill="url(#linear-gradient-5)"/>
        <path id="Path_227" data-name="Path 227" d="M1078.318,116.459a4.767,4.767,0,0,1-.314,1.47,19.862,19.862,0,0,1-.777,1.9,18.945,18.945,0,0,1-1.041,1.932,16.533,16.533,0,0,1-1.074,1.57,14.227,14.227,0,0,1-1.734.826,11.312,11.312,0,0,1-1.768.528,15.2,15.2,0,0,1-1.949.281q-1.025.083-2.28.082a1.928,1.928,0,0,1-1.834-.975,4.846,4.846,0,0,1-.546-2.4,3.626,3.626,0,0,1,.214-1.289,3.372,3.372,0,0,1,.546-.958,2.17,2.17,0,0,1,.761-.6,2.04,2.04,0,0,1,.859-.2,39.717,39.717,0,0,0,4.411-.215,12.036,12.036,0,0,0,3.123-.71,5.083,5.083,0,0,0-.379-1.388,12.929,12.929,0,0,0-.743-1.5q-.43-.744-.925-1.438t-.925-1.222l3.073-4.924a13.564,13.564,0,0,1,1.256,2,21.067,21.067,0,0,1,1.057,2.379,17.329,17.329,0,0,1,.728,2.495A11.564,11.564,0,0,1,1078.318,116.459Zm-5.74-11.243-2.478,3.635-3.7-3.337,2.479-3.634Z" transform="translate(-1026.639 -99.905)" fill="url(#linear-gradient-6)"/>
      </g>
    </g>
    <g id="Group_104" data-name="Group 104" transform="translate(25.556 86.907)">
      <path id="Path_228" data-name="Path 228" d="M229.827,611.818a2.876,2.876,0,0,1-.082.682,4.309,4.309,0,0,1-.215.655,3.963,3.963,0,0,1-.3.581,3.3,3.3,0,0,1-.355.464,1.929,1.929,0,0,1-.361.31.616.616,0,0,1-.327.113c-.092,0-.215,0-.372-.013s-.325-.022-.5-.037-.359-.033-.539-.051-.335-.036-.467-.054V614.4a9.7,9.7,0,0,0,1.276-.464,5.731,5.731,0,0,0,.972-.546,2.752,2.752,0,0,0,.618-.58.946.946,0,0,0,.218-.559.862.862,0,0,0-.11-.375,3.784,3.784,0,0,0-.26-.44c-.1-.148-.2-.286-.3-.413l-.242-.3.484-.921a5.876,5.876,0,0,1,.344.5,4.475,4.475,0,0,1,.277.518,3.447,3.447,0,0,1,.184.515A1.888,1.888,0,0,1,229.827,611.818Z" transform="translate(-226.3 -603.924)"/>
      <path id="Path_229" data-name="Path 229" d="M268.451,574.384v.942a3.154,3.154,0,0,1-.566-.044.973.973,0,0,1-.4-.164.912.912,0,0,1-.27-.321,1.916,1.916,0,0,1-.167-.515c-.014-.068-.025-.142-.034-.221s-.016-.158-.02-.235-.008-.15-.01-.218,0-.125,0-.171q0-.757-.024-1.357c-.016-.4-.039-.759-.071-1.075s-.07-.6-.116-.846-.1-.474-.157-.679l.675-1.05q.02.293.041.761t.041,1.05q.02.583.037,1.252t.017,1.351l.01.238c0,.054,0,.111.007.167s.006.109.01.154a1.094,1.094,0,0,0,.294.758A1.042,1.042,0,0,0,268.451,574.384Z" transform="translate(-262.058 -567.226)"/>
      <path id="Path_230" data-name="Path 230" d="M282.667,610.488v.942a1.354,1.354,0,0,1-.444-.078,1.588,1.588,0,0,1-.417-.218,1.67,1.67,0,0,1-.338-.331,1.273,1.273,0,0,1-.215-.423h-.068c-.013.027-.034.065-.061.116s-.058.1-.093.16-.068.112-.1.164l-.078.12a2.119,2.119,0,0,1-.552.351,1.734,1.734,0,0,1-.716.14.4.4,0,0,1-.294-.13.445.445,0,0,1-.13-.328.489.489,0,0,1,.13-.341.387.387,0,0,1,.294-.143,1.5,1.5,0,0,0,.6-.109,1.128,1.128,0,0,0,.392-.267,1.738,1.738,0,0,0,.184-.238c.059-.09.114-.182.164-.273s.094-.179.13-.263.063-.154.082-.208h.1a2.751,2.751,0,0,0,.218.5,2.018,2.018,0,0,0,.321.434,1.645,1.645,0,0,0,.405.3A1.02,1.02,0,0,0,282.667,610.488Zm-1.569,2.906-.409.628-.648-.566.43-.621Zm1.146-.068-.417.628-.648-.566.43-.621Z" transform="translate(-273.19 -603.33)"/>
      <path id="Path_231" data-name="Path 231" d="M309.977,593.5v.942a1.354,1.354,0,0,1-.444-.078,1.6,1.6,0,0,1-.417-.218,1.675,1.675,0,0,1-.338-.331,1.271,1.271,0,0,1-.215-.423H308.5c-.014.027-.034.066-.061.116s-.058.1-.093.16-.068.112-.1.164l-.078.12a2.124,2.124,0,0,1-.552.351,1.736,1.736,0,0,1-.716.14.4.4,0,0,1-.294-.13.446.446,0,0,1-.13-.328.49.49,0,0,1,.13-.341.388.388,0,0,1,.294-.143,1.5,1.5,0,0,0,.6-.109,1.125,1.125,0,0,0,.392-.267,1.748,1.748,0,0,0,.184-.238c.059-.09.114-.182.164-.273s.094-.179.13-.263.063-.154.083-.208h.1a2.744,2.744,0,0,0,.218.5,2.014,2.014,0,0,0,.321.434,1.644,1.644,0,0,0,.405.3A1.02,1.02,0,0,0,309.977,593.5Zm-1.57-2.893-.409.628-.648-.566.43-.621Zm1.146-.068-.417.628-.648-.566.43-.621Z" transform="translate(-297.416 -586.343)"/>
      <path id="Path_232" data-name="Path 232" d="M339.748,583.432l-.587,1.05-.444.024c-.119.007-.245.016-.382.027s-.269.024-.4.037a2.071,2.071,0,0,0-.515.126c-.157.061-.312.13-.464.2s-.309.154-.471.235a3.278,3.278,0,0,1-.535.211,4.792,4.792,0,0,1-.495.123c-.166.031-.329.056-.488.076s-.311.029-.454.034-.272.007-.385.007a.4.4,0,0,1-.294-.13.446.446,0,0,1-.13-.328.489.489,0,0,1,.13-.341.387.387,0,0,1,.294-.143c.1,0,.224,0,.358-.007s.276-.012.423-.024.3-.027.444-.047.288-.044.42-.071a3.712,3.712,0,0,0,.4-.113c.143-.048.29-.1.44-.15s.3-.1.451-.154.291-.09.423-.123l-.348-.076c-.128-.027-.26-.061-.4-.1a3.069,3.069,0,0,1-.392-.14c-.121-.052-.238-.1-.355-.144a3.647,3.647,0,0,0-.351-.109,1.58,1.58,0,0,0-.382-.044.555.555,0,0,0-.355.123,3.571,3.571,0,0,0-.375.354.491.491,0,0,1-.1-.034,4.317,4.317,0,0,1,.287-.621,1.844,1.844,0,0,1,.3-.4.938.938,0,0,1,.314-.211.961.961,0,0,1,.344-.061,1.659,1.659,0,0,1,.618.13c.216.087.445.183.686.29s.5.208.771.3a3.176,3.176,0,0,0,.873.17c.26.014.48.023.662.027Zm-2.961-2.8-.471.689-.7-.635.471-.689Z" transform="translate(-321.58 -577.49)"/>
      <path id="Path_233" data-name="Path 233" d="M396.906,569.07c0,.072,0,.2.014.382s.018.4.027.658.019.542.03.856.02.638.027.972l.02,1q.01.5.01.952a5.6,5.6,0,0,1-.047.747q-.047.353-.1.618c-.036.177-.094.388-.171.635h-.082c0-.077-.009-.256-.014-.535s-.007-.618-.007-1.013-.009-.8-.027-1.211-.043-.806-.075-1.184-.071-.725-.12-1.043a6.457,6.457,0,0,0-.16-.785Z" transform="translate(-377.04 -567.794)"/>
      <path id="Path_234" data-name="Path 234" d="M435.431,574.384v.942a3.153,3.153,0,0,1-.566-.044.974.974,0,0,1-.4-.164.913.913,0,0,1-.27-.321,1.913,1.913,0,0,1-.167-.515c-.014-.068-.025-.142-.034-.221s-.016-.158-.02-.235-.008-.15-.01-.218,0-.125,0-.171q0-.757-.024-1.357c-.016-.4-.039-.759-.071-1.075s-.07-.6-.116-.846-.1-.474-.157-.679l.675-1.05q.02.293.041.761t.041,1.05q.02.583.037,1.252t.017,1.351c0,.105.008.184.01.238l.007.167c0,.056.006.109.01.154a1.094,1.094,0,0,0,.294.758A1.044,1.044,0,0,0,435.431,574.384Z" transform="translate(-410.181 -567.226)"/>
      <path id="Path_235" data-name="Path 235" d="M450.83,569.43l-.552,1.112-3.4,1.173,1.3.792a3.836,3.836,0,0,1,.706.529,2.153,2.153,0,0,1,.368.464,1.153,1.153,0,0,1,.143.392,2.366,2.366,0,0,1,.024.307,1.813,1.813,0,0,1-.093.5,2.651,2.651,0,0,1-.194.44,4.5,4.5,0,0,1-.245.392c-.087.123-.164.238-.232.348a3.373,3.373,0,0,1-.535.174c-.184.043-.367.078-.549.1s-.358.041-.529.047-.326.01-.468.01a.4.4,0,0,1-.294-.13.446.446,0,0,1-.13-.328.49.49,0,0,1,.13-.341.388.388,0,0,1,.294-.143,7.312,7.312,0,0,0,1.722-.154c.4-.1.6-.237.6-.405q0-.5-1.324-1.42a5.353,5.353,0,0,0-.692-.409c-.238-.119-.452-.223-.638-.314.063-.26.136-.522.215-.788s.174-.533.283-.8Z" transform="translate(-421.322 -568.113)"/>
      <path id="Path_236" data-name="Path 236" d="M515.157,601.709a2.314,2.314,0,0,1-.116.314c-.05.114-.106.227-.167.341s-.125.223-.191.328-.126.2-.181.273a12.952,12.952,0,0,1-1.7.444,10.858,10.858,0,0,1-2.088.184,4.088,4.088,0,0,1-1.153-.133,1.881,1.881,0,0,1-.7-.351,1.118,1.118,0,0,1-.344-.5,1.832,1.832,0,0,1-.093-.574,1.929,1.929,0,0,1,.044-.409,2.69,2.69,0,0,1,.113-.388,3.465,3.465,0,0,1,.147-.341c.052-.1.1-.2.14-.273l.082.041a1.61,1.61,0,0,0-.054.253,2.346,2.346,0,0,0-.02.328,1.277,1.277,0,0,0,.1.484,1.08,1.08,0,0,0,.361.447,2.132,2.132,0,0,0,.719.331,4.421,4.421,0,0,0,1.18.13c.4,0,.781-.017,1.129-.051s.664-.078.949-.133.538-.113.761-.174.412-.12.566-.174a1.694,1.694,0,0,0-.2-.562c-.107-.193-.217-.374-.331-.542.063-.137.14-.289.228-.457s.174-.323.256-.464a4.311,4.311,0,0,1,.208.385,3.8,3.8,0,0,1,.171.424c.047.143.087.286.12.427A2.794,2.794,0,0,1,515.157,601.709Zm-3.255,3.077-.409.635-.655-.574.43-.628Zm.717.976-.389.587-.594-.525.389-.58Zm.512-1.016-.417.628-.655-.574.43-.628Z" transform="translate(-476.569 -595.302)"/>
      <path id="Path_237" data-name="Path 237" d="M577.727,569.07c0,.072,0,.2.013.382s.018.4.027.658.019.542.03.856.02.638.027.972.014.668.02,1,.01.652.01.952a5.568,5.568,0,0,1-.047.747q-.047.353-.1.618c-.036.177-.094.388-.171.635h-.082c0-.077-.009-.256-.013-.535s-.007-.618-.007-1.013-.009-.8-.027-1.211-.043-.806-.075-1.184-.071-.725-.12-1.043a6.463,6.463,0,0,0-.16-.785Z" transform="translate(-537.44 -567.794)"/>
      <path id="Path_238" data-name="Path 238" d="M618.036,611.419v.942a1.91,1.91,0,0,1-.624-.093,2.014,2.014,0,0,1-.474-.231,1.776,1.776,0,0,1-.348-.3,3.55,3.55,0,0,1-.242-.3c-.065-.094-.12-.17-.16-.232s-.078-.093-.11-.093a.523.523,0,0,0-.28.167,4.563,4.563,0,0,0-.4.424q-.218.256-.44.566t-.392.591l-.164-.068c.072-.186.156-.376.249-.569s.191-.378.294-.556.2-.342.307-.495a4.734,4.734,0,0,1,.283-.385c.05-.059.11-.124.177-.194a2.538,2.538,0,0,1,.215-.2,1.515,1.515,0,0,1,.218-.15.411.411,0,0,1,.194-.058.282.282,0,0,1,.188.093,2.753,2.753,0,0,1,.215.228c.077.091.16.191.25.3a2.313,2.313,0,0,0,.294.3,1.651,1.651,0,0,0,.348.228A.94.94,0,0,0,618.036,611.419Z" transform="translate(-570.572 -604.261)"/>
      <path id="Path_239" data-name="Path 239" d="M648.3,564.928v.942a2.387,2.387,0,0,1-.645-.078,1.919,1.919,0,0,1-.515-.232,2.59,2.59,0,0,1-.454-.375q-.215-.222-.461-.508c-.023-.023-.046-.047-.071-.076s-.051-.054-.078-.081a2.007,2.007,0,0,1-.28.576q-.185.262-.348.488a3.606,3.606,0,0,1-.468.16,3.293,3.293,0,0,1-.471.085q-.249.027-.545.034c-.2,0-.429.007-.692.007a.4.4,0,0,1-.294-.13.445.445,0,0,1-.13-.328.49.49,0,0,1,.13-.341.387.387,0,0,1,.294-.143q.716,0,1.183-.041a4.883,4.883,0,0,0,.741-.11.982.982,0,0,0,.382-.16.264.264,0,0,0,.109-.2.406.406,0,0,0-.106-.232,2.464,2.464,0,0,0-.284-.3c-.119-.11-.255-.226-.409-.351s-.316-.252-.485-.378q-.383-.259-.706-.437a3.745,3.745,0,0,0-.638-.28c.068-.273.146-.56.232-.863s.177-.58.273-.836l4.428-1.692-.566,1.146c-.241.087-.522.186-.843.3s-.652.233-.992.358-.679.252-1.013.378-.636.245-.9.355l1.337.805a5.16,5.16,0,0,1,.805.607q.389.354.839.805.286.286.474.5a3.334,3.334,0,0,0,.355.351,1.175,1.175,0,0,0,.351.208A1.339,1.339,0,0,0,648.3,564.928Zm.089-7.158-.26.525q-.45.164-1.04.389l-1.2.461q-.613.236-1.19.468t-1,.417l.245-.559q.532-.219,1.1-.44t1.143-.441q.572-.219,1.132-.427C647.691,558.024,648.049,557.893,648.39,557.77Z" transform="translate(-595.809 -557.77)"/>
      <path id="Path_240" data-name="Path 240" d="M693.408,603.036l-.587,1.05-.444.024c-.119.007-.245.016-.382.027s-.269.024-.4.037a2.07,2.07,0,0,0-.515.126c-.157.062-.312.13-.464.2s-.309.154-.471.235a3.293,3.293,0,0,1-.535.211,4.714,4.714,0,0,1-.495.123c-.166.032-.329.056-.488.076s-.31.029-.454.034-.272.007-.385.007a.4.4,0,0,1-.294-.13.445.445,0,0,1-.13-.327.49.49,0,0,1,.13-.341.388.388,0,0,1,.294-.143c.1,0,.224,0,.358-.007s.276-.013.424-.024.3-.027.444-.047.288-.044.419-.071a3.737,3.737,0,0,0,.4-.113l.44-.15c.15-.052.3-.1.451-.154s.291-.09.424-.123l-.348-.076c-.128-.027-.26-.061-.4-.1a3.047,3.047,0,0,1-.392-.14c-.121-.052-.239-.1-.355-.144a3.639,3.639,0,0,0-.351-.109,1.576,1.576,0,0,0-.382-.044.557.557,0,0,0-.355.123,3.566,3.566,0,0,0-.375.354.493.493,0,0,1-.1-.034,4.32,4.32,0,0,1,.287-.621,1.845,1.845,0,0,1,.3-.4.935.935,0,0,1,.314-.211.96.96,0,0,1,.344-.061,1.658,1.658,0,0,1,.618.13c.216.087.445.183.686.29s.5.208.771.3a3.186,3.186,0,0,0,.873.17q.389.02.662.027Zm-1.923,3.371-.471.689-.7-.635.471-.689Z" transform="translate(-635.301 -597.094)"/>
      <path id="Path_241" data-name="Path 241" d="M772.053,621.15v.942a4.639,4.639,0,0,1-.621-.037,3.747,3.747,0,0,0-.5-.038.427.427,0,0,0-.177.034.474.474,0,0,0-.127.081.33.33,0,0,0-.074.1.181.181,0,0,0-.024.068c0,.077.055.131.164.16a3.565,3.565,0,0,0,.532.078c.141.014.273.029.4.047a1.611,1.611,0,0,1,.317.076.561.561,0,0,1,.208.12.242.242,0,0,1,.076.181,1.275,1.275,0,0,1-.047.338,2.339,2.339,0,0,1-.12.338,3.417,3.417,0,0,1-.161.317c-.058.1-.116.2-.17.283a2.417,2.417,0,0,1-.413.27,4.556,4.556,0,0,1-.628.277,5.769,5.769,0,0,1-.785.218,4.371,4.371,0,0,1-.883.089,2.45,2.45,0,0,1-.928-.154,1.68,1.68,0,0,1-.6-.4,1.465,1.465,0,0,1-.328-.549,1.952,1.952,0,0,1-.1-.6,2.275,2.275,0,0,1,.058-.515,4.008,4.008,0,0,1,.137-.468c.052-.146.106-.278.16-.4s.1-.216.137-.294l.089.02q-.054.232-.109.549a3.48,3.48,0,0,0-.054.6,1.248,1.248,0,0,0,.093.488.931.931,0,0,0,.3.382,1.438,1.438,0,0,0,.529.245,3.155,3.155,0,0,0,.788.085,5.925,5.925,0,0,0,.788-.051,4.8,4.8,0,0,0,.713-.15,4.141,4.141,0,0,0,.611-.232,2.279,2.279,0,0,0,.474-.3,1.844,1.844,0,0,0-.228-.076,1.965,1.965,0,0,0-.232-.041c-.08-.009-.165-.016-.256-.02s-.191-.011-.3-.02-.211-.021-.307-.037a.8.8,0,0,1-.253-.082.442.442,0,0,1-.17-.157.5.5,0,0,1-.061-.263,1.1,1.1,0,0,1,.1-.464,1.543,1.543,0,0,1,.235-.375,1.79,1.79,0,0,1,.3-.28,3.14,3.14,0,0,1,.273-.184,1.569,1.569,0,0,1,.481-.15A4.2,4.2,0,0,1,772.053,621.15Z" transform="translate(-705.983 -613.993)"/>
      <path id="Path_242" data-name="Path 242" d="M812.28,569.43l-.552,1.112-3.4,1.173,1.3.792a3.837,3.837,0,0,1,.706.529,2.147,2.147,0,0,1,.368.464,1.149,1.149,0,0,1,.143.392,2.347,2.347,0,0,1,.024.307,1.808,1.808,0,0,1-.093.5,2.651,2.651,0,0,1-.194.44,4.561,4.561,0,0,1-.245.392c-.087.123-.164.238-.232.348a3.374,3.374,0,0,1-.535.174c-.184.043-.367.078-.549.1s-.358.041-.528.047-.327.01-.468.01a.4.4,0,0,1-.294-.13.445.445,0,0,1-.13-.328.49.49,0,0,1,.13-.341.388.388,0,0,1,.294-.143,7.313,7.313,0,0,0,1.722-.154c.4-.1.6-.237.6-.405q0-.5-1.323-1.42a5.356,5.356,0,0,0-.692-.409l-.638-.314c.063-.26.135-.522.215-.788s.174-.533.283-.8Z" transform="translate(-741.953 -568.113)"/>
      <path id="Path_243" data-name="Path 243" d="M876.607,601.709a2.356,2.356,0,0,1-.116.314c-.051.114-.106.227-.167.341s-.126.223-.191.328-.126.2-.18.273a12.92,12.92,0,0,1-1.7.444,10.861,10.861,0,0,1-2.088.184,4.09,4.09,0,0,1-1.153-.133,1.885,1.885,0,0,1-.7-.351,1.118,1.118,0,0,1-.344-.5,1.833,1.833,0,0,1-.093-.574,1.937,1.937,0,0,1,.044-.409,2.7,2.7,0,0,1,.113-.388,3.48,3.48,0,0,1,.147-.341c.052-.1.1-.2.14-.273l.081.041a1.6,1.6,0,0,0-.054.253,2.334,2.334,0,0,0-.021.328,1.273,1.273,0,0,0,.1.484,1.078,1.078,0,0,0,.361.447,2.132,2.132,0,0,0,.719.331,4.423,4.423,0,0,0,1.18.13c.4,0,.781-.017,1.129-.051s.664-.078.949-.133.537-.113.761-.174.411-.12.566-.174a1.688,1.688,0,0,0-.2-.562c-.107-.193-.217-.374-.331-.542.063-.137.14-.289.228-.457s.174-.323.256-.464a4.28,4.28,0,0,1,.208.385,3.634,3.634,0,0,1,.17.424c.048.143.087.286.12.427A2.643,2.643,0,0,1,876.607,601.709Zm-3.254,3.077-.409.635-.655-.574.43-.628Zm.716.976-.388.587-.594-.525.389-.58Zm.512-1.016-.416.628-.655-.574.43-.628Z" transform="translate(-797.2 -595.302)"/>
      <path id="Path_244" data-name="Path 244" d="M939.2,569.07c0,.072,0,.2.013.382s.018.4.027.658.019.542.031.856.02.638.027.972.013.668.021,1,.01.652.01.952a5.63,5.63,0,0,1-.047.747q-.047.353-.1.618c-.036.177-.094.388-.17.635h-.081c0-.077-.009-.256-.013-.535s-.007-.618-.007-1.013-.009-.8-.027-1.211-.043-.806-.075-1.184-.071-.725-.12-1.043a6.457,6.457,0,0,0-.16-.785Z" transform="translate(-858.089 -567.794)"/>
    </g>
    <line id="Line_22" data-name="Line 22" x1="24.971" transform="translate(110.546 91.509)" fill="none" stroke="#181b21" stroke-width="0.5"/>
    <line id="Line_23" data-name="Line 23" x1="22.512" transform="translate(0 91.509)" fill="none" stroke="#181b21" stroke-width="0.5"/>
  </g>
</svg>
