<svg xmlns="http://www.w3.org/2000/svg" width="52.35" height="53.586" viewBox="0 0 52.35 53.586">
  <g id="home" transform="translate(0 0)">
    <path id="Path_1119" data-name="Path 1119" d="M23,51h1.745v1.745H23Z" transform="translate(-4.678 -7.884)" fill="#bdc4c3"/>
    <path id="Path_1120" data-name="Path 1120" d="M49.115,54.3V22.633L28.175,8.417,7.235,22.633v9.312a3.04,3.04,0,0,1,2.83,1.91c2.174,5.376,3.277,9.025,3.277,10.843,0,3.638-2.2,6.45-5.235,6.908V49.837c1.991-.442,3.49-2.4,3.49-5.139,0-2.045-1.859-7-3.151-10.19a1.307,1.307,0,0,0-2.425,0c-1.29,3.192-3.15,8.145-3.15,10.19,0,2.744,1.5,4.7,3.49,5.139V54.3H2V56.04H54.35V54.3ZM36.9,42.953l1.745-2.617,1.745,2.617V45.57h3.49V42.953l1.745-2.617,1.745,2.617V54.3H43.88V49.06H40.39V54.3H36.9V49.06H33.41V54.3H29.92V42.953l1.745-2.617,1.745,2.617V45.57H36.9ZM29.047,25.5H33.41v1.745a2.617,2.617,0,0,1-2.617,2.617H29.047ZM30.792,19.4a2.617,2.617,0,0,1,2.617,2.617v1.745H29.047V19.4ZM22.94,22.013A2.617,2.617,0,0,1,25.557,19.4H27.3v4.362H22.94Zm0,3.49H27.3v4.362H25.557a2.617,2.617,0,0,1-2.617-2.617Zm1.745,12.215V54.3h-9.6V37.718Z" transform="translate(-2 -2.454)" fill="#bdc4c3"/>
    <path id="Path_1121" data-name="Path 1121" d="M28.287,5.8l23.45,15.913,1.96-2.889L28.287,1.583,2.877,18.824l1.96,2.889Z" transform="translate(-2.112 -1.583)" fill="#bdc4c3"/>
  </g>
</svg>
