<svg xmlns="http://www.w3.org/2000/svg" width="55.244" height="55.24" viewBox="0 0 55.244 55.24">
  <g id="apartment" transform="translate(0 -0.019)">
    <path id="Path_1122" data-name="Path 1122" d="M100.7.019H88.156v7.65L100.7,5.578Z" transform="translate(-78.644 0)" fill="#bdc4c3"/>
    <path id="Path_1123" data-name="Path 1123" d="M49.677,119.683V83.463H29.24v36.22H26V75.864L5.566,79.27v40.413H0v3.237H55.244v-3.237ZM41.685,88.118h3.438v3.237H41.685Zm0,7.891h3.438v3.237H41.685Zm0,7.891h3.438v3.237H41.685Zm0,7.891h3.438v3.237H41.685ZM33.794,88.118h3.438v3.237H33.794Zm0,7.891h3.438v3.237H33.794Zm0,7.891h3.438v3.237H33.794Zm0,7.891h3.438v3.237H33.794ZM18.011,80.226H21.45v3.237H18.011Zm0,7.891H21.45v3.237H18.011Zm0,7.891H21.45v3.237H18.011Zm0,7.891H21.45v3.237H18.011ZM10.12,88.118h3.438v3.237H10.12Zm0,7.891h3.438v3.237H10.12Zm0,7.891h3.438v3.237H10.12Zm.1,7.891H21.349v7.891H18.112v-4.654H13.458v4.654H10.221Z" transform="translate(0 -67.661)" fill="#bdc4c3"/>
  </g>
</svg>
