<svg xmlns="http://www.w3.org/2000/svg" width="36.415" height="56.499" viewBox="0 0 36.415 56.499">
  <g id="penthouse" transform="translate(-91.003)">
    <path id="Path_1131" data-name="Path 1131" d="M91,185.973a1.655,1.655,0,0,0,1.655,1.655h33.1a1.655,1.655,0,0,0,1.655-1.655v-4.966H92.659A1.655,1.655,0,0,0,91,182.662Z" transform="translate(-0.001 -161.033)" fill="#bdc4c3"/>
    <path id="Path_1132" data-name="Path 1132" d="M126.377,3.429,118.1.119a1.647,1.647,0,0,0-1.228,0L108.6,3.429a1.654,1.654,0,0,0-1.041,1.537v5.076h-14.9a1.655,1.655,0,0,0,0,3.31h1.655v3.31h3.31v-3.31h3.31v3.31h3.31v-3.31h3.31v3.31h19.863V4.967a1.653,1.653,0,0,0-1.041-1.537Zm-7.235,6.613h-3.31a1.655,1.655,0,0,1,0-3.31h3.31a1.655,1.655,0,0,1,0,3.31Z" fill="#bdc4c3"/>
    <path id="Path_1133" data-name="Path 1133" d="M150.8,295.946V271.007H121v24.939a1.654,1.654,0,0,0,1.655,1.655h11.587v-1.655a1.655,1.655,0,0,1,3.31,0V297.6h11.587A1.654,1.654,0,0,0,150.8,295.946Zm-8.276-5.076H129.28a1.655,1.655,0,1,1,0-3.31h13.242a1.655,1.655,0,1,1,0,3.31Zm0-6.621H129.28a1.655,1.655,0,0,1,0-3.31h13.242a1.655,1.655,0,0,1,0,3.31Zm0-6.621H129.28a1.655,1.655,0,1,1,0-3.31h13.242a1.655,1.655,0,1,1,0,3.31Z" transform="translate(-26.69 -241.102)" fill="#bdc4c3"/>
  </g>
</svg>
