<svg xmlns="http://www.w3.org/2000/svg" width="57.318" height="55.114" viewBox="0 0 57.318 55.114">
  <g id="room" transform="translate(0 -9.841)">
    <g id="Page-1_42_" transform="translate(0 9.841)">
      <g id="present_day_filled_42_">
        <path id="room_x2C_-space_x2C_-dimensions_x2C_-walls_x2C_-interior_x2C_-indoors" d="M464.889,930.5a1.686,1.686,0,0,0-1.094-1.578l-8.429-3.161a1.686,1.686,0,0,0-2.278,1.578v15.084l-6.743-2.552V917.96l26.973,10.206v21.916l-8.429-3.189Zm-3.372,15.112L456.46,943.7V929.775l5.058,1.9ZM442.973,917.96v21.916L416,950.082V928.166ZM421.9,940.2a1.686,1.686,0,0,0,2.278,1.578l13.487-5.057a1.686,1.686,0,0,0,1.094-1.578V926.71a1.686,1.686,0,0,0-2.278-1.578l-13.487,5.057a1.686,1.686,0,0,0-1.094,1.578ZM471.508,953l-26.258,9.847a1.686,1.686,0,0,1-1.184,0L417.809,953l26.85-10.16Zm-28.535-45.16v6.747L416,924.794v-5.67a1.686,1.686,0,0,1,1.094-1.578Zm3.372,0,25.879,9.7a1.686,1.686,0,0,1,1.094,1.578v5.67l-26.973-10.206Zm-21.073,29.924v-4.828l10.115-3.793v4.828Z" transform="translate(-416 -907.841)" fill="#bdc4c3"/>
      </g>
    </g>
  </g>
</svg>
