<svg xmlns="http://www.w3.org/2000/svg" width="41.588" height="58.916" viewBox="0 0 41.588 58.916">
  <g id="stairway" transform="translate(-75.294)">
    <path id="Path_1130" data-name="Path 1130" d="M96.088,0a20.794,20.794,0,0,1,20.794,20.794V57.183a1.733,1.733,0,0,1-1.733,1.733H77.027a1.733,1.733,0,0,1-1.733-1.733V20.794A20.794,20.794,0,0,1,96.088,0ZM78.76,51.985V55.45h34.656v-5.2H80.493A1.733,1.733,0,0,0,78.76,51.985Zm7.8-8.664v3.466h26.859v-5.2H88.29a1.733,1.733,0,0,0-1.733,1.733Zm7.8-8.664v3.466h19.061v-5.2H96.088a1.733,1.733,0,0,0-1.733,1.733Zm7.8-8.664v3.466h11.263v-5.2h-9.531a1.733,1.733,0,0,0-1.733,1.733Z" transform="translate(0 0)" fill="#bdc4c3"/>
  </g>
</svg>
