<svg id="upper_balcony" data-name="upper balcony" xmlns="http://www.w3.org/2000/svg" width="58.916" height="58.916" viewBox="0 0 58.916 58.916">
  <path id="Path_1124" data-name="Path 1124" d="M3.567,314.808h6.9V304.452h3.452v10.356h3.452V304.452h3.452v10.356H24.28V304.452h3.452v10.356h3.452V304.452h3.452v10.356h3.452V304.452H41.54v10.356h3.452V304.452h3.452v10.356h7.019V304.452h3.452V301H0v3.452H3.567Zm0,0" transform="translate(0 -266.364)" fill="#bdc4c3"/>
  <path id="Path_1125" data-name="Path 1125" d="M288.261,18.987A19.09,19.09,0,0,0,271,0V1.726a18.874,18.874,0,0,0,7.346,15,18.876,18.876,0,0,0,9.914,3.89Zm0,0" transform="translate(-239.816)" fill="#bdc4c3"/>
  <path id="Path_1126" data-name="Path 1126" d="M108.261,1.726V0A19.09,19.09,0,0,0,91,18.987V20.6a18.7,18.7,0,0,0,8.357-2.78,18.9,18.9,0,0,0,8.9-16.091Zm0,0" transform="translate(-80.529)" fill="#bdc4c3"/>
  <path id="Path_1127" data-name="Path 1127" d="M367.9,203.479v-7.089A21.77,21.77,0,0,1,361,194.7v8.78Zm0,0" transform="translate(-319.46 -172.295)" fill="#bdc4c3"/>
  <path id="Path_1128" data-name="Path 1128" d="M91,203.745h6.9V195a21.9,21.9,0,0,1-6.9,1.622Zm0,0" transform="translate(-80.529 -172.561)" fill="#bdc4c3"/>
  <path id="Path_1129" data-name="Path 1129" d="M31,451H82.9v7.019H31Zm0,0" transform="translate(-27.433 -399.103)" fill="#bdc4c3"/>
</svg>
