<svg xmlns="http://www.w3.org/2000/svg" width="16.873" height="16.602" viewBox="0 0 16.873 16.602">
  <g id="active" transform="translate(0 -28.1)">
    <path id="Path_1326" data-name="Path 1326" d="M136.045,419.294a2.748,2.748,0,0,1-2.745-2.745.549.549,0,1,1,1.1,0,1.647,1.647,0,1,0,3.294,0,.549.549,0,1,1,1.1,0A2.748,2.748,0,0,1,136.045,419.294Z" transform="translate(-128.727 -374.591)" fill="#444"/>
    <path id="Path_1327" data-name="Path 1327" d="M13.357,80.92H1.28a1.28,1.28,0,0,1-.83-2.254.374.374,0,0,1,.058-.045A4.915,4.915,0,0,0,2.2,74.912V72.871a5.094,5.094,0,0,1,3.928-4.978.548.548,0,1,1,.254,1.067,4,4,0,0,0-3.084,3.908v2.041A6.028,6.028,0,0,1,1.17,79.5a.189.189,0,0,1-.031.024.171.171,0,0,0-.038.113.183.183,0,0,0,.182.182H13.36a.183.183,0,0,0,.182-.182.172.172,0,0,0-.041-.113c-.01-.007-.021-.017-.031-.024a5.971,5.971,0,0,1-1.537-2.007.549.549,0,0,1,.992-.47,4.878,4.878,0,0,0,1.211,1.6c.021.014.038.027.055.041a1.282,1.282,0,0,1-.834,2.258Z" transform="translate(0 -38.413)" fill="#444"/>
    <path id="Path_1328" data-name="Path 1328" d="M185.4,35.058v2.285a.541.541,0,0,0,.542.542h2.175a.542.542,0,0,0,.539-.48,3.059,3.059,0,0,0,1.647.48h3.616a2,2,0,0,0,1.993-1.993v-2.9A2,2,0,0,0,193.919,31h-.542V29.73a1.63,1.63,0,1,0-3.259,0v.446A1.278,1.278,0,0,1,189.2,31.4l-.528.151v0a.541.541,0,0,0-.542-.542h-2.175a.541.541,0,0,0-.542.542v2.429m2.165,2.824h-1.088V32.083h1.088Zm7.25-.906a.9.9,0,0,1-.906.906h-3.613a1.978,1.978,0,0,1-1.643-.878V32.677l.827-.237a2.366,2.366,0,0,0,1.709-2.264V29.73a.542.542,0,0,1,1.084,0v1.812a.541.541,0,0,0,.542.542h1.088a.9.9,0,0,1,.906.906v2.9Z" transform="translate(-179.039)" fill="#444"/>
  </g>
</svg>
