<svg id="edit" xmlns="http://www.w3.org/2000/svg" width="15.469" height="15.464" viewBox="0 0 15.469 15.464">
  <g id="Group_571" data-name="Group 571" transform="translate(0)">
    <g id="Group_570" data-name="Group 570" transform="translate(0 0)">
      <path id="Path_1333" data-name="Path 1333" d="M157.567,5.457a4.016,4.016,0,0,0-5.64-.009l-7.064,7.064a5.445,5.445,0,0,0-1.6,3.867v2.337a1.042,1.042,0,0,0,1.043,1.043h2.337a5.446,5.446,0,0,0,3.868-1.6l7.055-7.055A4,4,0,0,0,157.567,5.457Zm-8.528,11.226a3.372,3.372,0,0,1-2.394.989h-1.294V16.379a3.371,3.371,0,0,1,.988-2.393L151,9.329l2.7,2.7Zm7.053-7.053-.921.921-2.7-2.7.921-.921a1.908,1.908,0,0,1,2.7,2.7Z" transform="translate(-143.265 -4.296)" fill="#fff"/>
    </g>
  </g>
</svg>
