<svg xmlns="http://www.w3.org/2000/svg" width="20.83" height="18.449" viewBox="0 0 20.83 18.449">
  <g id="enquiry" transform="translate(-96.4 -7.396)">
    <g id="Group_566" data-name="Group 566" transform="translate(-2)">
      <path id="Path_1320" data-name="Path 1320" d="M130,0h-7.143a1.108,1.108,0,0,0-1.128,1.128V4.587a.341.341,0,0,1-.113.263L120.6,5.865v.9H130a1.108,1.108,0,0,0,1.128-1.128V1.128A1.108,1.108,0,0,0,130,0Zm.376,5.639a.355.355,0,0,1-.376.376h-8.5l.639-.639a1.082,1.082,0,0,0,.338-.79V1.128a.355.355,0,0,1,.376-.376H130a.355.355,0,0,1,.376.376Z" transform="translate(-11.897 7.396)" fill="#444"/>
      <path id="Path_1321" data-name="Path 1321" d="M176.6,32h6.391v.752H176.6Z" transform="translate(-65.265 -23.1)" fill="#444"/>
      <path id="Path_1322" data-name="Path 1322" d="M176.6,64h6.391v.752H176.6Z" transform="translate(-65.265 -53.596)" fill="#444"/>
      <path id="Path_1323" data-name="Path 1323" d="M176.6,96h4.888v.752H176.6Z" transform="translate(-65.265 -84.092)" fill="#444"/>
    </g>
    <g id="Group_565" data-name="Group 565" transform="translate(96.4 8.615)">
      <path id="Path_1324" data-name="Path 1324" d="M98.754,169.089m-.862.431a3.008,3.008,0,0,0-.6.538,5.422,5.422,0,0,0-.479.8,3.1,3.1,0,0,0-.183.673c-.011.07-.016.135-.022.2l-.011,1.185v4.308h13.353v-5.212a2.989,2.989,0,0,0-1.766-2.757l-2.541-1.163a3.67,3.67,0,0,0,1.292-2.8V160h-5.169a2.133,2.133,0,0,0-2.154,2.154V165.3a3.67,3.67,0,0,0,1.292,2.8l-1.9.872a.475.475,0,0,1-.129.059m1.594-3.731v-3.144a1.269,1.269,0,0,1,1.292-1.292h4.308V165.3a2.8,2.8,0,0,1-5.6,0Zm-3.015,11.07v-4.351a2.183,2.183,0,0,1,1.249-1.981l3.058-1.378a3.481,3.481,0,0,0,2.929,0l3.058,1.378a2.138,2.138,0,0,1,1.249,1.981v4.351Z" transform="translate(-96.589 -160)" fill="#444"/>
      <path id="Path_1325" data-name="Path 1325" d="M96.411,379.467c0-.054,0-.113.005-.167-.005.086-.011.172-.016.253h.011Z" transform="translate(-96.4 -367.492)" fill="#444"/>
    </g>
  </g>
</svg>
