<svg xmlns="http://www.w3.org/2000/svg" width="14.201" height="13.385" viewBox="0 0 14.201 13.385">
  <g id="home_list" data-name="home list" transform="translate(-11.938 -22.7)">
    <path id="Path_1311" data-name="Path 1311" d="M19.32,133.957l-3-2a1.1,1.1,0,0,0-1.217,0l-3,2h0a.378.378,0,0,0,.4.641v3.642a.948.948,0,0,0,.946.946h1.358a.378.378,0,0,0,.376-.379v-1.358a.529.529,0,0,1,1.058,0v1.358a.378.378,0,0,0,.376.379h1.358a.948.948,0,0,0,.946-.946V134.6a.377.377,0,0,0,.4-.641Zm-1.152,4.291a.187.187,0,0,1-.191.182H17v-.985a1.284,1.284,0,0,0-2.569,0v.985h-.985a.187.187,0,0,1-.182-.191V134.1l2.263-1.511a.3.3,0,0,1,.191-.059.341.341,0,0,1,.191.059l2.263,1.511v4.147Z" transform="translate(0 -105.869)" fill="#444"/>
    <g id="Group_563" data-name="Group 563" transform="translate(15.167 22.7)">
      <path id="Path_1312" data-name="Path 1312" d="M132.387,119.294a.382.382,0,0,0-.362.385v9.247a.169.169,0,0,1-.165.168h-9.147a.169.169,0,0,1-.168-.165v-.714a.376.376,0,0,0-.112-.267.37.37,0,0,0-.27-.106.385.385,0,0,0-.364.385v.7a.917.917,0,0,0,.914.914h9.144a.917.917,0,0,0,.914-.914v-9.259a.367.367,0,0,0-.115-.267A.359.359,0,0,0,132.387,119.294Z" transform="translate(-121.8 -116.455)" fill="#444"/>
      <path id="Path_1313" data-name="Path 1313" d="M131.858,22.7h-9.144a.917.917,0,0,0-.914.914V24.6a.373.373,0,1,0,.747,0v-.985a.169.169,0,0,1,.165-.168h9.147a.169.169,0,0,1,.168.165v1.176a.373.373,0,1,0,.747,0V23.608A.914.914,0,0,0,131.858,22.7Z" transform="translate(-121.8 -22.7)" fill="#444"/>
      <path id="Path_1314" data-name="Path 1314" d="M288.541,147.547h4.306a.375.375,0,0,0,0-.747h-4.306a.375.375,0,0,0,0,.747Z" transform="translate(-283.309 -143.152)" fill="#444"/>
      <path id="Path_1315" data-name="Path 1315" d="M288.541,231.047h4.306a.375.375,0,0,0,0-.747h-4.306a.375.375,0,0,0,0,.747Z" transform="translate(-283.309 -224.198)" fill="#444"/>
      <path id="Path_1316" data-name="Path 1316" d="M288.54,314.547h2.648a.375.375,0,0,0,0-.747H288.54a.359.359,0,0,0-.341.373A.355.355,0,0,0,288.54,314.547Z" transform="translate(-283.308 -305.244)" fill="#444"/>
    </g>
  </g>
</svg>
