<svg xmlns="http://www.w3.org/2000/svg" width="17.058" height="15.281" viewBox="0 0 17.058 15.281">
  <g id="Line" transform="translate(-5 -7.028)">
    <path id="Path_1317" data-name="Path 1317" d="M5.449,35.529h6.733a.449.449,0,0,0,.215-.054l4.938-2.693.067-.045,4.143-3.317A1.358,1.358,0,0,0,20.711,27h-.162a1.347,1.347,0,0,0-.754.229l-3.73,2.487-3.667.669.9-1.127a1.113,1.113,0,0,0-.871-1.8h-.5a1.145,1.145,0,0,0-.6.175L5.206,31.561A.449.449,0,0,0,5,31.938V35.08A.449.449,0,0,0,5.449,35.529ZM5.9,32.185l5.912-3.8a.224.224,0,0,1,.117-.036h.489a.22.22,0,0,1,.215.215.206.206,0,0,1-.049.135l-1.647,2.065a.449.449,0,0,0,.449.718l4.938-.9a.382.382,0,0,0,.166-.067l3.775-2.541a.476.476,0,0,1,.256-.076h.193a.449.449,0,0,1,.287.821l-4.116,3.29L12.07,34.631H5.9Z" transform="translate(0 -13.219)" fill="#444"/>
    <g id="Group_564" data-name="Group 564" transform="translate(19.405 7.028) rotate(90)">
      <path id="Path_1318" data-name="Path 1318" d="M2.245,6.92v4.3a.449.449,0,0,0,.13.319l.9.9a.449.449,0,0,0,.637,0l.9-.9a.449.449,0,0,0,.13-.319V6.92a3.591,3.591,0,1,0-2.693,0ZM3.591.9a2.693,2.693,0,0,1,.768,5.274.449.449,0,0,0-.319.449v1.01a.449.449,0,0,0,0,.9v.9a.449.449,0,0,0,0,.9v.714l-.449.449-.449-.449V6.606a.449.449,0,0,0-.319-.449A2.693,2.693,0,0,1,3.591.9Z" fill="#444"/>
      <path id="Path_1319" data-name="Path 1319" d="M1.347,2.693A1.347,1.347,0,1,0,0,1.347,1.347,1.347,0,0,0,1.347,2.693Zm0-1.8A.449.449,0,1,1,.9,1.347.449.449,0,0,1,1.347.9Z" transform="translate(2.245 2.247)" fill="#444"/>
    </g>
  </g>
</svg>
