<svg xmlns="http://www.w3.org/2000/svg" width="28" height="20" viewBox="0 0 28 20">
  <path id="mail" d="M27,6H5A3,3,0,0,0,2,9V23a3,3,0,0,0,3,3H27a3,3,0,0,0,3-3V9A3,3,0,0,0,27,6ZM23.029,19.647a1,1,0,0,0-1.139,1.645L25.805,24H6.195l3.914-2.708a1,1,0,1,0-1.139-1.645L4.015,23.076C4.013,23.049,4,23.027,4,23V9c0-.027.013-.049.015-.076L14.289,16.03a2.964,2.964,0,0,0,3.42,0L27.985,8.924c0,.026.015.049.015.076V23c0,.027-.013.049-.015.076ZM6.2,8H25.8l-9.237,6.39a.985.985,0,0,1-1.139,0Z" transform="translate(-2 -6)" fill="#20b69e"/>
</svg>
