<svg xmlns="http://www.w3.org/2000/svg" xmlns:xlink="http://www.w3.org/1999/xlink" width="315.22" height="307.097" viewBox="0 0 315.22 307.097">
  <defs>
    <linearGradient id="linear-gradient" x1="-0.747" y1="0.259" x2="-1.429" y2="0.745" gradientUnits="objectBoundingBox">
      <stop offset="0" stop-color="#20b69e"/>
      <stop offset="0.996" stop-color="#297ce0"/>
    </linearGradient>
    <linearGradient id="linear-gradient-2" x1="-0.886" y1="0.285" x2="-1.613" y2="0.925" gradientUnits="objectBoundingBox">
      <stop offset="0" stop-color="#ffc444"/>
      <stop offset="0.996" stop-color="#f36f56"/>
    </linearGradient>
    <linearGradient id="linear-gradient-3" x1="-1.251" y1="0.104" x2="-2.313" y2="0.905" gradientUnits="objectBoundingBox">
      <stop offset="0.004" stop-color="#68a2e9"/>
      <stop offset="1" stop-color="#297ce0"/>
    </linearGradient>
    <linearGradient id="linear-gradient-4" x1="-0.296" y1="-0.886" x2="-0.031" y2="1.918" gradientUnits="objectBoundingBox">
      <stop offset="0" stop-color="#aa80f9"/>
      <stop offset="0.996" stop-color="#6165d7"/>
    </linearGradient>
    <linearGradient id="linear-gradient-5" x1="-4.696" y1="0.186" x2="-5.806" y2="0.814" xlink:href="#linear-gradient-3"/>
    <linearGradient id="linear-gradient-6" x1="-5.299" y1="0.492" x2="-6.507" y2="0.506" gradientUnits="objectBoundingBox">
      <stop offset="0" stop-color="#126051"/>
      <stop offset="1" stop-color="#14473d"/>
    </linearGradient>
    <clipPath id="clip-path">
      <path id="Path_1366" data-name="Path 1366" d="M2014.909,1639c4.642,0,9.21-1.947,13.564-5.787,4.429-3.915,8.44-9.563,11.917-16.816,7.306-15.233,11.328-35.547,11.328-57.2s-4.022-41.965-11.328-57.2c-3.476-7.242-7.488-12.9-11.917-16.816-4.354-3.84-8.921-5.787-13.564-5.787s-9.21,1.947-13.564,5.787c-4.429,3.915-8.44,9.563-11.917,16.816-7.306,15.233-11.328,35.547-11.328,57.2s4.022,41.965,11.328,57.2c3.477,7.242,7.488,12.9,11.917,16.816C2005.7,1637.055,2010.266,1639,2014.909,1639Z" transform="translate(-1978.1 -1479.4)"/>
    </clipPath>
    <linearGradient id="linear-gradient-7" x1="-1.576" y1="-0.563" x2="-1.099" y2="1.571" xlink:href="#linear-gradient-2"/>
    <linearGradient id="linear-gradient-8" x1="-3.632" y1="-0.557" x2="-2.911" y2="1.565" xlink:href="#linear-gradient-2"/>
    <linearGradient id="linear-gradient-9" x1="-3.31" y1="-0.669" x2="-2.3" y2="3.414" xlink:href="#linear-gradient-4"/>
    <linearGradient id="linear-gradient-10" x1="-3.145" y1="-0.86" x2="-2.428" y2="0.943" xlink:href="#linear-gradient-3"/>
    <linearGradient id="linear-gradient-11" x1="-18.363" y1="0.372" x2="-15.005" y2="2.287" xlink:href="#linear-gradient-3"/>
    <linearGradient id="linear-gradient-12" x1="-2.768" y1="-0.443" x2="-1.784" y2="2.834" xlink:href="#linear-gradient"/>
    <linearGradient id="linear-gradient-13" x1="0" y1="0.5" x2="1.001" y2="0.5" xlink:href="#linear-gradient"/>
    <linearGradient id="linear-gradient-14" x1="0.575" y1="0.268" x2="-1.247" y2="4.006" xlink:href="#linear-gradient-2"/>
    <linearGradient id="linear-gradient-15" x1="0.161" y1="1.708" x2="2.259" y2="-4.596" xlink:href="#linear-gradient-2"/>
    <linearGradient id="linear-gradient-16" x1="38.661" y1="0.821" x2="38.513" y2="2.708" xlink:href="#linear-gradient-2"/>
    <linearGradient id="linear-gradient-17" x1="6.432" y1="-15.378" x2="6.481" y2="-17.158" xlink:href="#linear-gradient-2"/>
    <linearGradient id="linear-gradient-18" x1="14.3" y1="-27.109" x2="14.267" y2="-23.959" xlink:href="#linear-gradient-2"/>
    <linearGradient id="linear-gradient-19" x1="1.133" y1="-0.096" x2="-3.261" y2="3.653" gradientUnits="objectBoundingBox">
      <stop offset="0" stop-color="#ff9085"/>
      <stop offset="1" stop-color="#fb6fbb"/>
    </linearGradient>
    <linearGradient id="linear-gradient-20" x1="-3.13" y1="-2.038" x2="-3.708" y2="0.799" xlink:href="#linear-gradient-2"/>
    <linearGradient id="linear-gradient-21" x1="-2.596" y1="-1.17" x2="-3.174" y2="1.666" xlink:href="#linear-gradient-2"/>
    <linearGradient id="linear-gradient-22" x1="-2.361" y1="-0.469" x2="-2.938" y2="2.367" xlink:href="#linear-gradient-2"/>
    <linearGradient id="linear-gradient-23" x1="-2.055" y1="0.1" x2="-2.633" y2="2.937" xlink:href="#linear-gradient-2"/>
    <linearGradient id="linear-gradient-24" x1="-10.943" y1="-0.851" x2="-11.533" y2="1.901" xlink:href="#linear-gradient-2"/>
  </defs>
  <g id="Group_632" data-name="Group 632" transform="translate(-7499.021 -334.104)">
    <g id="Illustration" transform="translate(7499.021 334.104)">
      <path id="Path_1358" data-name="Path 1358" d="M548.846,370.8c-21.63,3.787-26.069,10.943-66.59,21.031-40.125,9.991-44.789,5.21-57.262,12.184-35.878,20.057-44.415,85.76-35.108,131.169,11.863,57.925,61.723,134.935,144.327,140.187,92.745,5.9,162.919-82.7,167.2-160.448.46-8.408,3.2-78.86-50.662-120.483C607.327,360.891,552.269,370.2,548.846,370.8Z" transform="translate(-386.355 -368.551)" fill="#f4f7fa"/>
      <path id="Path_1359" data-name="Path 1359" d="M676.248,2221.623a17.019,17.019,0,0,1-14.527-10.344l-35.408-85.064a14.876,14.876,0,0,1,8.162-19.619c7.809-3.134,19.972.556,23.288,8.386l36.328,85.984a14.536,14.536,0,0,1-8.579,19.758A35.8,35.8,0,0,1,676.248,2221.623Z" transform="translate(-599.559 -1919.128)" fill="url(#linear-gradient)"/>
      <path id="Path_1360" data-name="Path 1360" d="M634.375,2106.6c7.809-3.134,19.972.556,23.288,8.387l33.215,78.614c-5.563-1.433-12.141-1.3-18.453-6.835-10.515-9.221-5.338-21.041-13.682-31.567-3.808-4.814-10.858-9.874-25.213-11.4l-7.317-17.575A14.876,14.876,0,0,1,634.375,2106.6Z" transform="translate(-599.47 -1919.127)" opacity="0.3" fill="url(#linear-gradient-2)"/>
      <path id="Path_1361" data-name="Path 1361" d="M399.585,1956.671a6.506,6.506,0,0,1,.909.064l21.887-.235v56.92l-21.138-.289a6.716,6.716,0,0,1-1.658.214c-7.5,0-13.585-12.687-13.585-28.326C386,1969.358,392.087,1956.671,399.585,1956.671Z" transform="translate(-386 -1786.083)" fill="url(#linear-gradient-3)"/>
      <path id="Path_1362" data-name="Path 1362" d="M674.193,1535.08c-8.29,18.956-8.29,37.836,0,56.92l162.833,52.352,1.679-159.752Z" transform="translate(-637.812 -1364.663)" fill="#20b69e"/>
      <path id="Path_1363" data-name="Path 1363" d="M793.108,2194.567c-15.479-5.862-20.293-28.326-38.264-29.086-14.1-.588-18.356,13.1-32.177,11.628-14.142-1.508-16.516-16.763-32.359-22.143-7.2-2.439-14.741-1.99-22.047.075a69.48,69.48,0,0,0,5.98,34.124l162.833,52.352-9.638-54.246C811.379,2196.643,800.618,2197.413,793.108,2194.567Z" transform="translate(-637.849 -1961.839)" opacity="0.3" fill="url(#linear-gradient-4)" style="mix-blend-mode: multiply;isolation: isolate"/>
      <ellipse id="Ellipse_118" data-name="Ellipse 118" cx="39.612" cy="82.604" rx="39.612" ry="82.604" transform="translate(167.508 116.578)" fill="url(#linear-gradient-5)"/>
      <path id="Path_1364" data-name="Path 1364" d="M2043.337,1639c4.643,0,9.21-1.947,13.564-5.787,4.429-3.915,8.44-9.563,11.917-16.816,7.306-15.233,11.329-35.547,11.329-57.2s-4.022-41.965-11.329-57.2c-3.477-7.242-7.488-12.9-11.917-16.816-4.354-3.84-8.921-5.787-13.564-5.787s-9.21,1.947-13.564,5.787c-4.429,3.915-8.44,9.563-11.917,16.816a106.33,106.33,0,0,0-7.381,21.5c-2.578,10.954,4.878,22.389,4.878,34.99,0,13.4-7.274,26.989-4.365,38.478a104.157,104.157,0,0,0,6.878,19.437c3.477,7.242,7.488,12.9,11.917,16.816C2034.127,1637.055,2038.694,1639,2043.337,1639Z" transform="translate(-1836.218 -1360.019)" fill="url(#linear-gradient-6)"/>
      <g id="Group_627" data-name="Group 627" transform="translate(170.31 119.381)">
        <g id="Group_625" data-name="Group 625" clip-path="url(#clip-path)">
          <path id="Path_1365" data-name="Path 1365" d="M1846.968,1921.591c0,20.935-13.864,37.547-30.712,37.119-16.591-.417-29.856-17.244-29.856-37.59s13.265-36.97,29.856-37.13C1833.115,1883.83,1846.968,1900.657,1846.968,1921.591Z" transform="translate(-1806.906 -1840.71)" fill="url(#linear-gradient-7)"/>
        </g>
        <g id="Group_626" data-name="Group 626" clip-path="url(#clip-path)">
          <path id="Path_1367" data-name="Path 1367" d="M2081.414,1999.213c0,15.543-6.75,27.877-14.966,27.567-8.087-.31-14.548-12.8-14.548-27.92s6.461-27.449,14.548-27.567C2074.653,1971.176,2081.414,1983.67,2081.414,1999.213Z" transform="translate(-2044.005 -1918.673)" opacity="0.3" fill="url(#linear-gradient-8)"/>
        </g>
      </g>
      <path id="Path_1369" data-name="Path 1369" d="M2388.629,2240.45l51.09,2.086c4.161.171,7.584,3.049,7.584,6.418h0c0,3.37-3.423,5.894-7.584,5.637l-51.09-3.177c-3.4-.214-6.129-2.8-6.129-5.8h0C2382.5,2242.622,2385.228,2240.311,2388.629,2240.45Z" transform="translate(-2168.93 -2039.653)" opacity="0.3" fill="url(#linear-gradient-9)"/>
      <path id="Path_1370" data-name="Path 1370" d="M2362.8,1946.471l59.262-.984c4.964-.085,9.061,3.38,9.061,7.734h0c0,4.354-4.1,7.841-9.061,7.777l-59.262-.77a6.931,6.931,0,0,1-6.9-6.868h0A6.949,6.949,0,0,1,2362.8,1946.471Z" transform="translate(-2145.175 -1776.246)" fill="url(#linear-gradient-10)"/>
      <path id="Path_1371" data-name="Path 1371" d="M2556.619,2170.37l48.373,1.476c3.937.118,7.167,2.878,7.167,6.151h0c0,3.273-3.231,5.766-7.167,5.563l-48.373-2.5a5.923,5.923,0,0,1-5.819-5.584h0A5.352,5.352,0,0,1,2556.619,2170.37Z" transform="translate(-2319.227 -1977.071)" fill="#20b69e"/>
      <path id="Path_1372" data-name="Path 1372" d="M3080.8,1949.474c0,4.375,3.862,7.98,8.718,8.044,4.953.064,9.028-3.551,9.028-8.087s-4.086-8.13-9.028-8.044C3084.662,1941.484,3080.8,1945.1,3080.8,1949.474Z" transform="translate(-2792.531 -1772.585)" fill="url(#linear-gradient-11)"/>
      <g id="Group_628" data-name="Group 628" transform="translate(208.82 214.981)">
        <path id="Path_1373" data-name="Path 1373" d="M2345.192,2373.118l61.027,4.718c5.124.4,9.35,4.311,9.35,8.739h0c0,4.429-4.226,7.563-9.35,7.018l-61.027-6.515a7.935,7.935,0,0,1-7.092-7.627h0A6.36,6.36,0,0,1,2345.192,2373.118Z" transform="translate(-2338.1 -2373.096)" fill="url(#linear-gradient-12)"/>
        <path id="Path_1374" data-name="Path 1374" d="M2911.9,2440.033c0,3.327,3.123,6.333,7.017,6.74,3.958.406,7.21-2.022,7.21-5.434s-3.252-6.44-7.21-6.761C2915.023,2434.268,2911.9,2436.707,2911.9,2440.033Z" transform="translate(-2850.519 -2427.977)" fill="url(#linear-gradient-13)"/>
      </g>
      <path id="Path_1375" data-name="Path 1375" d="M2152.7,835.609l6.375-3.081c1.637-.76,3.37-1.519,5.188-2.257,2.642-1.07,5.2-1.99,7.627-2.771,0,0,.128.963-1.369,1.808s-4.29,1.926-4.974,2.214.663,2.653-1.155,4.354-4.611.931-5.274-.342l-4.7,2.279Z" transform="translate(-1963.712 -777.854)" fill="url(#linear-gradient-14)"/>
      <path id="Path_1376" data-name="Path 1376" d="M1331.656,885.6c.941,1.958,1.893,3.915,2.835,5.873a28.123,28.123,0,0,1-7.028,9.307c-8.793,7.531-16.891,4.236-32.691,9.692-7.082,2.45-4.782,2.878-21.031,10.355-13.5,6.215-20.335,9.307-24.571,8.419C1235.648,926.4,1230.8,901.325,1230,896.9c15.211-2.471,18.292-3.241,27.182-3.594,20.057-.813,45.474.449,68.045-5.766C1327.933,886.777,1330.169,886.081,1331.656,885.6Z" transform="translate(-1139.716 -829.739)" fill="#297ce0"/>
      <path id="Path_1377" data-name="Path 1377" d="M1240.323,2715.682a2.481,2.481,0,0,1-.289.278,5.191,5.191,0,0,0-1.936,4.226c.2,2.728,3.626,6.4,7.884,10.644s3.305-1.829,2.974-2.728-5.595-12.6-5.595-12.6Z" transform="translate(-1146.936 -2463.891)" fill="#232930"/>
      <path id="Path_1378" data-name="Path 1378" d="M1277.963,2685.932l-4.782,2.61a1.426,1.426,0,0,1-1.99-1.829l.032-.064,2.364-5.049Z" transform="translate(-1176.382 -2433.617)" fill="url(#linear-gradient-15)"/>
      <path id="Path_1379" data-name="Path 1379" d="M844.932,1623.8c8.686.674,38.991,4.086,57.155,28.647a47.741,47.741,0,0,1,8.055,15.447c6.45,23.17-11.168,52.63-41.495,75.565-1.915-2.086-3.83-4.183-5.734-6.269a66.668,66.668,0,0,1,6.215-26.155c6.429-13.575,14.366-17.618,13.96-26.861-.471-10.633-11.564-18.175-13.671-19.544-15.618-10.13-29.61-.375-43.356-9.841-7.124-4.91-10.612-12.516-12.462-18.667Q829.245,1629.962,844.932,1623.8Z" transform="translate(-767.859 -1488.972)" fill="#232930"/>
      <path id="Path_1380" data-name="Path 1380" d="M862.642,377.766s2.45-1.348,3.166-3.07a4.473,4.473,0,0,0-1.7-5.787c-2.428-1.4-2.952-2.824-3.83-3.969a5.646,5.646,0,0,0-2.878-1.54s3.6,6.643,4.033,7.734,2.182,1.241.011,4.354Z" transform="translate(-806.973 -363.4)" fill="url(#linear-gradient-16)"/>
      <path id="Path_1381" data-name="Path 1381" d="M817.018,851.766c-6.033,1.187-13.479.5-24.154.952-17.1.717-29.332-9.2-35.707-13.618-6.964,15.2-7.114,26.476-5.883,34.049.909,5.584,2.279,7.456,2.407,13.692.2,10.515-3.552,12.109-5.317,25.77-1.455,11.253.631,13.7-2.642,18.389-2.353,3.359-5.488,5.028-7.349,10.28-.62,1.744-2.15,6.065-.524,7.467,2.61,2.246,9.093-6.664,21.18-7.884,6.45-.653,7.435,1.6,14.12.332,7.3-1.391,6.793-4.2,13.628-5.584,6.782-1.369,8.836,1.07,19.212-.16,4.364-.524,6.547-.781,7.916-1.99,4.407-3.915.76-11.7-.032-23.951-.781-12.077,2.214-12.89,3.444-30.872A168.963,168.963,0,0,0,817.018,851.766Z" transform="translate(-699.563 -788.213)" fill="#297ce0"/>
      <path id="Path_1382" data-name="Path 1382" d="M614.165,456.2c-1.369-1.53-2.738-3.07-4.108-4.6a75.577,75.577,0,0,0-22.55,18.463c-5.98,7.253-11.254,13.65-11.82,22.935-.813,13.307,8.611,23.277,13,27.909A54.05,54.05,0,0,0,613.01,535.52c11.05-24.518,9.4-34.1,5.5-38.189-2.182-2.279-5.113-2.91-7.809-7.135-3.744-5.873-3.081-12.526-2.664-16.73A39.185,39.185,0,0,1,614.165,456.2Z" transform="translate(-555.352 -442.165)" fill="#297ce0"/>
      <g id="Group_630" data-name="Group 630" transform="translate(79.639 46.539)">
        <path id="Path_1383" data-name="Path 1383" d="M1142.833,846.9a10.567,10.567,0,0,1-1.7,8.13,10.979,10.979,0,0,1-6.076,3.584c-2.867.759-4.407.139-4.557.631-.342,1.091,6.675,5.926,14.805,5.627,4.771-.182,9.585-2.118,9.531-3.648-.053-1.722-6.183-1.53-7.7-5.092-.973-2.278.364-5.081,1.819-7.263C1147.626,847.328,1144.149,848.44,1142.833,846.9Z" transform="translate(-1130.488 -841.718)" fill="url(#linear-gradient-17)"/>
        <g id="Group_629" data-name="Group 629" transform="translate(10.629)">
          <path id="Path_1384" data-name="Path 1384" d="M1239.843,803.913a3.5,3.5,0,0,0-.032-4.279,4.324,4.324,0,0,0-3.134-1.166c-2.45-.16-5.552.909-6.654,3.038-.653,1.262.7,3.787.9,4.236.235.513.685.674,1.08,1.048.567.524,1.444,1.359,2.878,2.76a9.333,9.333,0,0,1,.578-1.562,8.6,8.6,0,0,1,1.187-1.861C1237.95,804.641,1238.977,805,1239.843,803.913Z" transform="translate(-1229.846 -798.453)" fill="#232930"/>
          <path id="Path_1385" data-name="Path 1385" d="M1241.954,843.161a5.207,5.207,0,0,0,4.792,2.043c2.867-.3,3.359-6.269,1.551-7.456a3.807,3.807,0,0,0-2.824-.225c-.588.182-.792.406-1.765.685-.9.257-1.145.171-1.423.4-.342.278-.6.931-.053,2.653a1.583,1.583,0,0,0-1.669-.439.971.971,0,0,0-.385.364C1239.761,841.877,1240.424,842.722,1241.954,843.161Z" transform="translate(-1238.964 -833.196)" fill="url(#linear-gradient-18)"/>
        </g>
      </g>
      <g id="Group_631" data-name="Group 631" transform="translate(20.286 39.002)" opacity="0.3" style="mix-blend-mode: multiply;isolation: isolate">
        <path id="Path_1386" data-name="Path 1386" d="M652.322,810.861c-7.584-8.3-14.142-5.359-19.875-11.927-8.408-9.617,1.583-20.614-4.771-31.8-8.483-14.944-32.744-6.611-43.719-20.667-2.888-3.691-5.177-9.349-4.621-18.463a26.683,26.683,0,0,0-3.648,11.831c-.813,13.307,8.611,23.277,13,27.909A53.246,53.246,0,0,0,608.646,780.9a30.139,30.139,0,0,1,.813,6.718c.2,10.515-3.551,12.109-5.317,25.77-1.455,11.253.631,13.7-2.642,18.388-2.353,3.359-5.488,5.028-7.349,10.28-.62,1.744-2.15,6.065-.524,7.467,2.61,2.246,9.093-6.664,21.18-7.884,6.45-.653,7.435,1.6,14.12.332,7.3-1.391,6.793-4.2,13.628-5.584,6.782-1.369,8.836,1.07,19.212-.16,4.364-.524,6.547-.781,7.916-1.99a6.107,6.107,0,0,0,1.947-3.594c-4.664-.032-7.713-1.348-9.788-3.081C656.965,823.44,658.858,818.006,652.322,810.861Z" transform="translate(-575.638 -728)" fill="url(#linear-gradient-19)"/>
      </g>
      <path id="Path_1387" data-name="Path 1387" d="M2887.618,1521.63l-1.156,6.814,5.092,4.931a.88.88,0,0,1-.5,1.519l-6.985.866-3.092,6.129a.936.936,0,0,1-1.658-.032l-3.2-6.258-7.082-1.134a.911.911,0,0,1-.535-1.551l5.081-4.75-1.284-6.9a.906.906,0,0,1,1.348-.931l6.354,3.391,6.279-3.091A.951.951,0,0,1,2887.618,1521.63Z" transform="translate(-2602.698 -1396.472)" fill="url(#linear-gradient-20)"/>
      <path id="Path_1388" data-name="Path 1388" d="M2793.257,1167.043l-1.647,9.66,7.21,6.985a1.251,1.251,0,0,1-.717,2.161l-9.906,1.219-4.386,8.7a1.327,1.327,0,0,1-2.354-.043l-4.536-8.868-10.045-1.6a1.294,1.294,0,0,1-.76-2.2l7.2-6.739-1.808-9.788a1.282,1.282,0,0,1,1.915-1.316l9.007,4.814,8.9-4.386A1.356,1.356,0,0,1,2793.257,1167.043Z" transform="translate(-2511.161 -1079.283)" fill="url(#linear-gradient-21)"/>
      <path id="Path_1389" data-name="Path 1389" d="M2549.086,837.242l-2.011,11.853,8.846,8.568a1.537,1.537,0,0,1-.877,2.653l-12.163,1.5-5.381,10.665a1.633,1.633,0,0,1-2.888-.043l-5.562-10.879-12.323-1.968a1.591,1.591,0,0,1-.931-2.706l8.836-8.269-2.225-12.013a1.568,1.568,0,0,1,2.343-1.615l11.061,5.9,10.922-5.381A1.66,1.66,0,0,1,2549.086,837.242Z" transform="translate(-2287.539 -784.355)" fill="url(#linear-gradient-22)"/>
      <path id="Path_1390" data-name="Path 1390" d="M2235.823,405.618l-2.6,15.276,11.4,11.05a1.974,1.974,0,0,1-1.123,3.412l-15.671,1.926-6.932,13.746a2.1,2.1,0,0,1-3.723-.064L2210,436.95l-15.875-2.535a2.049,2.049,0,0,1-1.2-3.487l11.393-10.654-2.867-15.479a2.024,2.024,0,0,1,3.017-2.086l14.249,7.616,14.077-6.932A2.135,2.135,0,0,1,2235.823,405.618Z" transform="translate(-1999.083 -398.269)" fill="url(#linear-gradient-23)"/>
      <path id="Path_1391" data-name="Path 1391" d="M2851.214,1779.783l-2.867,2.653.578,3.958a.5.5,0,0,1-.749.513l-3.434-2.022-3.5,1.679a.534.534,0,0,1-.738-.588l.717-3.9-2.781-2.952a.513.513,0,0,1,.3-.877l3.915-.374,1.808-3.53a.506.506,0,0,1,.92.053l1.679,3.712,3.883.781A.525.525,0,0,1,2851.214,1779.783Z" transform="translate(-2575.964 -1623.165)" fill="url(#linear-gradient-24)"/>
    </g>
  </g>
</svg>
