<svg xmlns="http://www.w3.org/2000/svg" width="27.639" height="27.68" viewBox="0 0 27.639 27.68">
  <g id="phone-call_1_" data-name="phone-call (1)" transform="translate(0.154 0.502)">
    <g id="Group_567" data-name="Group 567" transform="translate(0.344 0)">
      <path id="Path_1329" data-name="Path 1329" d="M21.409,42.389a2.624,2.624,0,0,0-1.9-.873,2.713,2.713,0,0,0-1.926.867L15.8,44.157c-.146-.079-.293-.152-.434-.225-.2-.1-.394-.2-.557-.3a19.338,19.338,0,0,1-4.634-4.223,11.409,11.409,0,0,1-1.52-2.4c.462-.422.89-.861,1.306-1.284.158-.158.315-.321.473-.479a2.583,2.583,0,0,0,0-3.9L8.9,29.816c-.175-.175-.355-.355-.524-.535-.338-.349-.693-.709-1.059-1.047a2.665,2.665,0,0,0-1.886-.828,2.758,2.758,0,0,0-1.914.828l-.011.011L1.589,30.176A4.119,4.119,0,0,0,.368,32.794a9.87,9.87,0,0,0,.721,4.178A24.243,24.243,0,0,0,5.4,44.157a26.5,26.5,0,0,0,8.823,6.909,13.747,13.747,0,0,0,4.955,1.464c.118.006.242.011.355.011a4.243,4.243,0,0,0,3.249-1.4c.006-.011.017-.017.023-.028a12.8,12.8,0,0,1,.985-1.019c.242-.231.49-.473.732-.726a2.809,2.809,0,0,0,.85-1.948,2.706,2.706,0,0,0-.867-1.931Zm2.016,5.929c-.006,0-.006.006,0,0-.22.236-.445.45-.687.687a14.805,14.805,0,0,0-1.087,1.126,2.714,2.714,0,0,1-2.117.9c-.084,0-.175,0-.259-.006A12.212,12.212,0,0,1,14.883,49.7a25.011,25.011,0,0,1-8.311-6.509,22.859,22.859,0,0,1-4.054-6.751,8.039,8.039,0,0,1-.631-3.525,2.585,2.585,0,0,1,.777-1.672l1.92-1.92a1.28,1.28,0,0,1,.856-.4,1.2,1.2,0,0,1,.822.394l.017.017c.343.321.67.653,1.013,1.008.175.18.355.36.535.546l1.537,1.537a1.075,1.075,0,0,1,0,1.745c-.163.163-.321.327-.484.484-.473.484-.923.935-1.413,1.374-.011.011-.023.017-.028.028a1.148,1.148,0,0,0-.293,1.278l.017.051a12.341,12.341,0,0,0,1.819,2.967l.006.006a20.666,20.666,0,0,0,5,4.549,7.687,7.687,0,0,0,.693.377c.2.1.394.2.557.3.023.011.045.028.068.039a1.221,1.221,0,0,0,.557.141,1.2,1.2,0,0,0,.856-.389l1.926-1.926a1.274,1.274,0,0,1,.85-.422,1.147,1.147,0,0,1,.811.411l.011.011,3.1,3.1A1.113,1.113,0,0,1,23.425,48.318Z" transform="translate(-0.344 -25.863)" fill="#20b69e" stroke="#20b69e" stroke-width="1"/>
      <path id="Path_1330" data-name="Path 1330" d="M245.569,87.433a7.246,7.246,0,0,1,5.9,5.9.755.755,0,0,0,.749.631,1,1,0,0,0,.13-.011.761.761,0,0,0,.625-.878,8.762,8.762,0,0,0-7.139-7.139.764.764,0,0,0-.878.619A.752.752,0,0,0,245.569,87.433Z" transform="translate(-231.172 -81.087)" fill="#20b69e" stroke="#20b69e" stroke-width="1"/>
      <path id="Path_1331" data-name="Path 1331" d="M261.415,11.768A14.428,14.428,0,0,0,249.658.012a.759.759,0,1,0-.248,1.5,12.887,12.887,0,0,1,10.507,10.507.755.755,0,0,0,.749.631,1.006,1.006,0,0,0,.13-.011A.746.746,0,0,0,261.415,11.768Z" transform="translate(-234.787 0)" fill="#20b69e" stroke="#20b69e" stroke-width="1"/>
    </g>
  </g>
</svg>
