<svg xmlns="http://www.w3.org/2000/svg" width="12.491" height="14.971" viewBox="0 0 12.491 14.971">
  <g id="user" transform="translate(0 0)">
    <path id="Path_1303" data-name="Path 1303" d="M90.638,7.212a3.489,3.489,0,0,0,2.55-1.056,3.489,3.489,0,0,0,1.056-2.55,3.49,3.49,0,0,0-1.056-2.55,3.605,3.605,0,0,0-5.1,0,3.489,3.489,0,0,0-1.056,2.549,3.489,3.489,0,0,0,1.056,2.55A3.49,3.49,0,0,0,90.638,7.212ZM88.709,1.677a2.728,2.728,0,0,1,3.858,0,2.607,2.607,0,0,1,.8,1.929,2.607,2.607,0,0,1-.8,1.929,2.727,2.727,0,0,1-3.858,0,2.606,2.606,0,0,1-.8-1.929,2.607,2.607,0,0,1,.8-1.929Zm0,0" transform="translate(-84.487)" fill="#20b69e"/>
    <path id="Path_1304" data-name="Path 1304" d="M12.46,251.6a8.907,8.907,0,0,0-.121-.946,7.452,7.452,0,0,0-.233-.951,4.7,4.7,0,0,0-.391-.887,3.344,3.344,0,0,0-.59-.768,2.6,2.6,0,0,0-.847-.532,2.927,2.927,0,0,0-1.081-.2,1.1,1.1,0,0,0-.586.249c-.176.115-.381.247-.611.394a3.5,3.5,0,0,1-.79.348,3.067,3.067,0,0,1-1.932,0,3.488,3.488,0,0,1-.789-.348c-.227-.145-.433-.278-.611-.394a1.1,1.1,0,0,0-.586-.249,2.924,2.924,0,0,0-1.081.2,2.6,2.6,0,0,0-.847.532,3.344,3.344,0,0,0-.589.768,4.707,4.707,0,0,0-.391.887,7.472,7.472,0,0,0-.233.951,8.845,8.845,0,0,0-.121.946c-.02.286-.03.583-.03.884a2.486,2.486,0,0,0,.738,1.881,2.658,2.658,0,0,0,1.9.694H9.849a2.658,2.658,0,0,0,1.9-.694,2.485,2.485,0,0,0,.738-1.881c0-.3-.01-.6-.03-.884Zm-1.313,2.13a1.789,1.789,0,0,1-1.3.452H2.641a1.789,1.789,0,0,1-1.3-.452,1.623,1.623,0,0,1-.466-1.245c0-.281.009-.558.028-.823a7.979,7.979,0,0,1,.11-.852,6.589,6.589,0,0,1,.2-.839,3.833,3.833,0,0,1,.318-.721,2.479,2.479,0,0,1,.433-.568,1.724,1.724,0,0,1,.563-.35,2.017,2.017,0,0,1,.691-.133c.031.016.085.048.174.105.18.118.388.252.618.4a4.345,4.345,0,0,0,.992.443,3.944,3.944,0,0,0,2.472,0,4.352,4.352,0,0,0,.992-.443c.235-.15.437-.281.618-.4.089-.058.143-.089.174-.105a2.019,2.019,0,0,1,.691.133,1.726,1.726,0,0,1,.563.35,2.472,2.472,0,0,1,.433.568,3.82,3.82,0,0,1,.318.721,6.573,6.573,0,0,1,.2.839,8.044,8.044,0,0,1,.11.852h0c.019.265.028.542.028.823a1.623,1.623,0,0,1-.466,1.245Zm0,0" transform="translate(0 -240.084)" fill="#20b69e"/>
  </g>
</svg>
