<svg xmlns="http://www.w3.org/2000/svg" width="27.078" height="23.799" viewBox="0 0 27.078 23.799">
  <g id="fax" transform="translate(0 -31)">
    <path id="Path_1353" data-name="Path 1353" d="M0,121.793v15.866a.793.793,0,0,0,.793.793H2.38V121H.793A.793.793,0,0,0,0,121.793Z" transform="translate(0 -85.24)" fill="#20b69e"/>
    <path id="Path_1354" data-name="Path 1354" d="M79.866,91H76.587A1.589,1.589,0,0,0,75,92.587v17.452a1.589,1.589,0,0,0,1.587,1.587h3.279a1.589,1.589,0,0,0,1.587-1.587V92.587A1.589,1.589,0,0,0,79.866,91Z" transform="translate(-71.034 -56.827)" fill="#20b69e"/>
    <path id="Path_1355" data-name="Path 1355" d="M309.933,31.793A.793.793,0,0,0,309.14,31h-6.346a.793.793,0,0,0-.793.793v7.14h7.933Z" transform="translate(-286.028)" fill="#20b69e"/>
    <path id="Path_1356" data-name="Path 1356" d="M241.279,121h-.793v3.966a.793.793,0,0,1-.793.793h-9.52a.793.793,0,0,1-.793-.793V121H227v17.452h14.279a.793.793,0,0,0,.793-.793V121.793A.793.793,0,0,0,241.279,121Zm-9.52,15.073a.793.793,0,1,1,.793-.793A.793.793,0,0,1,231.76,136.073Zm0-3.173a.793.793,0,1,1,.793-.793A.793.793,0,0,1,231.76,132.9Zm0-3.173a.793.793,0,1,1,.793-.793A.793.793,0,0,1,231.76,129.726Zm3.173,6.346a.793.793,0,1,1,.793-.793A.793.793,0,0,1,234.933,136.073Zm0-3.173a.793.793,0,1,1,.793-.793A.793.793,0,0,1,234.933,132.9Zm0-3.173a.793.793,0,1,1,.793-.793A.793.793,0,0,1,234.933,129.726Zm3.173,6.346a.793.793,0,1,1,.793-.793A.793.793,0,0,1,238.106,136.073Zm0-3.173a.793.793,0,1,1,.793-.793A.793.793,0,0,1,238.106,132.9Zm0-3.173a.793.793,0,1,1,.793-.793A.793.793,0,0,1,238.106,129.726Z" transform="translate(-214.995 -85.24)" fill="#20b69e"/>
  </g>
</svg>
