<svg xmlns="http://www.w3.org/2000/svg" width="25.228" height="25.823" viewBox="0 0 25.228 25.823">
  <g id="home" transform="translate(0 0)">
    <path id="Path_1119" data-name="Path 1119" d="M23,51h.841v.841H23Z" transform="translate(-14.17 -30.222)" fill="#fff"/>
    <path id="Path_1120" data-name="Path 1120" d="M24.7,30.526V15.268L14.614,8.417,4.523,15.268v4.488a1.465,1.465,0,0,1,1.364.92A18.305,18.305,0,0,1,7.466,25.9,3.164,3.164,0,0,1,4.943,29.23v-.852A2.36,2.36,0,0,0,6.625,25.9,20.285,20.285,0,0,0,5.107,20.99a.63.63,0,0,0-1.168,0A20.3,20.3,0,0,0,2.42,25.9,2.359,2.359,0,0,0,4.1,28.377v2.149H2v.841H27.227v-.841ZM18.818,25.06l.841-1.261L20.5,25.06v1.261h1.682V25.06l.841-1.261.841,1.261v5.466H22.182V28H20.5v2.523H18.818V28H17.136v2.523H15.455V25.06L16.3,23.8l.841,1.261v1.261h1.682Zm-3.784-8.409h2.1v.841a1.261,1.261,0,0,1-1.261,1.261h-.841Zm.841-2.943a1.261,1.261,0,0,1,1.261,1.261v.841h-2.1v-2.1Zm-3.784,1.261a1.261,1.261,0,0,1,1.261-1.261h.841v2.1h-2.1Zm0,1.682h2.1v2.1h-.841a1.261,1.261,0,0,1-1.261-1.261Zm.841,5.886v7.989H8.307V22.537Z" transform="translate(-2 -5.544)" fill="#fff"/>
    <path id="Path_1121" data-name="Path 1121" d="M15.122,3.615l11.3,7.668.944-1.392L15.122,1.583,2.877,9.892l.944,1.392Z" transform="translate(-2.508 -1.583)" fill="#fff"/>
  </g>
</svg>
