<svg xmlns="http://www.w3.org/2000/svg" width="30.066" height="30.011" viewBox="0 0 30.066 30.011">
  <g id="phone-call_2_" data-name="phone-call (2)" transform="translate(-0.934 -1)">
    <path id="Path_1348" data-name="Path 1348" d="M23.45,20.93a3,3,0,0,0-4.25,0l-1.45,1.45a26.14,26.14,0,0,1-4.51-3.62,26.14,26.14,0,0,1-3.62-4.51l1.45-1.45a3,3,0,0,0,0-4.25L8.24,5.73a2.93,2.93,0,0,0-2.11-.88A3,3,0,0,0,4,5.73L2.64,7.08A6.37,6.37,0,0,0,1,12.33c.32,3.75,2.78,8.26,6.57,12.06s8.35,6.25,12.1,6.61a7.87,7.87,0,0,0,.84,0,6.07,6.07,0,0,0,4.41-1.64L26.27,28a3,3,0,0,0,.88-2.13,2.93,2.93,0,0,0-.88-2.11Z" fill="#20b69e"/>
    <path id="Path_1349" data-name="Path 1349" d="M26.6,5.39A14.92,14.92,0,0,0,16,1a1,1,0,0,0,0,2A13,13,0,0,1,29,16.11a1,1,0,1,0,2,0A14.91,14.91,0,0,0,26.6,5.39Z" fill="#20b69e"/>
    <path id="Path_1350" data-name="Path 1350" d="M20.91,11.11a6,6,0,0,1,1.77,4.31,1,1,0,0,0,2,0,8,8,0,0,0-8-8.1,1,1,0,0,0,0,2,6,6,0,0,1,4.23,1.79Z" fill="#20b69e"/>
  </g>
</svg>
