<svg xmlns="http://www.w3.org/2000/svg" width="43.41" height="43.41" viewBox="0 0 43.41 43.41">
  <path id="balcony" d="M35.695,13.99a13.99,13.99,0,0,0-27.979,0v8.987H0v2.544H2.628V43.41H40.782V25.521H43.41V22.977H35.695ZM30.608,35.78V25.521h2.544V35.78ZM12.8,25.521V35.78H10.259V25.521Zm8.9-17.89A16.518,16.518,0,0,0,28.064,15.2v7.774H15.346V15.2A16.516,16.516,0,0,0,21.705,7.631Zm-6.359,17.89H17.89V35.78H15.346Zm5.087,0h2.544V35.78H20.433Zm5.087,0h2.544V35.78H25.521Zm5.087-2.544V16.535a16.424,16.424,0,0,0,2.544.827v5.615Zm2.544-8.987v.747A13.927,13.927,0,0,1,23.042,2.622,11.462,11.462,0,0,1,33.151,13.99ZM20.369,2.622a13.928,13.928,0,0,1-10.11,12.114V13.99A11.462,11.462,0,0,1,20.369,2.622Zm-10.11,14.74a16.424,16.424,0,0,0,2.544-.827v6.442H10.259ZM5.172,25.521H7.716V35.78H5.172ZM38.238,40.867H5.172V38.323H38.238Zm0-5.087H35.695V25.521h2.544Zm0,0" fill="#20b69e"/>
</svg>
