<svg xmlns="http://www.w3.org/2000/svg" width="37.691" height="30.792" viewBox="0 0 37.691 30.792">
  <path id="XMLID_874_" d="M35.851,62.305v-.718a3.771,3.771,0,0,0-1.717-3.161V50.6A3.74,3.74,0,0,0,30.4,46.86H7.294A3.741,3.741,0,0,0,3.557,50.6v7.83A3.771,3.771,0,0,0,1.84,61.587v.718A2.472,2.472,0,0,0,0,64.692v8.4a2.471,2.471,0,0,0,2.35,2.465v.994a1.1,1.1,0,1,0,2.2,0v-.991H33.136v.991a1.1,1.1,0,1,0,2.2,0v-.994a2.471,2.471,0,0,0,2.351-2.465v-8.4A2.472,2.472,0,0,0,35.851,62.305ZM5.762,50.6a1.534,1.534,0,0,1,1.532-1.532H30.4A1.534,1.534,0,0,1,31.929,50.6v7.219H30.46V55.873a2.469,2.469,0,0,0-2.466-2.466h-5.93A2.469,2.469,0,0,0,19.6,55.873v1.943h-1.5V55.873a2.469,2.469,0,0,0-2.466-2.466H9.7a2.469,2.469,0,0,0-2.466,2.466v1.943H5.762Zm22.494,5.277v1.681a.262.262,0,0,1-.262.262h-5.93a.262.262,0,0,1-.262-.262V55.873a.262.262,0,0,1,.262-.262h5.93A.262.262,0,0,1,28.256,55.873Zm-12.367,0v1.681a.262.262,0,0,1-.262.262H9.7a.262.262,0,0,1-.262-.262V55.873a.262.262,0,0,1,.262-.262h5.93A.262.262,0,0,1,15.889,55.873ZM4.044,61.587A1.569,1.569,0,0,1,5.612,60.02H32.079a1.569,1.569,0,0,1,1.568,1.568v.637H4.044Zm31.443,11.5a.264.264,0,0,1-.264.264H2.468a.264.264,0,0,1-.264-.264v-8.4a.264.264,0,0,1,.264-.264H35.223a.264.264,0,0,1,.264.264v8.4Z" transform="translate(0 -46.86)" fill="#20b69e"/>
</svg>
