<svg id="elevator" xmlns="http://www.w3.org/2000/svg" width="38.651" height="38.651" viewBox="0 0 38.651 38.651">
  <path id="Path_1070" data-name="Path 1070" d="M36.839,0H1.812A1.814,1.814,0,0,0,0,1.812V36.839a1.814,1.814,0,0,0,1.812,1.812H36.839a1.814,1.814,0,0,0,1.812-1.812V1.812A1.814,1.814,0,0,0,36.839,0ZM20.458,13.79H30.04v22.6H20.458Zm-2.265,22.6H8.611V13.79h9.582Zm18.193,0H32.3V12.657a1.132,1.132,0,0,0-1.132-1.132H7.479a1.132,1.132,0,0,0-1.132,1.132V36.386H2.265V2.265H36.386Z" fill="#20b69e"/>
  <path id="Path_1071" data-name="Path 1071" d="M140.01,64.606a1.133,1.133,0,0,0,1.579-.266L142.4,63.2l.814,1.144a1.132,1.132,0,0,0,1.845-1.313l-1.736-2.441a1.133,1.133,0,0,0-1.845,0l-1.736,2.441A1.132,1.132,0,0,0,140.01,64.606Z" transform="translate(-129 -55.573)" fill="#20b69e"/>
  <path id="Path_1072" data-name="Path 1072" d="M298.41,64.332a1.133,1.133,0,0,0,1.845,0l1.736-2.441a1.132,1.132,0,0,0-1.845-1.313l-.814,1.144-.814-1.144a1.132,1.132,0,0,0-1.845,1.313Z" transform="translate(-274.084 -55.565)" fill="#20b69e"/>
</svg>
