<svg xmlns="http://www.w3.org/2000/svg" width="49.123" height="49.124" viewBox="0 0 49.123 49.124">
  <g id="garage" transform="translate(-0.004 0)">
    <path id="Path_1062" data-name="Path 1062" d="M142.888,392.111a2.123,2.123,0,1,0-2.123-2.123A2.125,2.125,0,0,0,142.888,392.111Zm0-2.806a.684.684,0,1,1-.684.684A.684.684,0,0,1,142.888,389.305Z" transform="translate(-127.256 -350.653)" fill="#20b69e"/>
    <path id="Path_1063" data-name="Path 1063" d="M329.118,392.111A2.123,2.123,0,1,0,327,389.989,2.125,2.125,0,0,0,329.118,392.111Zm0-2.806a.684.684,0,1,1-.684.684A.684.684,0,0,1,329.118,389.305Z" transform="translate(-295.618 -350.653)" fill="#20b69e"/>
    <path id="Path_1064" data-name="Path 1064" d="M213.861,94.729h-8.4a.72.72,0,1,0,0,1.439h8.4a.72.72,0,0,0,0-1.439Z" transform="translate(-185.097 -85.641)" fill="#20b69e"/>
    <path id="Path_1065" data-name="Path 1065" d="M213.861,121.912h-8.4a.72.72,0,1,0,0,1.439h8.4a.72.72,0,0,0,0-1.439Z" transform="translate(-185.097 -110.216)" fill="#20b69e"/>
    <path id="Path_1066" data-name="Path 1066" d="M213.861,149.1h-8.4a.72.72,0,1,0,0,1.439h8.4a.72.72,0,0,0,0-1.439Z" transform="translate(-185.097 -134.791)" fill="#20b69e"/>
    <path id="Path_1067" data-name="Path 1067" d="M48.408,47.685H45.763v-19.7a.72.72,0,1,0-1.439,0v19.7H43.045V20.511a3.16,3.16,0,0,0-3.157-3.157H9.243a3.16,3.16,0,0,0-3.157,3.157V47.685H4.808V14.658L24.566,5.412l19.758,9.246V25.2a.72.72,0,1,0,1.439,0V15.31a2.573,2.573,0,0,0,3.122-1.357,2.575,2.575,0,0,0-1.24-3.42L25.656.243a2.564,2.564,0,0,0-2.181,0L7.015,7.946a.72.72,0,1,0,.61,1.3l16.461-7.7a1.129,1.129,0,0,1,.96,0l21.989,10.29a1.133,1.133,0,1,1-.96,2.052l-21.2-9.923a.719.719,0,0,0-.61,0l-21.2,9.923A1.123,1.123,0,0,1,2.578,14,1.133,1.133,0,0,1,2.1,11.837L5.1,10.429a.72.72,0,0,0-.61-1.3L1.486,10.533a2.572,2.572,0,0,0,1.091,4.9,2.543,2.543,0,0,0,.791-.125V47.685H.724a.72.72,0,0,0,0,1.439H48.408a.72.72,0,0,0,0-1.439Zm-33.61-1.2V43.966h2.4v2.521a1.2,1.2,0,0,1-2.4,0Zm-.419-15.1H12.722a.132.132,0,0,1-.132-.132v-1.3a.132.132,0,0,1,.132-.132h2.061ZM17.357,25.6a2.82,2.82,0,0,1,2.731-2.115h8.956A2.82,2.82,0,0,1,31.774,25.6l2.35,9.1H15.007Zm16.992,4.213H36.41a.132.132,0,0,1,.132.132v1.3a.132.132,0,0,1-.132.132H34.753Zm2.161,6.328a.772.772,0,0,1,.771.771v4.84a.772.772,0,0,1-.771.771H22.418a.72.72,0,1,0,0,1.439H30.5v2.521a2.621,2.621,0,0,0,.288,1.2H18.344a2.622,2.622,0,0,0,.288-1.2V43.966h1a.72.72,0,1,0,0-1.439H12.622a.772.772,0,0,1-.771-.771v-4.84a.772.772,0,0,1,.771-.771ZM34.334,46.487a1.2,1.2,0,1,1-2.4,0V43.966h2.4v2.521Zm1.151,1.2a2.622,2.622,0,0,0,.288-1.2V43.966h.737a2.213,2.213,0,0,0,2.211-2.211v-4.84a2.213,2.213,0,0,0-2.211-2.211h-.9l-.487-1.884H36.41a1.573,1.573,0,0,0,1.571-1.571v-1.3a1.573,1.573,0,0,0-1.571-1.571H33.977l-.809-3.134a4.259,4.259,0,0,0-4.124-3.195H20.088a4.259,4.259,0,0,0-4.124,3.195l-.809,3.134H12.722a1.573,1.573,0,0,0-1.571,1.571v1.3a1.573,1.573,0,0,0,1.571,1.571h1.285l-.487,1.884h-.9a2.213,2.213,0,0,0-2.211,2.211v4.84a2.213,2.213,0,0,0,2.211,2.211h.737v2.521a2.621,2.621,0,0,0,.288,1.2H7.525V20.511a1.72,1.72,0,0,1,1.718-1.718H39.888a1.72,1.72,0,0,1,1.718,1.718V47.685Z" transform="translate(0 0)" fill="#20b69e"/>
    <g id="Group_423" data-name="Group 423" transform="translate(16.564 24.532)">
      <path id="Path_1068" data-name="Path 1068" d="M187.886,264.821H173.321a.719.719,0,0,1-.7-.9l1.781-6.9a1.776,1.776,0,0,1,1.72-1.332h8.956a1.776,1.776,0,0,1,1.72,1.332l1.781,6.9a.72.72,0,0,1-.7.9Zm-13.636-1.439h12.707l-1.549-6a.337.337,0,0,0-.327-.253h-8.956a.337.337,0,0,0-.327.253Z" transform="translate(-172.602 -255.691)" fill="#20b69e"/>
    </g>
    <g id="Group_425" data-name="Group 425" transform="translate(19.979 38.616)">
      <g id="Group_424" data-name="Group 424">
        <path id="Path_1069" data-name="Path 1069" d="M216.654,403.93h-7.734a.72.72,0,1,1,0-1.439h7.734a.72.72,0,1,1,0,1.439Z" transform="translate(-208.201 -402.491)" fill="#20b69e"/>
      </g>
    </g>
  </g>
</svg>
