<svg xmlns="http://www.w3.org/2000/svg" width="40" height="40" viewBox="0 0 40 40">
  <g id="hospital" transform="translate(-4 -4)">
    <path id="Path_1081" data-name="Path 1081" d="M5,44H43a1,1,0,0,0,1-1V19a1,1,0,0,0-1-1H38V9a1,1,0,0,0-1-1H32V7a3,3,0,0,0-3-3H19a3,3,0,0,0-3,3V8H11a1,1,0,0,0-1,1v9H5a1,1,0,0,0-1,1V43A1,1,0,0,0,5,44ZM38,20h4V42H38ZM27,42H21V35h6ZM18,7a1,1,0,0,1,1-1H29a1,1,0,0,1,1,1V17a1,1,0,0,1-1,1H19a1,1,0,0,1-1-1Zm-6,3h4v7a3,3,0,0,0,3,3H29a3,3,0,0,0,3-3V10h4V42H29V34a1,1,0,0,0-1-1H20a1,1,0,0,0-1,1v8H12ZM6,20h4V42H6Z" fill="#20b69e"/>
    <path id="Path_1082" data-name="Path 1082" d="M21,13h2v2a1,1,0,0,0,2,0V13h2a1,1,0,0,0,0-2H25V9a1,1,0,0,0-2,0v2H21a1,1,0,0,0,0,2Z" fill="#20b69e"/>
    <path id="Path_1083" data-name="Path 1083" d="M17,25h2a1,1,0,0,0,0-2H17a1,1,0,0,0,0,2Z" fill="#20b69e"/>
    <path id="Path_1084" data-name="Path 1084" d="M20,29a1,1,0,0,0-1-1H17a1,1,0,0,0,0,2h2A1,1,0,0,0,20,29Z" fill="#20b69e"/>
    <path id="Path_1085" data-name="Path 1085" d="M23,25h2a1,1,0,0,0,0-2H23a1,1,0,0,0,0,2Z" fill="#20b69e"/>
    <path id="Path_1086" data-name="Path 1086" d="M23,30h2a1,1,0,0,0,0-2H23a1,1,0,0,0,0,2Z" fill="#20b69e"/>
    <path id="Path_1087" data-name="Path 1087" d="M29,25h2a1,1,0,0,0,0-2H29a1,1,0,0,0,0,2Z" fill="#20b69e"/>
    <path id="Path_1088" data-name="Path 1088" d="M29,30h2a1,1,0,0,0,0-2H29a1,1,0,0,0,0,2Z" fill="#20b69e"/>
  </g>
</svg>
