<svg xmlns="http://www.w3.org/2000/svg" width="48.561" height="38.514" viewBox="0 0 48.561 38.514">
  <g id="Layer_48" data-name="Layer 48" transform="translate(-3 -9)">
    <path id="Path_1045" data-name="Path 1045" d="M28.5,52.071H27.039A3.048,3.048,0,0,1,24,49.031V40.039A3.048,3.048,0,0,1,27.039,37H28.5a3.1,3.1,0,0,1,.728.092,3.023,3.023,0,0,1,2.311,2.947v8.992A3.048,3.048,0,0,1,28.5,52.071Zm-1.457-13.4a1.365,1.365,0,0,0-1.365,1.365v8.992A1.365,1.365,0,0,0,27.039,50.4H28.5a1.365,1.365,0,0,0,1.365-1.365V40.039a1.365,1.365,0,0,0-1.038-1.323,1.515,1.515,0,0,0-.327,0Z" transform="translate(-3.417 -4.557)" fill="#20b69e"/>
    <path id="Path_1046" data-name="Path 1046" d="M56.5,52.071H55.039A3.048,3.048,0,0,1,52,49.031V40.039a3.023,3.023,0,0,1,2.311-2.947A3.1,3.1,0,0,1,55.039,37H56.5a3.048,3.048,0,0,1,3.039,3.039v8.992A3.048,3.048,0,0,1,56.5,52.071Zm-1.457-13.4a1.515,1.515,0,0,0-.327,0,1.365,1.365,0,0,0-1.038,1.365v8.992A1.365,1.365,0,0,0,55.039,50.4H56.5a1.365,1.365,0,0,0,1.365-1.365V40.039A1.365,1.365,0,0,0,56.5,38.675Z" transform="translate(-7.974 -4.557)" fill="#20b69e"/>
    <path id="Path_1047" data-name="Path 1047" d="M18.908,48.047H3V38H18.908ZM4.675,46.373H17.233v-6.7H4.675Z" transform="translate(0 -4.719)" fill="#20b69e"/>
    <path id="Path_1048" data-name="Path 1048" d="M20,48h1.675v5.861H20Z" transform="translate(-2.767 -6.347)" fill="#20b69e"/>
    <path id="Path_1049" data-name="Path 1049" d="M3,48H4.675v5.861H3Z" transform="translate(0 -6.347)" fill="#20b69e"/>
    <path id="Path_1050" data-name="Path 1050" d="M47.745,53.535H33.512A2.512,2.512,0,0,1,31,51.024V46H50.257v5.024A2.512,2.512,0,0,1,47.745,53.535ZM32.675,47.675v3.349a.837.837,0,0,0,.837.837H47.745a.837.837,0,0,0,.837-.837V47.675Z" transform="translate(-4.557 -6.021)" fill="#20b69e"/>
    <path id="Path_1051" data-name="Path 1051" d="M50.257,46.7H31V44.186A4.186,4.186,0,0,1,35.186,40H46.071a4.186,4.186,0,0,1,4.186,4.186ZM32.675,45.024H48.583v-.837a2.512,2.512,0,0,0-2.512-2.512H35.186a2.512,2.512,0,0,0-2.512,2.512Z" transform="translate(-4.557 -5.045)" fill="#20b69e"/>
    <path id="Path_1052" data-name="Path 1052" d="M49.932,41.583H48.257a2.512,2.512,0,0,0-2.512-2.512H34.861a2.512,2.512,0,0,0-2.512,2.512H30.675V37.924A1.365,1.365,0,0,0,29.636,36.6L29,36.45V29.861A5.861,5.861,0,0,1,34.861,24H45.745a5.861,5.861,0,0,1,5.861,5.861V36.45l-.636.151a1.365,1.365,0,0,0-1.038,1.323ZM34.861,37.4H45.745a4.186,4.186,0,0,1,2.512.837v-.31a3.014,3.014,0,0,1,1.675-2.713v-5.35a4.186,4.186,0,0,0-4.186-4.186H34.861a4.186,4.186,0,0,0-4.186,4.186v5.35a3.014,3.014,0,0,1,1.675,2.713v.31a4.186,4.186,0,0,1,2.512-.837Z" transform="translate(-4.231 -2.441)" fill="#20b69e"/>
    <path id="Path_1053" data-name="Path 1053" d="M10,43h4.186v1.675H10Z" transform="translate(-1.139 -5.533)" fill="#20b69e"/>
    <path id="Path_1054" data-name="Path 1054" d="M14.272,38.535H8.83L6.67,31h9.763Zm-4.186-1.675h2.93l1.189-4.186H8.9Z" transform="translate(-0.597 -3.58)" fill="#20b69e"/>
    <path id="Path_1055" data-name="Path 1055" d="M11.279,31.535a3.282,3.282,0,0,1-.636-.067A6.782,6.782,0,0,1,5,24.837V24h.837a6.648,6.648,0,0,1,4.27,1.524l.31.243v.394a5.1,5.1,0,0,0,.862,2.863,5.107,5.107,0,0,0,.9-2.855v-.394l.31-.243A6.648,6.648,0,0,1,16.722,24h.837v.837a6.748,6.748,0,0,1-5.744,6.7,2.7,2.7,0,0,1-.536,0Zm2.554-4.982A6.7,6.7,0,0,1,13,29.409a5.024,5.024,0,0,0,2.855-3.692,4.915,4.915,0,0,0-2.018.846Zm-7.108-.837A5.149,5.149,0,0,0,9.58,29.409a6.773,6.773,0,0,1-.837-2.855,4.915,4.915,0,0,0-2.018-.829Z" transform="translate(-0.325 -2.441)" fill="#20b69e"/>
    <path id="Path_1056" data-name="Path 1056" d="M12,30.824l-.594-.586c-.142-.151-.285-.3-.419-.46a6.773,6.773,0,0,1,.419-9.1L12,20.09l.594.586a6.7,6.7,0,0,1,1.976,4.781V25.5a6.7,6.7,0,0,1-1.541,4.253c-.151.184-.293.335-.435.486Zm0-8.255a5.107,5.107,0,0,0,0,5.777,5.107,5.107,0,0,0,.9-2.855h0a5.024,5.024,0,0,0-.9-2.922Z" transform="translate(-1.047 -1.805)" fill="#20b69e"/>
    <path id="Path_1057" data-name="Path 1057" d="M24,20h1.675V40.094H24Z" transform="translate(-3.417 -1.79)" fill="#20b69e"/>
    <path id="Path_1058" data-name="Path 1058" d="M30.464,19.884H16.9L17.9,9H29.467ZM18.742,18.21h9.88l-.678-7.535H19.42Z" transform="translate(-2.262)" fill="#20b69e"/>
  </g>
</svg>
