<svg xmlns="http://www.w3.org/2000/svg" width="24.498" height="39.171" viewBox="0 0 24.498 39.171">
  <g id="location" transform="translate(-95.898)">
    <path id="Path_1037" data-name="Path 1037" d="M178.489,90.254a6.42,6.42,0,1,0-6.421-6.42A6.428,6.428,0,0,0,178.489,90.254Zm0-10.546a4.126,4.126,0,1,1-4.126,4.126A4.131,4.131,0,0,1,178.489,79.708Z" transform="translate(-70.342 -71.49)" fill="#20b69e"/>
    <path id="Path_1038" data-name="Path 1038" d="M101.155,23.88c1.739,2.355,1.041,1.439,6.051,8.592a1.148,1.148,0,0,0,1.882,0c5.033-7.187,4.34-6.277,6.051-8.593a29.2,29.2,0,0,0,4.508-7.616A11.855,11.855,0,0,0,117.917,4.8h0a12.349,12.349,0,0,0-19.539,0,11.855,11.855,0,0,0-1.73,11.468A29.2,29.2,0,0,0,101.155,23.88ZM100.193,6.2a10.053,10.053,0,0,1,15.908,0h0a9.626,9.626,0,0,1,1.376,9.314,27.5,27.5,0,0,1-4.185,7c-1.27,1.719-.89,1.193-5.146,7.294-4.251-6.094-3.876-5.575-5.145-7.294a27.5,27.5,0,0,1-4.185-7A9.627,9.627,0,0,1,100.193,6.2Z" transform="translate(0 0)" fill="#20b69e"/>
    <path id="Path_1039" data-name="Path 1039" d="M111.989,370.711a1.148,1.148,0,0,0-1.583-.357l-3.263,2.061a1.148,1.148,0,0,0,0,1.94l10.282,6.494a1.148,1.148,0,0,0,1.226,0l10.282-6.494a1.148,1.148,0,0,0,0-1.94l-3.263-2.061a1.147,1.147,0,1,0-1.226,1.94l1.727,1.091-8.134,5.137-8.134-5.137,1.727-1.091A1.147,1.147,0,0,0,111.989,370.711Z" transform="translate(-9.891 -341.856)" fill="#20b69e"/>
  </g>
</svg>
