<svg xmlns="http://www.w3.org/2000/svg" width="21.087" height="18.45" viewBox="0 0 21.087 18.45">
  <path id="love" d="M14.991,4a6.105,6.105,0,0,0-4.448,1.931A6.1,6.1,0,0,0,0,10.1c0,6.069,9.789,12.026,10.214,12.26a.659.659,0,0,0,.679,0c.405-.234,10.194-6.191,10.194-12.26a6.1,6.1,0,0,0-6.1-6.1ZM10.543,21.014C8.84,19.927,1.318,14.847,1.318,10.1A4.777,4.777,0,0,1,10,7.351a.659.659,0,0,0,1.077,0A4.777,4.777,0,0,1,19.769,10.1C19.769,14.843,12.247,19.924,10.543,21.014Z" transform="translate(0 -4)" fill="#20b69e"/>
</svg>
