<svg id="more" xmlns="http://www.w3.org/2000/svg" width="22.536" height="6.602" viewBox="0 0 22.536 6.602">
  <path id="Path_1026" data-name="Path 1026" d="M365.3,0a3.3,3.3,0,1,0,3.3,3.3A3.3,3.3,0,0,0,365.3,0Zm0,5.282A1.981,1.981,0,1,1,367.282,3.3,1.983,1.983,0,0,1,365.3,5.282Zm0,0" transform="translate(-346.067)" fill="#20b69e"/>
  <path id="Path_1027" data-name="Path 1027" d="M184.3,0a3.3,3.3,0,1,0,3.3,3.3A3.3,3.3,0,0,0,184.3,0Zm0,5.282A1.981,1.981,0,1,1,186.282,3.3,1.983,1.983,0,0,1,184.3,5.282Zm0,0" transform="translate(-173.033)" fill="#20b69e"/>
  <path id="Path_1028" data-name="Path 1028" d="M3.3,0A3.3,3.3,0,1,0,6.6,3.3,3.3,3.3,0,0,0,3.3,0Zm0,5.282A1.981,1.981,0,1,1,5.282,3.3,1.983,1.983,0,0,1,3.3,5.282Zm0,0" fill="#20b69e"/>
</svg>
