<svg xmlns="http://www.w3.org/2000/svg" width="49.122" height="49.066" viewBox="0 0 49.122 49.066">
  <path id="real-estate" d="M49.086,33.879a4.145,4.145,0,0,0-4.427-2.015V17.291l.565.459a1.156,1.156,0,0,0,.735.261c.032,0,.064-.008.1-.01s.04.01.061.01a1.167,1.167,0,0,0,.737-2.073L44.23,13.805l0,0L28.14.718a1.462,1.462,0,0,0-1.63,0L7.8,15.939a1.166,1.166,0,0,0,.846,2.066,1.159,1.159,0,0,0,.783-.256l.565-.459V30.269a18.1,18.1,0,0,0-4.4,2.762l-4.52,2.311a1.193,1.193,0,0,0-.584.692,1.179,1.179,0,0,0,.086.9L6.692,48.4a1.121,1.121,0,0,0,.724.576,1.027,1.027,0,0,0,.3.047,1.154,1.154,0,0,0,.615-.179L12.9,46c.016-.008.023-.023.039-.031s.039-.016.054-.023a1.3,1.3,0,0,1,1.229-.008c5.532,2.941,8.932,3.594,10.869,3.594a7.363,7.363,0,0,0,1.136-.086c1.128-.062,11.118-.84,21.442-10.449l.84-.84a3.559,3.559,0,0,0,.576-4.279ZM12.325,15.392l15-12.2,15,12.2V32.968l-2.412,1.354c-1.712.957-3.252,1.906-4.668,2.886-.233.156-.451.319-.677.475a2.362,2.362,0,0,0,.179-.475,2.268,2.268,0,0,0,0-1.346,2.525,2.525,0,0,0-1.323-1.494V24.076a6.141,6.141,0,0,0-1.782-4.318,6.058,6.058,0,0,0-4.707-1.774,6.218,6.218,0,0,0-5.711,6.294V30.2a12.158,12.158,0,0,0-8.9-.778ZM31.091,33.747c-.117-.016-.233-.023-.35-.031-5.812-.389-6.9-1.47-7.01-1.587-.054-.062-.109-.124-.171-.187V24.279a3.919,3.919,0,0,1,3.524-3.96,3.76,3.76,0,0,1,2.9,1.081,3.807,3.807,0,0,1,1.1,2.676ZM8.163,46.2,3.184,36.882,5.79,35.544,10.73,44.6Zm38.675-9.671-.794.786q-.957.887-1.914,1.68l-.008.008c-.109.086-.218.179-.327.265-9.2,7.446-17.645,7.842-17.739,7.842l-.179.023c-.98.187-3.983.241-10.558-3.252a3.634,3.634,0,0,0-1.712-.436,3.974,3.974,0,0,0-.739.078L10.3,38.742a2.422,2.422,0,0,1-.171-.311L7.859,34.206a16.905,16.905,0,0,1,2.132-1.323,14.419,14.419,0,0,1,2.334-.988,10.073,10.073,0,0,1,8.286.607,4.188,4.188,0,0,1,.615.428,5.957,5.957,0,0,1,.747.731,4.294,4.294,0,0,0,1.587,1.074,22.159,22.159,0,0,0,7.025,1.315c.187.016.35.031.506.047a2.891,2.891,0,0,1,1.424.428,1.413,1.413,0,0,1-.482.685,3.5,3.5,0,0,1-.3.265,4.439,4.439,0,0,1-.646.443A11.429,11.429,0,0,1,23.3,39.1a12.41,12.41,0,0,1-1.727-.467.96.96,0,0,0-.327-.054,1.152,1.152,0,0,0-1.081.591,1.131,1.131,0,0,0-.132.373,1.193,1.193,0,0,0,.42,1.1,2.9,2.9,0,0,0,.584.288,9.108,9.108,0,0,0,2.357.545c8.4.731,12.339-1.8,12.339-1.8l.21-.132,3.742-2.334,1.369-.856,1.268-.716,2-1.12a.5.5,0,0,0,.109-.062,1.36,1.36,0,0,1,.226-.14A1.814,1.814,0,0,1,47.04,35a1.347,1.347,0,0,1-.2,1.533Z" transform="translate(-0.431 -0.467)" fill="#20b69e"/>
</svg>
