<svg xmlns="http://www.w3.org/2000/svg" width="45.856" height="40.83" viewBox="0 0 45.856 40.83">
  <g id="school" transform="translate(0 -28.057)">
    <g id="Group_427" data-name="Group 427" transform="translate(0 28.057)">
      <path id="Path_1074" data-name="Path 1074" d="M45.184,67.544H44.42V48.785h.764a.672.672,0,0,0,.614-.945l-2.872-6.461a.672.672,0,0,0-.614-.4H28.232L23.6,36.348V32.99h4.354a.672.672,0,0,0,.672-.672v-3.59a.672.672,0,0,0-.672-.672H22.928a.672.672,0,0,0-.672.672v7.619L17.624,40.98H3.543a.672.672,0,0,0-.614.4L.058,47.84a.672.672,0,0,0,.614.945h.764V67.544H.672a.672.672,0,0,0,0,1.343H45.184a.672.672,0,0,0,0-1.344Zm-17.9-35.9H23.6V29.4h3.682ZM3.98,42.323h12.3l-5.118,5.118H1.705Zm-1.2,6.461h8.661a.671.671,0,0,0,.475-.2L22.928,37.576,33.94,48.588a.671.671,0,0,0,.475.2H39.44a.672.672,0,1,0,0-1.343H34.693l-5.118-5.118h12.3l2.275,5.118H42.312a.672.672,0,1,0,0,1.343h.764V67.544H29.343v-2.2a.672.672,0,0,0-.672-.672h-.764v-5.79a.672.672,0,0,0-.672-.672H18.62a.672.672,0,0,0-.672.672v5.79h-.764a.672.672,0,0,0-.672.672v2.2H2.779ZM26.564,59.554v5.118H23.6V59.554Zm-4.308,5.118H19.292V59.554h2.964ZM28,66.015v1.528H17.856V66.015Z" transform="translate(0 -28.057)" fill="#20b69e"/>
    </g>
    <g id="Group_428" data-name="Group 428" transform="translate(17.948 44.57)">
      <path id="Path_1075" data-name="Path 1075" d="M205.382,222.386a4.979,4.979,0,1,0-4.979-4.979A4.985,4.985,0,0,0,205.382,222.386Zm0-8.615a3.636,3.636,0,1,1-3.636,3.636A3.64,3.64,0,0,1,205.382,213.77Z" transform="translate(-200.403 -212.427)" fill="#20b69e"/>
    </g>
    <g id="Group_429" data-name="Group 429" transform="translate(22.256 48.159)">
      <path id="Path_1076" data-name="Path 1076" d="M249.172,256a.672.672,0,0,0,.672-.672v-1.021l1.065-.532a.672.672,0,0,0-.6-1.2l-1.436.718a.672.672,0,0,0-.371.6v1.436A.672.672,0,0,0,249.172,256Z" transform="translate(-248.5 -252.507)" fill="#20b69e"/>
    </g>
    <g id="Group_430" data-name="Group 430" transform="translate(4.307 58.211)">
      <path id="Path_1077" data-name="Path 1077" d="M58.82,364.734H48.769a.672.672,0,0,0-.672.672v4.308a.672.672,0,0,0,.672.672H50.2a.672.672,0,0,0,0-1.343H49.44v-2.964h3.682v2.964h-.046a.672.672,0,1,0,0,1.343H58.82a.672.672,0,0,0,.672-.672v-4.308A.672.672,0,0,0,58.82,364.734Zm-.672,4.308H54.466v-2.964h3.682Z" transform="translate(-48.097 -364.734)" fill="#20b69e"/>
    </g>
    <g id="Group_431" data-name="Group 431" transform="translate(4.307 51.031)">
      <path id="Path_1078" data-name="Path 1078" d="M58.82,284.573H48.769a.672.672,0,0,0-.672.672v4.308a.672.672,0,0,0,.672.672H58.82a.672.672,0,0,0,.672-.672v-4.308A.672.672,0,0,0,58.82,284.573Zm-9.379,1.343h3.682v2.964H49.44Zm8.708,2.964H54.466v-2.964h3.682Z" transform="translate(-48.097 -284.573)" fill="#20b69e"/>
    </g>
    <g id="Group_432" data-name="Group 432" transform="translate(30.153 58.211)">
      <path id="Path_1079" data-name="Path 1079" d="M337.349,370.385H347.4a.672.672,0,0,0,.672-.672v-4.308a.672.672,0,0,0-.672-.672H337.349a.672.672,0,0,0-.672.672v4.308A.672.672,0,0,0,337.349,370.385Zm9.38-1.343h-3.682v-2.964h3.682Zm-8.708-2.964H341.7v2.964H338.02Z" transform="translate(-336.677 -364.734)" fill="#20b69e"/>
    </g>
    <g id="Group_433" data-name="Group 433" transform="translate(30.153 51.031)">
      <path id="Path_1080" data-name="Path 1080" d="M337.349,290.223H347.4a.672.672,0,0,0,.672-.672v-4.308a.672.672,0,0,0-.672-.672H337.349a.672.672,0,0,0-.672.672v4.308A.672.672,0,0,0,337.349,290.223Zm9.38-1.343h-3.682v-2.964h3.682Zm-8.708-2.964H341.7v2.964H338.02Z" transform="translate(-336.677 -284.572)" fill="#20b69e"/>
    </g>
  </g>
</svg>
