<svg xmlns="http://www.w3.org/2000/svg" width="40.466" height="40.465" viewBox="0 0 40.466 40.465">
  <path id="XMLID_492_" d="M39.673,38.886h-.793v-24.6a.794.794,0,0,0-.793-.793H34.912V9.528a.794.794,0,0,0-1.234-.66l-3.527,2.351V2.387a.793.793,0,0,0-.546-.754,27.847,27.847,0,0,0-18.772.009.793.793,0,0,0-.519.744v8.832L6.788,8.868a.794.794,0,0,0-1.234.66V13.5H2.38a.794.794,0,0,0-.793.793v24.6H.793a.793.793,0,0,0,0,1.587H39.673a.793.793,0,0,0,0-1.587Zm-2.38-23.8v23.8h-2.38v-23.8ZM11.9,12.468a26.309,26.309,0,0,1,16.663.02v3.1A27.67,27.67,0,0,0,11.9,15.557Zm0,4.761a26.31,26.31,0,0,1,16.663.02v3.1A27.671,27.671,0,0,0,11.9,20.318Zm16.663-6.4A27.67,27.67,0,0,0,11.9,10.8V7.707a26.309,26.309,0,0,1,16.663.02ZM11.9,21.99a26.31,26.31,0,0,1,16.663.02v3.1A27.671,27.671,0,0,0,11.9,25.079ZM28.564,2.967v3.1A27.677,27.677,0,0,0,11.9,6.035V2.947a26.31,26.31,0,0,1,16.663.02ZM3.174,15.082h2.38v23.8H3.174Zm3.967-4.072,3.174,2.116V38.886H7.141ZM11.9,26.75a26.31,26.31,0,0,1,16.663.02V38.886H25.391V30.158h.793a.793.793,0,0,0,0-1.587h-11.9a.793.793,0,1,0,0,1.587h.793v8.728H11.9Zm4.761,3.407H19.44v8.728H16.663Zm4.364,8.728V30.158H23.8v8.728Zm9.125,0V13.127l3.174-2.116V38.886H30.151Z" transform="translate(0 -0.008)" fill="#20b69e"/>
</svg>
