<svg xmlns="http://www.w3.org/2000/svg" width="38.553" height="38.542" viewBox="0 0 38.553 38.542">
  <g id="shower" transform="translate(0)">
    <path id="Path_955" data-name="Path 955" d="M257.975,358.278a1.134,1.134,0,1,0-2.262.157l.076,1.092a1.134,1.134,0,0,0,2.262-.157Z" transform="translate(-236.385 -330.232)" fill="#20b69e"/>
    <path id="Path_956" data-name="Path 956" d="M330.21,325.984a1.134,1.134,0,1,0-2.074.915l.416.942a1.134,1.134,0,1,0,2.074-.915Z" transform="translate(-303.248 -300.729)" fill="#20b69e"/>
    <path id="Path_957" data-name="Path 957" d="M402.327,293.75a1.134,1.134,0,0,0-1.641,1.565l.756.792a1.134,1.134,0,0,0,1.641-1.565Z" transform="translate(-370.116 -271.232)" fill="#20b69e"/>
    <path id="Path_958" data-name="Path 958" d="M254.569,448.675a1.134,1.134,0,0,0-1.077,1.188l.055,1.13a1.134,1.134,0,0,0,2.265-.111l-.055-1.13A1.134,1.134,0,0,0,254.569,448.675Z" transform="translate(-234.334 -414.771)" fill="#20b69e"/>
    <path id="Path_959" data-name="Path 959" d="M327.742,417.7a1.134,1.134,0,1,0-2.174.644l.3,1.021a1.134,1.134,0,1,0,2.174-.644Z" transform="translate(-300.921 -385.387)" fill="#20b69e"/>
    <path id="Path_960" data-name="Path 960" d="M399.661,385.656a1.134,1.134,0,0,0-1.941,1.171l.55.912a1.134,1.134,0,1,0,1.941-1.171Z" transform="translate(-367.512 -356.009)" fill="#20b69e"/>
    <path id="Path_961" data-name="Path 961" d="M472.329,354.467l-.8-.8a1.134,1.134,0,0,0-1.608,1.6l.8.8a1.134,1.134,0,0,0,1.608-1.6Z" transform="translate(-434.105 -326.633)" fill="#20b69e"/>
    <path id="Path_962" data-name="Path 962" d="M32.527,15.132l-.343-.771a3.028,3.028,0,0,0-3.23-1.757l-.212-.476A6.569,6.569,0,0,0,21.7,8.3l-.745-1.692A10.941,10.941,0,0,0,0,11.014V37.482a1.134,1.134,0,0,0,1.134,1.134H5.668A1.134,1.134,0,0,0,6.8,37.482V11.014a4.139,4.139,0,0,1,7.928-1.668l.8,1.816a6.573,6.573,0,0,0-1.582,7.552l.212.476a3.022,3.022,0,0,0-.853,3.575l.343.771a3.349,3.349,0,0,0,4.425,1.7l12.755-5.678a3.355,3.355,0,0,0,1.7-4.424ZM26.67,13.05l.169.38L16.188,18.172l-.169-.38a4.31,4.31,0,0,1,2.191-5.7l2.754-1.227a4.309,4.309,0,0,1,5.707,2.19ZM10.941,4.607a6.414,6.414,0,0,0-6.406,6.406V36.348H2.267V11.014A8.674,8.674,0,0,1,18.88,7.519l.658,1.495-2.071.923-.662-1.5a6.408,6.408,0,0,0-5.864-3.825ZM29.906,17.485,17.151,23.163a1.083,1.083,0,0,1-1.431-.549l-.343-.771a.756.756,0,0,1,.383-1L29.114,14.9a.757.757,0,0,1,1,.383l.343.771a1.085,1.085,0,0,1-.55,1.431Z" transform="translate(0 -0.073)" fill="#20b69e"/>
  </g>
</svg>
