<svg xmlns="http://www.w3.org/2000/svg" width="31.236" height="31.235" viewBox="0 0 31.236 31.235">
  <g id="_9-Home" data-name="9-Home" transform="translate(-1.996 -1.994)">
    <path id="Path_1157" data-name="Path 1157" d="M24.1,33.225H11.123a5.576,5.576,0,0,1-5.777-5.308V20.958a1.115,1.115,0,0,1,2.23,0v6.959a3.345,3.345,0,0,0,3.546,3.078H24.1a3.345,3.345,0,0,0,3.546-3.078V20.958a1.115,1.115,0,0,1,2.23,0v6.959A5.576,5.576,0,0,1,24.1,33.225ZM32.9,18.4a1.115,1.115,0,0,0,0-1.584L18.4,2.324a1.115,1.115,0,0,0-1.584,0l-14.5,14.5A1.12,1.12,0,0,0,3.907,18.4L17.613,4.688,31.318,18.4a1.115,1.115,0,0,0,1.584,0Z" fill="#bdc4c3"/>
  </g>
</svg>
