<svg xmlns="http://www.w3.org/2000/svg" width="41.752" height="41.745" viewBox="0 0 41.752 41.745">
  <g id="union" transform="translate(0 -0.042)">
    <g id="Page-1_4_" transform="translate(0 0.042)">
      <g id="_x30_05---Road-Split" transform="translate(0)">
        <path id="Shape_34_" d="M414.142,211.605c-.884.168-1.8.383-2.73.637a.7.7,0,0,0,.183,1.367.709.709,0,0,0,.185-.025c.892-.245,1.774-.451,2.623-.613a.7.7,0,0,0-.261-1.367Z" transform="translate(-377.391 -194.426)" fill="#bdc4c3"/>
        <path id="Shape_33_" d="M335.513,233.6c-.946.36-1.9.772-2.843,1.223a.7.7,0,1,0,.6,1.253c.9-.434,1.828-.829,2.738-1.177a.7.7,0,1,0-.5-1.3Z" transform="translate(-305.143 -214.584)" fill="#bdc4c3"/>
        <path id="Shape_32_" d="M260.65,271.7a32.056,32.056,0,0,0-2.673,1.856.7.7,0,1,0,.85,1.1,30.826,30.826,0,0,1,2.557-1.775.7.7,0,1,0-.733-1.183Z" transform="translate(-236.661 -249.528)" fill="#bdc4c3"/>
        <path id="Shape_31_" d="M192.5,325.421a27.425,27.425,0,0,0-2.74,3.173.7.7,0,0,0,1.121.826,25.894,25.894,0,0,1,2.6-3.012.7.7,0,0,0-.981-.987Z" transform="translate(-174.164 -298.783)" fill="#bdc4c3"/>
        <path id="Shape_30_" d="M38.507,112.589c-.916-.209-1.869-.387-2.831-.528a.7.7,0,0,0-.2,1.376c.926.139,1.843.308,2.725.509a.7.7,0,0,0,.309-1.357Z" transform="translate(-32.05 -103.003)" fill="#bdc4c3"/>
        <path id="Shape_29_" d="M115.229,133.048a.7.7,0,0,0,.292-1.328c-.873-.4-1.8-.774-2.744-1.1a.7.7,0,1,0-.455,1.315c.9.314,1.786.667,2.616,1.051A.7.7,0,0,0,115.229,133.048Z" transform="translate(-102.713 -120.01)" fill="#bdc4c3"/>
        <path id="Shape_28_" d="M181.737,165.731a.7.7,0,1,0,1.039-.925,13.9,13.9,0,0,0-2.859-2.374.7.7,0,0,0-.754,1.171,12.505,12.505,0,0,1,2.574,2.129Z" transform="translate(-164.26 -149.169)" fill="#bdc4c3"/>
        <path id="Shape_27_" d="M143.276,410.125a.7.7,0,0,0-.934.31,27.4,27.4,0,0,0-1.691,4.224.7.7,0,1,0,1.33.41,26.042,26.042,0,0,1,1.6-4.009.7.7,0,0,0-.31-.934Z" transform="translate(-129.15 -376.698)" fill="#bdc4c3"/>
        <path id="Shape_26_" d="M40.151,11.6a72.442,72.442,0,0,0-12.317,3.139v-5.4a4.175,4.175,0,1,0-1.392,0v5.6C21.726,7.7,6.206,6.734,1.424,6.613A1.392,1.392,0,0,0,0,8v5.711a1.4,1.4,0,0,0,1.024,1.342c2.212.6,9.407,2.992,9.109,8.311A3.294,3.294,0,0,1,9.1,25.575,30.786,30.786,0,0,0,.049,41.086a1.392,1.392,0,0,0,1.357,1.7H22.411a1.383,1.383,0,0,0,1.35-1.089C26.85,28.115,37.427,25.3,40.594,24.767A1.387,1.387,0,0,0,41.752,23.4V12.972a1.388,1.388,0,0,0-1.6-1.376Zm-15.8-6.374A2.783,2.783,0,1,1,27.139,8a2.783,2.783,0,0,1-2.783-2.784ZM22.411,41.4,1.4,41.4a29.416,29.416,0,0,1,8.658-14.815,4.68,4.68,0,0,0,1.461-3.137c.356-6.364-7.665-9.058-10.132-9.732L1.388,8h0c3.386.085,20.472.886,24.282,8.35a.7.7,0,0,0,.867.334,71.277,71.277,0,0,1,13.82-3.717V23.4c-2.407.406-14.591,3.2-17.949,18Z" transform="translate(0 -1.042)" fill="#bdc4c3"/>
      </g>
    </g>
  </g>
</svg>
