<svg xmlns="http://www.w3.org/2000/svg" width="40.708" height="40.708" viewBox="0 0 40.708 40.708">
  <g id="property" transform="translate(0)">
    <g id="Group_452" data-name="Group 452" transform="translate(16.577 2.366)">
      <g id="Group_451" data-name="Group 451">
        <path id="Path_1145" data-name="Path 1145" d="M215.457,29.76H209.1a.6.6,0,1,0,0,1.193h6.361a.6.6,0,0,0,0-1.193Z" transform="translate(-208.5 -29.76)" fill="#bdc4c3"/>
      </g>
    </g>
    <g id="Group_454" data-name="Group 454" transform="translate(16.577 4.327)">
      <g id="Group_453" data-name="Group 453">
        <path id="Path_1146" data-name="Path 1146" d="M215.457,54.427H209.1a.6.6,0,1,0,0,1.193h6.361a.6.6,0,0,0,0-1.193Z" transform="translate(-208.5 -54.427)" fill="#bdc4c3"/>
      </g>
    </g>
    <g id="Group_456" data-name="Group 456" transform="translate(16.577 6.289)">
      <g id="Group_455" data-name="Group 455">
        <path id="Path_1147" data-name="Path 1147" d="M215.457,79.094H209.1a.6.6,0,1,0,0,1.193h6.361a.6.6,0,0,0,0-1.193Z" transform="translate(-208.5 -79.094)" fill="#bdc4c3"/>
      </g>
    </g>
    <g id="Group_458" data-name="Group 458" transform="translate(0)">
      <g id="Group_457" data-name="Group 457">
        <path id="Path_1148" data-name="Path 1148" d="M38.919,37.13H35.579V14.2a.6.6,0,0,0-.6-.6h-1.59V9.429a.6.6,0,0,0-.6-.6H26.118V8.414a.6.6,0,0,0-1.193,0v.418h-.8a.6.6,0,0,0-.6-.583H17.173a.6.6,0,0,0,0,1.193h5.088v.769H17.173a.6.6,0,0,0,0,1.193h5.088v.768H17.173a.6.6,0,0,0-.412,1.026h-.979V1.193h9.143V5.857a.6.6,0,0,0,1.193,0V.6a.6.6,0,0,0-.6-.6H15.186a.6.6,0,0,0-.6.6V13.2H13.418a.6.6,0,0,0-.6.6v1.55h-.737v-1.55a.6.6,0,0,0-.6-.6H7.831a.6.6,0,0,0-.6.6v1.55H5.088a.6.6,0,0,0-.6.6V17.79a.6.6,0,1,0,1.193,0V16.537H20.075V37.13H18.883V28.763a.6.6,0,0,0-.6-.6H7.474a.6.6,0,0,0-.6.6V37.13H5.685V20.354a.6.6,0,0,0-1.193,0V37.13h-2.7a1.789,1.789,0,1,0,0,3.578h37.13a1.789,1.789,0,0,0,0-3.578ZM10.892,15.345H8.428v-.954h2.465Zm5.587,0H14.014v-.954h2.465Zm6.975-5.32H32.2V13.6H30.353V11.655a.6.6,0,0,0-.6-.6H25.463a.6.6,0,0,0-.6.6V13.6H23.455Zm5.705,2.226V13.6h-3.1V12.251ZM34.387,14.8V37.13H33.194V32.97a.6.6,0,0,0-.6-.6H31.2a.6.6,0,0,0,0,1.193H32V37.13H23.653V33.567h4.969a.6.6,0,1,0,0-1.193H23.057a.6.6,0,0,0-.6.6V37.13H21.268V14.8Zm-16.715.549v-1.55a.594.594,0,0,0-.184-.43h4.774V13.6h-1.59a.6.6,0,0,0-.6.6v1.146ZM8.07,29.36h9.62v7.77H8.07ZM38.919,39.515H1.789a.6.6,0,0,1,0-1.193h37.13a.6.6,0,1,1,0,1.193Z" fill="#bdc4c3"/>
      </g>
    </g>
    <g id="Group_460" data-name="Group 460" transform="translate(6.877 18.108)">
      <g id="Group_459" data-name="Group 459">
        <path id="Path_1149" data-name="Path 1149" d="M97.909,227.75H87.1a.6.6,0,0,0-.6.6v2.385a.6.6,0,0,0,.6.6H97.909a.6.6,0,0,0,.6-.6v-2.385A.6.6,0,0,0,97.909,227.75Zm-.6,2.385h-9.62v-1.193h9.62Z" transform="translate(-86.5 -227.75)" fill="#bdc4c3"/>
      </g>
    </g>
    <g id="Group_462" data-name="Group 462" transform="translate(6.877 22.871)">
      <g id="Group_461" data-name="Group 461">
        <path id="Path_1150" data-name="Path 1150" d="M97.909,287.667H87.1a.6.6,0,0,0-.6.6v2.385a.6.6,0,0,0,.6.6H97.909a.6.6,0,0,0,.6-.6v-2.385A.6.6,0,0,0,97.909,287.667Zm-.6,2.385h-9.62V288.86h9.62Z" transform="translate(-86.5 -287.667)" fill="#bdc4c3"/>
      </g>
    </g>
    <g id="Group_464" data-name="Group 464" transform="translate(22.461 18.108)">
      <g id="Group_463" data-name="Group 463">
        <path id="Path_1151" data-name="Path 1151" d="M292.637,227.75H283.1a.6.6,0,0,0-.6.6v2.385a.6.6,0,0,0,.6.6h9.541a.6.6,0,0,0,.6-.6v-2.385A.6.6,0,0,0,292.637,227.75Zm-.6,2.385h-8.348v-1.193h8.348Z" transform="translate(-282.5 -227.75)" fill="#bdc4c3"/>
      </g>
    </g>
    <g id="Group_466" data-name="Group 466" transform="translate(22.461 22.871)">
      <g id="Group_465" data-name="Group 465">
        <path id="Path_1152" data-name="Path 1152" d="M292.637,287.667H283.1a.6.6,0,0,0-.6.6v2.385a.6.6,0,0,0,.6.6h9.541a.6.6,0,0,0,.6-.6v-2.385A.6.6,0,0,0,292.637,287.667Zm-.6,2.385h-8.348V288.86h8.348Z" transform="translate(-282.5 -287.667)" fill="#bdc4c3"/>
      </g>
    </g>
    <g id="Group_468" data-name="Group 468" transform="translate(22.461 27.619)">
      <g id="Group_467" data-name="Group 467">
        <path id="Path_1153" data-name="Path 1153" d="M292.637,347.375H283.1a.6.6,0,0,0-.6.6v2.385a.6.6,0,0,0,.6.6h9.541a.6.6,0,0,0,.6-.6v-2.385A.6.6,0,0,0,292.637,347.375Zm-.6,2.385h-8.348v-1.193h8.348Z" transform="translate(-282.5 -347.375)" fill="#bdc4c3"/>
      </g>
    </g>
    <g id="Group_470" data-name="Group 470" transform="translate(9.501 31.149)">
      <g id="Group_469" data-name="Group 469">
        <path id="Path_1154" data-name="Path 1154" d="M125.488,393.712v-.532a1.4,1.4,0,0,0-1.4-1.4h-2.415a1.4,1.4,0,0,0-1.4,1.4v.532a1,1,0,0,0-.769.968v1.669a.6.6,0,0,0,.416.568v.124a.6.6,0,0,0,1.193,0v-.1h3.541v.1a.6.6,0,0,0,1.193,0v-.124a.6.6,0,0,0,.416-.568V394.68A1,1,0,0,0,125.488,393.712Zm-3.818-.743h2.415a.21.21,0,0,1,.21.21v.505h-2.836v-.505h0A.21.21,0,0,1,121.67,392.97Zm3.394,2.783h-4.373v-.875h4.373v.875Z" transform="translate(-119.498 -391.777)" fill="#bdc4c3"/>
      </g>
    </g>
    <g id="Group_472" data-name="Group 472" transform="translate(0 4.589)">
      <g id="Group_471" data-name="Group 471" transform="translate(0)">
        <path id="Path_1155" data-name="Path 1155" d="M13.271,62.077A1.9,1.9,0,0,0,11.128,60.4a2.136,2.136,0,0,0-2.119-1.552A2.515,2.515,0,0,0,6.923,57.72a2.489,2.489,0,0,0-2.1,1.141,2.732,2.732,0,0,0-3.369,1.573A1.918,1.918,0,0,0,0,62.249,1.873,1.873,0,0,0,.545,63.6a1.967,1.967,0,0,0,1.395.587h9.436a1.906,1.906,0,0,0,1.895-2.114Zm-1.364.685a.705.705,0,0,1-.531.237H1.94a.767.767,0,0,1-.543-.23.689.689,0,0,1-.2-.5.717.717,0,0,1,.7-.7h.011a.6.6,0,0,0,.581-.462A1.538,1.538,0,0,1,4.7,60.1a.733.733,0,0,0,1.018-.372,1.306,1.306,0,0,1,2.386-.07.731.731,0,0,0,.8.4.9.9,0,0,1,.174-.017.942.942,0,0,1,.941.942.735.735,0,0,0,.346.628.723.723,0,0,0,.705.038.7.7,0,0,1,.4-.065h0a.713.713,0,0,1,.437,1.184Z" transform="translate(0 -57.72)" fill="#bdc4c3"/>
      </g>
    </g>
    <g id="Group_474" data-name="Group 474" transform="translate(27.426 0.843)">
      <g id="Group_473" data-name="Group 473">
        <path id="Path_1156" data-name="Path 1156" d="M356.774,13.321a2.732,2.732,0,0,0-3.369-1.573,2.489,2.489,0,0,0-2.1-1.141,2.515,2.515,0,0,0-2.086,1.124,2.134,2.134,0,0,0-2.118,1.552,1.922,1.922,0,0,0-.491,0h0a1.906,1.906,0,0,0,.242,3.8h9.436a1.967,1.967,0,0,0,1.395-.588,1.872,1.872,0,0,0,.545-1.354A1.918,1.918,0,0,0,356.774,13.321Zm.059,2.334a.767.767,0,0,1-.543.23h-9.436a.713.713,0,0,1-.709-.794.714.714,0,0,1,.615-.626h0a.759.759,0,0,1,.094-.006.7.7,0,0,1,.308.071.724.724,0,0,0,.705-.038.735.735,0,0,0,.346-.63.942.942,0,0,1,.941-.941.9.9,0,0,1,.174.017.731.731,0,0,0,.8-.4,1.306,1.306,0,0,1,2.386.07.733.733,0,0,0,1.018.372A1.538,1.538,0,0,1,355.74,14a.593.593,0,0,0,.592.461.717.717,0,0,1,.7.7A.689.689,0,0,1,356.833,15.656Z" transform="translate(-344.948 -10.607)" fill="#bdc4c3"/>
      </g>
    </g>
  </g>
</svg>
