<svg id="park" xmlns="http://www.w3.org/2000/svg" width="40.708" height="40.708" viewBox="0 0 40.708 40.708">
  <path id="Path_1135" data-name="Path 1135" d="M39.912,25.522h-1.59v-.8a.8.8,0,0,0-1.59,0v.8H24.727v-.8a.8.8,0,0,0-1.59,0v.8h-1.59a.8.8,0,0,0-.8.8v4.055a.8.8,0,0,0,.8.8h1.59v1.59h-1.59a.8.8,0,0,0-.8.8v3.18a.8.8,0,0,0,.8.8h1.59v1.59H10.972V30.3a9.91,9.91,0,0,0,9.39-9.658,9.371,9.371,0,0,0-2.476-6.332,7.261,7.261,0,0,0-1.833-6.769A5.914,5.914,0,0,0,10.181,0,5.915,5.915,0,0,0,4.309,7.541,7.264,7.264,0,0,0,2.476,14.31,9.372,9.372,0,0,0,0,20.642,9.91,9.91,0,0,0,9.382,30.3v8.818H.8a.8.8,0,1,0,0,1.59H39.912a.8.8,0,1,0,0-1.59h-1.59v-1.59h1.59a.8.8,0,0,0,.8-.8v-3.18a.8.8,0,0,0-.8-.8h-1.59v-1.59h1.59a.8.8,0,0,0,.8-.8V26.317A.8.8,0,0,0,39.912,25.522ZM1.59,20.642a7.821,7.821,0,0,1,2.336-5.549.8.8,0,0,0,.2-.8A5.7,5.7,0,0,1,5.771,8.334a.8.8,0,0,0,.194-.9,4.007,4.007,0,0,1-.326-1.584A4.414,4.414,0,0,1,10.181,1.59a4.413,4.413,0,0,1,4.542,4.261A4.008,4.008,0,0,1,14.4,7.435a.8.8,0,0,0,.194.9,5.7,5.7,0,0,1,1.649,5.957.8.8,0,0,0,.2.8,7.821,7.821,0,0,1,2.336,5.549,8.311,8.311,0,0,1-7.8,8.062V22.683l3.364-3.364a.8.8,0,1,0-1.124-1.124l-2.239,2.239V11.21a.8.8,0,1,0-1.59,0v5.623L7.151,14.6a.8.8,0,0,0-1.124,1.124l3.356,3.355V28.7A8.311,8.311,0,0,1,1.59,20.642ZM36.732,39.117H24.727v-1.59H36.732Zm2.385-3.18H22.341v-1.59H39.117Zm-2.385-3.18H24.727v-1.59H36.732Zm2.385-3.18H22.341V27.112H39.117Z" transform="translate(0 0)" fill="#bdc4c3"/>
  <path id="Path_1136" data-name="Path 1136" d="M375.1,57.381a3.589,3.589,0,1,0-3.589-3.589A3.593,3.593,0,0,0,375.1,57.381Zm0-5.588a2,2,0,1,1-2,2A2,2,0,0,1,375.1,51.793Z" transform="translate(-341.972 -46.212)" fill="#bdc4c3"/>
  <path id="Path_1137" data-name="Path 1137" d="M407.8,2.385a.8.8,0,0,0,.8-.8V.8A.8.8,0,0,0,407,.8v.8A.8.8,0,0,0,407.8,2.385Z" transform="translate(-374.641)" fill="#bdc4c3"/>
  <path id="Path_1138" data-name="Path 1138" d="M347.1,26.919a.8.8,0,0,0,1.124-1.124l-.565-.565a.8.8,0,1,0-1.124,1.124Z" transform="translate(-318.77 -23.01)" fill="#bdc4c3"/>
  <path id="Path_1139" data-name="Path 1139" d="M321.8,86.59h.8a.8.8,0,1,0,0-1.59h-.8a.8.8,0,0,0,0,1.59Z" transform="translate(-295.478 -78.242)" fill="#bdc4c3"/>
  <path id="Path_1140" data-name="Path 1140" d="M347.1,138.83l-.565.565a.8.8,0,1,0,1.124,1.124l.564-.565a.8.8,0,1,0-1.124-1.124Z" transform="translate(-318.77 -127.578)" fill="#bdc4c3"/>
  <path id="Path_1141" data-name="Path 1141" d="M407,161.8v.8a.8.8,0,0,0,1.59,0v-.8a.8.8,0,1,0-1.59,0Z" transform="translate(-374.641 -148.199)" fill="#bdc4c3"/>
  <path id="Path_1142" data-name="Path 1142" d="M461.26,138.829a.8.8,0,0,0-1.124,1.124l.565.564a.8.8,0,0,0,1.124-1.124Z" transform="translate(-423.337 -127.577)" fill="#bdc4c3"/>
  <path id="Path_1143" data-name="Path 1143" d="M482,85.8a.8.8,0,0,0,.8.8h.8a.8.8,0,0,0,0-1.59h-.8A.8.8,0,0,0,482,85.8Z" transform="translate(-443.678 -78.242)" fill="#bdc4c3"/>
  <path id="Path_1144" data-name="Path 1144" d="M461.26,26.92l.565-.565a.8.8,0,1,0-1.125-1.124l-.565.565a.8.8,0,0,0,1.124,1.124Z" transform="translate(-423.337 -23.01)" fill="#bdc4c3"/>
</svg>
