<svg xmlns="http://www.w3.org/2000/svg" width="63.383" height="68.854" viewBox="0 0 63.383 68.854">
  <g id="Group_554" data-name="Group 554" transform="translate(0)">
    <path id="Path_1249" data-name="Path 1249" d="M222.411,361.876H182.2V351.9a12.1,12.1,0,0,1,12.1-12.1h16.018a12.1,12.1,0,0,1,12.1,12.1v9.972Z" transform="translate(-159.685 -293.022)" fill="#20b69e"/>
    <path id="Path_1250" data-name="Path 1250" d="M366.021,339.8H362a12.1,12.1,0,0,1,12.1,12.1v9.972h4.021V351.9A12.125,12.125,0,0,0,366.021,339.8Z" transform="translate(-315.385 -293.022)" fill="#1e9b83"/>
    <path id="Path_1251" data-name="Path 1251" d="M302.2,277.7h8.042v13.082H302.2Z" transform="translate(-263.601 -239.246)" fill="#ffb09e"/>
    <g id="Group_545" data-name="Group 545" transform="translate(34.028 43.628)">
      <g id="Group_544" data-name="Group 544">
        <path id="Path_1252" data-name="Path 1252" d="M272.664,316.3s-.389,5.335,4.021,7.895c0,0-2.507,2.8-5.04,1.9-2.011-.71-3.15-4.45-3.525-5.978a.923.923,0,0,1,.389-1.005Z" transform="translate(-268.093 -316.3)" fill="#e2edeb"/>
        <path id="Path_1253" data-name="Path 1253" d="M336.221,316.3s.389,5.335-4.021,7.895c0,0,2.507,2.8,5.04,1.9,2.011-.71,3.15-4.45,3.525-5.978a.923.923,0,0,0-.389-1.005Z" transform="translate(-323.607 -316.3)" fill="#e2edeb"/>
        <circle id="Ellipse_102" data-name="Ellipse 102" cx="1.287" cy="1.287" r="1.287" transform="translate(7.306 14.463)" fill="#e2edeb"/>
        <circle id="Ellipse_103" data-name="Ellipse 103" cx="1.287" cy="1.287" r="1.287" transform="translate(7.306 20.749)" fill="#e2edeb"/>
      </g>
    </g>
    <g id="Group_546" data-name="Group 546" transform="translate(21.871 20.366)">
      <path id="Path_1254" data-name="Path 1254" d="M201.453,149.907c0,3.267-2,5.907-4.46,5.907s-3.893-3.043-3.893-6.295S194.532,144,196.993,144,201.453,146.64,201.453,149.907Z" transform="translate(-193.1 -144)" fill="#ffb09e"/>
      <path id="Path_1255" data-name="Path 1255" d="M415.4,149.907c0,3.267,2,5.907,4.46,5.907s3.893-3.043,3.893-6.295S422.321,144,419.86,144,415.4,146.64,415.4,149.907Z" transform="translate(-382.241 -144)" fill="#ffb09e"/>
    </g>
    <path id="Path_1256" data-name="Path 1256" d="M235.8,68.279V58.494a14.394,14.394,0,0,1,28.788,0v9.74a14.394,14.394,0,0,1-28.788.045Z" transform="translate(-207.559 -38.635)" fill="#ffcebf"/>
    <path id="Path_1257" data-name="Path 1257" d="M319.352,44.1a13.864,13.864,0,0,0-2.237.179,14.4,14.4,0,0,1,12.157,14.215v9.74A14.418,14.418,0,0,1,317.1,82.479a13.863,13.863,0,0,0,2.237.179,14.409,14.409,0,0,0,14.409-14.409v-9.74A14.4,14.4,0,0,0,319.352,44.1Z" transform="translate(-276.733 -38.635)" fill="#ffb09e"/>
    <path id="Path_1258" data-name="Path 1258" d="M250.67,12.007a3.594,3.594,0,0,0-.447-3.55c-1.3-1.909-10.963-.865-21.942,1.909s-8.428,15.751-8.428,15.751a9.466,9.466,0,0,0,1.178,4.311,25.189,25.189,0,0,1,.984,3.58s3.058-2.461,2.968-3.4c-.164-1.507-1.029-10.725,2.774-9.86s5.355,1.507,8.532,1.507,4.728-.626,8.532-1.507,2.924,8.353,2.759,9.86c-.1.94,3.222,3.416,3.222,3.416a17.509,17.509,0,0,1,.731-3.595c.7-1.521,3.789-3.669,2.476-9.949,3.535-6.727-3.341-8.472-3.341-8.472Z" transform="translate(-193.776 -7.481)" fill="#ae6c6c"/>
    <g id="Group_547" data-name="Group 547" transform="translate(49.824 0)">
      <path id="Path_1259" data-name="Path 1259" d="M387.57,11.986a3.593,3.593,0,0,0-.448-3.55c-.612-.895-3.058-1.149-6.623-.865a3.016,3.016,0,0,1,2.148.865,3.844,3.844,0,0,1,.686,2.73,1.063,1.063,0,0,0,.641,1.134c1.7.731,5.057,2.894,2.625,7.861a1,1,0,0,0-.089.656c.91,4.833-.85,7.13-1.924,8.622-.045.522-.075.925-.1,1.149-.1.94,3.222,3.416,3.222,3.416a17.509,17.509,0,0,1,.731-3.595c.7-1.521,3.789-3.669,2.476-9.949,3.535-6.727-3.341-8.472-3.341-8.472Z" transform="translate(-380.5 -7.46)" fill="#9b5e5e"/>
    </g>
    <path id="Path_1260" data-name="Path 1260" d="M51.8,293h8.042v13.94H51.8V293Z" transform="translate(-46.764 -252.495)" fill="#20b69e"/>
    <path id="Path_1261" data-name="Path 1261" d="M81.8,293h4.021v13.94H81.8Z" transform="translate(-72.743 -252.495)" fill="#1da389"/>
    <path id="Path_1262" data-name="Path 1262" d="M68.327,348.627H44.2V331.242L56.263,324.5l12.063,6.742Z" transform="translate(-40.183 -279.773)" fill="#ddebe8"/>
    <path id="Path_1263" data-name="Path 1263" d="M194.2,358v19.637h4.021V360.252Z" transform="translate(-170.077 -308.783)" fill="#c7e2dc"/>
    <path id="Path_1264" data-name="Path 1264" d="M102.927,417.9H91.4V405.036a.538.538,0,0,1,.536-.536h10.455a.538.538,0,0,1,.536.536Z" transform="translate(-81.056 -349.05)" fill="#dd7f66"/>
    <path id="Path_1265" data-name="Path 1265" d="M102.927,417.9H91.4V405.036a.538.538,0,0,1,.536-.536h10.455a.538.538,0,0,1,.536.536Z" transform="translate(-81.056 -349.05)" fill="#20b69e"/>
    <path id="Path_1266" data-name="Path 1266" d="M151.421,417.9H147.4V404.5h3.485a.538.538,0,0,1,.536.536Z" transform="translate(-129.55 -349.05)" fill="#1da389"/>
    <path id="Path_1267" data-name="Path 1267" d="M45.389,315.354l-14.074-8.042a2.038,2.038,0,0,0-2,0l-14.074,8.042a2.014,2.014,0,0,0,2,3.5l13.082-7.466L43.4,318.852a2.041,2.041,0,0,0,.992.268,1.982,1.982,0,0,0,1.742-1.019A2.013,2.013,0,0,0,45.389,315.354Z" transform="translate(-14.229 -264.662)" fill="#297ce0"/>
    <path id="Path_1268" data-name="Path 1268" d="M51.987,267.021H42.336a.538.538,0,0,1-.536-.536v-2.949a.538.538,0,0,1,.536-.536h9.651a.538.538,0,0,1,.536.536v2.949A.538.538,0,0,1,51.987,267.021Z" transform="translate(-38.104 -226.516)" fill="#ddebe8"/>
    <path id="Path_1269" data-name="Path 1269" d="M91.821,263H87.8a.538.538,0,0,1,.536.536v2.949a.538.538,0,0,1-.536.536h4.021a.538.538,0,0,0,.536-.536v-2.949A.538.538,0,0,0,91.821,263Z" transform="translate(-77.938 -226.516)" fill="#c7e2dc"/>
    <path id="Path_1270" data-name="Path 1270" d="M327.578,218.585a3.968,3.968,0,0,0,2.357,0,1.125,1.125,0,1,0-.567-2.178,1.908,1.908,0,0,1-1.223,0,1.141,1.141,0,0,0-1.372.805,1.117,1.117,0,0,0,.806,1.372Z" transform="translate(-284.929 -185.212)" fill="#ffb09e"/>
    <path id="Path_1271" data-name="Path 1271" d="M287.361,137.863a.918.918,0,0,0,.283.03,1.128,1.128,0,0,0,1.089-.835,1.141,1.141,0,0,0-.805-1.372,7.429,7.429,0,0,0-4.415,0,1.126,1.126,0,0,0-.805,1.372,1.115,1.115,0,0,0,1.372.805,5.36,5.36,0,0,1,3.282,0Z" transform="translate(-247.441 -116.274)" fill="#855151"/>
    <path id="Path_1272" data-name="Path 1272" d="M358.379,137.863a5.36,5.36,0,0,1,3.282,0,.918.918,0,0,0,.283.03,1.128,1.128,0,0,0,1.089-.835,1.141,1.141,0,0,0-.805-1.372,7.428,7.428,0,0,0-4.415,0,1.126,1.126,0,0,0-.805,1.372A1.11,1.11,0,0,0,358.379,137.863Z" transform="translate(-310.658 -116.274)" fill="#855151"/>
    <path id="Path_1273" data-name="Path 1273" d="M321.146,243.455a1.118,1.118,0,0,0-1.089-1.954,4.709,4.709,0,0,1-4.535,0,1.118,1.118,0,0,0-1.089,1.954,6.943,6.943,0,0,0,6.712,0Z" transform="translate(-273.977 -206.472)" fill="#ffb09e"/>
    <path id="Path_1274" data-name="Path 1274" d="M291.819,172.4a1.127,1.127,0,0,0-1.119,1.119v.895a1.119,1.119,0,1,0,2.237,0v-.895A1.117,1.117,0,0,0,291.819,172.4Z" transform="translate(-254.27 -147.797)" fill="#855151"/>
    <path id="Path_1275" data-name="Path 1275" d="M375.819,172.4a1.127,1.127,0,0,0-1.119,1.119v.895a1.119,1.119,0,1,0,2.237,0v-.895A1.117,1.117,0,0,0,375.819,172.4Z" transform="translate(-325.741 -147.797)" fill="#855151"/>
  </g>
</svg>
