<svg xmlns="http://www.w3.org/2000/svg" width="296.044" height="179.478" viewBox="0 0 296.044 179.478">
  <g id="Group_390" data-name="Group 390" transform="translate(0)">
    <path id="Path_415" data-name="Path 415" d="M-782.027,446.3H-1019.78a3.2,3.2,0,0,1-3.19-3.19V280a3.2,3.2,0,0,1,3.19-3.19h237.754a3.2,3.2,0,0,1,3.19,3.19V443.11A3.2,3.2,0,0,1-782.027,446.3Z" transform="translate(1049.947 -276.81)" fill="#232930"/>
    <path id="Path_416" data-name="Path 416" d="M-1102.31,816.13v1.581a8.434,8.434,0,0,0,8.41,8.41H-816.72a8.434,8.434,0,0,0,8.41-8.41V816.13Z" transform="translate(1104.354 -646.643)" fill="#232930"/>
    <rect id="Rectangle_1173" data-name="Rectangle 1173" width="222.792" height="148.705" transform="translate(37.647 10.393)" fill="#fff"/>
    <g id="Group_161" data-name="Group 161" transform="translate(37.647 30.999)">
      <g id="Group_159" data-name="Group 159" transform="translate(0 9.107)">
        <path id="Path_417" data-name="Path 417" d="M-989.02,424.414h48.2a4.6,4.6,0,0,0-4.579-4.176,4.584,4.584,0,0,0-2.558.776,1.058,1.058,0,0,1-1.687-.531,6.869,6.869,0,0,0-6.549-4.789,6.982,6.982,0,0,0-1.367.135c-1.612.258-2.439-.471-2.671-1.587a12.5,12.5,0,0,0-12.209-9.811,12.508,12.508,0,0,0-11.857,8.526,1.746,1.746,0,0,1-2.718.782,8.628,8.628,0,0,0-2-1.04v11.716Z" transform="translate(989.02 -404.43)" fill="#eff6ff"/>
        <path id="Path_418" data-name="Path 418" d="M-978.953,438.515A13.65,13.65,0,0,0-984,433.175l.179-.3a13.966,13.966,0,0,1,5.169,5.465Z" transform="translate(985.578 -423.939)" fill="#afcbd8"/>
        <path id="Path_419" data-name="Path 419" d="M-908.311,444.521l-.289-.185a8.821,8.821,0,0,1,5.965-4.076l.038.343A8.615,8.615,0,0,0-908.311,444.521Z" transform="translate(933.873 -429)" fill="#afcbd8"/>
        <path id="Path_420" data-name="Path 420" d="M-922.045,454.785l-.245-.242a5.727,5.727,0,0,1,4.44-1.772,4.473,4.473,0,0,1,3.337,1.791l-.276.2a4.147,4.147,0,0,0-3.086-1.653A5.416,5.416,0,0,0-922.045,454.785Z" transform="translate(943.26 -437.57)" fill="#afcbd8"/>
      </g>
      <g id="Group_160" data-name="Group 160" transform="translate(194.578 0)">
        <path id="Path_421" data-name="Path 421" d="M-341.325,378.756a6.148,6.148,0,0,0-2.417.522,3.435,3.435,0,0,1-3.777-.717,9.414,9.414,0,0,0-7-3.111,9.43,9.43,0,0,0-7.671,3.931c-.933,1.455-2.583,1.317-3.447,1.317a4.218,4.218,0,0,0-4.217,4.217v.013h28.532v-6.172Z" transform="translate(369.86 -375.45)" fill="#eff6ff"/>
        <path id="Path_422" data-name="Path 422" d="M-301.129,390.6l-.261-.223a11.246,11.246,0,0,1,3.922-2.608l.123.321A11.054,11.054,0,0,0-301.129,390.6Z" transform="translate(322.907 -383.898)" fill="#afcbd8"/>
        <path id="Path_423" data-name="Path 423" d="M-351,393.854c-.006-.016-.732-1.574-3.479-1.892l.038-.342c2.957.342,3.724,2.024,3.755,2.1Z" transform="translate(359.313 -386.538)" fill="#afcbd8"/>
      </g>
    </g>
    <g id="Group_172" data-name="Group 172" transform="translate(47.071 34.902)">
      <g id="Group_162" data-name="Group 162" transform="translate(0 73.485)">
        <path id="Path_424" data-name="Path 424" d="M-921.9,649.232h-37.13a5.8,5.8,0,0,1,3.41-3.617,8.147,8.147,0,0,1,5.2-.063c-.314-.091-.732-.654-.952-.889a3.689,3.689,0,0,1-1.065-1.958,3.214,3.214,0,0,1,.669-2.467,4.421,4.421,0,0,1,3.932-1.43c.072.006.141.016.214.028a3.852,3.852,0,0,1,.817.214,9.087,9.087,0,0,1,3.014,2.084c.163.16.323.327.471.5,0,0-2.413-2.008-2.982-3.532-2.1-4.334,2.335-10.625,7.85-8.843a11.01,11.01,0,0,1,5.22,5.1c-4.412-6.606,2.9-10.619,5.5-4.673-1.606-4.9.789-10.025,5.631-7.149.072.025.132.06.2.085v26.611Z" transform="translate(959.03 -621.705)" fill="#20b69e"/>
        <path id="Path_425" data-name="Path 425" d="M-888.614,672.389H-910.49a3.424,3.424,0,0,1,2.008-2.131,4.812,4.812,0,0,1,3.061-.038,2.122,2.122,0,0,1,1.166-2.725,3.726,3.726,0,0,1,3.017.418,3.651,3.651,0,0,1-1.757-2.081c-1.235-2.552,1.376-6.26,4.626-5.21a6.491,6.491,0,0,1,3.073,3c-2.6-3.891,1.709-6.257,3.24-2.753-1.49-3.831,1.383-6.078,3.438-5.214v16.731Z" transform="translate(925.744 -644.861)" fill="#32ceb0"/>
        <path id="Path_426" data-name="Path 426" d="M-914.569,639.512a2.116,2.116,0,0,0,1.436.459,2.6,2.6,0,0,0-.691-1.458,2.116,2.116,0,0,0-1.436-.459A2.593,2.593,0,0,0-914.569,639.512Z" transform="translate(929.015 -632.914)" fill="#20b69e"/>
        <path id="Path_427" data-name="Path 427" d="M-859.943,658.239a2.4,2.4,0,0,0,1.38,1.028,2.964,2.964,0,0,0-.2-1.829,2.4,2.4,0,0,0-1.38-1.028A2.938,2.938,0,0,0-859.943,658.239Z" transform="translate(891.266 -645.504)" fill="#32ceb0"/>
        <path id="Path_428" data-name="Path 428" d="M-907.527,632.114a3.681,3.681,0,0,0,.333,2.228,3.365,3.365,0,0,0,1.238-1.8,3.681,3.681,0,0,0-.333-2.228A3.366,3.366,0,0,0-907.527,632.114Z" transform="translate(923.755 -627.606)" fill="#20b69e"/>
      </g>
      <path id="Path_429" data-name="Path 429" d="M-835.293,387.914l77.666-.044,45.778,51.925H-881.03Z" transform="translate(905.542 -387.87)" fill="#297ce0"/>
      <rect id="Rectangle_1174" data-name="Rectangle 1174" width="51.353" height="45.939" transform="translate(79.781 97.863) rotate(180)" fill="#fff"/>
      <rect id="Rectangle_1175" data-name="Rectangle 1175" width="5.616" height="45.939" transform="translate(34.04 97.863) rotate(180)" fill="#20b69e"/>
      <rect id="Rectangle_1176" data-name="Rectangle 1176" width="5.616" height="45.939" transform="translate(79.781 97.863) rotate(180)" fill="#20b69e"/>
      <g id="Group_163" data-name="Group 163" transform="translate(34.041 58.622)">
        <rect id="Rectangle_1177" data-name="Rectangle 1177" width="40.125" height="0.471" fill="#e1ecef"/>
        <rect id="Rectangle_1178" data-name="Rectangle 1178" width="40.125" height="0.471" transform="translate(0 6.471)" fill="#e1ecef"/>
        <rect id="Rectangle_1179" data-name="Rectangle 1179" width="40.125" height="0.471" transform="translate(0 12.941)" fill="#e1ecef"/>
        <rect id="Rectangle_1180" data-name="Rectangle 1180" width="40.125" height="0.471" transform="translate(0 19.412)" fill="#e1ecef"/>
        <rect id="Rectangle_1181" data-name="Rectangle 1181" width="40.125" height="0.471" transform="translate(0 25.886)" fill="#e1ecef"/>
        <rect id="Rectangle_1182" data-name="Rectangle 1182" width="40.125" height="0.471" transform="translate(0 32.356)" fill="#e1ecef"/>
      </g>
      <g id="Group_164" data-name="Group 164" transform="translate(74.165 58.622)">
        <rect id="Rectangle_1183" data-name="Rectangle 1183" width="5.616" height="0.471" fill="#fff"/>
        <rect id="Rectangle_1184" data-name="Rectangle 1184" width="5.616" height="0.471" transform="translate(0 6.471)" fill="#fff"/>
        <rect id="Rectangle_1185" data-name="Rectangle 1185" width="5.616" height="0.471" transform="translate(0 12.941)" fill="#fff"/>
        <rect id="Rectangle_1186" data-name="Rectangle 1186" width="5.616" height="0.471" transform="translate(0 19.412)" fill="#fff"/>
        <rect id="Rectangle_1187" data-name="Rectangle 1187" width="5.616" height="0.471" transform="translate(0 25.886)" fill="#fff"/>
        <rect id="Rectangle_1188" data-name="Rectangle 1188" width="5.616" height="0.471" transform="translate(0 32.356)" fill="#fff"/>
      </g>
      <g id="Group_165" data-name="Group 165" transform="translate(28.425 58.622)">
        <rect id="Rectangle_1189" data-name="Rectangle 1189" width="5.616" height="0.471" fill="#fff"/>
        <rect id="Rectangle_1190" data-name="Rectangle 1190" width="5.616" height="0.471" transform="translate(0 6.471)" fill="#fff"/>
        <rect id="Rectangle_1191" data-name="Rectangle 1191" width="5.616" height="0.471" transform="translate(0 12.941)" fill="#fff"/>
        <rect id="Rectangle_1192" data-name="Rectangle 1192" width="5.616" height="0.471" transform="translate(0 19.412)" fill="#fff"/>
        <rect id="Rectangle_1193" data-name="Rectangle 1193" width="5.616" height="0.471" transform="translate(0 25.886)" fill="#fff"/>
        <rect id="Rectangle_1194" data-name="Rectangle 1194" width="5.616" height="0.471" transform="translate(0 32.356)" fill="#fff"/>
      </g>
      <rect id="Rectangle_1195" data-name="Rectangle 1195" width="32.262" height="19.434" transform="translate(70.338 88.703) rotate(180)" fill="#297ce0"/>
      <rect id="Rectangle_1196" data-name="Rectangle 1196" width="51.353" height="45.939" transform="translate(189.78 97.863) rotate(180)" fill="#fff"/>
      <g id="Group_166" data-name="Group 166" transform="translate(138.865 58.622)">
        <rect id="Rectangle_1197" data-name="Rectangle 1197" width="50.916" height="0.471" fill="#e1ecef"/>
        <rect id="Rectangle_1198" data-name="Rectangle 1198" width="50.916" height="0.471" transform="translate(0 6.471)" fill="#e1ecef"/>
        <rect id="Rectangle_1199" data-name="Rectangle 1199" width="50.916" height="0.471" transform="translate(0 12.941)" fill="#e1ecef"/>
        <rect id="Rectangle_1200" data-name="Rectangle 1200" width="50.916" height="0.471" transform="translate(0 19.412)" fill="#e1ecef"/>
        <rect id="Rectangle_1201" data-name="Rectangle 1201" width="50.916" height="0.471" transform="translate(0 25.886)" fill="#e1ecef"/>
        <rect id="Rectangle_1202" data-name="Rectangle 1202" width="50.916" height="0.471" transform="translate(0 32.356)" fill="#e1ecef"/>
      </g>
      <rect id="Rectangle_1203" data-name="Rectangle 1203" width="33.814" height="36.495" transform="translate(181.012 97.863) rotate(180)" fill="#20b69e"/>
      <path id="Path_430" data-name="Path 430" d="M-490.64,584.753l33.814,5.49V583.15H-490.64Z" transform="translate(637.836 -521.781)" fill="#1daa8f"/>
      <path id="Path_431" data-name="Path 431" d="M-518.54,599.039h2.247l-1.4-45.939h-.842Z" transform="translate(656.969 -501.175)" fill="#ddebe8"/>
      <rect id="Rectangle_1204" data-name="Rectangle 1204" width="22.573" height="28.591" transform="translate(175.346 97.862) rotate(180)" fill="#297ce0"/>
      <rect id="Rectangle_1205" data-name="Rectangle 1205" width="8.806" height="25.691" transform="translate(173.714 96.274) rotate(180)" fill="#fff"/>
      <rect id="Rectangle_1206" data-name="Rectangle 1206" width="8.806" height="25.691" transform="translate(163.302 96.274) rotate(180)" fill="#fff"/>
      <rect id="Rectangle_1207" data-name="Rectangle 1207" width="5.427" height="16.602" transform="translate(68.837 87.184) rotate(180)" fill="#fff"/>
      <rect id="Rectangle_1208" data-name="Rectangle 1208" width="15.465" height="16.602" transform="translate(61.836 87.184) rotate(180)" fill="#fff"/>
      <rect id="Rectangle_1209" data-name="Rectangle 1209" width="5.427" height="16.602" transform="translate(44.796 87.184) rotate(180)" fill="#fff"/>
      <path id="Path_432" data-name="Path 432" d="M-837.87,607.5h32.74l.4,19.682h-.874V607.751H-837.87Z" transform="translate(875.946 -538.479)" fill="#9bb8cc"/>
      <path id="Path_433" data-name="Path 433" d="M-472.9,607.03h23.076l.276,28.991h-.779V607.429H-472.9Z" transform="translate(625.672 -538.157)" fill="#1daa8f"/>
      <path id="Path_434" data-name="Path 434" d="M-805.608,669.61H-837.87v.462l33.136,1.4V669.61Z" transform="translate(875.946 -581.07)" fill="#9bb8cc"/>
      <path id="Path_435" data-name="Path 435" d="M-518.54,553.857l51.353,2.806V553.1H-518.54Z" transform="translate(656.969 -501.175)" fill="#ddebe8"/>
      <path id="Path_436" data-name="Path 436" d="M-810.585,553.1v3.259l-40.125-2.194V553.1Z" transform="translate(884.751 -501.175)" fill="#ddebe8"/>
      <path id="Path_437" data-name="Path 437" d="M-862.964,553.1v1.065l-5.616-.308V553.1Z" transform="translate(897.005 -501.175)" fill="#13a88c"/>
      <path id="Path_438" data-name="Path 438" d="M-717.414,553.1v3.564l-5.616-.3V553.1Z" transform="translate(797.196 -501.175)" fill="#13a88c"/>
      <path id="Path_439" data-name="Path 439" d="M-705.16,493.5h58.647V422.084L-675.836,399.2l-29.324,22.884Z" transform="translate(784.941 -395.639)" fill="#fff"/>
      <path id="Path_440" data-name="Path 440" d="M-675.836,399.2l29.324,22.884v5.176l-27.96-21.615-30.687,23.947v-7.508Z" transform="translate(784.941 -395.639)" fill="#ddebe8"/>
      <path id="Path_441" data-name="Path 441" d="M-719.99,418.309l33.984-25.5,33.956,25.754-3.309,3.312-30.647-23.915-30.518,23.812Z" transform="translate(795.111 -391.258)" fill="#20b69e"/>
      <rect id="Rectangle_1210" data-name="Rectangle 1210" width="8.806" height="25.691" transform="translate(129.125 96.274) rotate(180)" fill="#ddebe8"/>
      <rect id="Rectangle_1211" data-name="Rectangle 1211" width="8.806" height="25.691" transform="translate(118.714 96.274) rotate(180)" fill="#ddebe8"/>
      <rect id="Rectangle_1212" data-name="Rectangle 1212" width="8.806" height="25.691" transform="translate(108.299 96.274) rotate(180)" fill="#ddebe8"/>
      <rect id="Rectangle_1213" data-name="Rectangle 1213" width="8.806" height="25.691" transform="translate(97.888 96.274) rotate(180)" fill="#ddebe8"/>
      <path id="Path_442" data-name="Path 442" d="M-678.84,607.5h43.2l.669,28.843h-1.354V607.751h-42.52Z" transform="translate(766.893 -538.479)" fill="#ddebe8"/>
      <rect id="Rectangle_1214" data-name="Rectangle 1214" width="8.806" height="25.691" transform="translate(118.714 52.593) rotate(180)" fill="#ddebe8"/>
      <rect id="Rectangle_1215" data-name="Rectangle 1215" width="8.806" height="25.691" transform="translate(108.299 52.593) rotate(180)" fill="#ddebe8"/>
      <path id="Path_443" data-name="Path 443" d="M-646.96,468.51h22.69l.673,28.843h-1.358V468.758h-22Z" transform="translate(745.031 -443.168)" fill="#ddebe8"/>
      <rect id="Rectangle_1216" data-name="Rectangle 1216" width="46.13" height="2.37" transform="translate(132.169 56.367) rotate(180)" fill="#297ce0"/>
      <path id="Path_444" data-name="Path 444" d="M-685.25,562.07h46.13V559.7l1.769,2.37V564.3l-47.9-1.7Z" transform="translate(771.288 -505.701)" fill="#ddebe8"/>
      <g id="Group_167" data-name="Group 167" transform="translate(87.755 47.541)">
        <rect id="Rectangle_1217" data-name="Rectangle 1217" width="0.748" height="6.458" transform="translate(42.395 6.458) rotate(180)" fill="#20b69e"/>
        <rect id="Rectangle_1218" data-name="Rectangle 1218" width="0.748" height="6.458" transform="translate(17.407 6.458) rotate(180)" fill="#20b69e"/>
        <rect id="Rectangle_1219" data-name="Rectangle 1219" width="0.748" height="6.458" transform="translate(25.736 6.458) rotate(180)" fill="#20b69e"/>
        <rect id="Rectangle_1220" data-name="Rectangle 1220" width="0.748" height="6.458" transform="translate(9.076 6.458) rotate(180)" fill="#20b69e"/>
        <rect id="Rectangle_1221" data-name="Rectangle 1221" width="0.748" height="6.458" transform="translate(34.067 6.458) rotate(180)" fill="#20b69e"/>
        <rect id="Rectangle_1222" data-name="Rectangle 1222" width="0.748" height="6.458" transform="translate(0.748 6.458) rotate(180)" fill="#20b69e"/>
      </g>
      <g id="Group_168" data-name="Group 168" transform="translate(87.755 47.542)">
        <rect id="Rectangle_1223" data-name="Rectangle 1223" width="0.748" height="0.607" transform="translate(42.395 0.607) rotate(180)" fill="#4a938c"/>
        <rect id="Rectangle_1224" data-name="Rectangle 1224" width="0.748" height="0.607" transform="translate(17.407 0.607) rotate(180)" fill="#4a938c"/>
        <rect id="Rectangle_1225" data-name="Rectangle 1225" width="0.748" height="0.607" transform="translate(25.736 0.607) rotate(180)" fill="#4a938c"/>
        <rect id="Rectangle_1226" data-name="Rectangle 1226" width="0.748" height="0.607" transform="translate(9.076 0.607) rotate(180)" fill="#4a938c"/>
        <rect id="Rectangle_1227" data-name="Rectangle 1227" width="0.748" height="0.607" transform="translate(34.067 0.607) rotate(180)" fill="#4a938c"/>
        <rect id="Rectangle_1228" data-name="Rectangle 1228" width="0.748" height="0.607" transform="translate(0.748 0.607) rotate(180)" fill="#4a938c"/>
      </g>
      <path id="Path_445" data-name="Path 445" d="M-681.95,535.567h44.1V533.93l-44.1.38Z" transform="translate(769.025 -488.029)" fill="#20b69e"/>
      <rect id="Rectangle_1229" data-name="Rectangle 1229" width="166.338" height="3.149" transform="translate(193.158 101.011) rotate(180)" fill="#297ce0"/>
      <g id="Group_171" data-name="Group 171" transform="translate(2.633 92.067)">
        <g id="Group_169" data-name="Group 169" transform="translate(0 2.436)">
          <rect id="Rectangle_1230" data-name="Rectangle 1230" width="36.401" height="1.002" transform="translate(36.401 1.002) rotate(180)" fill="#b6ccd8"/>
          <rect id="Rectangle_1231" data-name="Rectangle 1231" width="36.401" height="1.002" transform="translate(36.401 5.073) rotate(180)" fill="#b6ccd8"/>
        </g>
        <g id="Group_170" data-name="Group 170" transform="translate(0.723)">
          <path id="Path_446" data-name="Path 446" d="M-843.905,689.78h1.741a.189.189,0,0,0,.195-.182v-7.52a.185.185,0,0,0-.041-.113l-.87-1.059a.2.2,0,0,0-.308,0l-.871,1.059a.185.185,0,0,0-.041.113v7.52A.189.189,0,0,0-843.905,689.78Z" transform="translate(876.862 -680.835)" fill="#fff"/>
          <path id="Path_447" data-name="Path 447" d="M-855.485,689.78h1.741a.189.189,0,0,0,.195-.182v-7.52a.185.185,0,0,0-.041-.113l-.871-1.059a.2.2,0,0,0-.308,0l-.87,1.059a.184.184,0,0,0-.041.113v7.52A.187.187,0,0,0-855.485,689.78Z" transform="translate(884.803 -680.835)" fill="#fff"/>
          <path id="Path_448" data-name="Path 448" d="M-867.075,689.78h1.741a.189.189,0,0,0,.195-.182v-7.52a.184.184,0,0,0-.041-.113l-.871-1.059a.2.2,0,0,0-.308,0l-.87,1.059a.184.184,0,0,0-.041.113v7.52A.189.189,0,0,0-867.075,689.78Z" transform="translate(892.75 -680.835)" fill="#fff"/>
          <path id="Path_449" data-name="Path 449" d="M-878.655,689.78h1.741a.189.189,0,0,0,.195-.182v-7.52a.184.184,0,0,0-.041-.113l-.87-1.059a.2.2,0,0,0-.308,0l-.87,1.059a.184.184,0,0,0-.041.113v7.52A.189.189,0,0,0-878.655,689.78Z" transform="translate(900.691 -680.835)" fill="#fff"/>
          <path id="Path_450" data-name="Path 450" d="M-890.235,689.78h1.741a.189.189,0,0,0,.195-.182v-7.52a.184.184,0,0,0-.041-.113l-.87-1.059a.2.2,0,0,0-.308,0l-.87,1.059a.184.184,0,0,0-.041.113v7.52A.187.187,0,0,0-890.235,689.78Z" transform="translate(908.632 -680.835)" fill="#fff"/>
          <path id="Path_451" data-name="Path 451" d="M-901.825,689.78h1.741a.189.189,0,0,0,.195-.182v-7.52a.184.184,0,0,0-.041-.113l-.87-1.059a.2.2,0,0,0-.308,0l-.87,1.059a.184.184,0,0,0-.041.113v7.52A.19.19,0,0,0-901.825,689.78Z" transform="translate(916.58 -680.835)" fill="#fff"/>
          <path id="Path_452" data-name="Path 452" d="M-913.405,689.78h1.741a.189.189,0,0,0,.195-.182v-7.52a.184.184,0,0,0-.041-.113l-.871-1.059a.2.2,0,0,0-.308,0l-.87,1.059a.185.185,0,0,0-.041.113v7.52A.189.189,0,0,0-913.405,689.78Z" transform="translate(924.521 -680.835)" fill="#fff"/>
          <path id="Path_453" data-name="Path 453" d="M-924.985,689.78h1.741a.189.189,0,0,0,.195-.182v-7.52a.185.185,0,0,0-.041-.113l-.87-1.059a.2.2,0,0,0-.308,0l-.87,1.059a.185.185,0,0,0-.041.113v7.52A.187.187,0,0,0-924.985,689.78Z" transform="translate(932.461 -680.835)" fill="#fff"/>
          <path id="Path_454" data-name="Path 454" d="M-936.575,689.78h1.741a.189.189,0,0,0,.195-.182v-7.52a.185.185,0,0,0-.041-.113l-.87-1.059a.2.2,0,0,0-.308,0l-.871,1.059a.185.185,0,0,0-.041.113v7.52A.191.191,0,0,0-936.575,689.78Z" transform="translate(940.409 -680.835)" fill="#fff"/>
          <path id="Path_455" data-name="Path 455" d="M-948.155,689.78h1.741a.189.189,0,0,0,.195-.182v-7.52a.185.185,0,0,0-.041-.113l-.87-1.059a.2.2,0,0,0-.308,0l-.871,1.059a.185.185,0,0,0-.041.113v7.52A.189.189,0,0,0-948.155,689.78Z" transform="translate(948.35 -680.835)" fill="#fff"/>
        </g>
      </g>
    </g>
    <g id="Group_173" data-name="Group 173" transform="translate(0 114.019)">
      <path id="Path_456" data-name="Path 456" d="M-1063.993,765.639l-.556-8.061,4.459-5.166-.273-.22-2.63,2.25-.383-2.25-.418.107.072,2.81-1.072,1.04-.406-8.237,2.184-2.706-.242-.207-2.263,1.807-.148-4.305h-.588l-.393,5.3-.569,5.264-2.948-3.2-.276.182,1.075,1.691-1.873-.025v.311l2.046.314,2.011,3.149-.459,10.154Z" transform="translate(1083.048 -710.171)" fill="#994f61"/>
      <path id="Path_457" data-name="Path 457" d="M-1108.807,665.938a6.446,6.446,0,0,1,.462-2.951,3.084,3.084,0,0,1,2.241-1.829,1.685,1.685,0,0,1,1.571.537,12.624,12.624,0,0,1-2.59-4.657,5.74,5.74,0,0,1,.933-5.085,5.187,5.187,0,0,1,4.673-1.634,7.31,7.31,0,0,1,4.368,2.555c-.123-2.693-.742-5.408-.248-8.058s2.6-5.3,5.292-5.185c1.826.082,3.363,1.389,4.526,2.8a18.768,18.768,0,0,1,4.2,10.38,13.01,13.01,0,0,1,2.351-2.674,4.374,4.374,0,0,1,3.315-1.021c1.932.314,3.161,2.285,3.633,4.186a11.418,11.418,0,0,1-.207,6.191c-1.053,3.29-3.523,5.9-5.917,8.394a2.446,2.446,0,0,1,3.02,1.251c.723,1.468.035,3.158-.971,4.327a9.847,9.847,0,0,1-3.124,2.272c-6.49,3.259-14.39,2.787-20.936-.047a11.157,11.157,0,0,1-5.421-5.122.206.206,0,0,0-.016-.025A10.3,10.3,0,0,1-1108.807,665.938Z" transform="translate(1108.814 -639.628)" fill="#20b69e"/>
      <path id="Path_458" data-name="Path 458" d="M-1044.147,764.616c.3-.352,1.2-.49,1.182.151.264-1.983,2.853-1.232,1.644.663,1.989-2.068,3.755.578,1.178,1.757,2.19.044.968,3.168-.952,1.807a.739.739,0,0,1-.556,1.357C-1043.877,769.987-1046.152,766.436-1044.147,764.616Z" transform="translate(1064.999 -724.639)" fill="#20b69e"/>
      <path id="Path_459" data-name="Path 459" d="M-1068.884,711.736a3.6,3.6,0,0,0,.226-1.644,1.707,1.707,0,0,0-.9-1.329.939.939,0,0,0-.924.035,7,7,0,0,0,2.121-2.065,3.2,3.2,0,0,0,.317-2.853,2.879,2.879,0,0,0-2.222-1.615,4.06,4.06,0,0,0-2.731.66,19.964,19.964,0,0,0,1.42-4.246c.164-1.487-.534-3.237-1.986-3.6a3.7,3.7,0,0,0-2.854.764,10.411,10.411,0,0,0-3.894,4.849,7.227,7.227,0,0,0-.823-1.8,2.427,2.427,0,0,0-1.6-1.071,2.879,2.879,0,0,0-2.6,1.643,6.372,6.372,0,0,0-.88,3.325,12.7,12.7,0,0,0,1.807,5.412,1.359,1.359,0,0,0-1.807.182,2.266,2.266,0,0,0-.176,2.457,5.54,5.54,0,0,0,1.3,1.71,13.954,13.954,0,0,0,11.144,3.319,6.214,6.214,0,0,0,3.7-1.857s.01-.006.013-.013A5.734,5.734,0,0,0-1068.884,711.736Z" transform="translate(1093.624 -677.604)" fill="#32ceb0"/>
      <path id="Path_460" data-name="Path 460" d="M-1007.153,724.714a2.285,2.285,0,0,0-.151,1.512,2.284,2.284,0,0,0,1.2-.933,2.286,2.286,0,0,0,.151-1.512A2.285,2.285,0,0,0-1007.153,724.714Z" transform="translate(1039.25 -697.334)" fill="#20b69e"/>
      <path id="Path_461" data-name="Path 461" d="M-1003.866,731.282a3.149,3.149,0,0,0-1.964.707,3.164,3.164,0,0,0,1.87.933,3.149,3.149,0,0,0,1.964-.707A3.164,3.164,0,0,0-1003.866,731.282Z" transform="translate(1038.194 -702.476)" fill="#20b69e"/>
      <path id="Path_462" data-name="Path 462" d="M-1075.269,773.356a1.234,1.234,0,0,0,.566-.581,1.215,1.215,0,0,0-.811-.006,1.234,1.234,0,0,0-.566.581A1.216,1.216,0,0,0-1075.269,773.356Z" transform="translate(1086.367 -730.88)" fill="#20b69e"/>
      <path id="Path_463" data-name="Path 463" d="M-1075.989,768.328a1.681,1.681,0,0,0,1.056.355,1.689,1.689,0,0,0-.471-1.009,1.68,1.68,0,0,0-1.056-.355A1.66,1.66,0,0,0-1075.989,768.328Z" transform="translate(1086.628 -727.191)" fill="#20b69e"/>
      <path id="Path_464" data-name="Path 464" d="M-1074.323,696.907a2.281,2.281,0,0,0,1.4.581,2.3,2.3,0,0,0-.547-1.417,2.28,2.28,0,0,0-1.4-.581A2.3,2.3,0,0,0-1074.323,696.907Z" transform="translate(1085.537 -677.935)" fill="#32ceb0"/>
      <path id="Path_465" data-name="Path 465" d="M-1033.363,713.785a1.6,1.6,0,0,0-.757.732,1.589,1.589,0,0,0,1.053.041,1.6,1.6,0,0,0,.757-.732A1.586,1.586,0,0,0-1033.363,713.785Z" transform="translate(1057.593 -690.428)" fill="#32ceb0"/>
      <path id="Path_466" data-name="Path 466" d="M-1067.025,691.208a3.152,3.152,0,0,0,.107,2.087,3.157,3.157,0,0,0,1.436-1.518,3.153,3.153,0,0,0-.107-2.087A3.157,3.157,0,0,0-1067.025,691.208Z" transform="translate(1080.253 -673.957)" fill="#32ceb0"/>
      <path id="Path_467" data-name="Path 467" d="M-1041.946,775.111a2.333,2.333,0,0,0,.572.009,1.078,1.078,0,0,0,.7-.358.741.741,0,0,0,.145-.676c-.117-.32-.537-.245-.729-.487a.639.639,0,0,1-.085-.487,1.379,1.379,0,0,0,.022-.506.342.342,0,0,0-.365-.28c-.126.028-.2.151-.286.236a.276.276,0,0,1-.192.1c-.314-.006-.386-.475-.716-.415s-.537.421-.632.723a1.619,1.619,0,0,0,.276,1.54A1.975,1.975,0,0,0-1041.946,775.111Z" transform="translate(1064.09 -730.568)" fill="#32ceb0"/>
    </g>
    <g id="Group_174" data-name="Group 174" transform="translate(278.53 145.954)">
      <path id="Path_468" data-name="Path 468" d="M-203,794.645l.236-3.416-1.889-2.187.113-.094,1.116.952.163-.952.176.044-.031,1.191.456.44.173-3.491-.927-1.144.1-.088.958.767.063-1.826h.248l.167,2.244.242,2.231,1.248-1.354.119.079-.456.717.792-.013v.132l-.867.132-.852,1.336.195,4.3Z" transform="translate(210.263 -771.14)" fill="#994f61"/>
      <path id="Path_469" data-name="Path 469" d="M-206.126,752.393a2.723,2.723,0,0,0-.195-1.251,1.317,1.317,0,0,0-.949-.776.715.715,0,0,0-.666.229,5.368,5.368,0,0,0,1.1-1.974,2.433,2.433,0,0,0-.4-2.156,2.192,2.192,0,0,0-1.98-.691,3.084,3.084,0,0,0-1.851,1.084,15.008,15.008,0,0,0,.1-3.416,2.479,2.479,0,0,0-2.244-2.2,2.822,2.822,0,0,0-1.917,1.185,7.949,7.949,0,0,0-1.782,4.4,5.539,5.539,0,0,0-1-1.135,1.855,1.855,0,0,0-1.4-.434,2.191,2.191,0,0,0-1.54,1.772,4.836,4.836,0,0,0,.088,2.624,9.685,9.685,0,0,0,2.508,3.557,1.036,1.036,0,0,0-1.279.531,1.722,1.722,0,0,0,.412,1.835,4.2,4.2,0,0,0,1.323.965,10.659,10.659,0,0,0,8.875-.019,4.729,4.729,0,0,0,2.3-2.171s0-.006.006-.013A4.378,4.378,0,0,0-206.126,752.393Z" transform="translate(221.465 -741.245)" fill="#20b69e"/>
      <path id="Path_470" data-name="Path 470" d="M-206.711,794.216c-.129-.148-.509-.207-.5.063-.113-.839-1.21-.522-.7.28-.842-.877-1.59.245-.5.745-.927.019-.409,1.342.405.767a.313.313,0,0,0,.236.575C-206.824,796.492-205.859,794.987-206.711,794.216Z" transform="translate(213.213 -777.273)" fill="#20b69e"/>
      <path id="Path_471" data-name="Path 471" d="M-208.04,771.8a1.557,1.557,0,0,1-.1-.7.723.723,0,0,1,.38-.563.392.392,0,0,1,.39.016,2.946,2.946,0,0,1-.9-.874,1.359,1.359,0,0,1-.135-1.21,1.223,1.223,0,0,1,.943-.685,1.7,1.7,0,0,1,1.157.28,8.191,8.191,0,0,1-.6-1.8,1.377,1.377,0,0,1,.842-1.527,1.562,1.562,0,0,1,1.21.324,4.418,4.418,0,0,1,1.65,2.055,3.036,3.036,0,0,1,.349-.76,1.029,1.029,0,0,1,.679-.456,1.223,1.223,0,0,1,1.1.7A2.677,2.677,0,0,1-200.7,768a5.375,5.375,0,0,1-.767,2.294.578.578,0,0,1,.767.079.953.953,0,0,1,.075,1.04,2.287,2.287,0,0,1-.55.723,5.911,5.911,0,0,1-4.723,1.408,2.613,2.613,0,0,1-1.568-.789l-.006-.006A2.46,2.46,0,0,1-208.04,771.8Z" transform="translate(212.895 -757.331)" fill="#32ceb0"/>
      <path id="Path_472" data-name="Path 472" d="M-218.152,777.3a.976.976,0,0,1,.063.641.986.986,0,0,1-.509-.4.976.976,0,0,1-.063-.641A.974.974,0,0,1-218.152,777.3Z" transform="translate(219.89 -765.695)" fill="#20b69e"/>
      <path id="Path_473" data-name="Path 473" d="M-221.718,780.087a1.346,1.346,0,0,1,.833.3,1.328,1.328,0,0,1-.792.4,1.347,1.347,0,0,1-.833-.3A1.339,1.339,0,0,1-221.718,780.087Z" transform="translate(222.51 -767.879)" fill="#20b69e"/>
      <path id="Path_474" data-name="Path 474" d="M-189.181,797.909a.516.516,0,0,1-.239-.248.525.525,0,0,1,.343,0,.516.516,0,0,1,.239.248A.5.5,0,0,1-189.181,797.909Z" transform="translate(199.819 -779.91)" fill="#20b69e"/>
      <path id="Path_475" data-name="Path 475" d="M-189.021,795.787a.716.716,0,0,1-.449.151.717.717,0,0,1,.2-.427.715.715,0,0,1,.449-.151A.717.717,0,0,1-189.021,795.787Z" transform="translate(199.853 -778.354)" fill="#20b69e"/>
      <path id="Path_476" data-name="Path 476" d="M-190.116,765.52a.991.991,0,0,1-.594.248.964.964,0,0,1,.233-.6.991.991,0,0,1,.594-.248A.97.97,0,0,1-190.116,765.52Z" transform="translate(200.704 -757.48)" fill="#32ceb0"/>
      <path id="Path_477" data-name="Path 477" d="M-207.344,772.67a.685.685,0,0,1,.321.311.689.689,0,0,1-.446.019.67.67,0,0,1-.321-.311A.663.663,0,0,1-207.344,772.67Z" transform="translate(212.416 -762.772)" fill="#32ceb0"/>
      <path id="Path_478" data-name="Path 478" d="M-193.09,763.1a1.34,1.34,0,0,1-.047.883,1.336,1.336,0,0,1-.61-.644,1.34,1.34,0,0,1,.047-.883A1.338,1.338,0,0,1-193.09,763.1Z" transform="translate(202.826 -755.793)" fill="#32ceb0"/>
      <path id="Path_479" data-name="Path 479" d="M-204.9,798.651a.893.893,0,0,1-.242,0,.465.465,0,0,1-.3-.151.314.314,0,0,1-.06-.286c.05-.135.226-.1.308-.207a.277.277,0,0,0,.035-.208.615.615,0,0,1-.009-.214.146.146,0,0,1,.154-.119c.053.012.085.063.119.1a.109.109,0,0,0,.082.041c.132,0,.163-.2.3-.176s.226.179.267.3a.689.689,0,0,1-.116.654A.79.79,0,0,1-204.9,798.651Z" transform="translate(210.855 -779.775)" fill="#32ceb0"/>
    </g>
    <g id="Group_187" data-name="Group 187" transform="translate(38.853 142.976)">
      <g id="Group_180" data-name="Group 180" transform="translate(137.197 0)">
        <g id="Group_175" data-name="Group 175" transform="translate(9.469 3.771)">
          <path id="Path_480" data-name="Path 480" d="M-503.6,751.4c2.863-9.092,14.591-10.525,18.46-1.744,4.84-1.329,8.733.4,11.914,3.928,1.562-1.974,5.264-2.743,8.017-1.135,2.219-7.043,11.3-8.152,14.3-1.351,4.544-1.248,8.017.977,10.723,4.959H-518.48C-513.914,752.187-509.093,749.826-503.6,751.4Z" transform="translate(518.48 -743.771)" fill="#20b69e"/>
        </g>
        <g id="Group_176" data-name="Group 176" transform="translate(35.354 7.818)">
          <path id="Path_481" data-name="Path 481" d="M-436.11,764.822s3.444-3.1,10.434-2.325a7.213,7.213,0,0,1,7.272-1.936c2.574-5.842,10.377-4.887,12.281,1.16,3.652-1.046,6.86.525,9.9,3.1H-436.11Z" transform="translate(436.11 -756.647)" fill="#32ceb0"/>
        </g>
        <g id="Group_177" data-name="Group 177" transform="translate(0 10.513)">
          <path id="Path_482" data-name="Path 482" d="M-548.61,770.7c1.939-2.85,5.016-2.866,8.268-1.974,2.146-4.868,10.009-4.613,11.6.427,5.886-2.021,8.466,1.546,8.466,1.546Z" transform="translate(548.61 -765.222)" fill="#32ceb0"/>
        </g>
        <g id="Group_178" data-name="Group 178" transform="translate(32.864)">
          <path id="Path_483" data-name="Path 483" d="M-443.834,735.271a2.382,2.382,0,0,0,1.223,1.009,2.4,2.4,0,0,0-.113-1.581,2.382,2.382,0,0,0-1.223-1.009A2.4,2.4,0,0,0-443.834,735.271Z" transform="translate(444.033 -733.087)" fill="#20b69e"/>
          <path id="Path_484" data-name="Path 484" d="M-436.519,732.848a3.291,3.291,0,0,0-.528,2.115,3.287,3.287,0,0,0,1.895-1.078,3.29,3.29,0,0,0,.528-2.115A3.308,3.308,0,0,0-436.519,732.848Z" transform="translate(439.251 -731.77)" fill="#20b69e"/>
        </g>
        <g id="Group_179" data-name="Group 179" transform="translate(68.567 9.18)">
          <path id="Path_485" data-name="Path 485" d="M-330.367,762.551a2.389,2.389,0,0,0,.984,1.241,2.4,2.4,0,0,0,.22-1.571,2.39,2.39,0,0,0-.984-1.241A2.4,2.4,0,0,0-330.367,762.551Z" transform="translate(330.425 -760.98)" fill="#32ceb0"/>
          <path id="Path_486" data-name="Path 486" d="M-323.711,762.793a3.293,3.293,0,0,0-.958,1.958,3.282,3.282,0,0,0,2.077-.657,3.293,3.293,0,0,0,.958-1.958A3.286,3.286,0,0,0-323.711,762.793Z" transform="translate(326.478 -761.772)" fill="#32ceb0"/>
        </g>
      </g>
      <g id="Group_186" data-name="Group 186" transform="translate(0 4.472)">
        <g id="Group_181" data-name="Group 181" transform="translate(0 2.721)">
          <path id="Path_487" data-name="Path 487" d="M-939.427,760.161c-2.065-6.562-10.528-7.593-13.318-1.26-3.492-.958-6.3.286-8.6,2.835a4.733,4.733,0,0,0-5.785-.817c-1.6-5.082-8.155-5.883-10.317-.974-3.278-.9-5.783.7-7.737,3.579h56.488C-931.988,760.73-935.467,759.027-939.427,760.161Z" transform="translate(985.18 -754.658)" fill="#20b69e"/>
        </g>
        <g id="Group_182" data-name="Group 182" transform="translate(9.032 5.643)">
          <path id="Path_488" data-name="Path 488" d="M-927.663,769.853s-2.486-2.235-7.53-1.678a5.2,5.2,0,0,0-5.245-1.4c-1.857-4.214-7.489-3.526-8.862.839-2.637-.754-4.95.38-7.14,2.238h28.777Z" transform="translate(956.44 -763.957)" fill="#32ceb0"/>
        </g>
        <g id="Group_183" data-name="Group 183" transform="translate(42.878 7.585)">
          <path id="Path_489" data-name="Path 489" d="M-828.3,774.09c-1.4-2.058-3.617-2.068-5.965-1.424-1.549-3.513-7.222-3.331-8.369.308-4.249-1.458-6.109,1.116-6.109,1.116Z" transform="translate(848.74 -770.135)" fill="#32ceb0"/>
        </g>
        <g id="Group_184" data-name="Group 184" transform="translate(36.256)">
          <path id="Path_490" data-name="Path 490" d="M-861.674,748.521a1.741,1.741,0,0,1-.883.729,1.722,1.722,0,0,1,.082-1.141,1.74,1.74,0,0,1,.883-.729A1.722,1.722,0,0,1-861.674,748.521Z" transform="translate(864.879 -746.946)" fill="#20b69e"/>
          <path id="Path_491" data-name="Path 491" d="M-868.433,746.776a2.367,2.367,0,0,1,.38,1.527,2.382,2.382,0,0,1-1.367-.776A2.368,2.368,0,0,1-869.8,746,2.383,2.383,0,0,1-868.433,746.776Z" transform="translate(869.81 -746)" fill="#20b69e"/>
        </g>
        <g id="Group_185" data-name="Group 185" transform="translate(10.345 6.625)">
          <path id="Path_492" data-name="Path 492" d="M-943.256,768.211a1.722,1.722,0,0,1-.71.9,1.718,1.718,0,0,1-.157-1.131,1.723,1.723,0,0,1,.71-.9A1.719,1.719,0,0,1-943.256,768.211Z" transform="translate(946.71 -767.08)" fill="#32ceb0"/>
          <path id="Path_493" data-name="Path 493" d="M-950.761,768.366a2.365,2.365,0,0,1,.691,1.411,2.37,2.37,0,0,1-1.5-.475,2.37,2.37,0,0,1-.691-1.414A2.4,2.4,0,0,1-950.761,768.366Z" transform="translate(952.26 -767.634)" fill="#32ceb0"/>
        </g>
      </g>
    </g>
    <g id="Group_189" data-name="Group 189" transform="translate(232.457 124.963)">
      <rect id="Rectangle_1239" data-name="Rectangle 1239" width="33.176" height="19.531" transform="translate(12.416 5.474)" fill="#297ce0"/>
      <rect id="Rectangle_1240" data-name="Rectangle 1240" width="51.558" height="3.51" transform="translate(0 0)" fill="#0f3554"/>
      <rect id="Rectangle_1241" data-name="Rectangle 1241" width="4.51" height="42.714" transform="translate(4.4 3.51)" fill="#0f3554"/>
      <path id="Path_494" data-name="Path 494" d="M-350.61,688.181l-4.51,2.706V685.62h4.51Z" transform="translate(359.52 -682.11)" fill="#0c2f47"/>
      <rect id="Rectangle_1242" data-name="Rectangle 1242" width="0.974" height="3.975" transform="translate(13.937 2.731)" fill="#0f3554"/>
      <rect id="Rectangle_1243" data-name="Rectangle 1243" width="0.974" height="3.975" transform="translate(42.853 2.731)" fill="#0f3554"/>
      <g id="Group_188" data-name="Group 188" transform="translate(14.933 11.269)">
        <path id="Path_495" data-name="Path 495" d="M-318.472,710.31a3.9,3.9,0,0,1,1.3.2,3.2,3.2,0,0,1,.937.5,2.126,2.126,0,0,1,.569.657,1.647,1.647,0,0,1,.214.679.25.25,0,0,1-.082.214.309.309,0,0,1-.214.082h-.773a.468.468,0,0,1-.283-.072.725.725,0,0,1-.17-.192,1.455,1.455,0,0,0-.5-.481,1.961,1.961,0,0,0-1-.2,2.375,2.375,0,0,0-.547.06,1.642,1.642,0,0,0-.453.176.9.9,0,0,0-.3.283.669.669,0,0,0-.11.374.752.752,0,0,0,.1.415.837.837,0,0,0,.352.276,3.5,3.5,0,0,0,.657.214c.273.066.61.145,1.015.233a7.036,7.036,0,0,1,1.141.336,2.658,2.658,0,0,1,.782.462,1.744,1.744,0,0,1,.453.622,2.029,2.029,0,0,1,.148.8,1.962,1.962,0,0,1-.22.921,2.172,2.172,0,0,1-.629.729,3.267,3.267,0,0,1-1,.481,4.739,4.739,0,0,1-1.336.176,4.692,4.692,0,0,1-1.182-.148,3.507,3.507,0,0,1-1-.43,2.41,2.41,0,0,1-.7-.679,1.786,1.786,0,0,1-.3-.883.241.241,0,0,1,.082-.214.309.309,0,0,1,.214-.082h.773a.514.514,0,0,1,.286.066.5.5,0,0,1,.167.2,1.864,1.864,0,0,0,.189.286,1.052,1.052,0,0,0,.3.255,1.861,1.861,0,0,0,.468.182,2.922,2.922,0,0,0,.7.072,3.892,3.892,0,0,0,.641-.05,1.881,1.881,0,0,0,.54-.166,1.17,1.17,0,0,0,.374-.286.642.642,0,0,0,.145-.424.535.535,0,0,0-.154-.4,1.207,1.207,0,0,0-.468-.264,6.736,6.736,0,0,0-.776-.211c-.308-.066-.666-.151-1.068-.255a5.58,5.58,0,0,1-.965-.314,2.328,2.328,0,0,1-.685-.446,1.674,1.674,0,0,1-.4-.622,2.482,2.482,0,0,1-.132-.855,1.928,1.928,0,0,1,.22-.915,2.175,2.175,0,0,1,.607-.716,2.986,2.986,0,0,1,.921-.468A3.741,3.741,0,0,1-318.472,710.31Z" transform="translate(321.603 -710.31)" fill="#fff"/>
        <path id="Path_496" data-name="Path 496" d="M-298.208,713.3a3.925,3.925,0,0,1,.236-1.163,2.671,2.671,0,0,1,.6-.949,2.915,2.915,0,0,1,.993-.641,3.822,3.822,0,0,1,1.411-.236,3.871,3.871,0,0,1,1.4.233,2.738,2.738,0,0,1,.993.641,2.788,2.788,0,0,1,.606.949,3.811,3.811,0,0,1,.242,1.169c.006.138.013.3.016.462s.006.343.006.525,0,.355-.006.525-.009.324-.016.462a3.923,3.923,0,0,1-.236,1.163,2.64,2.64,0,0,1-.6.949,2.782,2.782,0,0,1-1,.635,3.922,3.922,0,0,1-1.408.233,3.892,3.892,0,0,1-1.411-.233,2.766,2.766,0,0,1-.993-.635,2.641,2.641,0,0,1-.6-.949,3.925,3.925,0,0,1-.236-1.163c-.006-.138-.013-.3-.016-.462s-.006-.343-.006-.525,0-.355.006-.525S-298.217,713.437-298.208,713.3Zm5,.053a1.727,1.727,0,0,0-.512-1.229,1.754,1.754,0,0,0-1.241-.437,1.745,1.745,0,0,0-1.241.437,1.733,1.733,0,0,0-.512,1.229c-.016.28-.022.591-.022.933s.006.654.022.933a1.726,1.726,0,0,0,.512,1.226,1.765,1.765,0,0,0,1.241.431,1.77,1.77,0,0,0,1.241-.431,1.714,1.714,0,0,0,.512-1.226c.016-.28.022-.591.022-.933S-293.2,713.632-293.211,713.352Z" transform="translate(305.575 -710.31)" fill="#fff"/>
        <path id="Path_497" data-name="Path 497" d="M-267.761,717a.285.285,0,0,1,.211.088.285.285,0,0,1,.088.21v.782a.286.286,0,0,1-.088.211.286.286,0,0,1-.211.088h-4.83a.286.286,0,0,1-.211-.088.285.285,0,0,1-.088-.211v-7.124a.285.285,0,0,1,.088-.211.285.285,0,0,1,.211-.088h.892a.285.285,0,0,1,.211.088.285.285,0,0,1,.088.211V717Z" transform="translate(288.199 -710.55)" fill="#fff"/>
        <path id="Path_498" data-name="Path 498" d="M-249.244,710.653a4.255,4.255,0,0,1,1.417.214,2.7,2.7,0,0,1,1,.613,2.7,2.7,0,0,1,.619.958,4.19,4.19,0,0,1,.258,1.257,15.752,15.752,0,0,1,0,1.634,4.291,4.291,0,0,1-.258,1.257,2.727,2.727,0,0,1-.613.958,2.683,2.683,0,0,1-.987.613,4.015,4.015,0,0,1-1.386.214h-2.781a.285.285,0,0,1-.211-.088.285.285,0,0,1-.088-.211v-7.124a.285.285,0,0,1,.088-.211.285.285,0,0,1,.211-.088h2.728Zm1.81,3.042a2.219,2.219,0,0,0-.138-.657,1.517,1.517,0,0,0-.343-.528,1.548,1.548,0,0,0-.569-.352,2.351,2.351,0,0,0-.817-.126h-1.477v4.962h1.534a2.174,2.174,0,0,0,.783-.126,1.568,1.568,0,0,0,.553-.349,1.489,1.489,0,0,0,.336-.528,2.262,2.262,0,0,0,.138-.663A15.735,15.735,0,0,0-247.434,713.7Z" transform="translate(274.059 -710.543)" fill="#fff"/>
      </g>
    </g>
    <g id="Group_195" data-name="Group 195" transform="translate(102.02 125.459)">
      <g id="Group_191" data-name="Group 191" transform="translate(0 0)">
        <path id="Path_499" data-name="Path 499" d="M-771.543,677.086c-.019-.1-.264-1.226-2-1.034,0,0,.861-.022,1.062.33a1.4,1.4,0,0,0-1.094-.16c-.449.217-.607,1.081-.569,1.351s.424,1.106.732,1.138a.9.9,0,0,0,.361-.053,3.986,3.986,0,0,0-.173.446c-.484,1.511.427,2.791.987,2.552.358-.151.556.471.556.471l3.2-3.466C-768.466,678.663-770.2,676.1-771.543,677.086Z" transform="translate(777.3 -676.03)" fill="#2c3a64"/>
        <path id="Path_500" data-name="Path 500" d="M-766.555,759.364l-.779.289s-3.385-4.692-3.8-8.821a6.269,6.269,0,0,1,.11-2.112s-.035-.189-.091-.522c-.025-.157-.06-.342-.1-.559-.11-.632-.261-1.493-.434-2.473-.4-2.259-.915-5.147-1.314-7.272l.211-.066,2.272-.732.468-1.49,1.691-.446a15.558,15.558,0,0,1,.717,4.23c.063.459.119.962.16,1.512a29.909,29.909,0,0,1-.16,6.115c-.079.606-.176,1.232-.3,1.876a8.422,8.422,0,0,0-.066,1.854A62.336,62.336,0,0,0-766.555,759.364Z" transform="translate(776.486 -716.578)" fill="#2b478b"/>
        <path id="Path_501" data-name="Path 501" d="M-767.435,740.9l-3.671,7.3c-.025-.157-.06-.343-.1-.559-.11-.632-.261-1.493-.434-2.473-.4-2.26-.914-5.148-1.314-7.272l.211-.066,2.272-.732.468-1.49,1.691-.446a15.55,15.55,0,0,1,.716,4.23C-767.535,739.846-767.479,740.352-767.435,740.9Z" transform="translate(776.479 -716.578)" fill="#233862"/>
        <path id="Path_502" data-name="Path 502" d="M-776.462,734.238a.084.084,0,0,1,0,.019c-.012.047-.047.195-.1.409-.245,1.006-.839,3.444-.877,3.441a69.873,69.873,0,0,1-1.43,7.526,11.445,11.445,0,0,1-1.065,2.838,5.173,5.173,0,0,0-.424,1.021c-.883,2.671-1.97,8.718-1.97,8.718l-.5.2s-1.911-5.434-.254-9.846a8.456,8.456,0,0,1,.622-1.31.258.258,0,0,0,.041-.157v0c-.022-.182-.076-.644-.135-1.292-.17-1.785-.33-7.812-.418-9.233a7.591,7.591,0,0,1,.041-1.439,5.443,5.443,0,0,1,.578-1.882,3.124,3.124,0,0,1,.578-.8s3.806,1.436,5.229,1.056Z" transform="translate(783.891 -714.72)" fill="#2b478b"/>
        <path id="Path_503" data-name="Path 503" d="M-774.673,736.341a1.062,1.062,0,0,1-.1.063c-1.314.767-5.914.5-6.37.468a5.442,5.442,0,0,1,.578-1.882c1.97.176,5.232.528,5.889,1.006C-774.522,736.106-774.506,736.219-774.673,736.341Z" transform="translate(782.095 -716.461)" fill="#223e77"/>
        <path id="Path_504" data-name="Path 504" d="M-753.039,714.042l-.233.682s-.047-.009-.126-.028c-.251-.063-.867-.211-1.556-.412a8.827,8.827,0,0,1-2.7-1.1,10.929,10.929,0,0,1-2.225-3.815.72.72,0,0,1-.038-.116,5.156,5.156,0,0,1-.365-2.234,2.976,2.976,0,0,1,.27-.933,2.472,2.472,0,0,1,.585-.783.518.518,0,0,1,.1-.085c.339-.28.575-.471.575-.471.151-.031.349.163.474.361a5.194,5.194,0,0,1,.292.669.027.027,0,0,1,.009.019c.019.057.038.119.063.192a.127.127,0,0,1,.016.044c.041.145.079.3.116.453.434,1.684.77,4.176,1.276,4.99a12.331,12.331,0,0,0,2.272,1.788C-753.576,713.7-753.039,714.042-753.039,714.042Z" transform="translate(767.806 -695.717)" fill="#ffb27d"/>
        <path id="Path_505" data-name="Path 505" d="M-767.815,699.251a4.405,4.405,0,0,1-1.568.616c-2.4.484-3.262-1.559-3.567-2.954a2.064,2.064,0,0,1,.817-.226c.173-.016.355-.025.506-.028a3.762,3.762,0,0,0,.823-2.329l.11.035,1.867.569s-.1.6-.16,1.16a2.247,2.247,0,0,0,.019.971c.145.035.233.06.233.06v0A11.55,11.55,0,0,1-767.815,699.251Z" transform="translate(776.479 -688.579)" fill="#ffb27d"/>
        <path id="Path_506" data-name="Path 506" d="M-772.439,705.9c-.013.05-.025.1-.041.154a61.4,61.4,0,0,0-.764,7.049c.3.961-7.426.88-7.574-.013-.405-.911.585-2.615,1.157-3.479a2.4,2.4,0,0,0,.185-.343,2.183,2.183,0,0,0,.179-.949,31.479,31.479,0,0,0-.368-3.2h0c.12-.12.236-.229.343-.333a3.411,3.411,0,0,0,.409-.452.726.726,0,0,0,.16-.471,2.131,2.131,0,0,0-.063-.368c-.016-.057-.031-.116-.047-.173a5,5,0,0,0-.522-1.122,4.571,4.571,0,0,1,1.791-.368s.01.063.022.17a6.354,6.354,0,0,0,.383,1.691c.207.229,3.466.9,3.58.531a6.318,6.318,0,0,0-.588-1.958v0a5.008,5.008,0,0,1,1.518.544C-773.243,703.3-772.14,704.542-772.439,705.9Z" transform="translate(781.939 -693.722)" fill="#2b478b"/>
        <path id="Path_507" data-name="Path 507" d="M-763.9,695s-.1.594-.16,1.16a2.274,2.274,0,0,1-1.706-1.729Z" transform="translate(771.555 -688.648)" fill="#ed985f"/>
        <path id="Path_508" data-name="Path 508" d="M-764.052,688.5s-2.527-.21-2.373-1.782-.066-2.659,1.556-2.589,1.873.7,1.948,1.235S-763.392,688.52-764.052,688.5Z" transform="translate(772.009 -681.585)" fill="#ffb27d"/>
        <path id="Path_509" data-name="Path 509" d="M-764.58,683.7c-.343-.512-.647-.437-.827-.311a2.959,2.959,0,0,0-2.863-.047,14.262,14.262,0,0,1-.6,1.857,2.094,2.094,0,0,0,1.518.163,1.8,1.8,0,0,0,.918-.506,5.851,5.851,0,0,1-1.138,1.134,4.224,4.224,0,0,0,2.08-2.351,1.968,1.968,0,0,1,.478.789c.085.412.06,1.241.3,1.238C-764.712,685.666-764.068,684.462-764.58,683.7Z" transform="translate(773.681 -680.791)" fill="#2c3a64"/>
        <path id="Path_510" data-name="Path 510" d="M-772.82,717c-1.493.2-2.979-1.163-3.932-2.291a2.184,2.184,0,0,0,.179-.949,31.548,31.548,0,0,0-.368-3.2h0c.119-.119.236-.229.343-.333a3.423,3.423,0,0,0,.409-.452C-774.668,711.669-770.793,716.734-772.82,717Z" transform="translate(779.215 -699.174)" fill="#233862"/>
        <g id="Group_190" data-name="Group 190" transform="translate(1.858 8.426)">
          <path id="Path_511" data-name="Path 511" d="M-768.508,715.335l.264.9s-.666-.151-1.084-.192c-.126-.013-.2-.025-.2-.025-.333-.035-.735-.091-1.172-.148h-.006c-.751-.113-1.59-.251-2.3-.427a6.266,6.266,0,0,1-1.244-.43c-.031-.016-.057-.031-.088-.05a9.392,9.392,0,0,1-2.445-3.356c-.107-.21-.207-.421-.308-.625a16.469,16.469,0,0,1-.864-2.175,6.4,6.4,0,0,1-.251-1.05,2.667,2.667,0,0,1-.031-.3q0-.08-.009-.16a2.722,2.722,0,0,1,1.9-.691c.019.035.038.066.057.1.4.729.839,1.678,1.251,2.624.229.519.449,1.037.669,1.515.126.292.251.563.368.814a8.3,8.3,0,0,0,.594,1.1,2.867,2.867,0,0,0,.78.591,26.147,26.147,0,0,0,2.451,1.241c.346.16.673.3.943.421C-768.8,715.213-768.508,715.335-768.508,715.335Z" transform="translate(778.255 -705.418)" fill="#ffb27d"/>
          <path id="Path_512" data-name="Path 512" d="M-776.3,704.137a2.215,2.215,0,0,0-1.952.745c-.132-1.7.691-2.008.691-2.008C-777.23,702.7-776.784,703.257-776.3,704.137Z" transform="translate(778.266 -702.843)" fill="#2b478b"/>
        </g>
        <path id="Path_513" data-name="Path 513" d="M-780.235,811.513h-3.922a2.164,2.164,0,0,1,.11-1.053c.195-.437.5-.632.431-1.16a1.413,1.413,0,0,0,1.222.468,4.276,4.276,0,0,0,.682.883C-781.458,810.834-780.314,810.771-780.235,811.513Z" transform="translate(784.179 -767.419)" fill="#233862"/>
        <path id="Path_514" data-name="Path 514" d="M-753.48,811.9H-757.4a1.631,1.631,0,0,1,.11-1.053.751.751,0,0,0-.028-.9,1.566,1.566,0,0,0,.66.126,1.431,1.431,0,0,0,.585-.2,14.527,14.527,0,0,0,1.119,1.175C-754.7,811.224-753.558,811.162-753.48,811.9Z" transform="translate(765.846 -767.809)" fill="#233862"/>
        <path id="Path_515" data-name="Path 515" d="M-760.78,694.952s.035.207.547.207c0,0,.431,0,.431-.226A1.4,1.4,0,0,0-760.78,694.952Z" transform="translate(768.133 -688.94)" fill="#fff"/>
      </g>
      <g id="Group_194" data-name="Group 194" transform="translate(6.992 11.913)">
        <path id="Path_516" data-name="Path 516" d="M-728.467,716.161c-.167-.063-.371.638-.5.663s-.075-.192-.192-.226-.167.569-.078.8a1.471,1.471,0,0,1,.075.509s-.761,2.932-.924,3.259-2.838,2.715-2.838,2.715l.588,1.9s3.152-2.913,3.419-3.6a28.835,28.835,0,0,0,.39-4.2,3.623,3.623,0,0,0,.286-1.018C-728.178,716.46-728.3,716.224-728.467,716.161Z" transform="translate(742.037 -715.46)" fill="#ed985f"/>
        <path id="Path_517" data-name="Path 517" d="M-756.541,722.15A29.794,29.794,0,0,0-759.3,719s-1.235-3.045-1.336-3.246a.064.064,0,0,0-.019-.025,1.6,1.6,0,0,1-.009-.559c.053-.273-.119-.933-.239-.874s-.022.289-.167.286-.509-.742-.679-.638-.261.386-.1.943a4,4,0,0,0,.487,1.031l-.006,0a19.543,19.543,0,0,0,.93,3.837c.478.877,1.961,3.821,3.007,3.931S-756.541,722.15-756.541,722.15Z" transform="translate(761.931 -713.938)" fill="#ed985f"/>
        <path id="Path_518" data-name="Path 518" d="M-730.322,811.648a1.07,1.07,0,0,0,.672.509,1.151,1.151,0,0,1,.7.43.273.273,0,0,1-.22.434h-2.357a.337.337,0,0,1-.336-.374c.019-.176.035-.377.044-.534a1.008,1.008,0,0,1,.358-.613Z" transform="translate(741.315 -780.84)" fill="#d3671e"/>
        <path id="Path_519" data-name="Path 519" d="M-736.659,781.385a2.248,2.248,0,0,1-1.521.132A29.313,29.313,0,0,1-739.9,775.4c0-.078-.006-.154,0-.223.031-1.842-1.666-6.634-1.207-7.614s4.161.44,4.161.44l.072,3.341Z" transform="translate(747.708 -750.474)" fill="#35488b"/>
        <path id="Path_520" data-name="Path 520" d="M-736.889,771.345l-3.023,4.057c0-.078-.006-.154,0-.223.031-1.842-1.666-6.634-1.207-7.614s4.161.44,4.161.44Z" transform="translate(747.715 -750.474)" fill="#2c3a64"/>
        <path id="Path_521" data-name="Path 521" d="M-749.682,811.648a1.07,1.07,0,0,0,.672.509,1.151,1.151,0,0,1,.7.43.273.273,0,0,1-.22.434h-2.357a.337.337,0,0,1-.336-.374c.019-.176.035-.377.044-.534a1.008,1.008,0,0,1,.358-.613Z" transform="translate(754.591 -780.84)" fill="#d3671e"/>
        <path id="Path_522" data-name="Path 522" d="M-746.205,767.449s-3.271,12.215-3.372,13.409a1.86,1.86,0,0,1-1.675-.251s-.6-5.474,0-6.97-.12-6.018,1.411-7.039S-746.205,767.449-746.205,767.449Z" transform="translate(754.791 -749.841)" fill="#35488b"/>
        <path id="Path_523" data-name="Path 523" d="M-738.62,733.087l-2.008,1.028-.4-1.4a4.334,4.334,0,0,0,.371-1.273,5.36,5.36,0,0,0,.041-1.147l1.637.839a3.56,3.56,0,0,0-.066.374,2.7,2.7,0,0,0,.029.877A1.222,1.222,0,0,0-738.62,733.087Z" transform="translate(747.598 -725.158)" fill="#ed985f"/>
        <path id="Path_524" data-name="Path 524" d="M-745.187,738.189c.013-.167,1.018-.845,1.018-.845a2.835,2.835,0,0,0-.6-2.184l-1.213.861a.574.574,0,0,0-.333.1,3.958,3.958,0,0,0-.8-.006c.009.289-.069.559-.575.625a2.009,2.009,0,0,1-1.584-.685,2.581,2.581,0,0,0-.921.132,1.408,1.408,0,0,0-.512-.135l-.993-.893a2.231,2.231,0,0,0-1.345,2.087s1.3.993,1.4,1.779h0l.035.3.126,1.053.223,1.848-.663,3.68a.506.506,0,0,0-.009.1.546.546,0,0,0,.415.528l.16.025a16.342,16.342,0,0,0,5.789-.17,1.086,1.086,0,0,0,.792-1.138l-.474-5.937h0C-745.243,739.308-745.2,738.359-745.187,738.189Z" transform="translate(755.834 -728.491)" fill="#20b69e"/>
        <path id="Path_525" data-name="Path 525" d="M-748.01,755.021c-.044,1.282-.17,2.373-.905,2.778l-.16-.025a.54.54,0,0,1-.415-.528.53.53,0,0,1,.009-.1l.663-3.68-.223-1.848c.009-.031.016-.05.016-.05A7.561,7.561,0,0,1-748.01,755.021Z" transform="translate(753.4 -739.744)" fill="#0b997d"/>
        <path id="Path_526" data-name="Path 526" d="M-738.216,734.893a2.529,2.529,0,0,1-1.644-.943l1.615.066A2.7,2.7,0,0,0-738.216,734.893Z" transform="translate(746.796 -727.661)" fill="#d68c5b"/>
        <g id="Group_193" data-name="Group 193" transform="translate(5.053 1.543)">
          <path id="Path_527" data-name="Path 527" d="M-739.241,726.9s-1.857.49-2.5-.987c-.691-1.593.066-2.756.7-2.835,1.257-.157,1.989.324,2.209.83S-738.216,726.634-739.241,726.9Z" transform="translate(743.22 -721.725)" fill="#ed985f"/>
          <path id="Path_528" data-name="Path 528" d="M-735.54,732.136s.079.192.569.085c0,0,.412-.091.364-.308A1.366,1.366,0,0,0-735.54,732.136Z" transform="translate(738.781 -727.799)" fill="#fff"/>
          <g id="Group_192" data-name="Group 192">
            <path id="Path_529" data-name="Path 529" d="M-744.042,723.547a3.471,3.471,0,0,1-.192-.98s-.484-.619-.2-.77.434.214.5.141.167-1.285.509-1.248,1.612.43,2.168-.047-.792-2.354-3.08-1.631S-746.157,722.277-744.042,723.547Z" transform="translate(745.853 -718.848)" fill="#2c3a64"/>
            <path id="Path_530" data-name="Path 530" d="M-744.717,721.381a.813.813,0,0,1,.006-.531.851.851,0,0,0,.126.44C-744.465,721.425-744.717,721.381-744.717,721.381Z" transform="translate(745.104 -720.221)" fill="#2c3a64"/>
            <path id="Path_531" data-name="Path 531" d="M-745.382,721.847a.461.461,0,0,0-.418.185.363.363,0,0,1,.4.009Z" transform="translate(745.817 -720.903)" fill="#2c3a64"/>
          </g>
        </g>
      </g>
      <path id="Path_532" data-name="Path 532" d="M-747.25,734.4a6.148,6.148,0,0,1,1.254.361c.1.123.827.981.493,1.081s-.9-.289-1.081-.377-.4-.167-.4-.167Z" transform="translate(758.855 -716.057)" fill="#ffb27d"/>
    </g>
    <path id="Path_533" data-name="Path 533" d="M-583.344,748.914l.572-.082h0a.81.81,0,0,1,.119-.022l1.04-.148-.069-.49a.417.417,0,0,1,.079-.308.412.412,0,0,1,.273-.16l.27-.038,1.094-.157.2-.028a.415.415,0,0,1,.468.352l.069.49,1.8-.258a1.256,1.256,0,0,1,1.417,1.065l.327,2.291a1.256,1.256,0,0,1-1.065,1.417l-5.217.745a1.316,1.316,0,0,1-.27.009l-.427.06a1.255,1.255,0,0,1-1.414-1.059l-.324-2.266A1.253,1.253,0,0,1-583.344,748.914Zm3.787-1.047a.157.157,0,0,0-.129-.132.12.12,0,0,0-.047,0l-.233.031-.861.123-.468.066a.156.156,0,0,0-.132.176l.069.49,1.867-.267Z" transform="translate(749.215 -599.565)" fill="#233862"/>
    <g id="Group_196" data-name="Group 196" transform="translate(138.659 127.559)">
      <path id="Path_534" data-name="Path 534" d="M-619.852,735.59l-.082-.028c-.138-.05-.418-.412-.418-.412l-.528.569.361.383c.207.484.211.493.836.588.541.082.453.427.83.522s.327-.437.327-.437c-.145-.845-.3-.955-.666-1.028.119-.044.2-.107.176-.185s-.207.006-.578-.041A.608.608,0,0,0-619.852,735.59Z" transform="translate(635.559 -718.671)" fill="#ed985f"/>
      <path id="Path_535" data-name="Path 535" d="M-642.718,719.015a3.9,3.9,0,0,0,.292-.874s-3.554-2.338-3.865-2.6-3.542-5.012-3.542-5.012l-3.787.3s5.05,5.829,5.855,6.474a21.492,21.492,0,0,0,4.642,2.222A1.677,1.677,0,0,0-642.718,719.015Z" transform="translate(658.01 -701.788)" fill="#166abf"/>
      <path id="Path_536" data-name="Path 536" d="M-636.047,811.991h-3.891c-.188-.229-.119-1.071-.091-1.345.006-.057.009-.088.009-.088s1.329-1.062,1.512-.248l.019.075c.229.761,1.26,1.106,1.857,1.2A.661.661,0,0,1-636.047,811.991Z" transform="translate(648.715 -770.001)" fill="#233862"/>
      <path id="Path_537" data-name="Path 537" d="M-652.437,811.991h-3.891c-.189-.229-.12-1.071-.091-1.345.006-.057.009-.088.009-.088s1.329-1.062,1.512-.248l.019.075c.229.761,1.26,1.106,1.857,1.2A.662.662,0,0,1-652.437,811.991Z" transform="translate(659.954 -770.001)" fill="#233862"/>
      <path id="Path_538" data-name="Path 538" d="M-642.822,746.517s0,2.373.006,5.459c.009,4.123-.277,9.161-.314,10.116-.066,1.662-.333,4.318-.333,4.318a2.085,2.085,0,0,1-1.892.365,43.429,43.429,0,0,1-1.446-7.806c-.006-.066-.009-.132-.016-.2-.3-4.085-.764-12.69-.764-12.69Z" transform="translate(653.868 -726.166)" fill="#2b478b"/>
      <path id="Path_539" data-name="Path 539" d="M-642.822,746.524s0,2.282.006,5.459l-3.652,9.745c-.006-.066-.346-2.882-.349-2.948-.3-4.085-.764-12.69-.764-12.69Z" transform="translate(653.868 -726.173)" fill="#233862"/>
      <path id="Path_540" data-name="Path 540" d="M-651.207,744.379s-.49,6.537-1.185,12a68,68,0,0,1-2.445,9.158s-1.9.179-2.106-.157c0,0-.38-5.927.481-9.035.39-1.4-.248-5.207-.386-7.228a18.515,18.515,0,0,1,.39-4.978Z" transform="translate(660.346 -724.836)" fill="#2b478b"/>
      <path id="Path_541" data-name="Path 541" d="M-647.369,697.59c-1.42.449-3.881-.761-3.881-.761a3.7,3.7,0,0,0,1.241-3.029l1.1.886.748.6a8.953,8.953,0,0,1-.085.977c-.022.163-.047.346-.082.544A3.412,3.412,0,0,1-647.369,697.59Z" transform="translate(656.385 -690.316)" fill="#ed985f"/>
      <path id="Path_542" data-name="Path 542" d="M-645.459,697.18a8.987,8.987,0,0,1-.085.977c-.827-.141-1.766-1.48-1.766-1.48a2.572,2.572,0,0,1,1.1-.1Z" transform="translate(653.683 -692.206)" fill="#d68c5b"/>
      <path id="Path_543" data-name="Path 543" d="M-646.167,689.96s-2.348.39-2.568-1.075-.672-2.4.817-2.712,1.867.2,2.058.676S-645.56,689.822-646.167,689.96Z" transform="translate(654.825 -685.021)" fill="#ed985f"/>
      <path id="Path_544" data-name="Path 544" d="M-648.08,716.169a.235.235,0,0,1-.151.057,24.894,24.894,0,0,1-3.535.157,9.875,9.875,0,0,1-3.149-.908c-.141-.063-.462-.236-.456-.393.006-.173.022-.421.044-.732a39.328,39.328,0,0,0,.078-5.122c-.022-.4-.035-.8-.038-1.194-.01-2.929.569-5.506,1.738-6.376.1-.072.71.226,1.273.506a2.313,2.313,0,0,0,1.531.185l.49.434a4.909,4.909,0,0,1,1.537,2.454,27.691,27.691,0,0,1,.462,4.554c.035.826.063,1.659.072,2.448v.028c.006.079.006.164.006.242C-648.146,714.538-648.045,716.14-648.08,716.169Z" transform="translate(659.211 -695.696)" fill="#297ce0"/>
      <path id="Path_545" data-name="Path 545" d="M-649.466,686.436s.242-.041.2-.371-.038-.767.233-.685.283.3.393.17.113-.657.914-.695,1.128.242,1.5.079.393-.729.393-.729a.657.657,0,0,1-.267.267s.622-.852-.1-1.436-1.455-.2-1.873-.176c-.921.056-1.515.11-1.813.713A3.332,3.332,0,0,0-649.466,686.436Z" transform="translate(655.553 -682.713)" fill="#233862"/>
      <path id="Path_546" data-name="Path 546" d="M-655.22,723.87a39.252,39.252,0,0,0,.078-5.123c-.022-.4-.034-.8-.038-1.194.487-1.179.883-2.033.883-2.033h1.226C-653.07,715.514-652.172,721.651-655.22,723.87Z" transform="translate(659.107 -705.21)" fill="#166abf"/>
      <path id="Path_547" data-name="Path 547" d="M-666.3,742.575a.748.748,0,0,1,.006-.085,1.8,1.8,0,0,1,.286-.512l-.688-.358-.273.449c-.412.327-.418.333-.343.962.066.544-.289.55-.283.94s.509.2.509.2c.776-.365.839-.547.814-.914.072.1.157.167.226.119s-.06-.2-.116-.566A.7.7,0,0,0-666.3,742.575Z" transform="translate(667.59 -723.108)" fill="#ed985f"/>
      <path id="Path_548" data-name="Path 548" d="M-666.094,715.3a4.079,4.079,0,0,0,.921.05s1.311-4.048,1.48-4.415,3.891-4.745,3.891-4.745l-1.552-3.881s-4.026,6.725-4.434,7.671a21.474,21.474,0,0,0-.911,5.063A1.727,1.727,0,0,0-666.094,715.3Z" transform="translate(666.98 -696.152)" fill="#297ce0"/>
    </g>
    <g id="Group_198" data-name="Group 198" transform="translate(154.342 127.559)">
      <path id="Path_549" data-name="Path 549" d="M-574.288,743.687l.01-.085a1.873,1.873,0,0,0-.195-.553l.739-.239.195.49a1.245,1.245,0,0,1,.412,1.018c.05.544-.053.465-.207.528a2.531,2.531,0,0,1-.506.148.878.878,0,0,1-.468-.038c-.195-.075-.22-.179-.195-.317a.119.119,0,0,0-.129-.138.067.067,0,0,1-.041-.016c-.053-.05.1-.245.214-.6A.61.61,0,0,1-574.288,743.687Z" transform="translate(588.199 -723.924)" fill="#ffb27d"/>
      <path id="Path_550" data-name="Path 550" d="M-582.2,718.323a3.9,3.9,0,0,1-.914-.1s-.619-4.208-.723-4.6-3.048-5.327-3.048-5.327l2.674-2.112s2.351,5.845,2.6,6.844a21.478,21.478,0,0,1,.054,5.145A1.65,1.65,0,0,1-582.2,718.323Z" transform="translate(596.568 -698.805)" fill="#233862"/>
      <g id="Group_197" data-name="Group 197" transform="translate(5.448 18.924)">
        <path id="Path_551" data-name="Path 551" d="M-568.96,808.8h1.7a1.032,1.032,0,0,0,.465-.779c.082-.547.7-.849.83-1.295s-.547-1.078-.547-1.078l-.113-.148-.12-.151-1.128.267s-.028.27-.044.613c-.013.248-.019.534-.006.783.035.6-.167,1.241-.7,1.358C-569.013,808.452-569,808.684-568.96,808.8Z" transform="translate(578.837 -785.734)" fill="#233862"/>
        <path id="Path_552" data-name="Path 552" d="M-600.35,811.991h3.891c.189-.229.119-1.071.091-1.345-.006-.057-.009-.088-.009-.088s-1.329-1.062-1.512-.248l-.019.075c-.229.761-1.26,1.106-1.857,1.2A.671.671,0,0,0-600.35,811.991Z" transform="translate(600.35 -788.925)" fill="#233862"/>
        <path id="Path_553" data-name="Path 553" d="M-597.99,746.442s.2,2.517.44,5.543c.324,4.111.71,9.161.748,10.116.066,1.663.333,4.318.333,4.318a2.086,2.086,0,0,0,1.892.365,43.41,43.41,0,0,0,1.446-7.806c.006-.066.009-.132.016-.2.3-4.085.764-12.69.764-12.69Z" transform="translate(598.732 -745.097)" fill="#f99746"/>
        <path id="Path_554" data-name="Path 554" d="M-597.99,746.449s.2,2.517.44,5.544l4.422,7c.006-.066.009-.132.016-.2.3-4.085.764-12.69.764-12.69Z" transform="translate(598.732 -745.104)" fill="#ed7d2b"/>
        <path id="Path_555" data-name="Path 555" d="M-595.05,744.574s3.636,9.117,6.028,13.4,3.14,5.481,3.14,5.481,1.37-.547,1.5-.921c0,0-.914-8.271-2.517-10.289a15.183,15.183,0,0,1-2.018-5.754c-.05-1.194-.324-3.564-.324-3.564Z" transform="translate(596.716 -742.93)" fill="#f99746"/>
      </g>
      <path id="Path_556" data-name="Path 556" d="M-592.17,697.59c1.421.449,3.881-.761,3.881-.761a3.7,3.7,0,0,1-1.241-3.029l-1.1.886-.748.6a8.966,8.966,0,0,0,.085.977c.022.163.047.346.082.544A3.411,3.411,0,0,0-592.17,697.59Z" transform="translate(600.189 -690.316)" fill="#ffb27d"/>
      <path id="Path_557" data-name="Path 557" d="M-589.65,697.18a8.987,8.987,0,0,0,.085.977c.827-.141,1.766-1.48,1.766-1.48a2.572,2.572,0,0,0-1.1-.1Z" transform="translate(598.461 -692.206)" fill="#ed975d"/>
      <path id="Path_558" data-name="Path 558" d="M-592.03,689.96s2.347.39,2.567-1.075.673-2.4-.817-2.712-1.867.2-2.058.676S-592.637,689.822-592.03,689.96Z" transform="translate(600.407 -685.021)" fill="#ffb27d"/>
      <path id="Path_559" data-name="Path 559" d="M-598.583,716.172a.235.235,0,0,0,.151.057,22.964,22.964,0,0,0,3.407.154,9.874,9.874,0,0,0,3.149-.908c.141-.063.462-.236.456-.393-.006-.173-.022-.421-.044-.732a39.29,39.29,0,0,1-.079-5.122c.022-.4.035-.8.038-1.194.01-2.929-.569-5.506-1.738-6.376-.1-.072-.71.226-1.273.506a2.312,2.312,0,0,1-1.53.185l-.49.434a4.908,4.908,0,0,0-1.537,2.454,27.7,27.7,0,0,0-.462,4.554c-.035.826-.063,1.659-.072,2.448v.028c-.006.079-.006.164-.006.242C-598.649,714.538-598.62,716.143-598.583,716.172Z" transform="translate(604.619 -695.696)" fill="#2b478b"/>
      <path id="Path_560" data-name="Path 560" d="M-616.359,735.59l.082-.028c.138-.05.418-.412.418-.412l.528.569-.361.383c-.207.484-.211.493-.836.588-.541.082-.453.427-.83.522s-.327-.437-.327-.437c.145-.845.3-.955.666-1.028-.119-.044-.2-.107-.176-.185s.207.006.578-.041A.609.609,0,0,1-616.359,735.59Z" transform="translate(617.687 -718.671)" fill="#ffb27d"/>
      <path id="Path_561" data-name="Path 561" d="M-612.778,719.015a3.91,3.91,0,0,1-.292-.874s3.554-2.338,3.865-2.6,3.542-5.012,3.542-5.012l3.787.3s-5.05,5.829-5.855,6.474a21.489,21.489,0,0,1-4.642,2.222A1.679,1.679,0,0,1-612.778,719.015Z" transform="translate(614.521 -701.788)" fill="#2b478b"/>
      <path id="Path_562" data-name="Path 562" d="M-590.784,686.436s-.242-.041-.2-.371.038-.767-.233-.685-.283.3-.393.17-.113-.657-.915-.695-1.128.242-1.5.079-.393-.729-.393-.729a.657.657,0,0,0,.267.267s-.622-.852.1-1.436,1.455-.2,1.873-.176c.921.056,1.515.11,1.813.713A3.332,3.332,0,0,1-590.784,686.436Z" transform="translate(601.732 -682.713)" fill="#2b478b"/>
      <path id="Path_563" data-name="Path 563" d="M-598.55,716.671s3.1-1.024,4.186-2.285c1.109-1.276,3.111-3.614,3.111-3.614l-.019-.078a10.005,10.005,0,0,0-.654-1.854h0a7.217,7.217,0,0,1-1.1,2.715l-.833,1.109A11.618,11.618,0,0,1-598.55,716.671Z" transform="translate(604.564 -700.629)" fill="#233862"/>
    </g>
    <path id="Path_564" data-name="Path 564" d="M-664.953,818.5H-701.81a3.952,3.952,0,0,1-3.95-3.944V813.53H-661v1.021A3.952,3.952,0,0,1-664.953,818.5Zm-40.119-4.277v.333a3.264,3.264,0,0,0,3.262,3.256h36.857a3.264,3.264,0,0,0,3.262-3.256v-.333Z" transform="translate(832.424 -644.86)" fill="#475059"/>
    <g id="Group_210" data-name="Group 210" transform="translate(37.647 113.084)">
      <g id="Group_208" data-name="Group 208" transform="translate(0 25.591)">
        <path id="Path_623" data-name="Path 623" d="M-989.02,738.565h24.142a4.14,4.14,0,0,0-2.215-2.693,4.674,4.674,0,0,0-3.378-.047c.2-.066.478-.484.619-.663a2.877,2.877,0,0,0,.695-1.455,2.637,2.637,0,0,0-.437-1.835,2.675,2.675,0,0,0-2.558-1.062l-.138.019a2.291,2.291,0,0,0-.531.16,5.936,5.936,0,0,0-1.961,1.553c-.107.119-.211.242-.308.374a8.912,8.912,0,0,0,1.939-2.627c1.361-3.224-1.518-7.907-5.1-6.58a7.725,7.725,0,0,0-3.394,3.793c2.869-4.915-1.885-7.9-3.576-3.479,1.044-3.645-.512-7.461-3.661-5.32-.047.019-.088.044-.132.063Z" transform="translate(989.02 -718.082)" fill="#20b69e"/>
        <path id="Path_624" data-name="Path 624" d="M-989.02,755.791H-974.8A2.44,2.44,0,0,0-976.1,754.2a2.757,2.757,0,0,0-1.992-.028,1.664,1.664,0,0,0-.757-2.027,2.162,2.162,0,0,0-1.961.311,2.655,2.655,0,0,0,1.141-1.549c.8-1.9-.9-4.657-3.008-3.878a4.536,4.536,0,0,0-2,2.234c1.691-2.894-1.112-4.654-2.106-2.049.968-2.85-.9-4.522-2.235-3.878Z" transform="translate(989.02 -735.308)" fill="#32ceb0"/>
        <path id="Path_625" data-name="Path 625" d="M-944.127,731.339a1.246,1.246,0,0,1-.933.339,2.061,2.061,0,0,1,.449-1.084,1.246,1.246,0,0,1,.933-.339A2.092,2.092,0,0,1-944.127,731.339Z" transform="translate(958.875 -726.428)" fill="#20b69e"/>
        <path id="Path_626" data-name="Path 626" d="M-979.059,745.281a1.565,1.565,0,0,1-.9.764,2.513,2.513,0,0,1,.132-1.361,1.567,1.567,0,0,1,.9-.764A2.479,2.479,0,0,1-979.059,745.281Z" transform="translate(982.833 -735.8)" fill="#32ceb0"/>
        <path id="Path_627" data-name="Path 627" d="M-948.1,725.832a3.082,3.082,0,0,1-.217,1.659,2.486,2.486,0,0,1-.8-1.342,3.082,3.082,0,0,1,.217-1.659A2.507,2.507,0,0,1-948.1,725.832Z" transform="translate(961.686 -722.476)" fill="#20b69e"/>
      </g>
      <g id="Group_209" data-name="Group 209" transform="translate(17.492 0)">
        <path id="Path_628" data-name="Path 628" d="M-925.875,764.237h-3.315l.628-8.617h2.058Z" transform="translate(930.501 -718.232)" fill="#0f3554"/>
        <rect id="Rectangle_1246" data-name="Rectangle 1246" width="1.084" height="37.293" transform="translate(2.426 8.711)" fill="#0f3554"/>
        <path id="Path_629" data-name="Path 629" d="M-928.681,650.84H-932.1l-1.257-6.2h5.933Z" transform="translate(933.36 -642.129)" fill="#0f3554"/>
        <path id="Path_630" data-name="Path 630" d="M-926.915,652.2h-2.153l-.792-3.9h3.733Z" transform="translate(930.96 -644.639)" fill="#fff"/>
        <path id="Path_631" data-name="Path 631" d="M-928.681,639.62H-932.1l-1.257,1.578h5.933Z" transform="translate(933.36 -638.687)" fill="#0f3554"/>
        <path id="Path_632" data-name="Path 632" d="M-926.921,662.971h-3.928a.322.322,0,0,1-.321-.32h0a.322.322,0,0,1,.321-.321h3.928a.322.322,0,0,1,.321.321h0A.322.322,0,0,1-926.921,662.971Z" transform="translate(931.858 -654.26)" fill="#0f3554"/>
        <path id="Path_633" data-name="Path 633" d="M-925.873,755.241h-2.146a.322.322,0,0,1-.321-.32h0a.322.322,0,0,1,.321-.321h2.146a.322.322,0,0,1,.321.321h0A.322.322,0,0,1-925.873,755.241Z" transform="translate(929.917 -717.533)" fill="#0f3554"/>
        <path id="Path_634" data-name="Path 634" d="M-925.013,637.583a.934.934,0,0,1-.933.933.934.934,0,0,1-.933-.933.934.934,0,0,1,.933-.933A.934.934,0,0,1-925.013,637.583Z" transform="translate(928.916 -636.65)" fill="#0f3554"/>
      </g>
    </g>
  </g>
</svg>
