<svg xmlns="http://www.w3.org/2000/svg" width="12" height="14" viewBox="0 0 12 14">
  <path id="Form_43" data-name="Form 43" d="M1409,480a1.857,1.857,0,0,1-1.8-1.909v-8.273h-.6a.637.637,0,0,1,0-1.273h2.4v-.636a1.857,1.857,0,0,1,1.8-1.909h2.4a1.857,1.857,0,0,1,1.8,1.909v.636h2.4a.637.637,0,0,1,0,1.273h-.6v8.273A1.856,1.856,0,0,1,1415,480Zm-.6-1.909a.619.619,0,0,0,.6.636h6a.62.62,0,0,0,.6-.636v-8.273h-7.2Zm5.4-9.545v-.636a.62.62,0,0,0-.6-.636h-2.4a.619.619,0,0,0-.6.636v.636Zm-1.2,7.673v-3.891a.6.6,0,0,1,1.2,0v3.891a.6.6,0,0,1-1.2,0Zm-2.4,0v-3.891a.6.6,0,1,1,1.2,0v3.891a.6.6,0,1,1-1.2,0Z" transform="translate(-1406 -466)" fill="#20b69e"/>
</svg>
