<svg xmlns="http://www.w3.org/2000/svg" width="12.205" height="12" viewBox="0 0 12.205 12">
  <g id="edit" transform="translate(0 -4.296)">
    <g id="Group_581" data-name="Group 581" transform="translate(0 5.031)">
      <g id="Group_580" data-name="Group 580" transform="translate(0 0)">
        <path id="Path_1335" data-name="Path 1335" d="M9.486,42.169a.592.592,0,0,0-.593.593v1.862a.593.593,0,0,1-.593.593H1.779a.593.593,0,0,1-.593-.593V36.917a.593.593,0,0,1,.593-.593H5.223a.593.593,0,0,0,0-1.186H1.779A1.781,1.781,0,0,0,0,36.917v7.708A1.781,1.781,0,0,0,1.779,46.4H8.3a1.78,1.78,0,0,0,1.779-1.779V42.762A.592.592,0,0,0,9.486,42.169Z" transform="translate(0 -35.138)" fill="#20b69e"/>
      </g>
    </g>
    <g id="Group_583" data-name="Group 583" transform="translate(3.415 4.296)">
      <g id="Group_582" data-name="Group 582" transform="translate(0 0)">
        <path id="Path_1336" data-name="Path 1336" d="M151.392,4.955a2.282,2.282,0,0,0-3.2-.005l-4.014,4.014a3.094,3.094,0,0,0-.908,2.2v1.328a.592.592,0,0,0,.593.593h1.328a3.1,3.1,0,0,0,2.2-.909l4.009-4.009A2.274,2.274,0,0,0,151.392,4.955Zm-4.846,6.379a1.916,1.916,0,0,1-1.36.562h-.735v-.735a1.915,1.915,0,0,1,.561-1.36l2.646-2.646,1.533,1.533Zm4.007-4.007-.524.524L148.5,6.317l.524-.524a1.084,1.084,0,0,1,1.533,1.533Z" transform="translate(-143.265 -4.296)" fill="#20b69e"/>
      </g>
    </g>
  </g>
</svg>
