<svg id="surface1" xmlns="http://www.w3.org/2000/svg" width="33.959" height="33.959" viewBox="0 0 33.959 33.959">
  <path id="Path_1237" data-name="Path 1237" d="M7.527,24.854,6.343,29.266l-4.319.093A17,17,0,0,1,1.9,13.5l3.847.7,1.685,3.826a10.1,10.1,0,0,0,.1,6.821Zm0,0" transform="translate(0 -4.332)" fill="#fbbb00"/>
  <path id="Path_1238" data-name="Path 1238" d="M41.859,20.328a16.976,16.976,0,0,1-6.052,16.415h0l-4.844-.249-.684-4.279a10.127,10.127,0,0,0,4.354-5.168H25.551V20.328Zm0,0" transform="translate(-8.197 -6.522)" fill="#518ef8"/>
  <path id="Path_1239" data-name="Path 1239" d="M28.564,39.914h0A16.985,16.985,0,0,1,2.98,34.72l5.5-4.5a10.1,10.1,0,0,0,14.552,5.171Zm0,0" transform="translate(-0.956 -9.693)" fill="#28b446"/>
  <path id="Path_1240" data-name="Path 1240" d="M28.715,3.908l-5.5,4.5A10.1,10.1,0,0,0,8.329,13.7L2.8,9.172A16.983,16.983,0,0,1,28.715,3.908Zm0,0" transform="translate(-0.897)" fill="#f14336"/>
</svg>
