<svg xmlns="http://www.w3.org/2000/svg" width="276.756" height="129.565" viewBox="0 0 276.756 129.565">
  <g id="Group_539" data-name="Group 539" transform="translate(-411.591 -258.352)">
    <path id="Path_251" data-name="Path 251" d="M264.5,158.379c-11.819.763-57.779,32.221-83.064,60.575-.415.465-16.69-13.475-17.2-12.9C71.082,281.3,181.438,264,181.438,264l165.477-.536,6.563.536s66.669-6.754,19.276-30.071c-22.792-11.213-33.494-35.263-51.22-49.563-.116-.094-10.727,8.131-10.993,7.916C287.672,173.781,270.931,157.963,264.5,158.379Z" transform="translate(298.58 122.2)" fill="#dbedff"/>
    <rect id="Rectangle_1144" data-name="Rectangle 1144" width="93.747" height="43.861" transform="translate(538.095 341.914)" fill="#fafafa"/>
    <path id="Path_252" data-name="Path 252" d="M728.966,418.058h-7.5a.268.268,0,0,1-.268-.268v-2.422a.268.268,0,0,1,.268-.268h7.5a.268.268,0,0,1,.268.268v2.422A.268.268,0,0,1,728.966,418.058Z" transform="translate(-136.044 -66.698)" fill="#ddebe8"/>
    <path id="Path_253" data-name="Path 253" d="M849.456,418.058h-7.5a.268.268,0,0,1-.268-.268v-2.422a.268.268,0,0,1,.268-.268h7.5a.268.268,0,0,1,.268.268v2.422A.268.268,0,0,1,849.456,418.058Z" transform="translate(-221.381 -66.698)" fill="#ddebe8"/>
    <path id="Path_254" data-name="Path 254" d="M715.186,430.888h-7.5a.268.268,0,0,1-.268-.268V428.2a.268.268,0,0,1,.268-.268h7.5a.268.268,0,0,1,.268.268v2.422A.266.266,0,0,1,715.186,430.888Z" transform="translate(-126.284 -75.785)" fill="#ddebe8"/>
    <rect id="Rectangle_1145" data-name="Rectangle 1145" width="93.747" height="2.071" transform="translate(538.095 341.914)" fill="#ddebe8"/>
    <rect id="Rectangle_1146" data-name="Rectangle 1146" width="39.278" height="43.861" transform="translate(538.095 341.914)" fill="#ddebe8"/>
    <path id="Path_255" data-name="Path 255" d="M559.89,311.09h74.13L658.8,334.946H559.89Z" transform="translate(-21.796 6.967)" fill="#20b69e"/>
    <path id="Path_256" data-name="Path 256" d="M442.9,286.577H383.04V197.364l28.25-16.294L442.9,197.364Z" transform="translate(103.459 99.055)" fill="#fafafa"/>
    <path id="Path_257" data-name="Path 257" d="M452.075,369.964H442.9a.331.331,0,0,1-.33-.33V366.67a.331.331,0,0,1,.33-.33h9.176a.331.331,0,0,1,.33.33v2.964A.329.329,0,0,1,452.075,369.964Z" transform="translate(61.297 -32.164)" fill="#ddebe8"/>
    <path id="Path_258" data-name="Path 258" d="M399.5,363.754H390.32a.331.331,0,0,1-.33-.33V360.46a.331.331,0,0,1,.33-.33H399.5a.331.331,0,0,1,.33.33v2.964A.331.331,0,0,1,399.5,363.754Z" transform="translate(98.537 -27.765)" fill="#ddebe8"/>
    <path id="Path_259" data-name="Path 259" d="M435.225,385.654H426.05a.331.331,0,0,1-.33-.33V382.36a.331.331,0,0,1,.33-.33h9.175a.331.331,0,0,1,.33.33v2.964A.329.329,0,0,1,435.225,385.654Z" transform="translate(73.231 -43.276)" fill="#ddebe8"/>
    <path id="Path_260" data-name="Path 260" d="M384.3,197.882v4.735l28.305-16.329,31.558,16.268v-4.648L412.524,181.6Z" transform="translate(102.567 98.679)" fill="#ddebe8"/>
    <rect id="Rectangle_1147" data-name="Rectangle 1147" width="38.327" height="3.136" transform="translate(497.635 373.799)" fill="#ddebe8"/>
    <rect id="Rectangle_1148" data-name="Rectangle 1148" width="33.607" height="26.876" transform="translate(500.216 346.342)" fill="#297ce0"/>
    <rect id="Rectangle_1149" data-name="Rectangle 1149" width="32.737" height="26.529" transform="translate(500.64 346.899)" fill="#fafafa"/>
    <path id="Path_261" data-name="Path 261" d="M444.768,432.079c2.036,1.529,4.122,2.987,6.238,4.4h5.307c-1.109-.966-2.217-1.931-3.308-2.914-4.058-3.647-8.02-7.55-10.9-12.224-.309-.5-1.284-1.511-.8-2.159.362-.481,1.292-.251,1.753-.193a14.615,14.615,0,0,1,6.179,2.6c4.414,2.973,8.058,6.862,12.577,9.724q1.2.761,2.436,1.465V424.33l-.163-.111c-5.26-3.484-10.736-6.62-16.04-10.033-2.1-1.354-4.16-2.78-6.194-4.236H431.52v10.316A95.331,95.331,0,0,0,444.768,432.079Z" transform="translate(69.123 -63.05)" fill="#bcdaff" opacity="0.24"/>
    <rect id="Rectangle_1150" data-name="Rectangle 1150" width="0.805" height="27.932" transform="translate(510.746 346.453)" fill="#297ce0"/>
    <rect id="Rectangle_1151" data-name="Rectangle 1151" width="0.805" height="27.932" transform="translate(522.466 346.453)" fill="#297ce0"/>
    <rect id="Rectangle_1152" data-name="Rectangle 1152" width="0.703" height="33.606" transform="translate(533.823 354.117) rotate(90)" fill="#297ce0"/>
    <rect id="Rectangle_1153" data-name="Rectangle 1153" width="0.703" height="33.606" transform="translate(533.822 365.077) rotate(90)" fill="#297ce0"/>
    <rect id="Rectangle_1154" data-name="Rectangle 1154" width="38.327" height="3.136" transform="translate(497.635 372.818)" fill="#297ce0"/>
    <rect id="Rectangle_1155" data-name="Rectangle 1155" width="34.563" height="28.442" transform="translate(499.727 297.063)" fill="#297ce0"/>
    <rect id="Rectangle_1156" data-name="Rectangle 1156" width="38.327" height="3.136" transform="translate(497.635 324.733)" fill="#ddebe8"/>
    <rect id="Rectangle_1157" data-name="Rectangle 1157" width="32.737" height="26.529" transform="translate(500.64 298.02)" fill="#fafafa"/>
    <path id="Path_262" data-name="Path 262" d="M445.649,255.851a.31.31,0,0,1,.449-.344c5.123,2.392,9.178,6.745,13.56,10.211a43.063,43.063,0,0,0,4.569,3.221h.026V259.4q-1.768-1.234-3.559-2.422c-5.911-3.927-11.708-8.017-17.435-12.207q-1.611-1.177-3.218-2.363H431.52V253.2c1.435,1.529,2.885,3.046,4.318,4.58a85.744,85.744,0,0,1,9.211,11.156h6.462A36.058,36.058,0,0,1,445.649,255.851Z" transform="translate(69.123 55.61)" fill="#bcdaff" opacity="0.24"/>
    <rect id="Rectangle_1158" data-name="Rectangle 1158" width="0.805" height="27.932" transform="translate(510.746 297.571)" fill="#297ce0"/>
    <rect id="Rectangle_1159" data-name="Rectangle 1159" width="0.805" height="27.932" transform="translate(522.466 297.571)" fill="#297ce0"/>
    <rect id="Rectangle_1160" data-name="Rectangle 1160" width="0.703" height="33.606" transform="translate(533.822 305.237) rotate(90)" fill="#297ce0"/>
    <rect id="Rectangle_1161" data-name="Rectangle 1161" width="0.703" height="33.606" transform="translate(533.821 316.197) rotate(90)" fill="#297ce0"/>
    <rect id="Rectangle_1162" data-name="Rectangle 1162" width="38.327" height="3.136" transform="translate(497.635 323.936)" fill="#297ce0"/>
    <path id="Path_263" data-name="Path 263" d="M549.3,281.95v69.065h11.725V271.85Z" transform="translate(-14.295 34.759)" fill="#ddebe8"/>
    <path id="Path_264" data-name="Path 264" d="M593.207,342.736H554.2V276.457l19.5-16.3,19.5,16.3Z" transform="translate(-17.766 43.039)" fill="#fafafa"/>
    <path id="Path_265" data-name="Path 265" d="M574.5,470.148H567a.268.268,0,0,1-.269-.268v-2.422a.268.268,0,0,1,.269-.268h7.5a.268.268,0,0,1,.268.268v2.422A.266.266,0,0,1,574.5,470.148Z" transform="translate(-26.64 -103.591)" fill="#ddebe8"/>
    <path id="Path_266" data-name="Path 266" d="M574.5,359.778H567a.268.268,0,0,1-.269-.268v-2.422a.268.268,0,0,1,.269-.268h7.5a.267.267,0,0,1,.268.268v2.422A.266.266,0,0,1,574.5,359.778Z" transform="translate(-26.64 -25.421)" fill="#ddebe8"/>
    <path id="Path_267" data-name="Path 267" d="M592.086,378.288h-7.5a.268.268,0,0,1-.268-.268V375.6a.268.268,0,0,1,.268-.268h7.5a.268.268,0,0,1,.268.268v2.422A.268.268,0,0,1,592.086,378.288Z" transform="translate(-39.098 -38.531)" fill="#ddebe8"/>
    <path id="Path_268" data-name="Path 268" d="M675.959,384.48h-4.228a.691.691,0,0,0-.691.691v2.241a.691.691,0,0,0,.691.691h4.228Z" transform="translate(-100.518 -45.011)" fill="#ddebe8"/>
    <path id="Path_269" data-name="Path 269" d="M571.947,259.608,554.2,274.437v5.383l19.5-16.3,19.5,16.3v-5.383l-19.5-16.3Z" transform="translate(-17.766 44.469)" fill="#ddebe8"/>
    <circle id="Ellipse_36" data-name="Ellipse 36" cx="10.488" cy="10.488" r="10.488" transform="translate(545.449 320.304)" fill="#ddebe8"/>
    <circle id="Ellipse_37" data-name="Ellipse 37" cx="10.488" cy="10.488" r="10.488" transform="translate(545.449 319.496)" fill="#297ce0"/>
    <circle id="Ellipse_38" data-name="Ellipse 38" cx="8.735" cy="8.735" r="8.735" transform="translate(547.203 321.249)" fill="#fafafa"/>
    <path id="Path_270" data-name="Path 270" d="M608.687,340.18A8.765,8.765,0,0,0,611.7,337.2a69.761,69.761,0,0,1-5.791-5.071,30.881,30.881,0,0,1-5.272-7.4,8.746,8.746,0,0,0-3.32,2.64C599.922,332.609,603.771,337.361,608.687,340.18Z" transform="translate(-48.306 -2.686)" fill="#bcdaff" opacity="0.24"/>
    <path id="Path_271" data-name="Path 271" d="M620.062,325.789a26.988,26.988,0,0,0,6.494,4.607,8.747,8.747,0,0,0-.362-2.173c-.21-.14-.423-.277-.627-.42a25.159,25.159,0,0,1-5.517-5.47,8.743,8.743,0,0,0-2.206-.292,8.6,8.6,0,0,0-1.325.111C617.652,323.423,618.839,324.637,620.062,325.789Z" transform="translate(-61.904 -0.788)" fill="#bcdaff" opacity="0.24"/>
    <rect id="Rectangle_1163" data-name="Rectangle 1163" width="0.907" height="19.424" transform="translate(555.483 320.307)" fill="#297ce0"/>
    <rect id="Rectangle_1164" data-name="Rectangle 1164" width="0.907" height="19.424" transform="translate(565.648 329.564) rotate(90)" fill="#297ce0"/>
    <g id="Group_113" data-name="Group 113" transform="translate(479.602 277.913)">
      <path id="Path_272" data-name="Path 272" d="M361.463,197.521l-2.063-3.577,35.459-20.454,38.105,19.64-1.893,3.673-36.1-18.611Z" transform="translate(-359.4 -173.49)" fill="#297ce0"/>
    </g>
    <g id="Group_114" data-name="Group 114" transform="translate(530.74 300.509)">
      <path id="Path_273" data-name="Path 273" d="M582.427,275.164l-22.549-18.841-22.552,18.841L534.68,272l25.2-21.055L585.076,272Z" transform="translate(-534.68 -250.94)" fill="#297ce0"/>
    </g>
    <rect id="Rectangle_1165" data-name="Rectangle 1165" width="41.209" height="28.329" transform="translate(583.117 357.446)" fill="#20b69e"/>
    <rect id="Rectangle_1166" data-name="Rectangle 1166" width="38.759" height="27.179" transform="translate(584.342 358.596)" fill="#297ce0"/>
    <g id="Group_115" data-name="Group 115" transform="translate(584.342 360.846)" opacity="0.3">
      <path id="Path_274" data-name="Path 274" d="M718.41,457.856c12.414-.134,26.342-.134,38.759,0-12.414.134-26.345.134-38.759,0Z" transform="translate(-718.41 -457.755)" fill="#b43147"/>
    </g>
    <g id="Group_116" data-name="Group 116" transform="translate(584.342 364.35)" opacity="0.3">
      <path id="Path_275" data-name="Path 275" d="M718.41,469.866c12.414-.134,26.342-.134,38.759,0-12.414.134-26.345.131-38.759,0Z" transform="translate(-718.41 -469.765)" fill="#b43147"/>
    </g>
    <g id="Group_117" data-name="Group 117" transform="translate(584.342 367.851)" opacity="0.3">
      <path id="Path_276" data-name="Path 276" d="M718.41,481.866c12.414-.134,26.342-.134,38.759,0-12.414.134-26.345.134-38.759,0Z" transform="translate(-718.41 -481.765)" fill="#b43147"/>
    </g>
    <g id="Group_118" data-name="Group 118" transform="translate(584.342 371.355)" opacity="0.3">
      <path id="Path_277" data-name="Path 277" d="M718.41,493.876c12.414-.134,26.342-.134,38.759,0-12.414.134-26.345.134-38.759,0Z" transform="translate(-718.41 -493.775)" fill="#b43147"/>
    </g>
    <g id="Group_119" data-name="Group 119" transform="translate(584.342 374.859)" opacity="0.3">
      <path id="Path_278" data-name="Path 278" d="M718.41,505.886c12.414-.134,26.342-.134,38.759,0-12.414.134-26.345.131-38.759,0Z" transform="translate(-718.41 -505.785)" fill="#b43147"/>
    </g>
    <g id="Group_120" data-name="Group 120" transform="translate(584.342 378.36)" opacity="0.3">
      <path id="Path_279" data-name="Path 279" d="M718.41,517.886c12.414-.134,26.342-.134,38.759,0-12.414.134-26.345.134-38.759,0Z" transform="translate(-718.41 -517.785)" fill="#b43147"/>
    </g>
    <g id="Group_121" data-name="Group 121" transform="translate(584.342 381.864)" opacity="0.3">
      <path id="Path_280" data-name="Path 280" d="M718.41,529.9c12.414-.134,26.342-.134,38.759,0-12.414.134-26.345.131-38.759,0Z" transform="translate(-718.41 -529.795)" fill="#b43147"/>
    </g>
    <path id="Path_281" data-name="Path 281" d="M602.925,415.09H592.457a4.767,4.767,0,0,0-4.767,4.767v31.494h20V419.86A4.772,4.772,0,0,0,602.925,415.09Z" transform="translate(-41.485 -66.691)" fill="#297ce0"/>
    <path id="Path_282" data-name="Path 282" d="M604.9,419.34h-9.383a4.275,4.275,0,0,0-4.274,4.274v30.75h17.928v-30.75A4.272,4.272,0,0,0,604.9,419.34Z" transform="translate(-43.999 -69.701)" fill="#20b69e"/>
    <path id="Path_283" data-name="Path 283" d="M612.024,430.7a6.975,6.975,0,0,0-6.967-6.675h0a6.979,6.979,0,0,0-6.967,6.675Z" transform="translate(-48.851 -73.016)" fill="#fafafa"/>
    <path id="Path_284" data-name="Path 284" d="M613.615,431.6a5.763,5.763,0,0,0-5.853-5.4h0a5.765,5.765,0,0,0-5.852,5.4Z" transform="translate(-51.556 -74.56)" fill="#297ce0"/>
    <rect id="Rectangle_1167" data-name="Rectangle 1167" width="0.709" height="6.165" transform="translate(555.85 351.258)" fill="#fafafa"/>
    <rect id="Rectangle_1168" data-name="Rectangle 1168" width="0.709" height="6.165" transform="translate(551.506 353.32) rotate(-45)" fill="#fafafa"/>
    <rect id="Rectangle_1169" data-name="Rectangle 1169" width="0.709" height="6.165" transform="translate(556.439 357.68) rotate(-135)" fill="#fafafa"/>
    <circle id="Ellipse_39" data-name="Ellipse 39" cx="0.881" cy="0.881" r="0.881" transform="translate(561.633 368.407)" fill="#fafafa"/>
    <rect id="Rectangle_1170" data-name="Rectangle 1170" width="30.788" height="2.223" transform="translate(540.869 383.552)" fill="#297ce0"/>
    <g id="Group_122" data-name="Group 122" transform="translate(624.451 327.186)">
      <path id="Path_285" data-name="Path 285" d="M878.091,369.527a6.227,6.227,0,0,0-1.818-1.7,8.4,8.4,0,0,0,1.088-4.224c0-3.078-1.514-5.68-3.589-6.518a17.959,17.959,0,0,0,.423-3.907c0-5.966-2.8-10.8-6.246-10.8s-6.246,4.837-6.246,10.8q0,.473.026.937c-2.614,1.257-4.484,4.624-4.484,8.58a11.8,11.8,0,0,0,.671,3.965,5.912,5.912,0,0,0-1.453,1.847c-1.759,3.533.653,7.968,5.391,9.908.082.032.163.064.245.093.041.064.082.128.125.193,2.3,3.268,7.72,3.86,12.1,1.325S880.393,372.795,878.091,369.527Z" transform="translate(-855.889 -342.38)" fill="#24a88e"/>
      <path id="Path_286" data-name="Path 286" d="M893.962,368.9s-1.558,31.339-.09,45.51" transform="translate(-882.345 -361.163)" fill="none" stroke="#fafafa" stroke-width="1"/>
      <path id="Path_287" data-name="Path 287" d="M893.58,448.523a17.838,17.838,0,0,1,6.264-5.263" transform="translate(-882.584 -413.829)" fill="none" stroke="#fafafa" stroke-width="1"/>
      <path id="Path_288" data-name="Path 288" d="M893.58,410.8a15.879,15.879,0,0,1,3.13-3.227" transform="translate(-882.584 -388.551)" fill="none" stroke="#fafafa" stroke-width="1"/>
      <path id="Path_289" data-name="Path 289" d="M882.47,420.542a26.919,26.919,0,0,0-4.44-5.392" transform="translate(-871.571 -393.92)" fill="none" stroke="#fafafa" stroke-width="1"/>
    </g>
    <path id="Path_290" data-name="Path 290" d="M884.059,523.681c-.245-1.774-1.465-3.125-2.935-3.125a2.493,2.493,0,0,0-1.336.4c-.954-2.976-3.253-5.079-5.946-5.079a5.391,5.391,0,0,0-3.183,1.077,3.831,3.831,0,0,0-2.812-1.316c-2.249,0-4.1,2.171-4.315,4.948a2.276,2.276,0,0,0-.376-.035c-1.47,0-2.69,1.351-2.935,3.125h23.839Z" transform="translate(-234.505 -137.906)" fill="#24a88e"/>
    <path id="Path_291" data-name="Path 291" d="M224.2,513.745c-.362-2.62-2.162-4.613-4.332-4.613a3.655,3.655,0,0,0-1.969.6c-1.406-4.394-4.8-7.495-8.773-7.495a7.953,7.953,0,0,0-4.7,1.59,5.657,5.657,0,0,0-4.149-1.943c-3.32,0-6.048,3.2-6.366,7.3a3.525,3.525,0,0,0-.557-.05c-2.171,0-3.971,1.993-4.332,4.613Z" transform="translate(280.257 -128.16)" fill="#20b69e"/>
    <ellipse id="Ellipse_40" data-name="Ellipse 40" cx="6.967" cy="6.967" rx="6.967" ry="6.967" transform="translate(580.582 266.535)" fill="#ffedc4"/>
    <path id="Path_292" data-name="Path 292" d="M306.674,90.642H218.05s34.385-2.179,36.08-3.874c0,0,1.7-7.235,7.991-2.967,0,0-1.7-6.961,4.359-8.9,5.076-1.625,8.233,2.664,8.233,2.664s.726-10.655,10.17-8.96,5.569,10.926,5.569,10.926,5.085-2.451,7.892,1.182c2.766,3.577,0,7.839,0,7.839Z" transform="translate(193.541 189.928)" fill="#bcdaff" opacity="0.24"/>
    <path id="Path_293" data-name="Path 293" d="M808.955,215.824s-1.144-4.875-5.386-2c0,0,1.144-4.691-2.938-6a5.161,5.161,0,0,0-5.549,1.794s-.49-7.18-6.853-6.039-3.755,7.364-3.755,7.364-3.428-1.651-5.319.8c-1.864,2.413,0,5.284,0,5.284l-5.616,1.406" transform="translate(-173.114 83.198)" fill="#bcdaff" opacity="0.24"/>
    <g id="Group_125" data-name="Group 125" transform="translate(449.351 385.119)">
      <path id="Path_296" data-name="Path 296" d="M255.71,541.435c55.9-.534,114.753-.569,170.613-.379,14.138.047,42.726.236,56.87.379.125.114-227.6.114-227.484,0Z" transform="translate(-255.71 -540.951)" fill="#297ce0"/>
    </g>
  </g>
</svg>
