<svg xmlns="http://www.w3.org/2000/svg" width="21.134" height="21.135" viewBox="0 0 21.134 21.135">
  <g id="pakistan" transform="translate(-0.002)">
    <path id="Path_1337" data-name="Path 1337" d="M0,43.549a10.562,10.562,0,0,0,5.081,9.033V34.516A10.561,10.561,0,0,0,0,43.549Z" transform="translate(0 -32.982)" fill="#f3f4f5"/>
    <g id="Group_601" data-name="Group 601" transform="translate(10.151)">
      <path id="Path_1338" data-name="Path 1338" d="M237.788,0s3.924,14.4,4.086,14.561A4.993,4.993,0,0,0,246.217,11a6.048,6.048,0,0,1-4.779,5.672l-3.651,4.467a10.567,10.567,0,1,0,0-21.134Z" transform="translate(-237.37)" fill="#036535"/>
      <path id="Path_1339" data-name="Path 1339" d="M228.447,475.384l-.076,0Z" transform="translate(-228.371 -454.255)" fill="#036535"/>
      <path id="Path_1340" data-name="Path 1340" d="M228.372.142l.076,0Z" transform="translate(-228.372 -0.133)" fill="#036535"/>
    </g>
    <path id="Path_1341" data-name="Path 1341" d="M322.8,251.6a6.028,6.028,0,0,0,1.916-4.179,4.993,4.993,0,0,1-4.344,3.565,19.327,19.327,0,0,1-.435,2.106A6.016,6.016,0,0,0,322.8,251.6Z" transform="translate(-305.716 -236.429)" fill="#f3f4f5"/>
    <g id="Group_602" data-name="Group 602" transform="translate(10.227)">
      <path id="Path_1342" data-name="Path 1342" d="M230.091.006c.114,0,.228-.006.342-.006C230.32,0,230.206,0,230.091.006Z" transform="translate(-230.091)" fill="#263778"/>
      <path id="Path_1343" data-name="Path 1343" d="M230.433,475.455c-.114,0-.228,0-.342-.006Q230.263,475.454,230.433,475.455Z" transform="translate(-230.091 -454.32)" fill="#263778"/>
    </g>
    <path id="Path_1344" data-name="Path 1344" d="M123.484,16.667a6.049,6.049,0,1,1-1.091-11.961,5,5,0,0,0,1.526,9.855C124.865,8.357,123.5,0,119.834,0c-.114,0-.228,0-.342.006l-.076,0a10.512,10.512,0,0,0-5.067,1.525V19.6a10.511,10.511,0,0,0,5.067,1.525l.076,0c.114,0,.228.006.342.006C121.563,21.134,122.78,19.279,123.484,16.667Z" transform="translate(-109.265)" fill="#0c723e"/>
    <g id="Group_603" data-name="Group 603" transform="translate(6.907 4.704)">
      <path id="Path_1345" data-name="Path 1345" d="M159.023,114.133a5,5,0,0,1,2.577-8.289,6.049,6.049,0,1,0,1.09,11.961,19.291,19.291,0,0,0,.435-2.106A4.987,4.987,0,0,1,159.023,114.133Z" transform="translate(-155.377 -105.842)" fill="#f3f4f5"/>
      <path id="Path_1346" data-name="Path 1346" d="M330.878,137.287l.871.994,1.215-.521-.677,1.135.871.994-1.289-.292-.676,1.135-.121-1.316-1.288-.293L331,138.6Z" transform="translate(-322.033 -135.89)" fill="#f3f4f5"/>
    </g>
  </g>
</svg>
