<svg id="instagram" xmlns="http://www.w3.org/2000/svg" xmlns:xlink="http://www.w3.org/1999/xlink" width="29.561" height="29.561" viewBox="0 0 29.561 29.561">
  <defs>
    <linearGradient id="linear-gradient" x1="0.119" y1="0.881" x2="0.83" y2="0.17" gradientUnits="objectBoundingBox">
      <stop offset="0" stop-color="#fee411"/>
      <stop offset="0.052" stop-color="#fedb16"/>
      <stop offset="0.138" stop-color="#fec125"/>
      <stop offset="0.248" stop-color="#fe983d"/>
      <stop offset="0.376" stop-color="#fe5f5e"/>
      <stop offset="0.5" stop-color="#fe2181"/>
      <stop offset="1" stop-color="#9000dc"/>
    </linearGradient>
  </defs>
  <ellipse id="Ellipse_30" data-name="Ellipse 30" cx="14.781" cy="14.781" rx="14.781" ry="14.781" transform="translate(0 0)" fill="url(#linear-gradient)"/>
  <g id="Group_110" data-name="Group 110" transform="translate(6.416 6.63)">
    <path id="Path_247" data-name="Path 247" d="M142.415,131h-6.257a5.061,5.061,0,0,0-5.058,5.058v6.257a5.061,5.061,0,0,0,5.058,5.058h6.257a5.061,5.061,0,0,0,5.058-5.058v-6.257A5.061,5.061,0,0,0,142.415,131Zm3.23,11.322a3.239,3.239,0,0,1-3.237,3.237h-6.257a3.239,3.239,0,0,1-3.237-3.237v-6.257a3.239,3.239,0,0,1,3.237-3.237h6.257a3.239,3.239,0,0,1,3.237,3.237Z" transform="translate(-131.1 -131)" fill="#fff"/>
    <path id="Path_248" data-name="Path 248" d="M196.287,192.1a4.187,4.187,0,1,0,4.187,4.187A4.194,4.194,0,0,0,196.287,192.1Zm0,6.729a2.542,2.542,0,1,1,2.542-2.542A2.545,2.545,0,0,1,196.287,198.829Z" transform="translate(-188.103 -188.097)" fill="#fff"/>
    <ellipse id="Ellipse_31" data-name="Ellipse 31" cx="0.708" cy="0.708" rx="0.708" ry="0.708" transform="matrix(0.987, -0.16, 0.16, 0.987, 11.764, 3.179)" fill="#fff"/>
  </g>
</svg>
