<svg id="Group_111" data-name="Group 111" xmlns="http://www.w3.org/2000/svg" width="29.561" height="29.561" viewBox="0 0 29.561 29.561">
  <ellipse id="Ellipse_33" data-name="Ellipse 33" cx="14.781" cy="14.781" rx="14.781" ry="14.781" transform="translate(0 0)" fill="red"/>
  <g id="youtube" transform="translate(5.524 8.059)">
    <path id="Path_249" data-name="Path 249" d="M18.718,2.094A2.394,2.394,0,0,0,17.034.409C15.538,0,9.556,0,9.556,0A58.121,58.121,0,0,0,2.078.394a2.443,2.443,0,0,0-1.684,1.7A25.231,25.231,0,0,0,0,6.691a25.138,25.138,0,0,0,.394,4.6,2.4,2.4,0,0,0,1.685,1.685c1.511.409,7.478.409,7.478.409a58.121,58.121,0,0,0,7.478-.394A2.394,2.394,0,0,0,18.718,11.3a25.232,25.232,0,0,0,.394-4.6,23.949,23.949,0,0,0-.394-4.613Zm0,0" transform="translate(0 0)" fill="#fff"/>
    <path id="Path_250" data-name="Path 250" d="M204.969,108.215l4.975-2.865-4.975-2.865Zm0,0" transform="translate(-197.318 -98.659)" fill="red"/>
  </g>
</svg>
