<svg id="Group_112" data-name="Group 112" xmlns="http://www.w3.org/2000/svg" width="29.561" height="29.561" viewBox="0 0 29.561 29.561">
  <ellipse id="Ellipse_32" data-name="Ellipse 32" cx="14.781" cy="14.781" rx="14.781" ry="14.781" transform="translate(0 0)" fill="#1da1f2"/>
  <path id="twitter" d="M5.944,15.86A10.958,10.958,0,0,0,16.977,4.827q0-.252-.011-.5A7.89,7.89,0,0,0,18.9,2.318a7.735,7.735,0,0,1-2.227.611A3.891,3.891,0,0,0,18.379.783a7.779,7.779,0,0,1-2.462.941A3.881,3.881,0,0,0,9.309,5.261,11.01,11.01,0,0,1,1.316,1.209a3.881,3.881,0,0,0,1.2,5.177A3.848,3.848,0,0,1,.76,5.9c0,.016,0,.032,0,.049a3.879,3.879,0,0,0,3.111,3.8,3.872,3.872,0,0,1-1.751.066,3.882,3.882,0,0,0,3.622,2.693,7.779,7.779,0,0,1-4.816,1.66A7.906,7.906,0,0,1,0,14.118,10.977,10.977,0,0,0,5.944,15.86" transform="translate(6.8 7.559)" fill="#fff"/>
</svg>
