<svg id="facebook" xmlns="http://www.w3.org/2000/svg" width="29.483" height="29.483" viewBox="0 0 29.483 29.483">
  <path id="Path_245" data-name="Path 245" d="M29.483,14.742A14.745,14.745,0,0,1,17.045,29.3V19H20.48l.654-4.261H17.045V11.976a2.131,2.131,0,0,1,2.4-2.3h1.859V6.046a22.674,22.674,0,0,0-3.3-.288c-3.367,0-5.568,2.041-5.568,5.735v3.248H8.7V19h3.743V29.3A14.743,14.743,0,1,1,29.483,14.742Z" fill="#1877f2"/>
  <path id="Path_246" data-name="Path 246" d="M162.785,113.244l.654-4.261H159.35v-2.765a2.131,2.131,0,0,1,2.4-2.3h1.859v-3.628a22.669,22.669,0,0,0-3.3-.288c-3.367,0-5.568,2.041-5.568,5.735v3.248H151v4.261h3.743v10.3a14.9,14.9,0,0,0,4.607,0v-10.3Z" transform="translate(-142.305 -94.242)" fill="#fff"/>
</svg>
