<svg xmlns="http://www.w3.org/2000/svg" width="66.326" height="66.019" viewBox="0 0 66.326 66.019">
  <g id="Group_553" data-name="Group 553" transform="translate(0 0)">
    <path id="Path_1276" data-name="Path 1276" d="M760.724,392.5c-.831,2.855-2.533,8.793-2.547,8.846-.08.241-.121.389-.147.483-.214.67-.684,2.466-1.622,5.455H740.216c-.938-2.989-1.407-4.785-1.622-5.455-.027-.094-.067-.241-.147-.483-.027-.067-1.85-6.42-2.547-8.846Z" transform="translate(-715.142 -341.265)" fill="#fafafa"/>
    <path id="Path_1277" data-name="Path 1277" d="M604.488,401.829c.214.67.684,2.466,1.622,5.455H581.742a.7.7,0,0,1-.7-.8c.684-4.383,1.287-7.345,1.729-7.895,1.9-2.319,13.538-4.959,17.867-5.884h0c.04-.013.094-.013.134-.027l.188-.04c.027-.013.067-.013.094-.027s.067-.013.094-.027l.188-.04a.571.571,0,0,1,.147-.027c.027,0,.067-.013.094-.013h.2c.71,2.426,2.533,8.78,2.547,8.846A4.82,4.82,0,0,1,604.488,401.829Z" transform="translate(-581.036 -341.265)" fill="#297ce0"/>
    <path id="Path_1278" data-name="Path 1278" d="M913.181,407.284H888.8c.938-2.989,1.407-4.785,1.622-5.455.027-.094.08-.241.147-.483.027-.054,1.729-5.992,2.547-8.847h.483a.191.191,0,0,1,.08.027.049.049,0,0,1,.04.013.248.248,0,0,1,.094.027.4.4,0,0,0,.134.027c.161.04.348.08.549.134,4.45,1.059,15.6,3.4,17.626,5.857.442.536,1.046,3.512,1.742,7.895A.7.7,0,0,1,913.181,407.284Z" transform="translate(-847.548 -341.265)" fill="#297ce0"/>
    <ellipse id="Ellipse_104" data-name="Ellipse 104" cx="4.061" cy="5.71" rx="4.061" ry="5.71" transform="translate(10.172 24.437) rotate(-16.924)" fill="#ffb09e"/>
    <path id="Path_1279" data-name="Path 1279" d="M946.513,186.15c-.791,2.614-3.136,4.959-5.5,4.236-2.413-.737-2.989-4.035-2.212-6.581.844-2.788,3.244-4.919,5.5-4.236C946.432,180.225,947.424,183.174,946.513,186.15Z" transform="translate(-890.57 -156.764)" fill="#ffcebf"/>
    <path id="Path_1280" data-name="Path 1280" d="M943.135,179.5c0,.013-1.113,11.031-1.113,11.045-2.667.308-4.584-2.868-3.431-6.689C939.368,181.323,941.272,179.567,943.135,179.5Z" transform="translate(-890.369 -156.815)" fill="#ffb09e"/>
    <rect id="Rectangle_1682" data-name="Rectangle 1682" width="14.007" height="8.672" transform="translate(26.562 42.334)" fill="#ffcebf"/>
    <rect id="Rectangle_1683" data-name="Rectangle 1683" width="3.177" height="8.672" transform="translate(26.562 42.321)" fill="#ffb09e"/>
    <path id="Path_1281" data-name="Path 1281" d="M716.136,92.348c-4.772-2.56-12.023-7.412-12.023-13.377L703,69.334c0-9.141,6.97-16.634,15.481-16.634h4.343c8.511,0,15.481,7.479,15.481,16.634l-1.113,9.637c0,6.045-7.855,10.964-12.868,13.484A8.882,8.882,0,0,1,716.136,92.348Z" transform="translate(-686.652 -47.012)" fill="#ffcebf"/>
    <path id="Path_1282" data-name="Path 1282" d="M833.1,52.813c.241-.013.5-.013.737-.013C833.636,52.813,833.381,52.813,833.1,52.813Z" transform="translate(-799.314 -47.098)" fill="#ffaf82"/>
    <path id="Path_1283" data-name="Path 1283" d="M721.894,93.322a6.965,6.965,0,0,1-1.086.094H720.8a9,9,0,0,1-3.19-.5h0a12.137,12.137,0,0,1-1.944-.925c-4.892-2.734-11.34-7.372-11.34-13-1.045-9.222-1.635-10.629-.335-14.851h0a15.684,15.684,0,0,1,14.4-11.407c.5-.013.938-.013,1.354,0,.335.013.643.013.911.013a15.252,15.252,0,0,0-11.8,6.89c-.161,1.675.362,3.632-1.126,6.219L706,70.133l1.032,8.86c0,5.965,7.251,10.83,12.023,13.377A8.984,8.984,0,0,0,721.894,93.322Z" transform="translate(-686.861 -47.033)" fill="#ffb09e"/>
    <g id="Group_549" data-name="Group 549" transform="translate(18.877 51.221)">
      <g id="Group_548" data-name="Group 548" transform="translate(0 0)">
        <path id="Path_1284" data-name="Path 1284" d="M726.029,404.5a.217.217,0,0,0-.174-.349c-3.3-.094-4.048.228-3.981-.255l.724-11.3h0c.04-.013.094-.013.134-.027l.188-.04a.249.249,0,0,0,.094-.027c.027-.013.067-.013.094-.027l.188-.04a.57.57,0,0,1,.147-.027c.027,0,.067-.013.094-.013h.2c.71,2.426,2.533,8.779,2.547,8.846.08.241.121.389.147.483.214.67.684,2.466,1.622,5.455h-3.847Z" transform="translate(-721.87 -392.4)" fill="#1368bc"/>
      </g>
    </g>
    <path id="Path_1285" data-name="Path 1285" d="M700.337,66.494c-3.445,2.332-3.565,3-3.512,6.246a8.145,8.145,0,0,1-1.1,4.249l-1.809,4.49a.5.5,0,0,1-.9.04A11.29,11.29,0,0,1,692,77.244C692.013,61.133,700.123,66.36,700.337,66.494Z" transform="translate(-677.127 -58.166)" fill="#855151"/>
    <path id="Path_1286" data-name="Path 1286" d="M699.856,72.779a8.146,8.146,0,0,1-1.1,4.249l-1.81,4.49a.5.5,0,0,1-.9.04,8.891,8.891,0,0,1-.55-1.434l1.247-3.1a8.309,8.309,0,0,0,1.1-4.249c-.054-3.244.067-3.914,3.5-6.233a6.477,6.477,0,0,0-1.97-.8,5.562,5.562,0,0,1,3.968.8C699.923,68.865,699.8,69.536,699.856,72.779Z" transform="translate(-680.157 -58.204)" fill="#ae6c6c"/>
    <path id="Path_1287" data-name="Path 1287" d="M701.877,29.34a15.061,15.061,0,0,1-.684,4.316.479.479,0,0,1-.911-.027c-2.332-8.123-2.225-9.986-5.388-11.206-15.28-5.857-23.135,10.026-35.252-10.093a.948.948,0,0,1,.911-1.394,22.519,22.519,0,0,0,2.6.67c8.364,1.7,14.677-1.622,21.674-1.327C705.08,11.151,701.863,22.49,701.877,29.34Z" transform="translate(-649.003 -10.261)" fill="#855151"/>
    <g id="Group_551" data-name="Group 551" transform="translate(10.52 0.673)">
      <g id="Group_550" data-name="Group 550" transform="translate(0 0)">
        <path id="Path_1288" data-name="Path 1288" d="M675.793,27.105c-5.281.657-10.2-.55-16.152-10.428a.948.948,0,0,1,.911-1.394,22.519,22.519,0,0,0,2.6.67C665.646,19.3,670.579,25.122,675.793,27.105Z" transform="translate(-659.524 -15.281)" fill="#ae6c6c"/>
        <path id="Path_1289" data-name="Path 1289" d="M879.2,89.154c-1.448-5.321-1.783-6.823-4.463-7.855a20.291,20.291,0,0,0-7.533-1.381h0C867.2,79.905,880.6,72.453,879.2,89.154Z" transform="translate(-839.363 -69.809)" fill="#ae6c6c"/>
      </g>
    </g>
    <path id="Path_1290" data-name="Path 1290" d="M582.774,425.763c-.442.536-1.046,3.512-1.729,7.895a.7.7,0,0,0,.7.8h2.171c.818-5.844,1.528-9.785,2.064-10.509.013-.013.027-.04.04-.054A8.956,8.956,0,0,0,582.774,425.763Z" transform="translate(-581.036 -368.457)" fill="#1368bc"/>
    <path id="Path_1291" data-name="Path 1291" d="M815.06,428.747H809.9c.134-3.378.308-7.171.5-11.447h4.37Z" transform="translate(-779.223 -362.741)" fill="#20b69e"/>
    <path id="Path_1292" data-name="Path 1292" d="M811.9,417.3c-.188,4.276-.349,8.069-.5,11.447H809.8c.134-3.378.308-7.171.5-11.447Z" transform="translate(-779.137 -362.741)" fill="#1da389"/>
    <path id="Path_1293" data-name="Path 1293" d="M807.328,380.749l-1.877,2.024h-4.075l-1.877-2.024,1.957-4.249h3.914Z" transform="translate(-770.217 -327.41)" fill="#1da389"/>
    <path id="Path_1294" data-name="Path 1294" d="M744.884,371.7c-.214,1.26-1.113,6.474-1.528,8.873a.753.753,0,0,1-1.206.469c-2.426-1.836-8.431-6.474-8.27-6.983.067-.161,1.059-2.855,2.064-2.855h8.619A.439.439,0,0,1,744.884,371.7Z" transform="translate(-713.39 -322.82)" fill="#e2edeb"/>
    <path id="Path_1295" data-name="Path 1295" d="M891.012,404.155a.219.219,0,0,0-.174.349l1.81,2.681H888.8c.938-2.989,1.407-4.785,1.622-5.455.027-.094.08-.241.147-.483.027-.054,1.729-5.992,2.547-8.846h.483a.19.19,0,0,1,.08.027.049.049,0,0,1,.04.013c.027.013.067.013.094.027a.4.4,0,0,0,.134.027c.161.04.348.08.549.134l.483,11.273C895.06,404.383,894.309,404.061,891.012,404.155Z" transform="translate(-847.548 -341.179)" fill="#1368bc"/>
    <path id="Path_1296" data-name="Path 1296" d="M845.017,380.938a.75.75,0,0,1-1.206-.415c-.55-2.346-1.756-7.52-2.078-8.927a.41.41,0,0,1,.335-.5h8.565c1.005,0,2,2.681,2.064,2.855C852.858,374.478,847.282,379.089,845.017,380.938Z" transform="translate(-806.781 -322.734)" fill="#e2edeb"/>
    <path id="Path_1297" data-name="Path 1297" d="M741.458,136.382a1.033,1.033,0,1,0,.8-1.9,8.369,8.369,0,0,0-7.024.054,1.045,1.045,0,0,0,.5,1.957.952.952,0,0,0,.5-.134A6.255,6.255,0,0,1,741.458,136.382Z" transform="translate(-714.105 -117.196)" fill="#855151"/>
    <path id="Path_1298" data-name="Path 1298" d="M868.717,136.242a6.325,6.325,0,0,1,5.228.04,1.029,1.029,0,0,0,1.354-.55,1.04,1.04,0,0,0-.55-1.354,8.37,8.37,0,0,0-7.024.054,1.053,1.053,0,0,0-.415,1.407A1.037,1.037,0,0,0,868.717,136.242Z" transform="translate(-828.832 -117.11)" fill="#855151"/>
    <path id="Path_1299" data-name="Path 1299" d="M825.051,210.415h1.461a.684.684,0,0,0,0-1.367h-1.461a.686.686,0,0,1-.684-.684v-5.281a.684.684,0,1,0-1.367,0v5.281A2.051,2.051,0,0,0,825.051,210.415Z" transform="translate(-790.568 -176.646)" fill="#ffb09e"/>
    <path id="Path_1300" data-name="Path 1300" d="M784.831,285.234a1.024,1.024,0,0,0-.027,1.461,8.733,8.733,0,0,0,6.018,2.4,11.091,11.091,0,0,0,6.434-2.265,1.038,1.038,0,1,0-1.206-1.689c-5.777,4.088-9.611.295-9.771.121A1.031,1.031,0,0,0,784.831,285.234Z" transform="translate(-757.238 -248.127)" fill="#ffb09e"/>
    <circle id="Ellipse_105" data-name="Ellipse 105" cx="1.608" cy="1.608" r="1.608" transform="translate(23.023 23.623)" fill="#855151"/>
    <circle id="Ellipse_106" data-name="Ellipse 106" cx="1.608" cy="1.608" r="1.608" transform="translate(40.783 23.623)" fill="#855151"/>
    <g id="Group_552" data-name="Group 552" transform="translate(50.353 59.25)">
      <path id="Path_1301" data-name="Path 1301" d="M964.769,457.635h-7.238a.835.835,0,0,1-.831-.831v-3.673a.835.835,0,0,1,.831-.831h7.238a.835.835,0,0,1,.831.831V456.8A.835.835,0,0,1,964.769,457.635Z" transform="translate(-956.7 -452.3)" fill="#ffedc4"/>
      <rect id="Rectangle_1684" data-name="Rectangle 1684" width="5.429" height="0.496" transform="translate(0.643 1.984)" fill="#d1b57d"/>
      <rect id="Rectangle_1685" data-name="Rectangle 1685" width="4.222" height="0.496" transform="translate(0.643 3.163)" fill="#d1b57d"/>
      <path id="Path_1302" data-name="Path 1302" d="M1006.623,466.986h-1.662a.155.155,0,0,1-.161-.161v-2.064a.155.155,0,0,1,.161-.161h1.662a.155.155,0,0,1,.161.161v2.064A.163.163,0,0,1,1006.623,466.986Z" transform="translate(-998.353 -462.951)" fill="#d1b57d"/>
    </g>
  </g>
</svg>
