<svg id="pakistani_men_with_house" data-name="pakistani men with house" xmlns="http://www.w3.org/2000/svg" width="392.646" height="230.036" viewBox="0 0 392.646 230.036">
  <ellipse id="Ellipse_34" data-name="Ellipse 34" cx="31.052" cy="4.368" rx="31.052" ry="4.368" transform="translate(330.542 221.301)" fill="#dbedff" opacity="0.42"/>
  <ellipse id="Ellipse_35" data-name="Ellipse 35" cx="31.052" cy="4.368" rx="31.052" ry="4.368" transform="translate(0.877 221.301)" fill="#dbedff" opacity="0.42"/>
  <path id="Path_251" data-name="Path 251" d="M308.43,158.381c-16.88.96-76.694,42.131-112.807,77.8-.593.586-26.634-12.305-27.359-11.581-28.087,28.056-21.634,65.986-21.634,65.986H426.142l9.374.674s95.222-8.5,27.532-37.832c-32.553-14.107-47.839-44.364-73.157-62.354-.166-.118-15.321,10.23-15.7,9.959C341.524,177.759,317.613,157.858,308.43,158.381Z" transform="translate(-114.704 -116.464)" fill="#dbedff"/>
  <rect id="Rectangle_1144" data-name="Rectangle 1144" width="117.942" height="55.181" transform="translate(183.61 119.082)" fill="#fafafa"/>
  <path id="Path_252" data-name="Path 252" d="M730.971,418.822h-9.433a.337.337,0,0,1-.338-.338v-3.047a.337.337,0,0,1,.338-.338h9.433a.337.337,0,0,1,.338.338v3.047A.337.337,0,0,1,730.971,418.822Z" transform="translate(-478.382 -287.854)" fill="#ddebe8"/>
  <path id="Path_253" data-name="Path 253" d="M851.461,418.822h-9.433a.337.337,0,0,1-.338-.338v-3.047a.337.337,0,0,1,.338-.338h9.433a.337.337,0,0,1,.338.338v3.047A.337.337,0,0,1,851.461,418.822Z" transform="translate(-554.647 -287.854)" fill="#ddebe8"/>
  <path id="Path_254" data-name="Path 254" d="M717.191,431.652h-9.433a.337.337,0,0,1-.338-.338v-3.046a.337.337,0,0,1,.338-.338h9.433a.337.337,0,0,1,.338.338v3.046A.334.334,0,0,1,717.191,431.652Z" transform="translate(-469.66 -295.975)" fill="#ddebe8"/>
  <rect id="Rectangle_1145" data-name="Rectangle 1145" width="117.942" height="2.606" transform="translate(183.61 119.082)" fill="#ddebe8"/>
  <rect id="Rectangle_1146" data-name="Rectangle 1146" width="49.415" height="55.181" transform="translate(183.61 119.082)" fill="#ddebe8"/>
  <path id="Path_255" data-name="Path 255" d="M559.89,311.09h93.262L684.325,341.1H559.89Z" transform="translate(-376.28 -222.021)" fill="#20b69e"/>
  <path id="Path_256" data-name="Path 256" d="M458.354,313.808H383.04V201.569l35.541-20.5,39.773,20.5Z" transform="translate(-264.342 -139.724)" fill="#fafafa"/>
  <path id="Path_257" data-name="Path 257" d="M454.528,370.9H442.985a.417.417,0,0,1-.415-.415v-3.729a.417.417,0,0,1,.415-.415h11.544a.417.417,0,0,1,.415.415v3.729A.414.414,0,0,1,454.528,370.9Z" transform="translate(-302.021 -256.992)" fill="#ddebe8"/>
  <path id="Path_258" data-name="Path 258" d="M401.948,364.689H390.4a.417.417,0,0,1-.415-.415v-3.729a.417.417,0,0,1,.415-.415h11.544a.417.417,0,0,1,.415.415v3.729A.417.417,0,0,1,401.948,364.689Z" transform="translate(-268.741 -253.061)" fill="#ddebe8"/>
  <path id="Path_259" data-name="Path 259" d="M437.678,386.589H426.135a.417.417,0,0,1-.415-.415v-3.729a.417.417,0,0,1,.415-.415h11.544a.417.417,0,0,1,.415.415v3.729A.414.414,0,0,1,437.678,386.589Z" transform="translate(-291.356 -266.923)" fill="#ddebe8"/>
  <path id="Path_260" data-name="Path 260" d="M384.3,202.085v5.957L419.911,187.5l39.7,20.466v-5.847L419.808,181.6Z" transform="translate(-265.139 -140.059)" fill="#ddebe8"/>
  <rect id="Rectangle_1147" data-name="Rectangle 1147" width="48.219" height="3.946" transform="translate(132.709 159.197)" fill="#ddebe8"/>
  <rect id="Rectangle_1148" data-name="Rectangle 1148" width="42.281" height="33.813" transform="translate(135.955 124.654)" fill="#297ce0"/>
  <rect id="Rectangle_1149" data-name="Rectangle 1149" width="41.186" height="33.375" transform="translate(136.489 125.355)" fill="#fafafa"/>
  <path id="Path_261" data-name="Path 261" d="M448.187,437.79c2.562,1.923,5.186,3.759,7.847,5.535h6.677c-1.395-1.215-2.789-2.43-4.162-3.667-5.106-4.588-10.09-9.5-13.713-15.379-.389-.631-1.615-1.9-1-2.716.455-.606,1.626-.316,2.206-.242a18.39,18.39,0,0,1,7.774,3.274c5.553,3.74,10.138,8.633,15.823,12.234q1.509.958,3.065,1.843v-10.63l-.206-.14c-6.618-4.383-13.507-8.328-20.18-12.623-2.646-1.7-5.234-3.5-7.792-5.329h-13v12.979A119.932,119.932,0,0,0,448.187,437.79Z" transform="translate(-295.027 -284.595)" fill="#bcdaff" opacity="0.24"/>
  <rect id="Rectangle_1150" data-name="Rectangle 1150" width="1.013" height="35.141" transform="translate(149.203 124.794)" fill="#297ce0"/>
  <rect id="Rectangle_1151" data-name="Rectangle 1151" width="1.013" height="35.141" transform="translate(163.948 124.794)" fill="#297ce0"/>
  <rect id="Rectangle_1152" data-name="Rectangle 1152" width="0.885" height="42.28" transform="translate(178.236 134.435) rotate(90)" fill="#297ce0"/>
  <rect id="Rectangle_1153" data-name="Rectangle 1153" width="0.885" height="42.28" transform="translate(178.235 148.224) rotate(90)" fill="#297ce0"/>
  <rect id="Rectangle_1154" data-name="Rectangle 1154" width="48.219" height="3.946" transform="translate(132.709 157.963)" fill="#297ce0"/>
  <rect id="Rectangle_1155" data-name="Rectangle 1155" width="43.484" height="35.783" transform="translate(135.34 62.657)" fill="#297ce0"/>
  <rect id="Rectangle_1156" data-name="Rectangle 1156" width="48.219" height="3.946" transform="translate(132.709 97.467)" fill="#ddebe8"/>
  <rect id="Rectangle_1157" data-name="Rectangle 1157" width="41.186" height="33.375" transform="translate(136.489 63.861)" fill="#fafafa"/>
  <path id="Path_262" data-name="Path 262" d="M449.3,259.32a.39.39,0,0,1,.565-.433c6.445,3.01,11.547,8.486,17.06,12.847a54.187,54.187,0,0,0,5.748,4.052h.033v-12q-2.224-1.553-4.478-3.046c-7.436-4.94-14.729-10.086-21.935-15.357q-2.026-1.481-4.049-2.973H431.52v13.577c1.806,1.923,3.63,3.832,5.432,5.763a107.857,107.857,0,0,1,11.588,14.036h8.13C453.289,270.716,450.463,265.358,449.3,259.32Z" transform="translate(-295.027 -178.549)" fill="#bcdaff" opacity="0.24"/>
  <rect id="Rectangle_1158" data-name="Rectangle 1158" width="1.013" height="35.141" transform="translate(149.203 63.295)" fill="#297ce0"/>
  <rect id="Rectangle_1159" data-name="Rectangle 1159" width="1.013" height="35.141" transform="translate(163.948 63.295)" fill="#297ce0"/>
  <rect id="Rectangle_1160" data-name="Rectangle 1160" width="0.885" height="42.28" transform="translate(178.235 72.94) rotate(90)" fill="#297ce0"/>
  <rect id="Rectangle_1161" data-name="Rectangle 1161" width="0.885" height="42.28" transform="translate(178.234 86.728) rotate(90)" fill="#297ce0"/>
  <rect id="Rectangle_1162" data-name="Rectangle 1162" width="48.219" height="3.946" transform="translate(132.709 96.465)" fill="#297ce0"/>
  <path id="Path_263" data-name="Path 263" d="M549.3,284.557v86.89h14.751v-99.6Z" transform="translate(-369.577 -197.184)" fill="#ddebe8"/>
  <path id="Path_264" data-name="Path 264" d="M603.274,364.048H554.2V280.663l24.537-20.5,24.537,20.5Z" transform="translate(-372.678 -189.784)" fill="#fafafa"/>
  <path id="Path_265" data-name="Path 265" d="M576.5,470.912h-9.433a.337.337,0,0,1-.338-.338v-3.047a.337.337,0,0,1,.338-.338H576.5a.337.337,0,0,1,.338.338v3.047A.334.334,0,0,1,576.5,470.912Z" transform="translate(-380.609 -320.825)" fill="#ddebe8"/>
  <path id="Path_266" data-name="Path 266" d="M576.5,360.542h-9.433a.337.337,0,0,1-.338-.338v-3.046a.337.337,0,0,1,.338-.338H576.5a.337.337,0,0,1,.338.338V360.2A.334.334,0,0,1,576.5,360.542Z" transform="translate(-380.609 -250.966)" fill="#ddebe8"/>
  <path id="Path_267" data-name="Path 267" d="M594.091,379.052h-9.433a.337.337,0,0,1-.338-.338v-3.047a.337.337,0,0,1,.338-.338h9.433a.337.337,0,0,1,.338.338v3.047A.337.337,0,0,1,594.091,379.052Z" transform="translate(-391.743 -262.682)" fill="#ddebe8"/>
  <path id="Path_268" data-name="Path 268" d="M677.229,384.48H671.91a.869.869,0,0,0-.87.87v2.819a.869.869,0,0,0,.87.87h5.319Z" transform="translate(-446.633 -268.473)" fill="#ddebe8"/>
  <path id="Path_269" data-name="Path 269" d="M576.527,259.986,554.2,278.643v6.772l24.537-20.5,24.537,20.5v-6.772l-24.537-20.5Z" transform="translate(-372.678 -188.506)" fill="#ddebe8"/>
  <ellipse id="Ellipse_36" data-name="Ellipse 36" cx="13.195" cy="13.195" rx="13.195" ry="13.195" transform="translate(192.863 91.896)" fill="#ddebe8"/>
  <ellipse id="Ellipse_37" data-name="Ellipse 37" cx="13.195" cy="13.195" rx="13.195" ry="13.195" transform="translate(192.863 90.879)" fill="#297ce0"/>
  <ellipse id="Ellipse_38" data-name="Ellipse 38" cx="10.989" cy="10.989" rx="10.989" ry="10.989" transform="translate(195.069 93.085)" fill="#fafafa"/>
  <path id="Path_270" data-name="Path 270" d="M611.62,344.17a11.027,11.027,0,0,0,3.8-3.755,87.763,87.763,0,0,1-7.286-6.379,38.853,38.853,0,0,1-6.632-9.316,11,11,0,0,0-4.177,3.322C600.594,334.645,605.435,340.624,611.62,344.17Z" transform="translate(-399.971 -230.648)" fill="#bcdaff" opacity="0.24"/>
  <path id="Path_271" data-name="Path 271" d="M620.976,326.757a33.955,33.955,0,0,0,8.17,5.8,11.01,11.01,0,0,0-.455-2.734c-.264-.176-.532-.349-.789-.529a31.654,31.654,0,0,1-6.941-6.882,11,11,0,0,0-2.775-.367,10.818,10.818,0,0,0-1.666.14C617.944,323.78,619.438,325.307,620.976,326.757Z" transform="translate(-412.124 -228.952)" fill="#bcdaff" opacity="0.24"/>
  <rect id="Rectangle_1163" data-name="Rectangle 1163" width="1.142" height="24.438" transform="translate(205.486 91.899)" fill="#297ce0"/>
  <rect id="Rectangle_1164" data-name="Rectangle 1164" width="1.142" height="24.438" transform="translate(218.275 103.545) rotate(90)" fill="#297ce0"/>
  <g id="Group_113" data-name="Group 113" transform="translate(110.022 38.564)">
    <path id="Path_272" data-name="Path 272" d="M362,203.723l-2.6-4.5,44.611-25.733L451.95,198.2l-2.382,4.621L404.15,179.407Z" transform="translate(-359.4 -173.49)" fill="#297ce0"/>
  </g>
  <g id="Group_114" data-name="Group 114" transform="translate(174.357 66.992)">
    <path id="Path_273" data-name="Path 273" d="M594.75,281.416l-28.369-23.7-28.372,23.7-3.329-3.986,31.7-26.49,31.7,26.49Z" transform="translate(-534.68 -250.94)" fill="#297ce0"/>
  </g>
  <rect id="Rectangle_1165" data-name="Rectangle 1165" width="51.845" height="35.64" transform="translate(240.252 138.624)" fill="#20b69e"/>
  <rect id="Rectangle_1166" data-name="Rectangle 1166" width="48.762" height="34.194" transform="translate(241.794 140.07)" fill="#297ce0"/>
  <g id="Group_115" data-name="Group 115" transform="translate(241.794 142.902)" opacity="0.3">
    <path id="Path_274" data-name="Path 274" d="M718.41,457.882c15.618-.169,33.141-.169,48.762,0-15.618.169-33.144.169-48.762,0Z" transform="translate(-718.41 -457.755)" fill="#b43147"/>
  </g>
  <g id="Group_116" data-name="Group 116" transform="translate(241.794 147.31)" opacity="0.3">
    <path id="Path_275" data-name="Path 275" d="M718.41,469.892c15.618-.169,33.141-.169,48.762,0-15.618.169-33.144.165-48.762,0Z" transform="translate(-718.41 -469.765)" fill="#b43147"/>
  </g>
  <g id="Group_117" data-name="Group 117" transform="translate(241.794 151.715)" opacity="0.3">
    <path id="Path_276" data-name="Path 276" d="M718.41,481.892c15.618-.169,33.141-.169,48.762,0-15.618.169-33.144.169-48.762,0Z" transform="translate(-718.41 -481.765)" fill="#b43147"/>
  </g>
  <g id="Group_118" data-name="Group 118" transform="translate(241.794 156.123)" opacity="0.3">
    <path id="Path_277" data-name="Path 277" d="M718.41,493.9c15.618-.169,33.141-.169,48.762,0-15.618.169-33.144.169-48.762,0Z" transform="translate(-718.41 -493.775)" fill="#b43147"/>
  </g>
  <g id="Group_119" data-name="Group 119" transform="translate(241.794 160.531)" opacity="0.3">
    <path id="Path_278" data-name="Path 278" d="M718.41,505.912c15.618-.169,33.141-.169,48.762,0-15.618.169-33.144.165-48.762,0Z" transform="translate(-718.41 -505.785)" fill="#b43147"/>
  </g>
  <g id="Group_120" data-name="Group 120" transform="translate(241.794 164.935)" opacity="0.3">
    <path id="Path_279" data-name="Path 279" d="M718.41,517.912c15.618-.169,33.141-.169,48.762,0-15.618.169-33.144.169-48.762,0Z" transform="translate(-718.41 -517.785)" fill="#b43147"/>
  </g>
  <g id="Group_121" data-name="Group 121" transform="translate(241.794 169.344)" opacity="0.3">
    <path id="Path_280" data-name="Path 280" d="M718.41,529.922c15.618-.169,33.141-.169,48.762,0-15.618.169-33.144.165-48.762,0Z" transform="translate(-718.41 -529.795)" fill="#b43147"/>
  </g>
  <path id="Path_281" data-name="Path 281" d="M606.857,415.09h-13.17a6,6,0,0,0-6,6V460.71h25.168V421.091A6,6,0,0,0,606.857,415.09Z" transform="translate(-393.876 -287.848)" fill="#297ce0"/>
  <path id="Path_282" data-name="Path 282" d="M608.421,419.34h-11.8a5.378,5.378,0,0,0-5.377,5.377V463.4h22.555V424.717A5.374,5.374,0,0,0,608.421,419.34Z" transform="translate(-396.123 -290.538)" fill="#20b69e"/>
  <path id="Path_283" data-name="Path 283" d="M615.62,432.418a8.775,8.775,0,0,0-8.765-8.4h0a8.781,8.781,0,0,0-8.765,8.4Z" transform="translate(-400.459 -293.5)" fill="#fafafa"/>
  <path id="Path_284" data-name="Path 284" d="M616.636,432.99a7.251,7.251,0,0,0-7.363-6.79h0a7.253,7.253,0,0,0-7.363,6.79Z" transform="translate(-402.877 -294.88)" fill="#297ce0"/>
  <rect id="Rectangle_1167" data-name="Rectangle 1167" width="0.892" height="7.756" transform="translate(205.949 130.839)" fill="#fafafa"/>
  <rect id="Rectangle_1168" data-name="Rectangle 1168" width="0.892" height="7.756" transform="translate(200.483 133.432) rotate(-45)" fill="#fafafa"/>
  <rect id="Rectangle_1169" data-name="Rectangle 1169" width="0.892" height="7.756" transform="translate(206.69 138.919) rotate(-135)" fill="#fafafa"/>
  <ellipse id="Ellipse_39" data-name="Ellipse 39" cx="1.108" cy="1.108" rx="1.108" ry="1.108" transform="translate(213.223 152.414)" fill="#fafafa"/>
  <rect id="Rectangle_1170" data-name="Rectangle 1170" width="38.734" height="2.797" transform="translate(187.101 171.467)" fill="#297ce0"/>
  <g id="Group_122" data-name="Group 122" transform="translate(292.255 100.554)">
    <path id="Path_285" data-name="Path 285" d="M883.821,376.533a7.834,7.834,0,0,0-2.287-2.133,10.56,10.56,0,0,0,1.369-5.315c0-3.872-1.9-7.146-4.515-8.2a22.586,22.586,0,0,0,.532-4.915c0-7.506-3.52-13.592-7.858-13.592s-7.858,6.086-7.858,13.592q0,.595.033,1.178c-3.289,1.582-5.641,5.818-5.641,10.795a14.844,14.844,0,0,0,.844,4.988,7.436,7.436,0,0,0-1.828,2.323c-2.213,4.445.822,10.024,6.783,12.465.1.04.206.081.308.117.051.081.1.161.158.242,2.9,4.111,9.712,4.856,15.225,1.666S886.717,380.644,883.821,376.533Z" transform="translate(-855.889 -342.38)" fill="#24a88e"/>
    <path id="Path_286" data-name="Path 286" d="M894.148,368.9s-1.96,39.428-.114,57.255" transform="translate(-879.532 -359.166)" fill="none" stroke="#fafafa" stroke-width="1"/>
    <path id="Path_287" data-name="Path 287" d="M893.58,449.881a22.443,22.443,0,0,1,7.88-6.621" transform="translate(-879.746 -406.233)" fill="none" stroke="#fafafa" stroke-width="1"/>
    <path id="Path_288" data-name="Path 288" d="M893.58,411.629a19.973,19.973,0,0,1,3.938-4.059" transform="translate(-879.746 -383.642)" fill="none" stroke="#fafafa" stroke-width="1"/>
    <path id="Path_289" data-name="Path 289" d="M883.616,421.933s-2.933-4.665-5.586-6.783" transform="translate(-869.903 -388.44)" fill="none" stroke="#fafafa" stroke-width="1"/>
  </g>
  <path id="Path_290" data-name="Path 290" d="M890.211,525.756c-.308-2.232-1.843-3.931-3.692-3.931a3.136,3.136,0,0,0-1.681.507c-1.2-3.744-4.093-6.39-7.48-6.39a6.782,6.782,0,0,0-4,1.354,4.821,4.821,0,0,0-3.538-1.655c-2.83,0-5.157,2.731-5.429,6.225a2.882,2.882,0,0,0-.473-.044c-1.85,0-3.384,1.7-3.693,3.931h29.991Z" transform="translate(-566.375 -351.492)" fill="#24a88e"/>
  <path id="Path_291" data-name="Path 291" d="M233.278,516.808c-.455-3.3-2.72-5.8-5.451-5.8a4.6,4.6,0,0,0-2.478.749c-1.769-5.528-6.042-9.429-11.037-9.429a10.006,10.006,0,0,0-5.913,2,7.116,7.116,0,0,0-5.219-2.445c-4.177,0-7.609,4.03-8.009,9.187a4.44,4.44,0,0,0-.7-.062c-2.731,0-5,2.507-5.451,5.8Z" transform="translate(-141.535 -342.782)" fill="#20b69e"/>
  <ellipse id="Ellipse_40" data-name="Ellipse 40" cx="8.765" cy="8.765" rx="8.765" ry="8.765" transform="translate(237.063 24.249)" fill="#ffedc4"/>
  <path id="Path_292" data-name="Path 292" d="M329.547,96.376H218.05s43.26-2.742,45.392-4.874c0,0,2.133-9.1,10.053-3.733,0,0-2.133-8.758,5.484-11.195,6.387-2.044,10.358,3.351,10.358,3.351s.914-13.4,12.8-11.272S309.139,82.4,309.139,82.4s6.4-3.083,9.929,1.487c3.48,4.5,0,9.862,0,9.862Z" transform="translate(-159.91 -68.424)" fill="#bcdaff" opacity="0.24"/>
  <path id="Path_293" data-name="Path 293" d="M818.1,219.015s-1.439-6.133-6.776-2.514c0,0,1.439-5.9-3.7-7.546a6.493,6.493,0,0,0-6.981,2.257s-.617-9.033-8.622-7.6-4.724,9.264-4.724,9.264-4.313-2.077-6.691,1c-2.345,3.035,0,6.647,0,6.647L773.54,222.3" transform="translate(-511.511 -153.895)" fill="#bcdaff" opacity="0.24"/>
  <g id="Group_123" data-name="Group 123" transform="translate(67.731 176.084)">
    <rect id="Rectangle_1171" data-name="Rectangle 1171" width="4.65" height="11.885" transform="translate(0 0)" fill="#20b69e"/>
    <rect id="Rectangle_1172" data-name="Rectangle 1172" width="4.65" height="11.885" transform="translate(47.8 0)" fill="#20b69e"/>
  </g>
  <path id="Path_294" data-name="Path 294" d="M261.426,430.33l-16.759,7.011v-3.48h-7.686v6.695l-6.361,2.661v34.561h61.612V443.217Z" transform="translate(-167.866 -297.494)" fill="#297ce0" stroke="#fff" stroke-width="3"/>
  <g id="Group" transform="translate(73.345 143.121)">
    <text id="FOR_" data-name="FOR " transform="translate(10.048 8)" fill="#f3fbff" font-size="8" font-family="Montserrat" font-weight="800"><tspan x="0" y="0">FOR </tspan></text>
    <text id="SALE" transform="translate(0 21.149)" fill="#ffedc4" font-size="13" font-family="Montserrat" font-weight="800"><tspan x="0" y="0">SALE</tspan></text>
  </g>
  <g id="Group_124" data-name="Group 124" transform="translate(43.491 187.305)">
    <path id="Path_295" data-name="Path 295" d="M178.14,579.358c32.557-.84,65.9-.833,98.456,0-24.3.176-74.165.176-98.456,0Z" transform="translate(-178.14 -578.73)" fill="#297ce0"/>
  </g>
  <g id="Group_125" data-name="Group 125" transform="translate(71.963 173.438)">
    <path id="Path_296" data-name="Path 296" d="M255.71,541.56c70.329-.672,144.37-.716,214.647-.477,17.787.059,53.754.3,71.548.477.158.143-286.346.143-286.2,0Z" transform="translate(-255.71 -540.951)" fill="#297ce0"/>
  </g>
  <g id="Group_126" data-name="Group 126" transform="translate(74.121 166.56)">
    <text id="By_Owner" data-name="By Owner" transform="translate(0 6)" fill="#f3fbff" font-size="6" font-family="Montserrat" font-weight="800"><tspan x="0" y="0">By Owner</tspan></text>
  </g>
  <g id="Group_143" data-name="Group 143" transform="translate(0 41.907)">
    <g id="Group_142" data-name="Group 142">
      <path id="Path_297" data-name="Path 297" d="M98.98,199.332c-7.029,2.294.631,21.366,5.73,20.742C109.859,219.442,111.125,195.8,98.98,199.332Z" transform="translate(-82.753 -192.963)" fill="#332521"/>
      <path id="Path_298" data-name="Path 298" d="M122.065,201.824s-.015.073,1.454-6.243c0,0,5.638-2.144.881-9.308-1.119,3.979-4.764-3.762-14.373-3.674-4.75.044-10.244,3.491-8.728,6.783C103.753,194.715,122.065,201.824,122.065,201.824Z" transform="translate(-85.849 -182.598)" fill="#332521"/>
      <path id="Path_299" data-name="Path 299" d="M67.97,378.443s3.861-74.881,6.042-94.235c0,0,4.434-4.107,16.157-3.839,8.659.2,13.841,3.2,13.841,3.2,2.9,7.884,1.006,17.042.558,28.673-.3,7.752,2.239,65.782,2.239,65.782S92.066,386.18,67.97,378.443Z" transform="translate(-64.916 -244.474)" fill="#c6a081"/>
      <g id="Group_127" data-name="Group 127" transform="translate(55.61 86.832)">
        <g id="wrist_left_16_">
          <path id="Path_300" data-name="Path 300" d="M214.72,419.247a5.309,5.309,0,0,1,1.9.015c.837.158,1.868.547,2.914.793a4.468,4.468,0,0,1,1.1.294c.062.136-.323.58-1.263.429a12.182,12.182,0,0,0-2.048-.106Z" transform="translate(-213.413 -419.169)" fill="#ed9558"/>
          <path id="Path_301" data-name="Path 301" d="M211.2,421.129a13.06,13.06,0,0,0,3.127,2.834c1.079.7,2.1,1.167,2.375.818.125-.158-.261-.385-.485-.5-.25-.125-.507-.235-.437-.33s.521.084.73.195.763.437,1.042.147c.2-.206.059-.462-.521-.734,0,0-.613-.356-.532-.448s.261.066.47.18,1.068.752,1.4.4c.261-.272-.081-.558-.8-1,0,0-.58-.261-.492-.341.2-.268,1.442,1.09,1.832.65.2-.224.081-.481-.433-.782a23.3,23.3,0,0,1-2.353-1.428,5.671,5.671,0,0,0-3.652-1.431S210.9,419.87,211.2,421.129Z" transform="translate(-211.158 -419.29)" fill="#ed9558"/>
        </g>
      </g>
      <path id="Path_302" data-name="Path 302" d="M214.72,419.247a5.309,5.309,0,0,1,1.9.015,6.379,6.379,0,0,1,2.32.818,4.2,4.2,0,0,1,.969.595c.022.147-.474.462-1.332.051a4.867,4.867,0,0,0-2.085-.319Z" transform="translate(-157.802 -332.337)" fill="#ed9558"/>
      <path id="Path_303" data-name="Path 303" d="M108.8,671.278s-.106,2.118,2.94,3.384,3.256.984,3.124,1.832-8.633.422-8.633-.565a29.192,29.192,0,0,0,.4-4.654C106.494,669.021,108.8,671.278,108.8,671.278Z" transform="translate(-89.133 -491.275)" fill="#3a2716"/>
      <g id="Group_129" data-name="Group 129" transform="translate(32.259 179.819)">
        <g id="Group_128" data-name="Group 128">
          <path id="Path_304" data-name="Path 304" d="M150.152,673.375a8.21,8.21,0,0,0,3.762,2.933c2.665,1.1,4.408.852,4.188,1.589s-10.677.367-10.564-.488a25.5,25.5,0,0,0,.9-4.03C148.577,671.423,150.152,673.375,150.152,673.375Z" transform="translate(-147.537 -672.508)" fill="#3a2716"/>
        </g>
      </g>
      <path id="Path_305" data-name="Path 305" d="M211.411,417l.624.672-1.861,2.606-.844-.727Z" transform="translate(-154.391 -330.964)" fill="#e5c3da"/>
      <path id="Path_306" data-name="Path 306" d="M159.072,287.576c4.173-.646,5.054,6.093,7.179,15.849.771,3.538,2.21,10.215,2.21,10.215.617,4.753.4,8.5-1.953,9.606C157.615,327.408,151.075,288.817,159.072,287.576Z" transform="translate(-120.294 -249.018)" fill="#d3aa88"/>
      <path id="Path_307" data-name="Path 307" d="M176.882,358.65c1.843,7.359,9.114,21.435,9.114,21.435l-2.423,2.922s-11.98-7.844-14.843-19.215Z" transform="translate(-128.693 -294.031)" fill="#d3aa88"/>
      <path id="Path_308" data-name="Path 308" d="M88.2,398.3l29.687,4.522c.587,40.261-.653,36.536-.855,48.373-.106,6.1-4,48.7-4,48.7h-4.456s-4.661-25.987-4.118-31.059,1.057-17.644,1.057-17.644l-1.663-27.954s-4.371,31.874-5.92,76.657H92.86s-4.977-24.963-4.937-30.542S89.575,452.6,89.575,452.6l-3-45.3Z" transform="translate(-76.696 -319.128)" fill="#8c5e3c"/>
      <path id="Path_309" data-name="Path 309" d="M134.219,482.624c-.543,5.069,4.118,31.059,4.118,31.059h4.456s3.9-42.6,4-48.7c.176-10.3,1.013-37.387.91-44.9l-10.945.936v13.625l-3.149,2.386,1.663,27.954C135.28,464.98,134.763,477.555,134.219,482.624Z" transform="translate(-106.463 -332.914)" fill="#825230"/>
      <path id="Path_310" data-name="Path 310" d="M80.32,378.438s.257-75.6,2.437-94.951c0,0,5.443-3.391,17.167-3.124,8.659.2,13.841,3.2,13.841,3.2,2.9,7.884,1.006,17.042.558,28.673-.3,7.752,2.239,65.782,2.239,65.782S98.423,385.651,80.32,378.438Z" transform="translate(-72.733 -244.47)" fill="#e2bc9a"/>
      <path id="Path_311" data-name="Path 311" d="M83.615,334.323s-1.142-31.481,1.039-50.836c0,0,5.443-3.391,17.167-3.124,8.659.2,13.841,3.2,13.841,3.2,2.9,7.884,1.006,17.042.558,28.673-.3,7.752.5,22.078.5,22.078A44.007,44.007,0,0,1,83.615,334.323Z" transform="translate(-74.63 -244.47)" fill="#3a2716"/>
      <path id="Path_312" data-name="Path 312" d="M121.422,287.156,123.6,290.7l2.382-9.242a37.873,37.873,0,0,0-8.255-1.094,47.449,47.449,0,0,0-9.286.653l7.686,9.778,1.52-3.215,2.125,2.819Z" transform="translate(-90.532 -244.472)" fill="#3a2716"/>
      <path id="Path_313" data-name="Path 313" d="M115.4,234.12s2.676,11.595.418,17.765c3.6,1.321,10.593,3.109,11.764-.228,0,0-.576-1.909-.213-7.11Z" transform="translate(-94.937 -215.209)" fill="#e08344"/>
      <path id="Path_314" data-name="Path 314" d="M126.486,280.778s-.418,4.265-6.361,4.438-9.5-4.566-9.5-4.566A42.437,42.437,0,0,1,126.486,280.778Z" transform="translate(-91.918 -244.234)" fill="#ed9558"/>
      <path id="Path_315" data-name="Path 315" d="M112.694,239.987l2.022-1.347,8.816,1.116c-.184,2.643.433,12.065.532,13.184-1.134,1.3-3.718,3.59-8.78,5.352a13.251,13.251,0,0,1-5.065-3.836s.932-.191,2.514-.349C114.309,249.237,112.694,239.987,112.694,239.987Z" transform="translate(-91.659 -218.07)" fill="#d1652f"/>
      <path id="Path_316" data-name="Path 316" d="M135.663,286.5l-1.252,2.845L133.34,286.5l-1.23,2.933,2.331,2.151L137,289.429Z" transform="translate(-105.514 -248.363)" fill="#d3aa88"/>
      <path id="Path_317" data-name="Path 317" d="M119.191,217.449c.863,5.92,1.241,5.766,6.5,9.5,1.127.8,4.489.716,5.363.165s.885-1.446,2-3.505a15.251,15.251,0,0,0,1.909-6.008c.055-1.743-.165-2.914-.161-4.151.011-2.378.4-4.515.224-7.227-.173-2.676-3.425-4.305-7.458-4.122C118.325,202.518,118.479,206.383,119.191,217.449Z" transform="translate(-97.15 -194.93)" fill="#ffb476"/>
      <path id="Path_318" data-name="Path 318" d="M125.812,230.317c-7.234-4.335-6.875-20.312-4.067-22.687-5.766,1.244-4.544,6.691-3.421,14.572.683,4.287,1.376,5.469,6.706,8.659,1.142.683,4.364.352,5.157-.242a1.455,1.455,0,0,0,.3-.316C129.3,230.743,126.792,230.9,125.812,230.317Z" transform="translate(-96.191 -198.442)" fill="#ed9558"/>
      <path id="Path_319" data-name="Path 319" d="M146.149,223.33a4.982,4.982,0,0,0-.723,1.754c-.745,4.32,1.894,4.724,1.791,5.774-.15,1.534-2.217.984-2.217.984.275,1.046,2.5.793,2.628-.763.147-1.832-2.474-1.721-1.956-5.821A15.39,15.39,0,0,1,146.149,223.33Z" transform="translate(-113.673 -208.38)" fill="#ed9558"/>
      <path id="Path_320" data-name="Path 320" d="M117.59,200.728s-1.964,4.159,2.29,2.239c0,0,1.362-4.012,8.126-4.074,5.249-.051,5.858,3.568,5.858,3.568S131.607,190.62,117.59,200.728Z" transform="translate(-96.037 -191.489)" fill="#332521"/>
      <path id="Path_321" data-name="Path 321" d="M139.1,254.57c-.026.055-.217.037-.275.015a.1.1,0,0,1-.062-.139.122.122,0,0,1,.154-.059C138.977,254.408,139.127,254.515,139.1,254.57Z" transform="translate(-109.72 -228.032)" fill="#332521"/>
      <path id="Path_322" data-name="Path 322" d="M152.978,254.305c.037.048.217-.015.268-.051a.1.1,0,0,0,.026-.147.128.128,0,0,0-.165-.022C153.055,254.122,152.941,254.258,152.978,254.305Z" transform="translate(-118.718 -227.833)" fill="#332521"/>
      <path id="Path_323" data-name="Path 323" d="M139.31,254.636l5.139-.066a3.2,3.2,0,0,1-2.478,1.461A3.447,3.447,0,0,1,139.31,254.636Z" transform="translate(-110.071 -228.153)" fill="#332521"/>
      <path id="Path_324" data-name="Path 324" d="M140.34,254.989l4.162-.059a2.635,2.635,0,0,1-2.177,1.142A2.557,2.557,0,0,1,140.34,254.989Z" transform="translate(-110.723 -228.381)" fill="#f7eee2"/>
      <path id="Path_325" data-name="Path 325" d="M140.34,254.989l4.162-.059-.235.286a4.359,4.359,0,0,0-1.813-.184,8.7,8.7,0,0,0-1.912.206Z" transform="translate(-110.723 -228.381)" fill="#d5b698"/>
      <path id="Path_326" data-name="Path 326" d="M116.164,215.951l1.006,1.6,1.457.1s-1.09-7.62,2.7-10.923C121.328,206.735,114.578,204.709,116.164,215.951Z" transform="translate(-95.268 -197.785)" fill="#332521"/>
      <g id="Group_130" data-name="Group 130" transform="translate(17.632 18.071)">
        <path id="Path_327" data-name="Path 327" d="M112.519,234.422a2.379,2.379,0,0,1-2.558,2.232,2.455,2.455,0,0,1-2.268-2.584,2.377,2.377,0,0,1,2.558-2.232A2.451,2.451,0,0,1,112.519,234.422Z" transform="translate(-107.688 -231.832)" fill="#ed9558"/>
        <path id="Path_328" data-name="Path 328" d="M112.457,237.423a1.153,1.153,0,0,1-1-1.27,1.116,1.116,0,0,1,1.211-.984,1.358,1.358,0,0,0-.529-.187,1.32,1.32,0,0,0-1.483,1.164,1.361,1.361,0,0,0,1.186,1.5,1.309,1.309,0,0,0,.94-.25A.866.866,0,0,1,112.457,237.423Z" transform="translate(-109.56 -233.819)" fill="#d1652f"/>
      </g>
      <path id="Path_329" data-name="Path 329" d="M125.622,222.494c.264.433,1.391-.532,3.1-1.064s3.1-.316,2.973-1.046c-.143-.859-1.765-1.02-3.476-.481C126.008,220.6,125.318,221.995,125.622,222.494Z" transform="translate(-101.364 -206.013)" fill="#332521"/>
      <path id="Path_330" data-name="Path 330" d="M156,222.209c-.242.426-.9-.125-2.136-.617s-2.393-.518-2.224-1.233c.2-.841,1.362-.837,2.6-.338C155.83,220.667,156.285,221.717,156,222.209Z" transform="translate(-117.866 -206.069)" fill="#332521"/>
      <path id="Path_331" data-name="Path 331" d="M131.989,231c.929-1.079-.363-1.872-1.542-1.806a3.287,3.287,0,0,0-2.657,1.6l.239.139S131.805,231.249,131.989,231Z" transform="translate(-102.78 -212.088)" fill="#332521"/>
      <path id="Path_332" data-name="Path 332" d="M132.364,231.893c.114-.385-.323-1.362-1.52-1.395-1.222-.037-2.43.995-2.415,1.354C128.441,232.19,131.326,233.871,132.364,231.893Z" transform="translate(-103.184 -212.916)" fill="#f7eee2"/>
      <path id="Path_333" data-name="Path 333" d="M131.1,231.092a1.3,1.3,0,0,1,.723-1.16,2,2,0,0,1,.62-.132,1.572,1.572,0,0,1,.723.206c.055.037.11.073.161.114a1.463,1.463,0,0,1,.158.143,1.412,1.412,0,0,1,.363.929,1.312,1.312,0,0,1-.36.892,1.965,1.965,0,0,1-1.644.239A1.408,1.408,0,0,1,131.1,231.092Z" transform="translate(-104.875 -212.475)" fill="#332521"/>
      <path id="Path_334" data-name="Path 334" d="M154.365,230.951c.874-1.017-.334-1.769-1.45-1.707a2.618,2.618,0,0,0-2.265,1.523l.228.132S154.192,231.185,154.365,230.951Z" transform="translate(-117.249 -212.12)" fill="#332521"/>
      <path id="Path_335" data-name="Path 335" d="M154.715,231.734c.11-.363-.308-1.277-1.435-1.351a2.112,2.112,0,0,0-2.03,1.321C151.264,232.024,153.735,233.6,154.715,231.734Z" transform="translate(-117.628 -212.842)" fill="#f7eee2"/>
      <path id="Path_336" data-name="Path 336" d="M152.97,230.981a1.231,1.231,0,0,1,.338-.837,1.712,1.712,0,0,1,1.061-.349,1.458,1.458,0,0,1,.576.18,1.33,1.33,0,0,1,.617,1.1,1.23,1.23,0,0,1-.716,1.116,1.947,1.947,0,0,1-1.138-.022A1.355,1.355,0,0,1,152.97,230.981Z" transform="translate(-118.717 -212.47)" fill="#332521"/>
      <path id="Path_337" data-name="Path 337" d="M71.828,287.547c4.507.433,3.285,10.63,1.2,20.433-1.978,9.312-4.6,18.268-8.736,18.169C55.707,325.948,65.393,286.927,71.828,287.547Z" transform="translate(-60.445 -249.022)" fill="#e2bc9a"/>
      <path id="Path_338" data-name="Path 338" d="M65.69,451.835c-.58,1.989-.914,5.6-.518,5.994s.936-.1.936-.1.268.565.628.617c.382.055.624-.5.624-.5s.3.595.716.477a.815.815,0,0,0,.514-.58c.371.3,1.3.536.565-2.808-.367-1.677-1.017-3.032-.9-3.476C68.208,450.815,65.69,451.835,65.69,451.835Z" transform="translate(-63.036 -352.64)" fill="#ffb476"/>
      <path id="Path_339" data-name="Path 339" d="M141.77,279.221l2.665,6.119,1.857-7.719L144.211,275Z" transform="translate(-111.628 -241.084)" fill="#3a2716"/>
      <path id="Path_340" data-name="Path 340" d="M119.472,277.139l-2.573,6.119-6.7-7.928,2.668-3.619Z" transform="translate(-91.646 -239.002)" fill="#3a2716"/>
      <path id="Path_341" data-name="Path 341" d="M64.75,449.426l.242,1.424,3.48-.466.055-1.494Z" transform="translate(-62.878 -351.149)" fill="#efd8e5"/>
      <path id="Path_342" data-name="Path 342" d="M70.151,362.141s-3.035,15.779-4.537,30.505l-4.471.679s-2.848-19.009-.679-34.095Z" transform="translate(-59.65 -294.398)" fill="#e2bc9a"/>
      <path id="Path_343" data-name="Path 343" d="M115.767,421.436l7.994-10.817a.371.371,0,0,1,.6.029L130.75,420.9a.318.318,0,0,1-.286.481l-14.384.562A.331.331,0,0,1,115.767,421.436Z" transform="translate(-95.132 -326.836)" fill="#e2bc9a"/>
      <g id="Group_131" data-name="Group 131" transform="translate(28.688 45.797)">
        <path id="Path_344" data-name="Path 344" d="M138.911,307.381l-.987,36.1-.114-36.106Z" transform="translate(-137.81 -307.37)" fill="#23170d"/>
      </g>
      <g id="Group_133" data-name="Group 133" transform="translate(28.119 49.981)">
        <ellipse id="Ellipse_41" data-name="Ellipse 41" cx="1.02" cy="1.02" rx="1.02" ry="1.02" fill="#e2bc9a"/>
        <g id="Group_132" data-name="Group 132" transform="translate(0.697 0.694)">
          <ellipse id="Ellipse_42" data-name="Ellipse 42" cx="0.136" cy="0.136" rx="0.136" ry="0.136" transform="translate(0.378)" fill="#3a2716"/>
          <ellipse id="Ellipse_43" data-name="Ellipse 43" cx="0.136" cy="0.136" rx="0.136" ry="0.136" fill="#3a2716"/>
          <ellipse id="Ellipse_44" data-name="Ellipse 44" cx="0.136" cy="0.136" rx="0.136" ry="0.136" transform="translate(0.378 0.382)" fill="#3a2716"/>
          <ellipse id="Ellipse_45" data-name="Ellipse 45" cx="0.136" cy="0.136" rx="0.136" ry="0.136" transform="translate(0 0.382)" fill="#3a2716"/>
        </g>
      </g>
      <g id="Group_135" data-name="Group 135" transform="translate(28.119 55.634)">
        <ellipse id="Ellipse_46" data-name="Ellipse 46" cx="1.02" cy="1.02" rx="1.02" ry="1.02" fill="#e2bc9a"/>
        <g id="Group_134" data-name="Group 134" transform="translate(0.697 0.694)">
          <ellipse id="Ellipse_47" data-name="Ellipse 47" cx="0.136" cy="0.136" rx="0.136" ry="0.136" transform="translate(0.378)" fill="#3a2716"/>
          <ellipse id="Ellipse_48" data-name="Ellipse 48" cx="0.136" cy="0.136" rx="0.136" ry="0.136" fill="#3a2716"/>
          <ellipse id="Ellipse_49" data-name="Ellipse 49" cx="0.136" cy="0.136" rx="0.136" ry="0.136" transform="translate(0.378 0.378)" fill="#3a2716"/>
          <ellipse id="Ellipse_50" data-name="Ellipse 50" cx="0.136" cy="0.136" rx="0.136" ry="0.136" transform="translate(0 0.378)" fill="#3a2716"/>
        </g>
      </g>
      <g id="Group_137" data-name="Group 137" transform="translate(28.119 61.099)">
        <ellipse id="Ellipse_51" data-name="Ellipse 51" cx="1.02" cy="1.02" rx="1.02" ry="1.02" fill="#e2bc9a"/>
        <g id="Group_136" data-name="Group 136" transform="translate(0.697 0.694)">
          <ellipse id="Ellipse_52" data-name="Ellipse 52" cx="0.136" cy="0.136" rx="0.136" ry="0.136" transform="translate(0.378)" fill="#3a2716"/>
          <ellipse id="Ellipse_53" data-name="Ellipse 53" cx="0.136" cy="0.136" rx="0.136" ry="0.136" fill="#3a2716"/>
          <ellipse id="Ellipse_54" data-name="Ellipse 54" cx="0.136" cy="0.136" rx="0.136" ry="0.136" transform="translate(0.378 0.382)" fill="#3a2716"/>
          <ellipse id="Ellipse_55" data-name="Ellipse 55" cx="0.136" cy="0.136" rx="0.136" ry="0.136" transform="translate(0 0.382)" fill="#3a2716"/>
        </g>
      </g>
      <g id="Group_139" data-name="Group 139" transform="translate(27.958 66.612)">
        <ellipse id="Ellipse_56" data-name="Ellipse 56" cx="1.02" cy="1.02" rx="1.02" ry="1.02" fill="#e2bc9a"/>
        <g id="Group_138" data-name="Group 138" transform="translate(0.694 0.697)">
          <ellipse id="Ellipse_57" data-name="Ellipse 57" cx="0.136" cy="0.136" rx="0.136" ry="0.136" transform="translate(0.378)" fill="#3a2716"/>
          <ellipse id="Ellipse_58" data-name="Ellipse 58" cx="0.136" cy="0.136" rx="0.136" ry="0.136" fill="#3a2716"/>
          <ellipse id="Ellipse_59" data-name="Ellipse 59" cx="0.136" cy="0.136" rx="0.136" ry="0.136" transform="translate(0.378 0.378)" fill="#3a2716"/>
          <ellipse id="Ellipse_60" data-name="Ellipse 60" cx="0.136" cy="0.136" rx="0.136" ry="0.136" transform="translate(0 0.378)" fill="#3a2716"/>
        </g>
      </g>
      <g id="Group_141" data-name="Group 141" transform="translate(27.87 72.411)">
        <ellipse id="Ellipse_61" data-name="Ellipse 61" cx="1.02" cy="1.02" rx="1.02" ry="1.02" fill="#e2bc9a"/>
        <g id="Group_140" data-name="Group 140" transform="translate(0.694 0.694)">
          <ellipse id="Ellipse_62" data-name="Ellipse 62" cx="0.136" cy="0.136" rx="0.136" ry="0.136" transform="translate(0.378)" fill="#3a2716"/>
          <ellipse id="Ellipse_63" data-name="Ellipse 63" cx="0.136" cy="0.136" rx="0.136" ry="0.136" fill="#3a2716"/>
          <ellipse id="Ellipse_64" data-name="Ellipse 64" cx="0.136" cy="0.136" rx="0.136" ry="0.136" transform="translate(0.378 0.378)" fill="#3a2716"/>
          <ellipse id="Ellipse_65" data-name="Ellipse 65" cx="0.136" cy="0.136" rx="0.136" ry="0.136" transform="translate(0 0.378)" fill="#3a2716"/>
        </g>
      </g>
      <path id="Path_345" data-name="Path 345" d="M105.843,207.985c1.564-2.878-5.106-5.4-6.111-3.421C98.6,206.8,104.221,210.969,105.843,207.985Z" transform="translate(-84.925 -196.056)" fill="#332521" opacity="0.29"/>
    </g>
    <path id="Path_346" data-name="Path 346" d="M128.432,187.43s2.9,5.711-3.487,4.17c-7.726-1.865-9.356,1.336-14.344-.162s-3.942-6.045,1.865-6.878C121.792,183.224,127.782,192.5,128.432,187.43Z" transform="translate(-89.881 -183.756)" fill="#332521" opacity="0.29"/>
  </g>
  <g id="Group_158" data-name="Group 158" transform="translate(330.851 41.29)">
    <path id="Path_347" data-name="Path 347" d="M1051.848,383.746c.528-.7-8.06-33.016-7.774-52.561.268-18.242.246-38.738-.808-48.083,0,0-1.472-4.236-13.2-3.964-8.659.2-13.841,3.208-13.841,3.208-2.907,7.888-1.006,17.046-.562,28.681.1,2.69-.037,10.259-.231,19.031-.364,16.5-5.179,53.467-4.68,54.088.367.455,12.461,4.283,19.8,4.283C1038.532,388.422,1051.316,384.454,1051.848,383.746Z" transform="translate(-992.487 -243.079)" fill="#e8dde3"/>
    <g id="Group_146" data-name="Group 146" transform="translate(2.242 94.667)">
      <path id="Path_348" data-name="Path 348" d="M1002.41,439.236c.741,2.059.536,5.55.158,5.924a.435.435,0,0,1-.686-.029s-.172.554-.573.58c-.367.022-.521-.43-.521-.43s-.242.488-.639.374a.6.6,0,0,1-.422-.517c-.51.209-1.318.473-.613-2.731.353-1.608.977-2.907.863-3.333C1000.021,438.451,1002.41,439.236,1002.41,439.236Z" transform="translate(-987.207 -438.834)" fill="#ed9558"/>
      <g id="case_2_" transform="translate(0 3.581)">
        <g id="Group_145" data-name="Group 145">
          <path id="Path_349" data-name="Path 349" d="M991.379,481.509H968.567a1.411,1.411,0,0,1-1.413-1.413l0-17.273a1.411,1.411,0,0,1,1.413-1.413h22.786a1.413,1.413,0,0,1,1.413,1.409l.029,17.273A1.41,1.41,0,0,1,991.379,481.509Z" transform="translate(-967.15 -456.705)" fill="#3c2f28"/>
          <path id="Path_350" data-name="Path 350" d="M998.147,481.5H978.928a1.288,1.288,0,0,1-1.288-1.288V462.688a1.288,1.288,0,0,1,1.288-1.288h19.189a1.292,1.292,0,0,1,1.288,1.285l.029,17.526A1.288,1.288,0,0,1,998.147,481.5Z" transform="translate(-973.79 -456.698)" fill="#473a3a"/>
          <g id="Group_144" data-name="Group 144" transform="translate(8.589)">
            <path id="Path_351" data-name="Path 351" d="M993.035,452.973l-1.145-.228a5.015,5.015,0,0,1,4.786-4.155,4.6,4.6,0,0,1,4.507,4.2l-1.156.139c-.015-.128-.433-3.175-3.347-3.175C993.722,449.754,993.061,452.84,993.035,452.973Z" transform="translate(-991.398 -448.59)" fill="#32251c"/>
            <path id="Path_352" data-name="Path 352" d="M992.679,459.891H990.55v-.881h2.125Z" transform="translate(-990.55 -455.185)" fill="#9cbee0"/>
            <path id="Path_353" data-name="Path 353" d="M1014.855,459.891h-2.125v-.881h2.125Z" transform="translate(-1004.589 -455.185)" fill="#9cbee0"/>
          </g>
        </g>
      </g>
      <path id="Path_354" data-name="Path 354" d="M1001.969,453.316c-.433-.066-.264-.65-.187-1.281.085-.7.118-1.127.437-1.1.356.029.356.756.308,1.336C1002.486,452.78,1002.515,453.4,1001.969,453.316Z" transform="translate(-989.008 -446.494)" fill="#ffb476"/>
      <path id="Path_355" data-name="Path 355" d="M1004.783,453.433c-.437-.029-.312-.628-.29-1.263.026-.708.029-1.131.349-1.131.36,0,.411.727.411,1.307C1005.256,452.861,1005.333,453.474,1004.783,453.433Z" transform="translate(-990.765 -446.56)" fill="#ffb476"/>
      <path id="Path_356" data-name="Path 356" d="M1007.621,453.136c-.36,0-.294-.492-.312-1.013-.022-.58-.044-.925.217-.943.294-.018.382.565.415,1.042C1007.97,452.636,1008.072,453.132,1007.621,453.136Z" transform="translate(-992.561 -446.648)" fill="#ffb476"/>
      <path id="Path_357" data-name="Path 357" d="M999.232,452.631c-.3-.077-.36-.521-.264-1.09.088-.521.29-1.046.631-1.013s.385.683.3,1.259C999.826,452.3,999.639,452.733,999.232,452.631Z" transform="translate(-987.263 -446.234)" fill="#ffb476"/>
      <path id="Path_358" data-name="Path 358" d="M1000.116,451.311a1.226,1.226,0,0,1-.077-.463.647.647,0,0,0-.114-.213.263.263,0,0,0-.088-.051c-.026-.015-.048-.04-.077-.044,0,0,0,0-.007,0a.427.427,0,0,0-.308.165.667.667,0,0,0-.077.1,2,2,0,0,0-.1.2,1.968,1.968,0,0,0-.092.272c.14.418.385.778.793.628a.273.273,0,0,0,.1-.066.111.111,0,0,0,.007-.037A3.168,3.168,0,0,0,1000.116,451.311Z" transform="translate(-987.423 -446.243)" fill="#ed9558"/>
      <path id="Path_359" data-name="Path 359" d="M1001.768,439.715s.756,1.589-1.2,2.885c-1.549,1.024-.073,1.769-.8,2.033s-.995-1.053-.922-1.52a22.044,22.044,0,0,0,1.127-3.634Z" transform="translate(-987.207 -439.243)" fill="#ffb476"/>
    </g>
    <path id="Path_360" data-name="Path 360" d="M1004.441,287.89c-5.678,3.186-5.616,15.643-5.865,31.375s.437,24.2.437,24.2l3.964.345s2.8-6.717,4.309-21.729S1004.441,287.89,1004.441,287.89Z" transform="translate(-984.765 -248.626)" fill="#f7e8f0"/>
    <path id="Path_361" data-name="Path 361" d="M998.56,396.251c.077,9.33.477,14.274.477,14.274l3.964.345s2.209-5.315,3.759-17.02Z" transform="translate(-984.79 -315.694)" fill="#e5c3da"/>
    <path id="Path_362" data-name="Path 362" d="M1072.01,670.127s.18,2.118-2.826,3.388-3.223.984-3.061,1.831,8.648.422,8.615-.565a29.621,29.621,0,0,1-.554-4.654C1074.242,667.866,1072.01,670.127,1072.01,670.127Z" transform="translate(-1027.529 -489.929)" fill="#2d313d"/>
    <g id="Group_147" data-name="Group 147" transform="translate(14.776 180.012)">
      <path id="Path_363" data-name="Path 363" d="M1009.4,672.222a8.541,8.541,0,0,1-3.85,2.933c-2.7,1.1-4.434.855-4.236,1.589s10.666.367,10.578-.488a24.91,24.91,0,0,1-.785-4.03C1011.029,670.266,1009.4,672.222,1009.4,672.222Z" transform="translate(-1001.298 -671.354)" fill="#2d313d"/>
    </g>
    <path id="Path_364" data-name="Path 364" d="M1066.112,198.045c5.6,3.021-1.142,22.375-5.729,20.745C1055.494,217.054,1053.967,194.518,1066.112,198.045Z" transform="translate(-1021.627 -191.521)" fill="#332521"/>
    <path id="Path_365" data-name="Path 365" d="M1043.9,397.08,1014.21,401.6s.653,36.547.859,48.384c.1,6.108,1.042,48.714,1.042,48.714h4.456s5.421-25.994,5.025-31.067,1-17.648,1-17.648l1.663-27.961a276.379,276.379,0,0,1,5.029,30.156c1.5,12.6,3.116,28.516,4.353,46.519h5.073s4.125-24.97,3.9-30.549-2.224-16.759-2.224-16.759l1.145-45.308Z" transform="translate(-994.695 -317.738)" fill="#e8dde3"/>
    <path id="Path_366" data-name="Path 366" d="M1014.013,414.836s.022-4.331-.033-7.866l31.7,2.573-.429,5.095C1043.968,416.689,1021.971,419.02,1014.013,414.836Z" transform="translate(-994.55 -323.998)" fill="#323249"/>
    <path id="Path_367" data-name="Path 367" d="M1040.243,384.446c.528-.7-3.458-35.163-3.172-54.7.268-18.242.143-38.14-.91-47.485,0,0-5.447-3.391-17.17-3.124-8.659.2-13.841,3.208-13.841,3.208-2.907,7.888-1.006,17.046-.562,28.681.1,2.69-.037,10.259-.231,19.031-.363,16.5-5.179,53.467-4.68,54.088.367.455,12.461,4.283,19.8,4.283C1027.455,388.418,1039.711,385.155,1040.243,384.446Z" transform="translate(-985.474 -243.074)" fill="#f7e8f0"/>
    <path id="Path_368" data-name="Path 368" d="M1043.307,329.4c1.021-1.362,1.806-27.793-.374-47.15,0,0-5.447-3.391-17.17-3.124-8.659.2-13.841,3.208-13.841,3.208-2.907,7.888-1.006,17.046-.562,28.681.3,7.752-.907,18.951-.143,19.9.367.455,7.913.5,15.258.5C1034.446,331.406,1042.778,330.106,1043.307,329.4Z" transform="translate(-992.244 -243.068)" fill="#806753"/>
    <path id="Path_369" data-name="Path 369" d="M1049.68,232.87s-2.68,11.6-.422,17.769c-3.6,1.321-10.6,3.109-11.767-.228,0,0,.576-1.909.213-7.11Z" transform="translate(-1009.43 -213.801)" fill="#e08344"/>
    <path id="Path_370" data-name="Path 370" d="M1034.419,285.922l-2.177,3.549-2.382-9.242a37.884,37.884,0,0,1,8.258-1.094,47.427,47.427,0,0,1,9.286.653l-7.686,9.782-1.519-3.215-1.813,2.823Z" transform="translate(-1004.601 -243.076)" fill="#806753" opacity="0.33"/>
    <path id="Path_371" data-name="Path 371" d="M1032.26,279.536s.418,4.265,6.361,4.438a10.988,10.988,0,0,0,9.048-4.57A39.722,39.722,0,0,0,1032.26,279.536Z" transform="translate(-1006.12 -242.83)" fill="#ed9558"/>
    <path id="Path_372" data-name="Path 372" d="M1049.531,238.737l-2.022-1.347-8.816,1.116c.183,2.643-.433,12.068-.532,13.188,1.134,1.3,3.718,3.59,8.783,5.351a10.667,10.667,0,0,0,4.728-3.836,12.193,12.193,0,0,0-2.177-.349C1047.916,247.99,1049.531,238.737,1049.531,238.737Z" transform="translate(-1009.855 -216.662)" fill="#d1652f"/>
    <path id="Path_373" data-name="Path 373" d="M1019.63,198.642c.173-6.677-3.094-7.091-2.29-10.666,1.894-8.413,24.658-10.34,24.691-.062C1042.053,193.9,1019.63,198.642,1019.63,198.642Z" transform="translate(-996.596 -180.916)" fill="#332521"/>
    <path id="Path_374" data-name="Path 374" d="M1039.009,216.2c-.862,5.92-1.24,5.77-6.5,9.5-1.127.8-4.493.719-5.363.165s-.885-1.446-2-3.505a15.267,15.267,0,0,1-1.909-6.009c-.055-1.743.165-2.914.161-4.151-.011-2.378-.4-4.515-.224-7.227.173-2.676,3.425-4.309,7.462-4.126C1039.875,201.268,1039.721,205.133,1039.009,216.2Z" transform="translate(-1000.338 -193.522)" fill="#ffb476"/>
    <path id="Path_375" data-name="Path 375" d="M1037.68,229.071c7.234-4.335,6.875-20.32,4.07-22.691,5.766,1.244,4.544,6.695,3.421,14.575-.683,4.291-1.376,5.469-6.706,8.662-1.141.683-4.364.352-5.161-.242a1.448,1.448,0,0,1-.3-.316C1034.189,229.493,1036.7,229.658,1037.68,229.071Z" transform="translate(-1006.589 -197.034)" fill="#ed9558"/>
    <path id="Path_376" data-name="Path 376" d="M1034.35,225.02a4.443,4.443,0,0,1,1.05,1.626c1.193,3.953-2.33,4.2-2.143,5.157.268,1.4,3.024.991,3.024.991-.323.936-3.329.606-3.568-.811-.279-1.67,3.248-1.45,2.364-5.19A11.345,11.345,0,0,0,1034.35,225.02Z" transform="translate(-1006.397 -208.832)" fill="#ed9558"/>
    <path id="Path_377" data-name="Path 377" d="M1039.658,199.467s1.964,4.159-2.29,2.239c0,0-1.362-4.012-8.126-4.074-5.249-.051-5.862,3.571-5.862,3.571S1025.637,189.354,1039.658,199.467Z" transform="translate(-1000.499 -190.072)" fill="#332521"/>
    <path id="Path_378" data-name="Path 378" d="M1048.845,252.27c.033.084.294.051.375.015a.175.175,0,0,0,.088-.22.153.153,0,0,0-.206-.088C1049.021,252.013,1048.816,252.186,1048.845,252.27Z" transform="translate(-1016.616 -225.886)" fill="#332521"/>
    <path id="Path_379" data-name="Path 379" d="M1030.045,252.17c-.052.073-.294-.018-.363-.073a.171.171,0,0,1-.029-.235.157.157,0,0,1,.224-.037C1029.942,251.88,1030.1,252.1,1030.045,252.17Z" transform="translate(-1004.448 -225.778)" fill="#332521"/>
    <path id="Path_380" data-name="Path 380" d="M1037.339,252.56l-6.988.015a4.192,4.192,0,0,0,3.34,2.25C1035.922,254.869,1037.339,252.56,1037.339,252.56Z" transform="translate(-1004.911 -226.264)" fill="#9a6335"/>
    <path id="Path_381" data-name="Path 381" d="M1037.339,252.56l-6.988.015a4.192,4.192,0,0,0,3.34,2.25C1035.922,254.869,1037.339,252.56,1037.339,252.56Z" transform="translate(-1004.911 -226.264)" fill="#332521"/>
    <path id="Path_382" data-name="Path 382" d="M1038.22,253.11l-5.66,0a3.409,3.409,0,0,0,2.936,1.754A3.594,3.594,0,0,0,1038.22,253.11Z" transform="translate(-1006.31 -226.612)" fill="#f7eee2"/>
    <path id="Path_383" data-name="Path 383" d="M1038.22,253.11l-5.66,0,.312.448a5.216,5.216,0,0,1,2.474-.33,10.007,10.007,0,0,1,2.6.283S1038.143,253.231,1038.22,253.11Z" transform="translate(-1006.31 -226.612)" fill="#d5b698"/>
    <path id="Path_384" data-name="Path 384" d="M1060.608,214.7l-1.006,1.6-1.457.1s1.09-7.62-2.7-10.927C1055.444,205.475,1062.194,203.449,1060.608,214.7Z" transform="translate(-1020.792 -196.371)" fill="#332521"/>
    <g id="Group_148" data-name="Group 148" transform="translate(38.244 18.226)">
      <path id="Path_385" data-name="Path 385" d="M1065.242,233.166a2.377,2.377,0,0,0,2.558,2.232,2.456,2.456,0,0,0,2.268-2.588,2.377,2.377,0,0,0-2.558-2.232A2.456,2.456,0,0,0,1065.242,233.166Z" transform="translate(-1065.238 -230.572)" fill="#ed9558"/>
      <path id="Path_386" data-name="Path 386" d="M1069.957,236.173a1.153,1.153,0,0,0,1-1.27,1.116,1.116,0,0,0-1.211-.984,1.36,1.36,0,0,1,.529-.187,1.32,1.32,0,0,1,1.483,1.164,1.364,1.364,0,0,1-1.186,1.5,1.322,1.322,0,0,1-.943-.25A.891.891,0,0,0,1069.957,236.173Z" transform="translate(-1068.018 -232.565)" fill="#d1652f"/>
    </g>
    <path id="Path_387" data-name="Path 387" d="M1049.871,221.244c-.264.433-1.391-.532-3.1-1.064s-3.1-.316-2.973-1.046c.143-.859,1.766-1.02,3.48-.481C1049.486,219.35,1050.176,220.745,1049.871,221.244Z" transform="translate(-1013.417 -204.604)" fill="#332521"/>
    <path id="Path_388" data-name="Path 388" d="M1022.4,220.946c.242.426.9-.125,2.136-.617s2.4-.518,2.228-1.233c-.2-.841-1.362-.841-2.595-.338C1022.577,219.4,1022.122,220.454,1022.4,220.946Z" transform="translate(-999.832 -204.652)" fill="#332521"/>
    <path id="Path_389" data-name="Path 389" d="M1067.352,207.075c-1.564-2.878,5.106-5.4,6.111-3.421C1074.6,205.89,1068.975,210.056,1067.352,207.075Z" transform="translate(-1028.182 -194.862)" fill="#332521" opacity="0.29"/>
    <path id="Path_390" data-name="Path 390" d="M1046.323,229.749c-.929-1.079.363-1.872,1.542-1.806a3.287,3.287,0,0,1,2.657,1.6l-.239.139S1046.5,230,1046.323,229.749Z" transform="translate(-1014.821 -210.68)" fill="#332521"/>
    <path id="Path_391" data-name="Path 391" d="M1046.92,230.643a1.4,1.4,0,0,1,1.52-1.395c1.222-.037,2.43.995,2.415,1.354C1050.84,230.94,1047.959,232.622,1046.92,230.643Z" transform="translate(-1015.388 -211.508)" fill="#f7eee2"/>
    <path id="Path_392" data-name="Path 392" d="M1050.259,229.842a1.3,1.3,0,0,0-.723-1.16,1.992,1.992,0,0,0-.62-.132,1.571,1.571,0,0,0-.723.206c-.055.037-.11.073-.161.114a1.444,1.444,0,0,0-.158.143,1.419,1.419,0,0,0-.364.929,1.311,1.311,0,0,0,.36.892,1.965,1.965,0,0,0,1.644.239A1.415,1.415,0,0,0,1050.259,229.842Z" transform="translate(-1015.773 -211.066)" fill="#332521"/>
    <path id="Path_393" data-name="Path 393" d="M1024.8,229.7c-.874-1.017.334-1.769,1.45-1.707a2.619,2.619,0,0,1,2.265,1.523l-.228.132S1024.976,229.935,1024.8,229.7Z" transform="translate(-1001.211 -210.712)" fill="#332521"/>
    <path id="Path_394" data-name="Path 394" d="M1025.371,230.484c-.11-.367.308-1.277,1.435-1.351a2.112,2.112,0,0,1,2.03,1.321C1028.825,230.774,1026.351,232.349,1025.371,230.484Z" transform="translate(-1001.749 -211.433)" fill="#f7eee2"/>
    <path id="Path_395" data-name="Path 395" d="M1028.651,229.725a1.246,1.246,0,0,0-.338-.841,1.712,1.712,0,0,0-1.061-.349,1.457,1.457,0,0,0-.576.18,1.329,1.329,0,0,0-.617,1.1,1.23,1.23,0,0,0,.716,1.116,1.948,1.948,0,0,0,1.138-.022A1.339,1.339,0,0,0,1028.651,229.725Z" transform="translate(-1002.196 -211.055)" fill="#332521"/>
    <path id="Path_396" data-name="Path 396" d="M1055.461,187.987c.106-6-14.172-6.339-14.99-3.432C1039.01,189.756,1055.4,191.184,1055.461,187.987Z" transform="translate(-1011.259 -182.095)" fill="#332521" opacity="0.29"/>
    <path id="Path_397" data-name="Path 397" d="M1011.758,342.208c-.062,4.526-.118,8.229.33,8.787.367.455,7.914.5,15.258.5,7.972,0,16.308-1.3,16.836-2.011.877-1.171,1.575-20.844.371-38.639l-11.217,21.67Z" transform="translate(-993.117 -263.152)" fill="#806753" opacity="0.33"/>
    <path id="Path_398" data-name="Path 398" d="M1048.154,342.109c.073-7.873-.147-17.317-.364-26.5-.14-5.95-.286-13.911-.352-19.552l-.6.007c.062,5.645.209,13.606.349,19.56.22,9.165.44,18.616.371,26.475C1047.758,342.1,1047.956,342.106,1048.154,342.109Z" transform="translate(-1015.349 -253.797)" fill="#4f3b2e"/>
    <path id="Path_399" data-name="Path 399" d="M1072.232,287.181c-4.052-2.32-7.712,7.8-11.166,17.225-3.281,8.952-6.706,17.383-2.962,19.439C1066.748,328.591,1078.78,290.924,1072.232,287.181Z" transform="translate(-1021.445 -247.964)" fill="#f7e8f0"/>
    <path id="Path_400" data-name="Path 400" d="M1042,285.26l1.255,2.845,1.072-2.845,1.23,2.933-2.331,2.151-2.558-2.155Z" transform="translate(-1011.443 -246.961)" fill="#4f3b2e"/>
    <path id="Path_401" data-name="Path 401" d="M1036.522,277.975l-2.665,6.119L1032,276.371l2.081-2.621Z" transform="translate(-1005.956 -239.676)" fill="#f7e8f0"/>
    <path id="Path_402" data-name="Path 402" d="M1050.64,275.9l2.573,6.119,6.7-7.928-2.668-3.619Z" transform="translate(-1017.754 -237.6)" fill="#f7e8f0"/>
    <ellipse id="Ellipse_66" data-name="Ellipse 66" cx="1.02" cy="1.02" rx="1.02" ry="1.02" transform="translate(30.908 49.284)" fill="#e2bc9a"/>
    <g id="Group_149" data-name="Group 149" transform="translate(31.602 49.978)">
      <ellipse id="Ellipse_67" data-name="Ellipse 67" cx="0.136" cy="0.136" rx="0.136" ry="0.136" transform="translate(0.378)" fill="#3a2716"/>
      <ellipse id="Ellipse_68" data-name="Ellipse 68" cx="0.136" cy="0.136" rx="0.136" ry="0.136" fill="#3a2716"/>
      <ellipse id="Ellipse_69" data-name="Ellipse 69" cx="0.136" cy="0.136" rx="0.136" ry="0.136" transform="translate(0.378 0.382)" fill="#3a2716"/>
      <ellipse id="Ellipse_70" data-name="Ellipse 70" cx="0.136" cy="0.136" rx="0.136" ry="0.136" transform="translate(0 0.382)" fill="#3a2716"/>
    </g>
    <g id="Group_151" data-name="Group 151" transform="translate(30.908 54.937)">
      <ellipse id="Ellipse_71" data-name="Ellipse 71" cx="1.02" cy="1.02" rx="1.02" ry="1.02" fill="#e2bc9a"/>
      <g id="Group_150" data-name="Group 150" transform="translate(0.694 0.694)">
        <ellipse id="Ellipse_72" data-name="Ellipse 72" cx="0.136" cy="0.136" rx="0.136" ry="0.136" transform="translate(0.378)" fill="#3a2716"/>
        <ellipse id="Ellipse_73" data-name="Ellipse 73" cx="0.136" cy="0.136" rx="0.136" ry="0.136" fill="#3a2716"/>
        <ellipse id="Ellipse_74" data-name="Ellipse 74" cx="0.136" cy="0.136" rx="0.136" ry="0.136" transform="translate(0.378 0.378)" fill="#3a2716"/>
        <ellipse id="Ellipse_75" data-name="Ellipse 75" cx="0.136" cy="0.136" rx="0.136" ry="0.136" transform="translate(0 0.378)" fill="#3a2716"/>
      </g>
    </g>
    <g id="Group_153" data-name="Group 153" transform="translate(30.908 60.402)">
      <ellipse id="Ellipse_76" data-name="Ellipse 76" cx="1.02" cy="1.02" rx="1.02" ry="1.02" fill="#e2bc9a"/>
      <g id="Group_152" data-name="Group 152" transform="translate(0.694 0.694)">
        <ellipse id="Ellipse_77" data-name="Ellipse 77" cx="0.136" cy="0.136" rx="0.136" ry="0.136" transform="translate(0.378)" fill="#3a2716"/>
        <ellipse id="Ellipse_78" data-name="Ellipse 78" cx="0.136" cy="0.136" rx="0.136" ry="0.136" fill="#3a2716"/>
        <ellipse id="Ellipse_79" data-name="Ellipse 79" cx="0.136" cy="0.136" rx="0.136" ry="0.136" transform="translate(0.378 0.382)" fill="#3a2716"/>
        <ellipse id="Ellipse_80" data-name="Ellipse 80" cx="0.136" cy="0.136" rx="0.136" ry="0.136" transform="translate(0 0.382)" fill="#3a2716"/>
      </g>
    </g>
    <g id="Group_155" data-name="Group 155" transform="translate(30.743 65.915)">
      <ellipse id="Ellipse_81" data-name="Ellipse 81" cx="1.02" cy="1.02" rx="1.02" ry="1.02" fill="#e2bc9a"/>
      <g id="Group_154" data-name="Group 154" transform="translate(0.697 0.697)">
        <ellipse id="Ellipse_82" data-name="Ellipse 82" cx="0.136" cy="0.136" rx="0.136" ry="0.136" transform="translate(0.378)" fill="#3a2716"/>
        <ellipse id="Ellipse_83" data-name="Ellipse 83" cx="0.136" cy="0.136" rx="0.136" ry="0.136" fill="#3a2716"/>
        <ellipse id="Ellipse_84" data-name="Ellipse 84" cx="0.136" cy="0.136" rx="0.136" ry="0.136" transform="translate(0.378 0.378)" fill="#3a2716"/>
        <ellipse id="Ellipse_85" data-name="Ellipse 85" cx="0.136" cy="0.136" rx="0.136" ry="0.136" transform="translate(0 0.378)" fill="#3a2716"/>
      </g>
    </g>
    <g id="Group_157" data-name="Group 157" transform="translate(0 77.754)">
      <g id="Group_156" data-name="Group 156">
        <g id="wrist_left_23_">
          <path id="Path_403" data-name="Path 403" d="M976.978,394.339a5.77,5.77,0,0,0-1.938-.852c-.917-.22-2.144-.29-3.314-.518a4.743,4.743,0,0,0-1.244-.2c-.125.11.063.738,1.087,1.013a13.3,13.3,0,0,1,2.125.822Z" transform="translate(-966.995 -392.756)" fill="#ffb476"/>
          <path id="Path_404" data-name="Path 404" d="M971.6,398.425a19.2,19.2,0,0,1-5.436,1.751c-2.639.323-3.432-.055-3.45-.338s.481-.2,1.376-.253c.738-.048,1.509-.015,1.479-.143a6.983,6.983,0,0,0-1.824-.1c-.261.018-2.088.073-2.166-.371-.077-.426,1.226-.455,1.938-.47a7.484,7.484,0,0,0,1.707-.25,8.257,8.257,0,0,0-1.861.092c-.264.022-2.191.25-2.305-.154s.308-.58,1.967-.727a10,10,0,0,0,1.96-.25c-.081-.367-3.4.5-3.6-.128-.1-.316.661-.452,1.659-.576,1.024-.129,2.753-.242,3.615-.455a6.269,6.269,0,0,1,4.357.2S972.479,397.272,971.6,398.425Z" transform="translate(-961.043 -394.679)" fill="#ffb476"/>
        </g>
      </g>
      <path id="Path_405" data-name="Path 405" d="M988.81,397.529l2.789-.253-.87-2.9-2.5.984Z" transform="translate(-978.251 -393.784)" fill="#ffb476"/>
    </g>
    <path id="Path_406" data-name="Path 406" d="M1021.645,368.508c-8.068,8.134-30.1,7.965-30.1,7.965l-.984-3.92s16.275-4.151,25.532-12.8Z" transform="translate(-979.726 -294.11)" fill="#f7e8f0"/>
    <path id="Path_407" data-name="Path 407" d="M1048.543,235.344l-.422,4.1a1.377,1.377,0,0,1-1.373,1.237h-.161a1.212,1.212,0,0,0-1.083.664l-2.573,5.08h-2.661l.147,1.857s1.652,1.108,6.735-2.885a6.376,6.376,0,0,0,2.573-5.891l-.294-4.243" transform="translate(-1011.19 -215.313)" fill="#332521"/>
    <path id="Path_408" data-name="Path 408" d="M1023.73,245.82c.007.029.015.073.026.121C1023.745,245.9,1023.737,245.86,1023.73,245.82Z" transform="translate(-1000.721 -221.997)" fill="#332521"/>
    <path id="Path_409" data-name="Path 409" d="M1030.018,255.343s-1.23-.172-1.92-.2-1.263-1.31-1.263-1.31a22.655,22.655,0,0,0-1.384-2.9,13.1,13.1,0,0,1-.958-2.177c-.018-.055-.037-.106-.055-.158a21.845,21.845,0,0,1-.6-2.18,9.148,9.148,0,0,0,.8,2.052c.037.073.077.147.114.217a29.124,29.124,0,0,0,3.428,4.8h1.677Z" transform="translate(-1000.791 -222.377)" fill="#332521"/>
    <path id="Path_410" data-name="Path 410" d="M1039.1,264.619l-.65-1.5a.23.23,0,0,0-.216-.117h-.65a.222.222,0,0,0-.224.139l-.385,1.479Z" transform="translate(-1009.101 -232.872)" fill="#332521"/>
    <path id="Path_411" data-name="Path 411" d="M1035.57,250.246c-3.557-1.659-8.027-.749-9.767-.283-.1.026-.191.051-.268.073-.018-.055-.037-.106-.055-.158l.205-.132c1.435-.881,5.219-2.566,10.039.235C1035.728,249.982,1039.171,251.923,1035.57,250.246Z" transform="translate(-1001.829 -223.652)" fill="#332521"/>
  </g>
  <path id="Path_412" data-name="Path 412" d="M950.562,89.24H888.348a3.207,3.207,0,0,0-3.208,3.208v13.823a3.207,3.207,0,0,0,3.208,3.208h54.323l9.029,8.941V90.374A1.136,1.136,0,0,0,950.562,89.24Z" transform="translate(-582.149 -81.599)" fill="#20b69e"/>
  <text id="Buyer" transform="translate(313.259 20.335)" fill="#fff" font-size="11" font-family="Montserrat" font-weight="800"><tspan x="0" y="0">Buyer</tspan></text>
  <path id="Path_413" data-name="Path 413" d="M142.968,90.02h62.214a3.207,3.207,0,0,1,3.208,3.208v13.823a3.207,3.207,0,0,1-3.208,3.208H150.859L141.83,119.2V91.154A1.14,1.14,0,0,1,142.968,90.02Z" transform="translate(-111.666 -82.093)" fill="#297ce0"/>
  <text id="Seller" transform="translate(45.259 20.335)" fill="#fff" font-size="11" font-family="Montserrat" font-weight="800"><tspan x="0" y="0">Seller</tspan></text>
</svg>
