<svg id="XMLID_1_" xmlns="http://www.w3.org/2000/svg" width="38.834" height="42.181" viewBox="0 0 38.834 42.181">
  <path id="Path_1161" data-name="Path 1161" d="M54.339,13.67v6.7a.672.672,0,0,1-.67.67H53V13h.67A.672.672,0,0,1,54.339,13.67Z" transform="translate(-19.523 -4.296)" fill="#bdc4c3"/>
  <path id="Path_1162" data-name="Path 1162" d="M53.67,12h4.017a.671.671,0,0,1,.67.67V20.7a.672.672,0,0,1-.67.67H53.67A.672.672,0,0,1,53,20.7h.67a.672.672,0,0,0,.67-.67h2.678v-6.7H54.339a.672.672,0,0,0-.67-.67H53A.671.671,0,0,1,53.67,12Z" transform="translate(-19.523 -3.966)" fill="#bdc4c3"/>
  <path id="Path_1163" data-name="Path 1163" d="M44,23h6.026v1.339H44Z" transform="translate(-16.548 -7.601)" fill="#bdc4c3"/>
  <path id="Path_1164" data-name="Path 1164" d="M49.966,13v1.339H43.941v-.67A1.856,1.856,0,0,0,43.82,13Z" transform="translate(-16.489 -4.296)" fill="#bdc4c3"/>
  <path id="Path_1166" data-name="Path 1166" d="M43,23h.67v1.339H43Z" transform="translate(-16.218 -7.601)" fill="#bdc4c3"/>
  <path id="Path_1167" data-name="Path 1167" d="M43,14.339V13h.549a1.856,1.856,0,0,1,.121.67v.67Z" transform="translate(-16.218 -4.296)" fill="#bdc4c3"/>
  <path id="Path_1169" data-name="Path 1169" d="M39.339,5v.67H38A.672.672,0,0,1,38.67,5Z" transform="translate(-14.566 -1.652)" fill="#bdc4c3"/>
  <path id="Path_1170" data-name="Path 1170" d="M39.339,2v.67h-.67A.672.672,0,0,1,38,2Z" transform="translate(-14.566 -0.661)" fill="#bdc4c3"/>
  <path id="Path_1171" data-name="Path 1171" d="M38.67,4.009a.672.672,0,0,0-.67.67V2a.672.672,0,0,0,.67.67h.67V4.009Z" transform="translate(-14.566 -0.661)" fill="#bdc4c3"/>
  <path id="Path_1172" data-name="Path 1172" d="M35,11h1.339v.67H35Z" transform="translate(-13.574 -3.635)" fill="#bdc4c3"/>
  <path id="Path_1173" data-name="Path 1173" d="M35,8h1.339v2.009H35Z" transform="translate(-13.574 -2.644)" fill="#bdc4c3"/>
  <path id="Path_1174" data-name="Path 1174" d="M35,7h1.339v.67H35Z" transform="translate(-13.574 -2.313)" fill="#bdc4c3"/>
  <path id="Path_1175" data-name="Path 1175" d="M41.034,35.687H35.009a.671.671,0,0,0-.67.67V47.069a.671.671,0,0,0,.67.67h14.73a.671.671,0,0,0,.67-.67V36.356a.671.671,0,0,0-.67-.67H44.382a.691.691,0,0,1-.475-.194l-2.2-2.209v1.734A.671.671,0,0,1,41.034,35.687Zm8.7,13.391H35.009A2.006,2.006,0,0,1,33,47.069V36.356a2.006,2.006,0,0,1,2.009-2.009h5.356V31.67a.672.672,0,0,1,.67-.67.691.691,0,0,1,.475.194l3.147,3.153h5.082a2.006,2.006,0,0,1,2.009,2.009V47.069A2.006,2.006,0,0,1,49.738,49.077Z" transform="translate(-12.913 -10.245)" fill="#bdc4c3"/>
  <path id="Path_1176" data-name="Path 1176" d="M31,11h1.339v.67H31Z" transform="translate(-12.252 -3.635)" fill="#bdc4c3"/>
  <path id="Path_1177" data-name="Path 1177" d="M31,8h1.339v2.009H31Z" transform="translate(-12.252 -2.644)" fill="#bdc4c3"/>
  <path id="Path_1178" data-name="Path 1178" d="M31,7h1.339v.67H31Z" transform="translate(-12.252 -2.313)" fill="#bdc4c3"/>
  <path id="Path_1179" data-name="Path 1179" d="M28,19h1.339v4.687H28Z" transform="translate(-11.261 -6.279)" fill="#bdc4c3"/>
  <path id="Path_1180" data-name="Path 1180" d="M28,15h1.339v1.339H28Z" transform="translate(-11.261 -4.957)" fill="#bdc4c3"/>
  <path id="Path_1181" data-name="Path 1181" d="M29.339,5.67H28V5h.67A.672.672,0,0,1,29.339,5.67Z" transform="translate(-11.261 -1.652)" fill="#bdc4c3"/>
  <path id="Path_1182" data-name="Path 1182" d="M28.67,4.009H28V2.67h.67a.672.672,0,0,0,.67-.67V4.678A.672.672,0,0,0,28.67,4.009Z" transform="translate(-11.261 -0.661)" fill="#bdc4c3"/>
  <path id="Path_1183" data-name="Path 1183" d="M28,2h1.339a.672.672,0,0,1-.67.67H28Z" transform="translate(-11.261 -0.661)" fill="#bdc4c3"/>
  <path id="Path_1184" data-name="Path 1184" d="M25.339,20.373a5.356,5.356,0,1,0,10.713,0V13.009a.672.672,0,0,0-.67-.67H26.009a.672.672,0,0,0-.67.67Zm5.356,6.7a6.71,6.71,0,0,1-6.662-6.026h.636V19.7H24V14.348h.67V13.009H24A2.006,2.006,0,0,1,26.009,11h2.678v.67h1.339V11h1.339v.67H32.7V11h2.678a1.987,1.987,0,0,1,1.888,1.339h-.549v1.339h.67v5.356h-.67v1.339h.67A6.706,6.706,0,0,1,30.7,27.069Z" transform="translate(-9.939 -3.635)" fill="#bdc4c3"/>
  <path id="Path_1185" data-name="Path 1185" d="M24.67,24v1.339h-.636c-.02-.221-.033-.442-.033-.67V24Z" transform="translate(-9.939 -7.931)" fill="#bdc4c3"/>
  <path id="Path_1186" data-name="Path 1186" d="M24,14h.67v1.339H24Z" transform="translate(-9.939 -4.627)" fill="#bdc4c3"/>
  <path id="Path_1187" data-name="Path 1187" d="M18.891.67a2.682,2.682,0,0,1,3.542,0H24.87A1.341,1.341,0,0,1,26.028,0h5.356a1.341,1.341,0,0,1,1.158.67H34.98a2.678,2.678,0,1,1,0,4.017H32.543a1.341,1.341,0,0,1-1.158.67h-.67v-.67H29.376v.67H28.037v-.67H26.7v.67h-.67a1.341,1.341,0,0,1-1.158-.67H22.433A2.678,2.678,0,1,1,18.891.67Zm.442,2.009a1.343,1.343,0,0,0,1.339,1.339,1.312,1.312,0,0,0,.991-.449.67.67,0,0,1,.5-.221h2.531v.67h8.034v-.67h2.531a.67.67,0,0,1,.5.221,1.312,1.312,0,0,0,.991.449,1.339,1.339,0,0,0,0-2.678,1.312,1.312,0,0,0-.991.449.67.67,0,0,1-.5.221H32.724v-.67H24.689v.67H22.159a.67.67,0,0,1-.5-.221,1.312,1.312,0,0,0-.991-.449A1.343,1.343,0,0,0,19.333,2.678Z" transform="translate(-7.95)" fill="#bdc4c3"/>
  <path id="Path_1188" data-name="Path 1188" d="M15.4,42.64A3.272,3.272,0,0,1,15,41h1.339a1.9,1.9,0,0,0,.268,1.038,3.55,3.55,0,0,1,0,3.281,2.156,2.156,0,0,0,0,2.076,3.55,3.55,0,0,1,0,3.281,2.156,2.156,0,0,0,0,2.076,3.272,3.272,0,0,1,.4,1.64V55.73H15.669V54.391a1.9,1.9,0,0,0-.268-1.038,2.95,2.95,0,0,1-.174-.4,3.534,3.534,0,0,1,.174-2.886A2.156,2.156,0,0,0,15.4,48a3.55,3.55,0,0,1,0-3.281A2.156,2.156,0,0,0,15.4,42.64Z" transform="translate(-6.964 -13.549)" fill="#bdc4c3"/>
  <path id="Path_1189" data-name="Path 1189" d="M14,29.356v-.67A4.518,4.518,0,0,1,18.687,24H20.7v.67c0,.228.013.449.033.67H18.687a3.217,3.217,0,0,0-3.348,3.348v.67Z" transform="translate(-6.634 -7.931)" fill="#bdc4c3"/>
  <path id="Path_1190" data-name="Path 1190" d="M12.339,41a1.9,1.9,0,0,0,.268,1.038,3.272,3.272,0,0,1,.4,1.64H11.669A1.9,1.9,0,0,0,11.4,42.64,3.272,3.272,0,0,1,11,41Z" transform="translate(-5.642 -13.549)" fill="#bdc4c3"/>
  <path id="Path_1191" data-name="Path 1191" d="M12.607,54.64a2.156,2.156,0,0,0,0,2.076,3.808,3.808,0,0,1,.174.375,3.142,3.142,0,0,1,.228,1.265V59.7H11.669V58.356a1.9,1.9,0,0,0-.268-1.038,2.95,2.95,0,0,1-.174-.4,3.534,3.534,0,0,1,.174-2.886A1.9,1.9,0,0,0,11.669,53h1.339A3.272,3.272,0,0,1,12.607,54.64Z" transform="translate(-5.643 -17.515)" fill="#bdc4c3"/>
  <path id="Path_1192" data-name="Path 1192" d="M8.338,57a1.881,1.881,0,0,0,.268,1.038,3.808,3.808,0,0,1,.174.375,3.142,3.142,0,0,1,.228,1.265H7.669a1.949,1.949,0,0,0-.261-1.038,2.711,2.711,0,0,1-.174-.375A3.037,3.037,0,0,1,7,57Z" transform="translate(-4.32 -18.837)" fill="#bdc4c3"/>
  <path id="Path_1193" data-name="Path 1193" d="M8.339,41a1.881,1.881,0,0,0,.268,1.038,3.511,3.511,0,0,1,0,3.281,2.156,2.156,0,0,0,0,2.076,3.272,3.272,0,0,1,.4,1.64H7.669A1.949,1.949,0,0,0,7.408,48a3.511,3.511,0,0,1,0-3.281,2.193,2.193,0,0,0,0-2.076A3.21,3.21,0,0,1,7,41Z" transform="translate(-4.321 -13.549)" fill="#bdc4c3"/>
  <path id="Path_1194" data-name="Path 1194" d="M4,25.382C4,14.127,15.268,14,15.382,14h2.009v1.339H15.382c-.408,0-10.043.141-10.043,10.043v.67H4Z" transform="translate(-3.33 -4.627)" fill="#bdc4c3"/>
  <path id="Path_1195" data-name="Path 1195" d="M3.408,50.072a2.193,2.193,0,0,0,0-2.076,3.511,3.511,0,0,1,0-3.281,2.193,2.193,0,0,0,0-2.076A3.21,3.21,0,0,1,3,41H4.339a1.881,1.881,0,0,0,.268,1.038,3.511,3.511,0,0,1,0,3.281,2.156,2.156,0,0,0,0,2.076,3.511,3.511,0,0,1,0,3.281,2.156,2.156,0,0,0,0,2.076,3.809,3.809,0,0,1,.174.375,3.142,3.142,0,0,1,.228,1.265V55.73H3.669V54.391a1.949,1.949,0,0,0-.261-1.038A3.511,3.511,0,0,1,3.408,50.072Z" transform="translate(-2.999 -13.549)" fill="#bdc4c3"/>
  <path id="Path_1196" data-name="Path 1196" d="M11.365,33.339H4.67A.672.672,0,0,1,4,32.67V32h8.034v.67A.672.672,0,0,1,11.365,33.339Z" transform="translate(-3.33 -10.575)" fill="#bdc4c3"/>
  <path id="Path_1197" data-name="Path 1197" d="M3,36.687V32.67A.671.671,0,0,1,3.67,32v.67a.672.672,0,0,0,.67.67v2.678h6.7V33.339a.672.672,0,0,0,.67-.67V32a.672.672,0,0,1,.67.67v4.017a.672.672,0,0,1-.67.67H3.67A.672.672,0,0,1,3,36.687Z" transform="translate(-2.999 -10.575)" fill="#bdc4c3"/>
  <text id="_24x7" data-name="24x7" transform="translate(29.417 33.702)" fill="#bdc4c3" font-size="6" font-family="OpenSans-Bold, Open Sans" font-weight="700"><tspan x="-6" y="0">24x7</tspan></text>
</svg>
