<svg id="golf" xmlns="http://www.w3.org/2000/svg" width="41.411" height="41.411" viewBox="0 0 41.411 41.411">
  <path id="Path_1211" data-name="Path 1211" d="M40.2,38.985H23.658a12.362,12.362,0,0,1,7.246-9.81,1.213,1.213,0,0,0,.72-1.109V25.478a1.213,1.213,0,0,0-1.213-1.213H28.37a13.345,13.345,0,1,0-15.328,0H11a1.213,1.213,0,0,0-1.213,1.213v2.588a1.213,1.213,0,0,0,.72,1.109,12.362,12.362,0,0,1,7.246,9.81H1.213a1.213,1.213,0,1,0,0,2.426H40.2a1.213,1.213,0,0,0,0-2.426ZM9.787,13.345A10.919,10.919,0,1,1,20.706,24.264,10.931,10.931,0,0,1,9.787,13.345ZM20.2,38.985A14.793,14.793,0,0,0,12.213,27.3v-.61H29.2v.61a14.793,14.793,0,0,0-7.982,11.684Z" fill="#bdc4c3"/>
  <ellipse id="Ellipse_99" data-name="Ellipse 99" cx="1.425" cy="0.95" rx="1.425" ry="0.95" transform="translate(16.907 10.258)" fill="#bdc4c3"/>
  <circle id="Ellipse_100" data-name="Ellipse 100" cx="0.95" cy="0.95" r="0.95" transform="translate(15.007 6.459)" fill="#bdc4c3"/>
  <ellipse id="Ellipse_101" data-name="Ellipse 101" cx="1.425" cy="0.95" rx="1.425" ry="0.95" transform="translate(12.158 10.258)" fill="#bdc4c3"/>
</svg>
