<svg id="doors" xmlns="http://www.w3.org/2000/svg" width="39.861" height="39.861" viewBox="0 0 39.861 39.861">
  <g id="Group_500" data-name="Group 500" transform="translate(9.966 34.546)">
    <g id="Group_499" data-name="Group 499">
      <path id="Path_1212" data-name="Path 1212" d="M120.038,420.44l1.329-3.986A.665.665,0,0,1,122,416h15.945a.665.665,0,0,1,.63.454l1.329,3.986a.664.664,0,0,1-.63.874h-18.6a.664.664,0,0,1-.63-.874Zm18.31-.454-.886-2.657H122.475l-.886,2.657Z" transform="translate(-120.004 -416)" fill="#bdc4c3"/>
    </g>
  </g>
  <g id="Group_502" data-name="Group 502" transform="translate(12.623 21.259)">
    <g id="Group_501" data-name="Group 501" transform="translate(0)">
      <path id="Path_1213" data-name="Path 1213" d="M281.993,256A1.993,1.993,0,1,1,280,257.993,1.993,1.993,0,0,1,281.993,256Zm0,2.657a.664.664,0,1,0-.664-.664A.664.664,0,0,0,281.993,258.657Z" transform="translate(-280 -256)" fill="#bdc4c3"/>
    </g>
  </g>
  <g id="Group_504" data-name="Group 504" transform="translate(16.609 13.287)">
    <g id="Group_503" data-name="Group 503">
      <path id="Path_1214" data-name="Path 1214" d="M200.664,160h5.315a.664.664,0,0,1,.664.664v2.657a.664.664,0,0,1-.664.664h-5.315a.664.664,0,0,1-.664-.664v-2.657A.664.664,0,0,1,200.664,160Zm.664,2.657h3.986v-1.329h-3.986Z" transform="translate(-200 -160)" fill="#bdc4c3"/>
    </g>
  </g>
  <g id="Group_506" data-name="Group 506">
    <g id="Group_505" data-name="Group 505">
      <path id="Path_1215" data-name="Path 1215" d="M.664,0H39.2a.664.664,0,0,1,.664.664V32.553a.664.664,0,0,1-.664.664H.664A.664.664,0,0,1,0,32.553V.664A.664.664,0,0,1,.664,0ZM38.533,14.616H36.54v1.329h1.993ZM33.218,31.889h5.315V17.273H35.875a.664.664,0,0,1-.664-.664V13.951a.664.664,0,0,1,.664-.664h2.657V11.958H33.218Zm0-21.259h5.315V9.3H33.218Zm-20.6,12.623v8.637H27.239V11.958H12.623Zm0-12.623H27.239V9.3H12.623ZM1.329,15.945H3.322V14.616H1.329Zm0-2.657H3.986a.664.664,0,0,1,.664.664v2.657a.664.664,0,0,1-.664.664H1.329V31.889H6.644V11.958H1.329Zm0-2.657H6.644V9.3H1.329Zm0-2.657H7.308a.664.664,0,0,1,.664.664V31.889h3.322V8.637a.664.664,0,0,1,.664-.664H27.9a.664.664,0,0,1,.664.664V31.889h3.322V8.637a.664.664,0,0,1,.664-.664h5.979V1.329H1.329Z" fill="#bdc4c3"/>
    </g>
  </g>
  <g id="Group_508" data-name="Group 508" transform="translate(34.452 22.622)">
    <g id="Group_507" data-name="Group 507" transform="translate(0 0)">
      <rect id="Rectangle_1658" data-name="Rectangle 1658" width="1.475" height="1.475" fill="#bdc4c3"/>
    </g>
  </g>
  <g id="Group_510" data-name="Group 510" transform="translate(15.28 2.657)">
    <g id="Group_509" data-name="Group 509" transform="translate(0)">
      <path id="Path_1216" data-name="Path 1216" d="M187.322,32h2.657a3.326,3.326,0,0,1,3.322,3.322.664.664,0,0,1-.664.664h-7.972a.665.665,0,0,1-.665-.664A3.326,3.326,0,0,1,187.322,32Zm4.537,2.657a2,2,0,0,0-1.88-1.329h-2.657a2,2,0,0,0-1.88,1.329Z" transform="translate(-184 -32)" fill="#bdc4c3"/>
    </g>
  </g>
</svg>
