<svg xmlns="http://www.w3.org/2000/svg" width="37.621" height="37.621" viewBox="0 0 37.621 37.621">
  <g id="ball" transform="translate(0 0)">
    <g id="Group_516" data-name="Group 516" transform="translate(0 0)">
      <path id="Path_1228" data-name="Path 1228" d="M420.688,73.543a.735.735,0,1,1,.725-.615A.742.742,0,0,1,420.688,73.543Z" transform="translate(-389.096 -66.778)" fill="#bdc4c3"/>
      <path id="Path_1229" data-name="Path 1229" d="M34.882,9.03l0,0v0c-.175-.286-.36-.572-.55-.849a.735.735,0,0,0-1.212.832c.118.172.234.347.346.524l-1.325,4.95-6.144,1.646-4.5-4.5L23.14,5.482l4.949-1.326c.174.111.347.225.517.341a.735.735,0,1,0,.831-1.212c-.277-.19-.562-.374-.848-.548h0A18.755,18.755,0,0,0,18.381,0h0a18.874,18.874,0,0,0-8.6,2.3h0A18.923,18.923,0,0,0,2.306,9.777h0a18.875,18.875,0,0,0-2.3,8.6H0a18.757,18.757,0,0,0,2.734,10.21l0,0,0,0a18.931,18.931,0,0,0,6.275,6.277l.007,0,.008.005a18.743,18.743,0,0,0,9.776,2.738c.143,0,.287,0,.43,0h0a18.874,18.874,0,0,0,8.6-2.3h0a18.923,18.923,0,0,0,7.472-7.472h0a18.874,18.874,0,0,0,2.3-8.6h0A18.757,18.757,0,0,0,34.883,9.03Zm-.4,2.357a17.272,17.272,0,0,1,1.607,6.01L33.557,14.86Zm-9.532,5.778-1.644,6.144-6.146,1.647-4.5-4.5,1.644-6.144,6.146-1.647ZM14.86,33.558,17.4,36.094a17.268,17.268,0,0,1-6.008-1.606Zm4.658,2.58L15.9,32.52l1.644-6.145,6.144-1.646,4.5,4.5-1.325,4.946a17.41,17.41,0,0,1-7.345,1.964Zm-16.384-9.9a17.272,17.272,0,0,1-1.607-6.01l2.537,2.537ZM22.76,4.063,20.224,1.526a17.262,17.262,0,0,1,6.008,1.606ZM18.1,1.484,21.721,5.1l-1.645,6.144-6.144,1.646-4.5-4.5,1.325-4.946A17.411,17.411,0,0,1,18.1,1.484ZM6.548,6.549a17.458,17.458,0,0,1,2.393-2L8.013,8.013l-3.465.928A17.458,17.458,0,0,1,6.548,6.549Zm-3.1,4.209L8.393,9.432l4.5,4.5-1.645,6.146L5.1,21.721,1.484,18.1a17.411,17.411,0,0,1,1.964-7.345Zm.71,17.333,1.325-4.95L11.626,21.5l4.5,4.5L14.48,32.138,9.532,33.464a17.476,17.476,0,0,1-5.374-5.373Zm26.915,2.982a17.458,17.458,0,0,1-2.393,2l.928-3.465,3.465-.928A17.458,17.458,0,0,1,31.072,31.072Zm3.1-4.209-4.946,1.325-4.5-4.5,1.645-6.146L32.518,15.9l3.619,3.619A17.412,17.412,0,0,1,34.173,26.863Z" transform="translate(0 0)" fill="#bdc4c3"/>
    </g>
  </g>
</svg>
