<svg id="intercom" xmlns="http://www.w3.org/2000/svg" width="37.621" height="37.621" viewBox="0 0 37.621 37.621">
  <path id="Path_1219" data-name="Path 1219" d="M29.635,5H13.176A1.176,1.176,0,0,0,12,6.176V20.284a1.176,1.176,0,0,0,1.176,1.176H29.635a1.176,1.176,0,0,0,1.176-1.176V6.176A1.176,1.176,0,0,0,29.635,5ZM20.23,13.23a1.176,1.176,0,1,1,1.176,1.176A1.178,1.178,0,0,1,20.23,13.23Zm1.176,3.527a3.522,3.522,0,0,1,3.311,2.351H18.1A3.52,3.52,0,0,1,21.405,16.757Zm7.054,2.351H27.165a5.872,5.872,0,0,0-2.844-3.9,3.527,3.527,0,1,0-5.831,0,5.874,5.874,0,0,0-2.844,3.9H14.351V7.351H28.459Z" transform="translate(2.108 0.878)" fill="#bdc4c3"/>
  <path id="Path_1220" data-name="Path 1220" d="M34.094,1.176H10.84A3.509,3.509,0,0,0,8.23,0h-4.7A3.531,3.531,0,0,0,0,3.527V29.391a3.531,3.531,0,0,0,3.527,3.527H4.7a4.707,4.707,0,0,0,4.7,4.7h2.351a4.707,4.707,0,0,0,4.7-4.7V31.743H34.094a3.531,3.531,0,0,0,3.527-3.527V4.7A3.531,3.531,0,0,0,34.094,1.176ZM3.527,30.567a1.178,1.178,0,0,1-1.176-1.176V3.527A1.178,1.178,0,0,1,3.527,2.351h4.7A1.178,1.178,0,0,1,9.405,3.527V29.391A1.178,1.178,0,0,1,8.23,30.567Zm10.581,2.351a2.354,2.354,0,0,1-2.351,2.351H9.405a2.354,2.354,0,0,1-2.351-2.351H8.23a3.509,3.509,0,0,0,2.61-1.176h3.268Zm21.162-4.7a1.178,1.178,0,0,1-1.176,1.176H11.757V3.527H34.094A1.178,1.178,0,0,1,35.27,4.7Z" fill="#bdc4c3"/>
  <path id="Path_1221" data-name="Path 1221" d="M26.351,21H25.176a1.176,1.176,0,0,0,0,2.351h1.176a1.176,1.176,0,0,0,0-2.351Z" transform="translate(4.216 3.689)" fill="#bdc4c3"/>
  <path id="Path_1222" data-name="Path 1222" d="M20.851,21H19.676a1.176,1.176,0,0,0,0,2.351h1.176a1.176,1.176,0,0,0,0-2.351Z" transform="translate(3.25 3.689)" fill="#bdc4c3"/>
  <path id="Path_1223" data-name="Path 1223" d="M15.351,21H14.176a1.176,1.176,0,0,0,0,2.351h1.176a1.176,1.176,0,0,0,0-2.351Z" transform="translate(2.284 3.689)" fill="#bdc4c3"/>
</svg>
