<svg xmlns="http://www.w3.org/2000/svg" width="45.339" height="37.621" viewBox="0 0 45.339 37.621">
  <g id="Group_515" data-name="Group 515" transform="translate(-13315.999 3869)">
    <path id="sneaker" d="M37.191,31.738H35.86l-1.382-3.031a.672.672,0,0,0-.182-1.316h-.419l-.515-1.129a.694.694,0,0,0,.791-.677.676.676,0,0,0-.677-.677h-.732l-.533-1.168H32.5a.677.677,0,1,0,0-1.353h-.9l-.544-1.192h.4a.677.677,0,1,0,0-1.353l-1.024,0-1.2-2.63c-.336-.6-.146-2.553-.192-3.221l5.949-6.284a2.089,2.089,0,0,0-1.5-3.508c-4.256,0-11.43.023-13.411.031-.889-.075-1.655.79-2.27,1.306a1.478,1.478,0,0,0-1.133-.543,1.366,1.366,0,0,0-.981.431l-2.4,2.539c-1.56,1.661-4.718,4.987-6.28,6.647L5.38,16.339a5.026,5.026,0,0,0,.081,7.026c.436.4,4.343,4.411,4.885,4.929l1.36,1.373a.677.677,0,0,0,.429.2l3.31.251.259,3a.676.676,0,0,0,.2.429c1.6,1.528,4.787,4.627,6.378,6.154a7.6,7.6,0,0,0,5.251,2.125H38.551a3.337,3.337,0,0,0,3.333-3.334V36.431a4.7,4.7,0,0,0-4.693-4.693Zm3.34,4.693v.312H33.076a7.189,7.189,0,0,1-5.115-2.122l-16.494-16.5a4.83,4.83,0,0,0,.128-6.373l1.7-1.8c.174,1.32.256,2.938,1.143,4,2.148,2.844,6.095,7.531,9.849,7.229l2.108,0,.513,1.2h-2a.677.677,0,1,0,0,1.353H27.49l.5,1.168H26.311a.677.677,0,1,0,0,1.353h2.257l.483,1.129H27.668a.677.677,0,1,0,0,1.353h1.961l1.683,3.937a.677.677,0,0,0,.622.411h5.257a3.344,3.344,0,0,1,3.34,3.34ZM10.648,12.748a3.431,3.431,0,0,1-.146,4.41L8.432,15.086ZM32.381,31.738,31.1,28.744h1.906l1.365,2.994Zm.009-4.347H30.522l-.483-1.129h1.835Zm-1.132-2.483h-1.8l-.5-1.168h1.763Zm-1.15-2.522H28.384l-.512-1.2,1.692,0Zm-2.815-2.552-1.487-3.479c-.156-.445-.721-.424-1.1-.441l.019-2.22,2.969.024c.049,1.009-.188,3.143.315,4.053l.941,2.065ZM19.612,5.76a.728.728,0,0,1,.472-.178c1.98-.008,9.164-.039,13.4-.031a.72.72,0,0,1,.521,1.224l-5.529,5.839a1.365,1.365,0,0,0-.815-.273H24.72a1.379,1.379,0,0,0-1.378,1.378v2.022a2.827,2.827,0,0,1-1.1-.626L19.5,12.546a2.847,2.847,0,0,1-.9-1.981l-.115-3.829Zm-2.9.592.424.424c.164,6.084-.288,5.194,4.187,9.329a4.794,4.794,0,0,0,3.4,1.167l1.094,2.56-1.56,0c-3.212.4-7.486-5.012-8.732-6.683-.825-.938-.815-3.3-1.027-4.461ZM38.551,40.466H34.973v-1a.677.677,0,1,0-1.353,0v1H27.973V38.033a.677.677,0,1,0-1.353,0v2.358c-2.364-.17-4.388-2.689-6-4.186l1.5-1.5a.676.676,0,1,0-.957-.957l-1.521,1.521-2.616-2.524-.287-3.315a.676.676,0,0,0-.623-.616l-3.632-.275-.711-.717,1.083-1.083a.676.676,0,1,0-.957-.957l-1.078,1.078-3.15-3.178,1.412-1.412a.677.677,0,1,0-.957-.957L6.724,22.717a3.735,3.735,0,0,1-.361-5.449l1.138-1.2L27,35.578A8.533,8.533,0,0,0,33.076,38.1h7.455a2.049,2.049,0,0,1-1.98,2.369Z" transform="translate(13319.454 -3873.198)" fill="#bdc4c3"/>
    <path id="Path_1225" data-name="Path 1225" d="M378.02,440a1,1,0,0,1,0,2H369a1,1,0,1,1,0-2Z" transform="translate(12954.009 -4273.384)" fill="#bdc4c3"/>
    <path id="Path_1226" data-name="Path 1226" d="M476.009,441a1,1,0,0,1-1,1h-2a1,1,0,1,1,0-2h2A1,1,0,0,1,476.009,441Z" transform="translate(12843.998 -4273.384)" fill="#bdc4c3"/>
    <path id="Path_1227" data-name="Path 1227" d="M431.014,393a1,1,0,0,1-1,1H425a1,1,0,1,1,0-2h5.01A1,1,0,0,1,431.014,393Z" transform="translate(12895.004 -4231.395)" fill="#bdc4c3"/>
  </g>
</svg>
