<svg xmlns="http://www.w3.org/2000/svg" width="41.243" height="41.243" viewBox="0 0 41.243 41.243">
  <g id="tennis-racket" transform="translate(0 -0.003)">
    <g id="Group_512" data-name="Group 512" transform="translate(0.001 0.003)">
      <g id="Group_511" data-name="Group 511" transform="translate(0 0)">
        <path id="Path_1217" data-name="Path 1217" d="M38.071,3.176a11.4,11.4,0,0,0-9.4-3.1A16.7,16.7,0,0,0,18.626,5.016q-.371.371-.719.762a5.545,5.545,0,1,0-5.429,7.815,5.612,5.612,0,0,0,1.446-.09,13.441,13.441,0,0,0-.094,5.255H13.82c-.017,1.657-.374,6.27-1.8,7.7L9.124,29.348A1.455,1.455,0,0,0,7.7,29.72l-4.5,4.5a.616.616,0,1,0,.871.871l4.5-4.5a.226.226,0,0,1,.319,0l1.77,1.77a.226.226,0,0,1,0,.319L3.388,39.948a.226.226,0,0,1-.32,0L1.3,38.178a.226.226,0,0,1,0-.32l.743-.743a.616.616,0,1,0-.871-.871l-.743.743a1.458,1.458,0,0,0,0,2.062l1.77,1.77a1.46,1.46,0,0,0,2.062,0l7.268-7.268a1.459,1.459,0,0,0,.371-1.428l2.9-2.9c1.425-1.425,6.039-1.783,7.7-1.8v-.009a12.438,12.438,0,0,0,1.272.17q.538.044,1.082.044a15.068,15.068,0,0,0,6.365-1.471.618.618,0,0,0,.292-.842h0a.614.614,0,0,0-.8-.278,13.544,13.544,0,0,1-6.833,1.319,9.755,9.755,0,0,1-6.205-2.771C15.094,21.026,14.223,17.1,15.3,13.038a5.546,5.546,0,0,0,3.026-5.852,17.142,17.142,0,0,1,1.171-1.3A15.462,15.462,0,0,1,28.791,1.3,10.2,10.2,0,0,1,37.2,4.047c4.373,4.374,3.547,12.314-1.84,17.7a17.016,17.016,0,0,1-2.122,1.8.616.616,0,0,0,.724,1,18.247,18.247,0,0,0,2.27-1.928,16.694,16.694,0,0,0,4.944-10.042A11.405,11.405,0,0,0,38.071,3.176ZM9.8,11.11A4.291,4.291,0,0,1,8.576,8.583a4.316,4.316,0,0,1,3.756,3.758A4.279,4.279,0,0,1,9.8,11.11Zm8.5,14.607a10.568,10.568,0,0,0,1.186.7q-.216.027-.438.059-1.012.144-1.852.348Zm-1.519-1.256q.259.259.534.5l-6.162,6.162-1.032-1.032,6.163-6.163Q16.528,24.2,16.786,24.461Zm-1.255-1.52-1.106,1.106q.2-.84.348-1.852.032-.226.06-.446A10.642,10.642,0,0,0,15.531,22.941ZM15.9,11.11a4.281,4.281,0,0,1-2.336,1.2A5.544,5.544,0,0,0,8.6,7.347a4.3,4.3,0,0,1,3.538-3.538A5.545,5.545,0,0,0,17.1,8.774,4.287,4.287,0,0,1,15.9,11.11Zm-1.3-4.8a4.265,4.265,0,0,1-1.231-2.524,4.3,4.3,0,0,1,3.755,3.755A4.264,4.264,0,0,1,14.608,6.305Z" transform="translate(-0.001 -0.003)" fill="#bdc4c3"/>
      </g>
    </g>
    <g id="Group_514" data-name="Group 514" transform="translate(16.605 2.994)">
      <g id="Group_513" data-name="Group 513">
        <path id="Path_1218" data-name="Path 1218" d="M225.48,39.434a8.473,8.473,0,0,0-6.992-2.243A14.4,14.4,0,0,0,206.182,49.5a8.473,8.473,0,0,0,2.243,6.992,8.2,8.2,0,0,0,5.923,2.3q.526,0,1.069-.054a14.4,14.4,0,0,0,12.305-12.305A8.473,8.473,0,0,0,225.48,39.434Zm-.458,1.329a6.561,6.561,0,0,1,1.217,2.354l-1.786-1.786Zm-13.828,7.2,2.444-2.444,2.444,2.444-2.444,2.444Zm1.572,3.315-2.444,2.444-2.444-2.444,2.444-2.444Zm1.743-6.63,2.443-2.443,2.444,2.444-2.443,2.443Zm2.443,4.187,2.443,2.443-2.444,2.444-2.443-2.443Zm.872-.872,2.443-2.443,2.443,2.443L220.267,50.4Zm3.314-3.315,2.444-2.444,2.443,2.443-2.444,2.444Zm3.012-4.754-.568.568L221.8,38.677A6.559,6.559,0,0,1,224.15,39.892Zm-3.883-1,2.444,2.444-2.444,2.444-2.444-2.444Zm-1.658-.47c.14-.014.28-.024.418-.032l-2.075,2.075-1.314-1.314A11.073,11.073,0,0,1,218.609,38.417Zm-4.166,1.277,1.637,1.637-2.443,2.443-2.056-2.056A13.54,13.54,0,0,1,214.443,39.695Zm-3.734,2.9,2.056,2.056-2.444,2.444-1.637-1.637A13.544,13.544,0,0,1,210.71,42.591Zm-3.3,7.028a11.072,11.072,0,0,1,.729-2.97l1.313,1.313-2.075,2.075C207.384,49.9,207.394,49.759,207.408,49.618Zm1.474,5.542a6.563,6.563,0,0,1-1.217-2.353l1.785,1.785Zm.871.871.568-.568,1.785,1.785A6.562,6.562,0,0,1,209.754,56.031Zm3.883,1-2.443-2.443,2.444-2.444,2.443,2.443Zm1.659.47q-.211.021-.419.032l2.075-2.075,1.314,1.314A11.071,11.071,0,0,1,215.3,57.506Zm4.165-1.277-1.637-1.637,2.444-2.444,2.056,2.056A13.542,13.542,0,0,1,219.461,56.229Zm3.734-2.9-2.056-2.056,2.443-2.443,1.637,1.637A13.546,13.546,0,0,1,223.195,53.332Zm3.3-7.028a11.074,11.074,0,0,1-.729,2.971l-1.314-1.314,2.075-2.075Q226.517,46.094,226.5,46.3Z" transform="translate(-206.129 -37.138)" fill="#bdc4c3"/>
      </g>
    </g>
  </g>
</svg>
