<svg xmlns="http://www.w3.org/2000/svg" width="38.653" height="41.243" viewBox="0 0 38.653 41.243">
  <g id="Layer_16" data-name="Layer 16" transform="translate(-2)">
    <path id="Path_1230" data-name="Path 1230" d="M37.443,21.23V8.377a8.377,8.377,0,0,0-16.755,0V21.219a5.8,5.8,0,0,0-3.234,5.193v5.8H13.477a1.942,1.942,0,0,0-1.166-1.17V25.777a.644.644,0,1,0-1.289,0v5.146H9.733v-10.3h1.289V23.2a.644.644,0,1,0,1.289,0V20.5A1.933,1.933,0,0,0,13.6,18.688v-1.1l5.047-7.571a.644.644,0,0,0-.179-.894,14.506,14.506,0,0,0-8.08-2.684h-.022A14.506,14.506,0,0,0,2.287,9.13a.644.644,0,0,0-.179.894l5.047,7.569v1.1A1.933,1.933,0,0,0,8.444,20.5V31.039a1.933,1.933,0,0,0-1.3,1.818v2.578a1.933,1.933,0,0,0,1.3,1.819V40.6a.644.644,0,0,0,.644.644h2.578a.644.644,0,0,0,.644-.644V37.367h7.076a3.187,3.187,0,0,0,1.946-.671v3.9a.644.644,0,0,0,.644.644l18.032-.009a.644.644,0,0,0,.644-.644V26.412A5.8,5.8,0,0,0,37.443,21.23Zm1.921,5.182v3.231H36.552l-1.687-3.374V21.9a4.515,4.515,0,0,1,4.5,4.51Zm-12.876-.635V23.489a3.818,3.818,0,0,0,5.155-.023v2.311Zm-1.933-4.833a.322.322,0,1,1,.644,0v4.833h-.644Zm3.867-.967V19.3a6.334,6.334,0,0,0,1.289,0v.677a1.933,1.933,0,0,0,1.585,1.9,2.568,2.568,0,0,1-4.482,0A1.933,1.933,0,0,0,28.421,19.977Zm5.155,5.8h-.644V20.944a.322.322,0,1,1,.644,0Zm1.277-5.164h-.023a1.611,1.611,0,0,0-3.154.008h-.033A.644.644,0,0,1,31,19.977v-.941a6.455,6.455,0,0,0,4.511-6.147,1.911,1.911,0,0,0,.644-.119v8A5.811,5.811,0,0,0,34.853,20.613ZM35.51,11.6V10.311a.644.644,0,1,1,0,1.289ZM29.066,1.289a7.1,7.1,0,0,1,7.089,7.089V9.14a1.911,1.911,0,0,0-.644-.119H34a1.924,1.924,0,0,1-.8-.173.644.644,0,1,0-.535,1.172,3.191,3.191,0,0,0,1.335.29h.221v2.578a5.155,5.155,0,1,1-10.311,0V10.311h5.376a3.2,3.2,0,0,0,2.278-.943l.534-.534a.644.644,0,1,0-.911-.911l-.534.534a1.946,1.946,0,0,1-1.367.566H22.621a1.911,1.911,0,0,0-.644.119V8.377A7.1,7.1,0,0,1,29.066,1.289ZM22.621,11.6a.644.644,0,1,1,0-1.289Zm-.644,1.17a1.911,1.911,0,0,0,.644.119,6.455,6.455,0,0,0,4.511,6.147v.941a.644.644,0,0,1-.644.644h-.033a1.611,1.611,0,0,0-3.154-.008h-.047a5.794,5.794,0,0,0-1.277.146ZM18.743,26.412A4.517,4.517,0,0,1,23.254,21.9h.012v4.368l-1.687,3.374H18.743Zm-6.432-7.724a.644.644,0,0,1-.644.644H9.089a.644.644,0,0,1-.644-.644v-.644h3.867ZM5.39,8.865l1.188,2.378a.645.645,0,1,0,1.154-.576l-1.14-2.28a11.676,11.676,0,0,1,3.141-.644v3.212a.644.644,0,0,0,1.289,0V7.746a11.676,11.676,0,0,1,3.141.644l-1.14,2.28a.645.645,0,1,0,1.154.576l1.188-2.378a16.473,16.473,0,0,1,1.844.985l-4.6,6.9H8.144l-4.6-6.9A16.473,16.473,0,0,1,5.39,8.865Zm5.632,31.089H9.733V37.367h1.289Zm10.3-5.809a1.933,1.933,0,0,1-1.933,1.933H9.076a.644.644,0,0,1-.644-.644V32.856a.644.644,0,0,1,.644-.644h2.578a.644.644,0,0,1,.644.644.644.644,0,0,0,.644.644H18.1a.644.644,0,0,0,.644-.644V30.932H21.32Zm1.3-3.705,1.687-3.374h9.514L35.5,30.417v9.537H22.621Zm16.743,9.505H36.8V30.932h2.565Z" transform="translate(0)" fill="#bdc4c3"/>
    <path id="Path_1231" data-name="Path 1231" d="M47.644,17a.644.644,0,0,0-.644.644v.644a.644.644,0,1,0,1.289,0v-.644A.644.644,0,0,0,47.644,17Z" transform="translate(-16.001 -6.045)" fill="#bdc4c3"/>
    <path id="Path_1232" data-name="Path 1232" d="M39.644,17a.644.644,0,0,0-.644.644v.644a.644.644,0,1,0,1.289,0v-.644A.644.644,0,0,0,39.644,17Z" transform="translate(-13.157 -6.045)" fill="#bdc4c3"/>
  </g>
</svg>
