<svg xmlns="http://www.w3.org/2000/svg" width="40.012" height="40.012" viewBox="0 0 40.012 40.012">
  <path id="mosque" d="M41.17,40.079H39.352V10.238A3.854,3.854,0,0,0,40.818,7.5a2.882,2.882,0,0,0-1.59-2.66l-.5-.282a7.53,7.53,0,0,1-2.476-1.833,1.132,1.132,0,0,0-1.8,0,7.53,7.53,0,0,1-2.476,1.833l-.5.282a2.882,2.882,0,0,0-1.59,2.66,3.854,3.854,0,0,0,1.466,2.734v3.2a24.245,24.245,0,0,1-7.178-4.967,3.358,3.358,0,0,0,.927-.738,1.091,1.091,0,1,0-1.66-1.418,1.166,1.166,0,0,1-.9.417,1.2,1.2,0,0,1-.355-2.344A1.091,1.091,0,0,0,21.531,2.3a3.367,3.367,0,0,0-.987,5.946,23.593,23.593,0,0,1-7.382,5.186V10.238A3.854,3.854,0,0,0,14.629,7.5a2.882,2.882,0,0,0-1.59-2.66l-.5-.282a7.53,7.53,0,0,1-2.476-1.834,1.132,1.132,0,0,0-1.8,0A7.53,7.53,0,0,1,5.783,4.561l-.5.282A2.882,2.882,0,0,0,3.694,7.5,3.854,3.854,0,0,0,5.16,10.238V40.079H3.341a1.091,1.091,0,1,0,0,2.182H41.17a1.091,1.091,0,1,0,0-2.182ZM32.56,6.737l.479-.271a13.569,13.569,0,0,0,2.312-1.513,13.569,13.569,0,0,0,2.312,1.513l.479.271c.511.293.5.567.5.684a1.746,1.746,0,0,1-.678,1.146H32.742a1.746,1.746,0,0,1-.678-1.146C32.059,7.3,32.049,7.03,32.56,6.737Zm-10.3,2.879a26.558,26.558,0,0,0,8.772,6.1,5.238,5.238,0,0,1,3.215,4.982A4.529,4.529,0,0,1,32.2,24.552H12.309a4.529,4.529,0,0,1-2.042-3.858,5.238,5.238,0,0,1,3.215-4.982,26.558,26.558,0,0,0,8.773-6.1ZM6.37,6.737l.479-.271A13.569,13.569,0,0,0,9.161,4.953a13.569,13.569,0,0,0,2.312,1.513l.479.271c.511.293.5.567.5.684a1.746,1.746,0,0,1-.678,1.146H6.552a1.746,1.746,0,0,1-.678-1.146C5.87,7.3,5.859,7.03,6.37,6.737Zm.972,4.013H10.98v3.977a7.263,7.263,0,0,0-2.894,6.03A6.717,6.717,0,0,0,10.98,26.3v13.78H7.342Zm5.82,15.985H31.349V40.079H27.712V33.9a5.456,5.456,0,0,0-10.912,0v6.184H13.162Zm5.82,13.345V33.9a3.274,3.274,0,0,1,6.547,0v6.184Zm14.55,0V26.3a6.717,6.717,0,0,0,2.894-5.543,7.263,7.263,0,0,0-2.894-6.03V10.749h3.637v29.33Z" transform="translate(-2.25 -2.25)" fill="#bdc4c3"/>
</svg>
