<svg xmlns="http://www.w3.org/2000/svg" width="40.042" height="40.042" viewBox="0 0 40.042 40.042">
  <g id="power-bank" transform="translate(0)">
    <g id="Page-1_57_" transform="translate(0 0)">
      <g id="_x30_58---Power-Bank" transform="translate(0)">
        <path id="Shape_147_" d="M98.268,165.852a1.387,1.387,0,0,0-.306-2.17l-3.707-2.126-.023-.067,2.022-5.949a1.386,1.386,0,0,0-2.28-1.435l-8.244,8.049a1.388,1.388,0,0,0,.283,2.2l3.732,2.168-1.676,6.114a1.371,1.371,0,0,0,.649,1.572,1.4,1.4,0,0,0,.693.183,1.371,1.371,0,0,0,.988-.425Zm-8.91,7.141,1.674-6.114a1.384,1.384,0,0,0-.651-1.573l-3.734-2.15a.049.049,0,0,1,.015-.045l8.245-8.052.083.055-2.021,5.948a1.387,1.387,0,0,0,.623,1.652l3.707,2.124.011.083-7.868,8.12.479.467Z" transform="translate(-78.639 -141.694)" fill="#bdc4c3"/>
        <path id="Path_96_" d="M46,452.267H43.334a.667.667,0,1,0,0,1.335H46a.667.667,0,1,0,0-1.335Z" transform="translate(-39.33 -416.897)" fill="#bdc4c3"/>
        <path id="Path_95_" d="M250.8,452.267h-2.669a.667.667,0,0,0,0,1.335H250.8a.667.667,0,1,0,0-1.335Z" transform="translate(-228.114 -416.897)" fill="#bdc4c3"/>
        <circle id="Oval_7_" cx="0.667" cy="0.667" r="0.667" transform="translate(8.676 35.37)" fill="#bdc4c3"/>
        <circle id="Oval_6_" cx="0.667" cy="0.667" r="0.667" transform="translate(11.345 35.37)" fill="#bdc4c3"/>
        <circle id="Oval_5_" cx="0.667" cy="0.667" r="0.667" transform="translate(14.015 35.37)" fill="#bdc4c3"/>
        <circle id="Oval_4_" cx="0.667" cy="0.667" r="0.667" transform="translate(16.684 35.37)" fill="#bdc4c3"/>
        <path id="Shape_146_" d="M39.163,19.7A2.656,2.656,0,0,0,36.7,18.019V4.671A4.678,4.678,0,0,0,32.033,0H24.025A4.676,4.676,0,0,0,19.4,4.067a3.337,3.337,0,0,0-2.713,3.274v.667H3.337A3.341,3.341,0,0,0,0,11.345V36.7a3.341,3.341,0,0,0,3.337,3.337H23.358A3.341,3.341,0,0,0,26.694,36.7V11.345a3.341,3.341,0,0,0-3.337-3.337V7.341a3.337,3.337,0,0,0-2.611-3.252,3.337,3.337,0,0,1,3.278-2.754h8.008A3.341,3.341,0,0,1,35.37,4.672V18.019A2.656,2.656,0,0,0,32.912,19.7l-.688,1.72a2.671,2.671,0,0,0-.191.992v3.618a1.33,1.33,0,0,0,.667,1.149V30.7a1.335,1.335,0,0,0,1.335,1.335h4A1.335,1.335,0,0,0,39.374,30.7V27.176a1.33,1.33,0,0,0,.667-1.149V22.409a2.67,2.67,0,0,0-.191-.991Zm-13.8-8.352V36.7a2,2,0,0,1-2,2H3.337a2,2,0,0,1-2-2V11.345a2,2,0,0,1,2-2H23.358A2,2,0,0,1,25.36,11.345Zm-3.337-4v.667h-4V7.341a2,2,0,1,1,4,0ZM33.368,22.409a1.318,1.318,0,0,1,.1-.5l.688-1.72a1.327,1.327,0,0,1,1.239-.839h1.293a1.327,1.327,0,0,1,1.239.839l.688,1.72a1.32,1.32,0,0,1,.1.5v3.618H33.368V22.409Zm.667,8.29V27.362h4V30.7Z" transform="translate(0 0)" fill="#bdc4c3"/>
        <path id="Path_94_" d="M445.735,273.067H444.4a.667.667,0,1,0,0,1.335h1.335a.667.667,0,1,0,0-1.335Z" transform="translate(-409.03 -251.711)" fill="#bdc4c3"/>
      </g>
    </g>
  </g>
</svg>
