<svg xmlns="http://www.w3.org/2000/svg" width="29.794" height="37.621" viewBox="0 0 29.794 37.621">
  <g id="Layer_14" data-name="Layer 14" transform="translate(-8.38 -2.19)">
    <path id="Path_1233" data-name="Path 1233" d="M35.336,2.19H11.218A2.838,2.838,0,0,0,8.38,5.028v2.05a2.838,2.838,0,0,0,2.838,2.838h3.229v2.34l-.53.4c-2.144,1.608-3.816,2.945-4.232,4.226C9.055,18.9,10.272,26.92,11.1,30.073a2.2,2.2,0,0,0-1.261,1.974V37.6a2.207,2.207,0,0,0,2.207,2.207H25.131A2.207,2.207,0,0,0,27.339,37.6V32.035a2.2,2.2,0,0,0-1.949-2.214,9.221,9.221,0,0,0,2.056-5.777h1.823a2.838,2.838,0,0,0,2.838-2.838V9.853h3.229a2.838,2.838,0,0,0,2.838-2.838V5.028A2.838,2.838,0,0,0,35.336,2.19ZM25.447,32.035v5.556a.315.315,0,0,1-.315.315H12.07a.315.315,0,0,1-.315-.315V32.035a.315.315,0,0,1,.315-.315H25.131A.315.315,0,0,1,25.447,32.035Zm-4.692-2.214H12.965c-.631-2.252-1.993-10.779-1.476-12.368.221-.681,1.785-1.936,2.964-2.838V20.36c-.189.221-.334.41-.429.53a.946.946,0,0,0,1.488,1.167c1.766-2.245,4.308-4.415,5.292-4.1.372.126,1,.4,1.091.82a1.57,1.57,0,0,1-.631,1.261c-2.34,2.176-2.781,2.882-2.964,4.743a.946.946,0,0,0,.851,1.034h.095a.946.946,0,0,0,.94-.851,4.642,4.642,0,0,1,.139-.889h5.21C25.384,26.888,24.349,29.821,20.754,29.821Zm1-7.644q.341-.331.795-.757a3.3,3.3,0,0,0,1.173-3.046,3.1,3.1,0,0,0-2.34-2.214c-1.659-.555-3.545.795-5.046,2.2V7.009h8.155v1.5a.946.946,0,0,0,1.892,0V7h1V22.183Zm8.464-.94a.946.946,0,0,1-.946.946V7h.946ZM36.282,7.078a.946.946,0,0,1-.946.946H32.107V7h.87a.946.946,0,0,0,0-1.892H13.583a.946.946,0,1,0,0,1.892h.864V8.024H11.218a.946.946,0,0,1-.946-.946V5.028a.946.946,0,0,1,.946-.946H35.336a.946.946,0,0,1,.946.946ZM26.38,12v1.381a.946.946,0,1,1-1.892,0V12a.946.946,0,1,1,1.892,0ZM16.081,34.81a1.261,1.261,0,1,1-1.261-1.261A1.261,1.261,0,0,1,16.081,34.81Z" transform="translate(0)" fill="#bdc4c3"/>
  </g>
</svg>
