<svg xmlns="http://www.w3.org/2000/svg" width="39.073" height="34.647" viewBox="0 0 39.073 34.647">
  <g id="security-camera" transform="translate(0 0)">
    <path id="Path_1073" data-name="Path 1073" d="M38.574,49.32l-2.4-1.639.666-.532a1.145,1.145,0,0,0-.044-1.822L14.785,29.43a2.288,2.288,0,0,0-3.125.422l-7.234,9a2.291,2.291,0,0,0,.454,3.3l5.5,3.927L8.172,49.217a1.145,1.145,0,0,0,.283,1.6l.787.547a6.923,6.923,0,0,1-4.8,1.94H2.289v-2.48a1.145,1.145,0,1,0-2.289,0V62.5a1.145,1.145,0,1,0,2.289,0V60.171H3.841A14.688,14.688,0,0,0,14.82,55.238l1.145.8a1.145,1.145,0,0,0,1.6-.3l2.074-3.044,4.715,3.367a1.145,1.145,0,0,0,1.38-.037l1.708-1.365,4.442,3.2a1.145,1.145,0,0,0,1.56-.21l5.375-6.661A1.145,1.145,0,0,0,38.574,49.32ZM3.841,57.882H2.289V55.592H4.437a9.212,9.212,0,0,0,6.712-2.9l1.775,1.233a12.48,12.48,0,0,1-9.083,3.961Zm12.482-4.388-5.616-3.9,1.536-2.182,5.532,3.951Zm8.657.2L6.211,40.29l7.234-9L34.235,46.3Zm7.362,1.67L29.3,53.174l5-4,1.955,1.335Z" transform="translate(0 -28.996)" fill="#bdc4c3"/>
    <circle id="Ellipse_95" data-name="Ellipse 95" cx="1.145" cy="1.145" r="1.145" transform="translate(27.549 15.034)" fill="#bdc4c3"/>
  </g>
</svg>
