<svg xmlns="http://www.w3.org/2000/svg" width="36.056" height="34.647" viewBox="0 0 36.056 34.647">
  <g id="swimming-pool" transform="translate(0 -10.001)">
    <g id="Group_494" data-name="Group 494" transform="translate(0 10.001)">
      <g id="Group_493" data-name="Group 493" transform="translate(0)">
        <path id="Path_1198" data-name="Path 1198" d="M35.45,426.223a1.408,1.408,0,0,0-1.96.354c-1.785,2.571-6.98,2.573-8.766,0a1.408,1.408,0,0,0-2.314,0c-1.785,2.571-6.98,2.573-8.766,0a1.408,1.408,0,0,0-2.314,0c-1.785,2.571-6.98,2.573-8.766,0a1.408,1.408,0,1,0-2.314,1.606c2.586,3.725,8.837,4.128,12.237,1.264a9.11,9.11,0,0,0,11.08,0c3.4,2.863,9.653,2.458,12.236-1.264A1.408,1.408,0,0,0,35.45,426.223Z" transform="translate(0 -396.678)" fill="#bdc4c3"/>
        <path id="Path_1199" data-name="Path 1199" d="M79.409,31.548a1.408,1.408,0,0,0,1.408-1.408V28.028H93.494V30.14a1.408,1.408,0,0,0,2.817,0V14.789a1.972,1.972,0,0,1,3.944,0,1.408,1.408,0,0,0,2.817,0,4.789,4.789,0,0,0-9.577,0v4.084H80.818V14.789a1.972,1.972,0,0,1,3.944,0,1.408,1.408,0,0,0,2.817,0,4.789,4.789,0,0,0-9.577,0V30.14A1.408,1.408,0,0,0,79.409,31.548Zm1.408-9.858H93.494v3.521H80.818Z" transform="translate(-72.508 -10.001)" fill="#bdc4c3"/>
        <path id="Path_1200" data-name="Path 1200" d="M12.488,339.453a8.58,8.58,0,0,0,5.54,1.876,8.58,8.58,0,0,0,5.54-1.876c3.4,2.863,9.653,2.457,12.236-1.264a1.408,1.408,0,1,0-2.314-1.606c-1.785,2.571-6.98,2.573-8.766,0a1.408,1.408,0,0,0-2.314,0c-1.785,2.571-6.98,2.573-8.766,0a1.408,1.408,0,0,0-2.314,0c-1.785,2.571-6.98,2.573-8.766,0a1.408,1.408,0,1,0-2.314,1.606C2.837,341.914,9.088,342.317,12.488,339.453Z" transform="translate(0 -313.022)" fill="#bdc4c3"/>
      </g>
    </g>
  </g>
</svg>
