<svg xmlns="http://www.w3.org/2000/svg" width="40.713" height="40.708" viewBox="0 0 40.713 40.708">
  <g id="park" transform="translate(0 -0.036)">
    <g id="Group_496" data-name="Group 496" transform="translate(0 0.036)">
      <g id="Group_495" data-name="Group 495" transform="translate(0 0)">
        <path id="Path_1203" data-name="Path 1203" d="M37.135,33.507H34.591a2.248,2.248,0,0,1-2.2-1.8l-.515-2.572a9.427,9.427,0,0,0-8.022-7.477v-7.52A3.575,3.575,0,0,0,24.81,7.9L15.269.747a3.6,3.6,0,0,0-4.294,0L1.433,7.9a3.581,3.581,0,0,0,.954,6.238V39.551a1.193,1.193,0,0,0,2.386,0V28.736H9.281c-1.195,6.032-1.758,8.889-2.1,10.58a1.193,1.193,0,0,0,2.339.468l.285-1.427h6.632l.285,1.427a1.193,1.193,0,0,0,2.339-.468c-.361-1.788-.954-4.792-2.1-10.58h4.509V39.551a1.193,1.193,0,0,0,2.386,0V29.085a2.242,2.242,0,0,1,1.005,1.454l.515,2.572a9.462,9.462,0,0,0,9.215,7.634h2.544a3.5,3.5,0,0,0,2.549-1.107,3.678,3.678,0,0,0,1.029-2.551A3.582,3.582,0,0,0,37.135,33.507ZM10.282,35.972l.477-2.465h4.724l.477,2.465Zm.954-4.85.477-2.385h2.815l.477,2.385Zm10.234-4.771H4.772V14.141a3.591,3.591,0,0,0,.954-.513l7.395-5.546,7.394,5.546a3.579,3.579,0,0,0,.955.513C21.471,16.055,21.471,25.056,21.471,26.351Zm2.146-14.869a1.191,1.191,0,0,1-1.67.238l-8.11-6.083a1.193,1.193,0,0,0-1.431,0L4.295,11.72A1.193,1.193,0,0,1,2.864,9.812l9.542-7.156a1.2,1.2,0,0,1,1.432,0L23.38,9.812A1.191,1.191,0,0,1,23.617,11.482ZM37.135,38.358H34.591a7.071,7.071,0,0,1-6.876-5.716L27.2,30.07a4.644,4.644,0,0,0-3.344-3.562v-2.44A7.034,7.034,0,0,1,29.539,29.6l.515,2.572a4.64,4.64,0,0,0,4.537,3.719h2.545a1.194,1.194,0,0,1,1.193,1.193A1.267,1.267,0,0,1,37.135,38.358Z" transform="translate(0 -0.036)" fill="#bdc4c3"/>
      </g>
    </g>
    <g id="Group_498" data-name="Group 498" transform="translate(7.158 13.231)">
      <g id="Group_497" data-name="Group 497">
        <path id="Path_1204" data-name="Path 1204" d="M95.974,165.969a5.964,5.964,0,1,0,5.964,5.964A5.97,5.97,0,0,0,95.974,165.969Zm0,9.542a3.578,3.578,0,1,1,3.578-3.578A3.582,3.582,0,0,1,95.974,175.511Z" transform="translate(-90.01 -165.969)" fill="#bdc4c3"/>
      </g>
    </g>
  </g>
</svg>
