<svg xmlns="http://www.w3.org/2000/svg" width="36.959" height="36.958" viewBox="0 0 36.959 36.958">
  <g id="club" transform="translate(0.001 -0.004)">
    <path id="Path_1205" data-name="Path 1205" d="M28.262,20.114a3.8,3.8,0,1,1,3.8-3.8A3.8,3.8,0,0,1,28.262,20.114Zm0-2.174a1.63,1.63,0,1,0-1.63-1.63A1.63,1.63,0,0,0,28.262,17.94Zm-9.783-1.63a4.348,4.348,0,1,1,4.348-4.348A4.348,4.348,0,0,1,18.479,16.309Zm0-2.174A2.174,2.174,0,1,0,16.3,11.961,2.174,2.174,0,0,0,18.479,14.135Zm0,13.917L16.3,31.313v4.562a1.087,1.087,0,1,1-2.174,0V30.984a1.087,1.087,0,0,1,.183-.6l3.078-4.618V20.2a4.949,4.949,0,0,0-2.717,1.424V25A1.087,1.087,0,0,1,12.5,25V21.2a1.087,1.087,0,0,1,.269-.716,7.288,7.288,0,0,1,5.71-2.545,7.288,7.288,0,0,1,5.71,2.545,1.087,1.087,0,0,1,.269.716V25a1.087,1.087,0,1,1-2.174,0V21.628A4.948,4.948,0,0,0,19.566,20.2v5.559l3.078,4.618a1.087,1.087,0,0,1,.183.6v4.892a1.087,1.087,0,1,1-2.174,0V31.313ZM8.7,20.114a3.8,3.8,0,1,1,3.8-3.8,3.8,3.8,0,0,1-3.8,3.8Zm0-2.174a1.63,1.63,0,1,0-1.63-1.63A1.63,1.63,0,0,0,8.7,17.94Zm0,12.568-1.63,1.957v3.411a1.087,1.087,0,1,1-2.174,0v-3.8a1.087,1.087,0,0,1,.252-.7l2.466-2.959V24.009a4.949,4.949,0,0,0-2.717,1.424v2.29a1.087,1.087,0,1,1-2.174,0V25.005a1.087,1.087,0,0,1,.269-.716A7.288,7.288,0,0,1,8.7,21.744a1.087,1.087,0,0,1,1.087,1.087v5.585l2.466,2.959a1.087,1.087,0,0,1,.252.7v3.8a1.087,1.087,0,0,1-2.174,0V32.464Zm19.566,0-1.63,1.957v3.411a1.087,1.087,0,1,1-2.174,0v-3.8a1.087,1.087,0,0,1,.252-.7l2.466-2.959V22.831a1.087,1.087,0,0,1,1.087-1.087,7.288,7.288,0,0,1,5.71,2.545,1.087,1.087,0,0,1,.269.716v2.717a1.087,1.087,0,0,1-2.174,0v-2.29a4.948,4.948,0,0,0-2.717-1.424v4.407l2.466,2.959a1.087,1.087,0,0,1,.252.7v3.8a1.087,1.087,0,1,1-2.174,0V32.464ZM1.522,9.7A1.087,1.087,0,0,1,.651,7.7L18.043.1a1.087,1.087,0,0,1,.871,0L36.306,7.7A1.087,1.087,0,1,1,35.435,9.7L18.479,2.277Z" transform="translate(0 0)" fill="#bdc4c3"/>
  </g>
</svg>
