<svg xmlns="http://www.w3.org/2000/svg" width="41" height="41.002" viewBox="0 0 41 41.002">
  <g id="coffee-cup" transform="translate(0 0.001)">
    <path id="Path_1206" data-name="Path 1206" d="M16.375,30.208A15.394,15.394,0,0,1,1,14.833V8.854A.854.854,0,0,1,1.854,8H30.9a.854.854,0,0,1,.854.854v5.979A15.394,15.394,0,0,1,16.375,30.208ZM2.708,9.708v5.125a13.667,13.667,0,0,0,27.333,0V9.708Z" transform="translate(0.708 5.668)" fill="#bdc4c3"/>
    <path id="Path_1207" data-name="Path 1207" d="M23.185,21.958H17.563a.854.854,0,1,1,0-1.708h5.622a4.271,4.271,0,0,0,0-8.542H19.769a.854.854,0,0,1,0-1.708h3.417a5.979,5.979,0,0,1,0,11.958Z" transform="translate(11.836 7.084)" fill="#bdc4c3"/>
    <path id="Path_1208" data-name="Path 1208" d="M8.4,10.25A.854.854,0,0,1,7.9,8.7a1.566,1.566,0,0,0,.765-1.372A1.919,1.919,0,0,0,7.441,5.894a3.558,3.558,0,0,1-2.18-2.826A3.24,3.24,0,0,1,6.728.163a.854.854,0,0,1,1,1.384,1.568,1.568,0,0,0-.767,1.372A1.919,1.919,0,0,0,8.184,4.357a3.558,3.558,0,0,1,2.18,2.826A3.243,3.243,0,0,1,8.9,10.09a.858.858,0,0,1-.5.161Z" transform="translate(3.718 0.001)" fill="#bdc4c3"/>
    <path id="Path_1209" data-name="Path 1209" d="M13.149,10.251a.854.854,0,0,1-.5-1.546,1.566,1.566,0,0,0,.765-1.372,1.919,1.919,0,0,0-1.221-1.438,3.558,3.558,0,0,1-2.18-2.826A3.243,3.243,0,0,1,11.476.162a.854.854,0,1,1,1,1.384,1.566,1.566,0,0,0-.765,1.372,1.919,1.919,0,0,0,1.221,1.438,3.558,3.558,0,0,1,2.18,2.826,3.243,3.243,0,0,1-1.466,2.908A.848.848,0,0,1,13.149,10.251Z" transform="translate(7.083 0)" fill="#bdc4c3"/>
    <path id="Path_1210" data-name="Path 1210" d="M29.9,26.833H4.271A4.277,4.277,0,0,1,0,22.563V20.854A.854.854,0,0,1,.854,20H33.313a.854.854,0,0,1,.854.854v1.708A4.277,4.277,0,0,1,29.9,26.833ZM1.708,21.708v.854a2.566,2.566,0,0,0,2.563,2.563H29.9a2.566,2.566,0,0,0,2.563-2.562v-.854Z" transform="translate(0 14.168)" fill="#bdc4c3"/>
  </g>
</svg>
